<svg width="430" height="268" viewBox="0 0 430 268" xmlns="http://www.w3.org/2000/svg" xmlns:xlink="http://www.w3.org/1999/xlink"><defs><path d="M94 92h16a6 6 0 0 1 6 6v16a6 6 0 0 1-6 6H94a6 6 0 0 1-6-6V98a6 6 0 0 1 6-6z" id="a"/><mask id="d" x="0" y="0" width="28" height="28" fill="#fff"><use xlink:href="#a"/></mask><path d="M182 48h16a6 6 0 0 1 6 6v16a6 6 0 0 1-6 6h-16a6 6 0 0 1-6-6V54a6 6 0 0 1 6-6z" id="b"/><mask id="e" x="0" y="0" width="28" height="28" fill="#fff"><use xlink:href="#b"/></mask><path d="M138 180h16a6 6 0 0 1 6 6v16a6 6 0 0 1-6 6h-16a6 6 0 0 1-6-6v-16a6 6 0 0 1 6-6z" id="c"/><mask id="f" x="0" y="0" width="28" height="28" fill="#fff"><use xlink:href="#c"/></mask></defs><g transform="translate(91 6)" fill="none" fill-rule="evenodd"><path d="M235 54a2 2 0 0 1 0-4h2c1.636 0 3.23.329 4.705.958a2 2 0 0 1-1.57 3.68A7.968 7.968 0 0 0 237 54h-2zm10 8.39a2 2 0 0 1 4 0v6a2 2 0 0 1-4 0v-6zm0 18a2 2 0 0 1 4 0v6a2 2 0 0 1-4 0v-6zm0 18a2 2 0 0 1 4 0v6a2 2 0 0 1-4 0v-6zm0 18a2 2 0 1 1 4 0v6a2 2 0 0 1-4 0v-6zm0 18a2 2 0 1 1 4 0v6a2 2 0 0 1-4 0v-6zm0 18a2 2 0 1 1 4 0v6a2 2 0 0 1-4 0v-6zm0 18a2 2 0 1 1 4 0v6a2 2 0 0 1-4 0v-6zm0 18a2 2 0 1 1 4 0v6a2 2 0 0 1-4 0v-6zm0 18a2 2 0 1 1 4 0v6a2 2 0 0 1-4 0v-6zm0 18a2 2 0 1 1 4 0v6a2 2 0 0 1-4 0v-6zm0 18a2 2 0 1 1 4 0V244c0 1.8-.398 3.548-1.155 5.142a2 2 0 1 1-3.613-1.715A7.96 7.96 0 0 0 245 244v-1.61zm-8.782 9.61a2 2 0 1 1 0 4h-6a2 2 0 0 1 0-4h6zm-18 0a2 2 0 1 1 0 4h-6a2 2 0 0 1 0-4h6zm-18 0a2 2 0 1 1 0 4h-6a2 2 0 0 1 0-4h6zm-18 0a2 2 0 1 1 0 4h-6a2 2 0 0 1 0-4h6zm-18 0a2 2 0 1 1 0 4h-6a2 2 0 0 1 0-4h6zm-18 0a2 2 0 1 1 0 4h-6a2 2 0 0 1 0-4h6zm-18 0a2 2 0 1 1 0 4h-6a2 2 0 0 1 0-4h6zm-18 0a2 2 0 1 1 0 4h-6a2 2 0 0 1 0-4h6zm-18 0a2 2 0 0 1 0 4h-6a2 2 0 0 1 0-4h6zm-18 0a2 2 0 0 1 0 4h-6a2 2 0 0 1 0-4h6zm-18 0a2 2 0 0 1 0 4H55c-1.966 0-3.868-.475-5.574-1.37a2 2 0 1 1 1.86-3.542A7.96 7.96 0 0 0 55 252h1.218zM47 242.827a2 2 0 1 1-4 0v-6a2 2 0 0 1 4 0v6zM12 4a2 2 0 1 1 0-4h6a2 2 0 1 1 0 4h-6zm18 0a2 2 0 1 1 0-4h6a2 2 0 1 1 0 4h-6zm18 0a2 2 0 1 1 0-4h6a2 2 0 1 1 0 4h-6zm18 0a2 2 0 1 1 0-4h6a2 2 0 1 1 0 4h-6zm18 0a2 2 0 1 1 0-4h6a2 2 0 1 1 0 4h-6zm18 0a2 2 0 0 1 0-4h6a2 2 0 0 1 0 4h-6zm18 0a2 2 0 0 1 0-4h6a2 2 0 0 1 0 4h-6zm18 0a2 2 0 0 1 0-4h6a2 2 0 0 1 0 4h-6zm18 0a2 2 0 0 1 0-4h6a2 2 0 0 1 0 4h-6zm18 0a2 2 0 0 1 0-4h6a2 2 0 0 1 0 4h-6zm18 0a2 2 0 0 1 0-4h2c1.636 0 3.23.329 4.705.958a2 2 0 0 1-1.57 3.68A7.968 7.968 0 0 0 194 4h-2zm10 8.39a2 2 0 0 1 4 0v6a2 2 0 0 1-4 0v-6zM13.218 202a2 2 0 0 1 0 4H12c-1.966 0-3.868-.475-5.574-1.37a2 2 0 1 1 1.86-3.542A7.96 7.96 0 0 0 12 202h1.218zM4 192.827a2 2 0 1 1-4 0v-6a2 2 0 0 1 4 0v6zm0-18a2 2 0 1 1-4 0v-6a2 2 0 0 1 4 0v6zm0-18a2 2 0 1 1-4 0v-6a2 2 0 0 1 4 0v6zm0-18a2 2 0 1 1-4 0v-6a2 2 0 0 1 4 0v6zm0-18a2 2 0 1 1-4 0v-6a2 2 0 0 1 4 0v6zm0-18a2 2 0 1 1-4 0v-6a2 2 0 1 1 4 0v6zm0-18a2 2 0 1 1-4 0v-6a2 2 0 1 1 4 0v6zm0-18a2 2 0 1 1-4 0v-6a2 2 0 1 1 4 0v6zm0-18a2 2 0 1 1-4 0v-6a2 2 0 1 1 4 0v6zm0-18a2 2 0 1 1-4 0v-6a2 2 0 1 1 4 0v6zm0-18a2 2 0 1 1-4 0V12c0-2.133.559-4.189 1.604-5.998a2 2 0 0 1 3.464 2.002A7.953 7.953 0 0 0 4 12v.827zM33 29a2 2 0 1 1 0-4h6a2 2 0 1 1 0 4h-6zm18 0a2 2 0 1 1 0-4h6a2 2 0 1 1 0 4h-6zm18 0a2 2 0 1 1 0-4h6a2 2 0 1 1 0 4h-6zm18 0a2 2 0 1 1 0-4h6a2 2 0 1 1 0 4h-6zm18 0a2 2 0 0 1 0-4h6a2 2 0 0 1 0 4h-6zm18 0a2 2 0 0 1 0-4h6a2 2 0 0 1 0 4h-6zm18 0a2 2 0 0 1 0-4h6a2 2 0 0 1 0 4h-6zm18 0a2 2 0 0 1 0-4h6a2 2 0 0 1 0 4h-6zm18 0a2 2 0 0 1 0-4h6a2 2 0 0 1 0 4h-6zm18 0a2 2 0 0 1 0-4h6a2 2 0 0 1 0 4h-6zm18 0a2 2 0 0 1 0-4h2c1.636 0 3.23.329 4.705.958a2 2 0 0 1-1.57 3.68A7.968 7.968 0 0 0 215 29h-2zm10 8.39a2 2 0 0 1 4 0v6a2 2 0 0 1-4 0v-6zm0 18a2 2 0 0 1 4 0v6a2 2 0 0 1-4 0v-6zm0 18a2 2 0 0 1 4 0v6a2 2 0 0 1-4 0v-6zm0 18a2 2 0 0 1 4 0v6a2 2 0 0 1-4 0v-6zm0 18a2 2 0 1 1 4 0v6a2 2 0 0 1-4 0v-6zm0 18a2 2 0 1 1 4 0v6a2 2 0 0 1-4 0v-6zm0 18a2 2 0 1 1 4 0v6a2 2 0 0 1-4 0v-6zm0 18a2 2 0 1 1 4 0v6a2 2 0 0 1-4 0v-6zm0 18a2 2 0 1 1 4 0v6a2 2 0 0 1-4 0v-6zm0 18a2 2 0 1 1 4 0v6a2 2 0 0 1-4 0v-6zm0 18a2 2 0 1 1 4 0V219c0 1.8-.398 3.548-1.155 5.142a2 2 0 1 1-3.613-1.715A7.96 7.96 0 0 0 223 219v-1.61zm-8.782 9.61a2 2 0 1 1 0 4h-6a2 2 0 0 1 0-4h6zm-18 0a2 2 0 1 1 0 4h-6a2 2 0 0 1 0-4h6zm-18 0a2 2 0 1 1 0 4h-6a2 2 0 0 1 0-4h6zm-18 0a2 2 0 1 1 0 4h-6a2 2 0 0 1 0-4h6zm-18 0a2 2 0 1 1 0 4h-6a2 2 0 0 1 0-4h6zm-18 0a2 2 0 1 1 0 4h-6a2 2 0 0 1 0-4h6zm-18 0a2 2 0 1 1 0 4h-6a2 2 0 0 1 0-4h6zm-18 0a2 2 0 0 1 0 4h-6a2 2 0 0 1 0-4h6zm-18 0a2 2 0 0 1 0 4h-6a2 2 0 0 1 0-4h6zm-18 0a2 2 0 0 1 0 4h-6a2 2 0 0 1 0-4h6zm-18 0a2 2 0 0 1 0 4H33c-1.966 0-3.868-.475-5.574-1.37a2 2 0 1 1 1.86-3.542A7.96 7.96 0 0 0 33 227h1.218zM25 217.827a2 2 0 1 1-4 0v-6a2 2 0 0 1 4 0v6zm0-18a2 2 0 1 1-4 0v-6a2 2 0 0 1 4 0v6zm0-18a2 2 0 1 1-4 0v-6a2 2 0 0 1 4 0v6zm0-18a2 2 0 1 1-4 0v-6a2 2 0 0 1 4 0v6zm0-18a2 2 0 1 1-4 0v-6a2 2 0 0 1 4 0v6zm0-18a2 2 0 1 1-4 0v-6a2 2 0 0 1 4 0v6zm0-18a2 2 0 1 1-4 0v-6a2 2 0 0 1 4 0v6zm0-18a2 2 0 1 1-4 0v-6a2 2 0 1 1 4 0v6zm0-18a2 2 0 1 1-4 0v-6a2 2 0 1 1 4 0v6zm0-18a2 2 0 1 1-4 0v-6a2 2 0 1 1 4 0v6zm0-18a2 2 0 1 1-4 0V37c0-2.133.559-4.189 1.604-5.998a2 2 0 1 1 3.464 2.002A7.953 7.953 0 0 0 25 37v.827z" fill="#EEE" fill-rule="nonzero"/><path d="M50 52a2 2 0 1 1 0-4h1a2 2 0 1 1 0 4h-1zm2 0a2 2 0 1 1 0-4h1a2 2 0 1 1 0 4h-1zm2 0a2 2 0 1 1 0-4h1a2 2 0 1 1 0 4h-1zm2 0a2 2 0 1 1 0-4h1a2 2 0 1 1 0 4h-1zm2 0a2 2 0 1 1 0-4h1a2 2 0 1 1 0 4h-1zm2 0a2 2 0 1 1 0-4h1a2 2 0 1 1 0 4h-1zm2 0a2 2 0 1 1 0-4h1a2 2 0 1 1 0 4h-1zm2 0a2 2 0 1 1 0-4h1a2 2 0 1 1 0 4h-1zm2 0a2 2 0 1 1 0-4c.505 0 1.004.063 1.487.186a2 2 0 1 1-.99 3.876A2.008 2.008 0 0 0 66 52zm.967.248a2 2 0 0 1 1.94-3.498c.438.243.844.54 1.209.884a2 2 0 0 1-2.744 2.91 2.013 2.013 0 0 0-.405-.296zm.729.69a2 2 0 1 1 3.386-2.128c.267.425.48.882.634 1.362a2 2 0 0 1-3.81 1.218 1.981 1.981 0 0 0-.21-.451zm.303.994a2 2 0 1 1 3.998-.13l.003.188v.887a2 2 0 1 1-4 0v-.882l-.001-.063zM68 55.877a2 2 0 1 1 4 0v1a2 2 0 1 1-4 0v-1zm0 2a2 2 0 1 1 4 0v1a2 2 0 1 1-4 0v-1zm0 2a2 2 0 1 1 4 0v1a2 2 0 1 1-4 0v-1zm0 2a2 2 0 1 1 4 0v1a2 2 0 1 1-4 0v-1zm0 2a2 2 0 1 1 4 0v1a2 2 0 1 1-4 0v-1zm0 2a2 2 0 1 1 4 0v1a2 2 0 1 1-4 0v-1zm0 2a2 2 0 1 1 4 0v1a2 2 0 1 1-4 0v-1zm0 2a2 2 0 1 1 4 0V70a6 6 0 0 1-.143 1.306 2 2 0 1 1-3.905-.868c.032-.142.048-.288.048-.438v-.123zm-.219 1.034a2 2 0 0 1 3.559 1.828c-.23.446-.514.862-.846 1.237a2 2 0 1 1-2.995-2.651c.11-.126.206-.265.282-.414zm-.666.75a2 2 0 1 1 2.234 3.318c-.416.28-.866.508-1.34.676a2 2 0 0 1-1.34-3.77c.158-.055.307-.13.446-.224zm-.98.335a2 2 0 0 1 .26 3.991 6.123 6.123 0 0 1-.376.013h-.773a2 2 0 0 1 0-4h.764c.042 0 .083-.002.124-.004zm-1.89.004a2 2 0 1 1 0 4h-1a2 2 0 1 1 0-4h1zm-2 0a2 2 0 1 1 0 4h-1a2 2 0 1 1 0-4h1zm-2 0a2 2 0 1 1 0 4h-1a2 2 0 1 1 0-4h1zm-2 0a2 2 0 1 1 0 4h-1a2 2 0 1 1 0-4h1zm-2 0a2 2 0 1 1 0 4h-1a2 2 0 1 1 0-4h1zm-2 0a2 2 0 1 1 0 4h-1a2 2 0 1 1 0-4h1zm-2 0a2 2 0 1 1 0 4h-1a2 2 0 1 1 0-4h1zm-2 0a2 2 0 1 1 0 4H50a6.02 6.02 0 0 1-1.124-.105 2 2 0 1 1 .746-3.93c.123.023.25.035.378.035h.246zm-1.1-.19a2 2 0 0 1-1.714 3.613 6.003 6.003 0 0 1-1.264-.807 2 2 0 0 1 2.557-3.076c.129.107.27.198.421.27zm-.776-.652a2 2 0 1 1-3.257 2.322 5.99 5.99 0 0 1-.712-1.322 2 2 0 0 1 3.733-1.439c.06.156.139.303.236.44zm-.36-.957a2 2 0 1 1-3.98.391A6.108 6.108 0 0 1 44 70.03v-.66a2 2 0 1 1 4 0v.645c0 .063.004.125.01.187zM48 68.369a2 2 0 1 1-4 0v-1a2 2 0 1 1 4 0v1zm0-2a2 2 0 1 1-4 0v-1a2 2 0 1 1 4 0v1zm0-2a2 2 0 1 1-4 0v-1a2 2 0 1 1 4 0v1zm0-2a2 2 0 1 1-4 0v-1a2 2 0 1 1 4 0v1zm0-2a2 2 0 1 1-4 0v-1a2 2 0 1 1 4 0v1zm0-2a2 2 0 1 1-4 0v-1a2 2 0 1 1 4 0v1zm0-2a2 2 0 1 1-4 0v-1a2 2 0 1 1 4 0v1zm0-2a2 2 0 1 1-4 0V54c0-.317.025-.631.074-.941a2 2 0 0 1 3.95.624A2.03 2.03 0 0 0 48 54v.369zm.165-1.167a2 2 0 1 1-3.667-1.598c.201-.46.459-.894.767-1.29a2 2 0 0 1 3.155 2.459 1.998 1.998 0 0 0-.255.43zm.66-.821a2 2 0 1 1-2.354-3.234 5.992 5.992 0 0 1 1.314-.724 2 2 0 1 1 1.477 3.717 1.992 1.992 0 0 0-.437.241zm.909-.364a2 2 0 0 1-.523-3.965c.242-.032.487-.05.734-.052a2 2 0 1 1 .036 4c-.084 0-.166.007-.247.017z" fill="#FEF0E8" fill-rule="nonzero"/><path d="M50 92h16a6 6 0 0 1 6 6v16a6 6 0 0 1-6 6H50a6 6 0 0 1-6-6V98a6 6 0 0 1 6-6z" fill="#FC6D26"/><path d="M94 136h16a6 6 0 0 1 6 6v16a6 6 0 0 1-6 6H94a6 6 0 0 1-6-6v-16a6 6 0 0 1 6-6z" fill="#FEF0E8"/><path d="M94 48h16a6 6 0 0 1 6 6v16a6 6 0 0 1-6 6H94a6 6 0 0 1-6-6V54a6 6 0 0 1 6-6z" fill="#E1DBF1"/><use stroke="#FEE1D3" mask="url(#d)" stroke-width="8" fill="#FEF0E8" stroke-linecap="round" stroke-linejoin="round" stroke-dasharray="1" xlink:href="#a"/><circle fill="#FEE1D3" cx="102" cy="106" r="5"/><path d="M50.571 181H65.43a5.571 5.571 0 0 1 5.57 5.571v14.858A5.571 5.571 0 0 1 65.429 207H50.57a5.571 5.571 0 0 1-5.57-5.571V186.57a5.571 5.571 0 0 1 5.571-5.57z" stroke="#FEF0E8" stroke-width="4" stroke-linecap="round" stroke-linejoin="round" stroke-dasharray="1"/><path d="M139.143 52a2 2 0 0 1 0-4h1a2 2 0 1 1 0 4h-1zm2 0a2 2 0 0 1 0-4h1a2 2 0 1 1 0 4h-1zm2 0a2 2 0 0 1 0-4h1a2 2 0 1 1 0 4h-1zm2 0a2 2 0 0 1 0-4h1a2 2 0 1 1 0 4h-1zm2 0a2 2 0 0 1 0-4h1a2 2 0 1 1 0 4h-1zm2 0a2 2 0 0 1 0-4h1a2 2 0 1 1 0 4h-1zm2 0a2 2 0 0 1 0-4h1a2 2 0 1 1 0 4h-1zm1.89.005a2 2 0 1 1 .219-3.994c.466.025.925.096 1.373.21a2 2 0 1 1-.988 3.876 3.136 3.136 0 0 0-.604-.092zm1.185.304a2 2 0 0 1 1.736-3.604c.418.201.816.443 1.187.722a2 2 0 1 1-2.4 3.2 3.142 3.142 0 0 0-.523-.318zm.987.745a2 2 0 0 1 2.987-2.661c.308.346.582.721.818 1.12a2 2 0 1 1-3.444 2.035 3.16 3.16 0 0 0-.361-.494zm.628 1.073a2 2 0 1 1 3.786-1.291c.15.438.256.891.318 1.354a2 2 0 1 1-3.965.53 3.11 3.11 0 0 0-.14-.593zm.167 1.43a2 2 0 0 1 4 0v1a2 2 0 0 1-4 0v-1zm0 2a2 2 0 0 1 4 0v1a2 2 0 0 1-4 0v-1zm0 2a2 2 0 0 1 4 0v1a2 2 0 0 1-4 0v-1zm0 2a2 2 0 0 1 4 0v1a2 2 0 0 1-4 0v-1zm0 2a2 2 0 0 1 4 0v1a2 2 0 0 1-4 0v-1zm0 2a2 2 0 0 1 4 0v1a2 2 0 0 1-4 0v-1zm0 2a2 2 0 0 1 4 0v1a2 2 0 0 1-4 0v-1zm-.029 1.729a2 2 0 0 1 3.964.537 7.11 7.11 0 0 1-.32 1.354 2 2 0 0 1-3.784-1.299 3.11 3.11 0 0 0 .14-.592zm-.402 1.161a2 2 0 0 1 3.447 2.029 7.16 7.16 0 0 1-.816 1.122 2 2 0 1 1-2.991-2.656 3.16 3.16 0 0 0 .36-.495zm-.813.915a2 2 0 1 1 2.42 3.185 7.21 7.21 0 0 1-1.182.729 2 2 0 0 1-1.758-3.593c.183-.09.357-.197.52-.321zm-1.138.546a2 2 0 1 1 .964 3.882 7.14 7.14 0 0 1-1.374.201 2 2 0 1 1-.194-3.995c.206-.01.408-.04.604-.088zM152.03 72a2 2 0 1 1 0 4h-1a2 2 0 0 1 0-4h1zm-2 0a2 2 0 1 1 0 4h-1a2 2 0 0 1 0-4h1zm-2 0a2 2 0 1 1 0 4h-1a2 2 0 0 1 0-4h1zm-2 0a2 2 0 1 1 0 4h-1a2 2 0 0 1 0-4h1zm-2 0a2 2 0 1 1 0 4h-1a2 2 0 0 1 0-4h1zm-2 0a2 2 0 1 1 0 4h-1a2 2 0 0 1 0-4h1zm-2 0a2 2 0 1 1 0 4h-.887c-.078 0-.078 0-.155-.002a2 2 0 1 1 .155-3.998h.887zm-1.565-.073a2 2 0 0 1-.857 3.907 7.104 7.104 0 0 1-1.323-.43 2 2 0 0 1 1.601-3.665c.186.082.38.144.579.188zm-1.134-.501a2 2 0 0 1-2.31 3.265 7.17 7.17 0 0 1-1.05-.906 2 2 0 1 1 2.896-2.76c.142.148.297.283.464.4zm-.842-.884a2 2 0 0 1-3.374 2.15 7.125 7.125 0 0 1-.629-1.24 2 2 0 1 1 3.727-1.454c.074.19.166.372.276.544zm-.45-1.186a2 2 0 1 1-3.95.628 7.232 7.232 0 0 1-.089-1.07v-.295a2 2 0 1 1 4-.004v.277c.002.157.015.312.04.464zM136 67.617a2 2 0 0 1-4 0v-1a2 2 0 0 1 4 0v1zm0-2a2 2 0 0 1-4 0v-1a2 2 0 0 1 4 0v1zm0-2a2 2 0 0 1-4 0v-1a2 2 0 0 1 4 0v1zm0-2a2 2 0 0 1-4 0v-1a2 2 0 0 1 4 0v1zm0-2a2 2 0 0 1-4 0v-1a2 2 0 0 1 4 0v1zm0-2a2 2 0 0 1-4 0v-1a2 2 0 0 1 4 0v1zm0-2a2 2 0 0 1-4 0v-.474c0-.244.012-.486.037-.727a2 2 0 0 1 3.98.404 2.874 2.874 0 0 0-.017.323v.474zm.137-1.397a2 2 0 1 1-3.824-1.173 7.04 7.04 0 0 1 .536-1.283 2 2 0 1 1 3.523 1.894 3.076 3.076 0 0 0-.235.562zm.6-1.1a2 2 0 0 1-3.058-2.578c.299-.354.63-.679.992-.97a2 2 0 0 1 2.506 3.119c-.16.128-.307.272-.44.428zm.947-.762a2 2 0 0 1-1.861-3.54 7.11 7.11 0 0 1 1.289-.525 2 2 0 0 1 1.136 3.836 3.11 3.11 0 0 0-.564.229zm1.229-.35a2 2 0 1 1-.287-3.99c.16-.01.319-.017.48-.018a2 2 0 1 1 .02 4c-.072 0-.143.003-.213.008z" fill="#EFEDF8" fill-rule="nonzero"/><path d="M138 92h16a6 6 0 0 1 6 6v16a6 6 0 0 1-6 6h-16a6 6 0 0 1-6-6V98a6 6 0 0 1 6-6z" fill="#FEF0E8"/><path d="M138 136h16a6 6 0 0 1 6 6v16a6 6 0 0 1-6 6h-16a6 6 0 0 1-6-6v-16a6 6 0 0 1 6-6z" fill="#EFEDF8"/><use stroke="#E1DBF1" mask="url(#e)" stroke-width="8" fill="#EFEDF8" stroke-linecap="round" stroke-linejoin="round" stroke-dasharray="1" xlink:href="#b"/><circle fill="#E1DBF1" cx="190" cy="62" r="5"/><path d="M182 92h16a6 6 0 0 1 6 6v16a6 6 0 0 1-6 6h-16a6 6 0 0 1-6-6V98a6 6 0 0 1 6-6z" fill="#C3B8E3"/><path d="M182.571 137h14.858a5.571 5.571 0 0 1 5.571 5.571v14.858a5.571 5.571 0 0 1-5.571 5.571H182.57a5.571 5.571 0 0 1-5.571-5.571V142.57a5.571 5.571 0 0 1 5.571-5.571z" stroke="#FEF0E8" stroke-width="4" stroke-linecap="round" stroke-linejoin="round" stroke-dasharray="1"/><path d="M50 136h16a6 6 0 0 1 6 6v16a6 6 0 0 1-6 6H50a6 6 0 0 1-6-6v-16a6 6 0 0 1 6-6z" fill="#EFEDF8"/><path d="M94 180h16a6 6 0 0 1 6 6v16a6 6 0 0 1-6 6H94a6 6 0 0 1-6-6v-16a6 6 0 0 1 6-6z" fill="#6B4FBB"/><use stroke="#E1DBF1" mask="url(#f)" stroke-width="8" fill="#EFEDF8" stroke-linecap="round" stroke-linejoin="round" stroke-dasharray="1" xlink:href="#c"/><circle fill="#E1DBF1" cx="146" cy="194" r="5"/><path d="M184.142 181h11.716c2.483 0 3.384.259 4.292.744a5.062 5.062 0 0 1 2.106 2.106c.485.908.744 1.809.744 4.292v11.716c0 2.483-.259 3.384-.744 4.292a5.062 5.062 0 0 1-2.106 2.106c-.908.485-1.809.744-4.292.744h-11.716c-2.483 0-3.384-.259-4.292-.744a5.062 5.062 0 0 1-2.106-2.106c-.485-.908-.744-1.809-.744-4.292v-11.716c0-2.483.259-3.384.744-4.292a5.062 5.062 0 0 1 2.106-2.106c.908-.485 1.809-.744 4.292-.744z" stroke="#EFEDF8" stroke-width="4" stroke-linecap="round" stroke-linejoin="round" stroke-dasharray="1"/></g></svg>