<svg width="417" height="92" fill="none" xmlns="http://www.w3.org/2000/svg"><path fill="#fff" d="M0 0h417v92H0z"/><rect x="35" width="104" height="92" rx="4" fill="#E9F3FC"/><path d="M75.576 19.116v-2.724h2.28c.248 0 .48.016.696.048.224.024.42.084.588.18.168.096.3.232.396.408.096.176.144.416.144.72 0 .456-.144.8-.432 1.032-.28.224-.744.336-1.392.336h-2.28zm-1.14-3.684V24h4.14c.424 0 .796-.068 1.116-.204.328-.144.6-.328.816-.552.224-.232.392-.496.504-.792.112-.296.168-.6.168-.912 0-.528-.14-.976-.42-1.344-.28-.368-.684-.608-1.212-.72v-.024c.408-.16.72-.404.936-.732.224-.336.336-.732.336-1.188 0-.432-.1-.796-.3-1.092a2.176 2.176 0 00-.708-.696 1.465 1.465 0 00-.468-.18 3.982 3.982 0 00-.576-.084 5.545 5.545 0 00-.636-.036 15.342 15.342 0 00-.588-.012h-3.108zm1.14 7.608v-2.964h2.604c.24 0 .472.024.696.072.224.04.42.116.588.228.176.104.316.248.42.432.104.184.156.416.156.696 0 .48-.144.856-.432 1.128-.28.272-.672.408-1.176.408h-2.856zm12.043.96v-6.204h-1.02V21.3c0 .28-.04.54-.12.78a1.692 1.692 0 01-.336.612 1.51 1.51 0 01-.576.408 2.034 2.034 0 01-.804.144c-.392 0-.7-.112-.924-.336-.224-.224-.336-.528-.336-.912v-4.2h-1.02v4.08c0 .336.032.644.096.924a1.8 1.8 0 00.36.708c.168.2.388.356.66.468.272.104.612.156 1.02.156.456 0 .852-.088 1.188-.264.336-.184.612-.468.828-.852h.024V24h.96zm2.612-7.32v-1.248h-1.02v1.248h1.02zm-1.02 1.116V24h1.02v-6.204h-1.02zm2.66-2.364V24h1.02v-8.568h-1.02zm3.344 5.52c0-.304.032-.6.096-.888a2.35 2.35 0 01.312-.768c.144-.224.336-.404.576-.54.24-.136.532-.204.876-.204.352 0 .652.068.9.204.248.128.448.3.6.516.16.216.276.468.348.756a3.504 3.504 0 010 1.728 2.21 2.21 0 01-.324.756 1.781 1.781 0 01-.588.528c-.24.136-.532.204-.876.204-.328 0-.616-.064-.864-.192-.24-.128-.44-.3-.6-.516a2.474 2.474 0 01-.348-.732 3.408 3.408 0 01-.108-.852zm4.8 3.048v-8.568h-1.02v3.192h-.024a1.53 1.53 0 00-.42-.456 1.975 1.975 0 00-.516-.3 2.425 2.425 0 00-.552-.168 3.021 3.021 0 00-.516-.048c-.472 0-.888.088-1.248.264a2.53 2.53 0 00-.888.696 3.011 3.011 0 00-.528 1.02 4.523 4.523 0 00-.168 1.248c0 .44.06.856.18 1.248s.296.736.528 1.032c.24.296.536.532.888.708.36.176.78.264 1.26.264.432 0 .828-.076 1.188-.228.36-.152.624-.4.792-.744h.024V24h1.02z" fill="#1068BF"/><rect x="45" y="36.5" width="84" height="19" rx="9.5" fill="#fff" stroke="#1F75CB"/><path d="M63.804 41.432V50h1.02v-.828h.024c.112.184.248.34.408.468.168.12.344.216.528.288.184.072.368.124.552.156.192.032.364.048.516.048.472 0 .884-.084 1.236-.252a2.45 2.45 0 00.888-.684c.24-.296.416-.64.528-1.032.12-.392.18-.808.18-1.248 0-.44-.06-.856-.18-1.248s-.3-.736-.54-1.032a2.453 2.453 0 00-.888-.72c-.352-.176-.768-.264-1.248-.264-.432 0-.828.08-1.188.24-.36.152-.624.4-.792.744h-.024v-3.204h-1.02zm4.8 5.412c0 .304-.032.6-.096.888a2.35 2.35 0 01-.312.768 1.624 1.624 0 01-.576.54c-.232.136-.524.204-.876.204s-.652-.064-.9-.192a1.866 1.866 0 01-.612-.528 2.256 2.256 0 01-.336-.744 3.647 3.647 0 01-.108-.888c0-.288.032-.572.096-.852.072-.28.184-.528.336-.744.152-.224.348-.404.588-.54s.532-.204.876-.204c.328 0 .612.064.852.192.248.128.448.3.6.516.16.216.276.464.348.744.08.272.12.552.12.84zM76.017 50v-6.204h-1.02V47.3c0 .28-.04.54-.12.78a1.692 1.692 0 01-.336.612 1.51 1.51 0 01-.576.408 2.034 2.034 0 01-.804.144c-.392 0-.7-.112-.924-.336-.224-.224-.336-.528-.336-.912v-4.2h-1.02v4.08c0 .336.032.644.096.924a1.8 1.8 0 00.36.708c.168.2.388.356.66.468.272.104.612.156 1.02.156.456 0 .852-.088 1.188-.264.336-.184.612-.468.828-.852h.024V50h.96zm2.612-7.32v-1.248h-1.02v1.248h1.02zm-1.02 1.116V50h1.02v-6.204h-1.02zm2.66-2.364V50h1.02v-8.568h-1.02zm3.345 5.52c0-.304.032-.6.096-.888a2.35 2.35 0 01.312-.768c.144-.224.336-.404.576-.54.24-.136.532-.204.876-.204.352 0 .652.068.9.204.248.128.448.3.6.516.16.216.276.468.348.756a3.504 3.504 0 010 1.728 2.21 2.21 0 01-.324.756 1.781 1.781 0 01-.588.528c-.24.136-.532.204-.876.204-.328 0-.616-.064-.864-.192-.24-.128-.44-.3-.6-.516a2.474 2.474 0 01-.348-.732 3.408 3.408 0 01-.108-.852zm4.8 3.048v-8.568h-1.02v3.192h-.024a1.53 1.53 0 00-.42-.456 1.975 1.975 0 00-.516-.3 2.425 2.425 0 00-.552-.168 3.021 3.021 0 00-.516-.048c-.472 0-.888.088-1.248.264a2.53 2.53 0 00-.888.696 3.011 3.011 0 00-.528 1.02 4.523 4.523 0 00-.168 1.248c0 .44.06.856.18 1.248s.296.736.528 1.032c.24.296.536.532.888.708.36.176.78.264 1.26.264.432 0 .828-.076 1.188-.228.36-.152.624-.4.792-.744h.024V50h1.02zm1.4-3.816v.96h3.469v-.96h-3.468zm5.913-3.504v-1.248h-1.02v1.248h1.02zm0 8.1v-6.984h-1.02v6.816c0 .32-.04.54-.12.66-.08.128-.232.192-.456.192h-.216a.266.266 0 01-.084-.012.556.556 0 01-.108-.012v.876c.16.032.332.048.516.048.456 0 .816-.128 1.08-.384.272-.248.408-.648.408-1.2zm2.324-3.876c0-.376.048-.708.144-.996a2.23 2.23 0 01.42-.744c.176-.2.38-.352.612-.456a1.881 1.881 0 011.5 0c.24.104.448.256.624.456s.312.448.408.744c.104.288.156.62.156.996s-.052.712-.156 1.008a2.096 2.096 0 01-.408.732c-.176.192-.384.34-.624.444a1.881 1.881 0 01-1.5 0 1.85 1.85 0 01-.612-.444 2.252 2.252 0 01-.42-.732 3.262 3.262 0 01-.144-1.008zm-1.08 0c0 .456.064.88.192 1.272s.32.736.576 1.032c.256.288.572.516.948.684.376.16.808.24 1.296.24.496 0 .928-.08 1.296-.24a2.75 2.75 0 00.948-.684c.256-.296.448-.64.576-1.032.128-.392.192-.816.192-1.272 0-.456-.064-.88-.192-1.272-.128-.4-.32-.744-.576-1.032a2.679 2.679 0 00-.948-.696c-.368-.168-.8-.252-1.296-.252-.488 0-.92.084-1.296.252-.376.168-.692.4-.948.696a2.829 2.829 0 00-.576 1.032 4.075 4.075 0 00-.192 1.272zm7.263-5.472V50h1.02v-.828h.024c.112.184.248.34.408.468.168.12.344.216.528.288.184.072.368.124.552.156.192.032.364.048.516.048.472 0 .884-.084 1.236-.252a2.45 2.45 0 00.888-.684c.24-.296.416-.64.528-1.032.12-.392.18-.808.18-1.248 0-.44-.06-.856-.18-1.248s-.3-.736-.54-1.032a2.453 2.453 0 00-.888-.72c-.352-.176-.768-.264-1.248-.264-.432 0-.828.08-1.188.24-.36.152-.624.4-.792.744h-.024v-3.204h-1.02zm4.8 5.412c0 .304-.032.6-.096.888a2.35 2.35 0 01-.312.768 1.624 1.624 0 01-.576.54c-.232.136-.524.204-.876.204s-.652-.064-.9-.192a1.866 1.866 0 01-.612-.528 2.256 2.256 0 01-.336-.744 3.647 3.647 0 01-.108-.888c0-.288.032-.572.096-.852.072-.28.184-.528.336-.744.152-.224.348-.404.588-.54s.532-.204.876-.204c.328 0 .612.064.852.192.248.128.448.3.6.516.16.216.276.464.348.744.08.272.12.552.12.84z" fill="#000"/><rect x="155" width="106" height="92" rx="4" fill="#E9F3FC"/><path d="M198.88 16.392V24h1.14v-7.608h2.856v-.96h-6.852v.96h2.856zm7.751 3.912h-3.564c.016-.24.068-.464.156-.672a1.79 1.79 0 01.36-.564c.152-.16.332-.284.54-.372.216-.096.456-.144.72-.144.256 0 .488.048.696.144.216.088.4.212.552.372.16.152.284.336.372.552.096.216.152.444.168.684zm.984 1.728h-1.008c-.088.408-.272.712-.552.912-.272.2-.624.3-1.056.3-.336 0-.628-.056-.876-.168a1.752 1.752 0 01-.612-.444 1.818 1.818 0 01-.348-.648 2.515 2.515 0 01-.096-.78h4.644a4.76 4.76 0 00-.108-1.188 3.28 3.28 0 00-.456-1.152 2.587 2.587 0 00-.876-.864c-.36-.232-.816-.348-1.368-.348-.424 0-.816.08-1.176.24-.352.16-.66.384-.924.672a3.154 3.154 0 00-.6 1.02 3.733 3.733 0 00-.216 1.296c.016.472.084.908.204 1.308.128.4.316.744.564 1.032.248.288.552.512.912.672.368.16.8.24 1.296.24.704 0 1.288-.176 1.752-.528.464-.352.764-.876.9-1.572zm1.777.012h-1.02c.016.384.096.712.24.984.144.264.336.48.576.648.24.16.516.276.828.348.312.072.64.108.984.108.312 0 .624-.032.936-.096.32-.056.604-.16.852-.312.256-.152.46-.352.612-.6.16-.248.24-.56.24-.936 0-.296-.06-.544-.18-.744a1.414 1.414 0 00-.456-.492 2.235 2.235 0 00-.648-.324 7.251 7.251 0 00-.744-.204 23.14 23.14 0 00-.72-.156 5.249 5.249 0 01-.648-.192 1.737 1.737 0 01-.48-.288.603.603 0 01-.18-.444c0-.16.04-.288.12-.384a.78.78 0 01.312-.24c.128-.064.268-.108.42-.132.16-.024.316-.036.468-.036.168 0 .332.02.492.06.168.032.32.088.456.168a1 1 0 01.492.816h1.02c-.024-.376-.104-.688-.24-.936a1.54 1.54 0 00-.552-.6 2.05 2.05 0 00-.78-.312 4.602 4.602 0 00-.972-.096c-.272 0-.548.036-.828.108-.272.064-.52.168-.744.312a1.74 1.74 0 00-.54.54 1.52 1.52 0 00-.204.804c0 .4.1.712.3.936.2.224.448.4.744.528.304.12.632.216.984.288.352.064.676.14.972.228.304.08.556.188.756.324.2.136.3.336.3.6a.778.778 0 01-.144.48.927.927 0 01-.372.276 1.763 1.763 0 01-.48.132 3.734 3.734 0 01-.504.036c-.208 0-.412-.02-.612-.06a1.887 1.887 0 01-.528-.192 1.18 1.18 0 01-.372-.372 1.184 1.184 0 01-.156-.576zm6.792-4.248v-1.86h-1.02v1.86h-1.056v.9h1.056v3.948c0 .288.028.52.084.696.056.176.14.312.252.408.12.096.272.164.456.204.192.032.42.048.684.048h.78v-.9h-.468a5.34 5.34 0 01-.396-.012.544.544 0 01-.228-.084.326.326 0 01-.12-.168 1.38 1.38 0 01-.024-.288v-3.852h1.236v-.9h-1.236z" fill="#1068BF"/><rect x="165.5" y="36.5" width="84" height="19" rx="9.5" fill="#fff" stroke="#1F75CB"/><path d="M180.904 50v-6.204h-1.02V47.3c0 .28-.04.54-.12.78a1.692 1.692 0 01-.336.612 1.51 1.51 0 01-.576.408 2.034 2.034 0 01-.804.144c-.392 0-.7-.112-.924-.336-.224-.224-.336-.528-.336-.912v-4.2h-1.02v4.08c0 .336.032.644.096.924a1.8 1.8 0 00.36.708c.168.2.388.356.66.468.272.104.612.156 1.02.156.456 0 .852-.088 1.188-.264.336-.184.612-.468.828-.852h.024V50h.96zm1.532-6.204V50h1.02v-3.504c0-.28.036-.536.108-.768.08-.24.196-.448.348-.624a1.53 1.53 0 01.564-.408c.232-.096.504-.144.816-.144.392 0 .7.112.924.336.224.224.336.528.336.912V50h1.02v-4.08c0-.336-.036-.64-.108-.912-.064-.28-.18-.52-.348-.72a1.677 1.677 0 00-.66-.468c-.272-.112-.612-.168-1.02-.168-.92 0-1.592.376-2.016 1.128h-.024v-.984h-.96zm7.748-1.116v-1.248h-1.02v1.248h1.02zm-1.02 1.116V50h1.02v-6.204h-1.02zm4.016 0v-1.86h-1.02v1.86h-1.056v.9h1.056v3.948c0 .288.028.52.084.696.056.176.14.312.252.408.12.096.272.164.456.204.192.032.42.048.684.048h.78v-.9h-.468a5.34 5.34 0 01-.396-.012.544.544 0 01-.228-.084.326.326 0 01-.12-.168 1.38 1.38 0 01-.024-.288v-3.852h1.236v-.9h-1.236zm2.201 2.388v.96h3.468v-.96h-3.468zm6.248-2.388v-1.86h-1.02v1.86h-1.056v.9h1.056v3.948c0 .288.028.52.084.696.056.176.14.312.252.408.12.096.272.164.456.204.192.032.42.048.684.048h.78v-.9h-.468a5.34 5.34 0 01-.396-.012.544.544 0 01-.228-.084.326.326 0 01-.12-.168 1.38 1.38 0 01-.024-.288v-3.852h1.236v-.9h-1.236zm6.677 2.508h-3.564c.016-.24.068-.464.156-.672a1.79 1.79 0 01.36-.564c.152-.16.332-.284.54-.372.216-.096.456-.144.72-.144.256 0 .488.048.696.144.216.088.4.212.552.372.16.152.284.336.372.552.096.216.152.444.168.684zm.984 1.728h-1.008c-.088.408-.272.712-.552.912-.272.2-.624.3-1.056.3-.336 0-.628-.056-.876-.168a1.752 1.752 0 01-.612-.444 1.818 1.818 0 01-.348-.648 2.515 2.515 0 01-.096-.78h4.644a4.76 4.76 0 00-.108-1.188 3.28 3.28 0 00-.456-1.152 2.587 2.587 0 00-.876-.864c-.36-.232-.816-.348-1.368-.348-.424 0-.816.08-1.176.24-.352.16-.66.384-.924.672a3.154 3.154 0 00-.6 1.02 3.733 3.733 0 00-.216 1.296c.016.472.084.908.204 1.308.128.4.316.744.564 1.032.248.288.552.512.912.672.368.16.8.24 1.296.24.704 0 1.288-.176 1.752-.528.464-.352.764-.876.9-1.572zm1.778.012h-1.02c.016.384.096.712.24.984.144.264.336.48.576.648.24.16.516.276.828.348.312.072.64.108.984.108.312 0 .624-.032.936-.096.32-.056.604-.16.852-.312.256-.152.46-.352.612-.6.16-.248.24-.56.24-.936 0-.296-.06-.544-.18-.744a1.414 1.414 0 00-.456-.492 2.235 2.235 0 00-.648-.324 7.251 7.251 0 00-.744-.204 23.14 23.14 0 00-.72-.156 5.249 5.249 0 01-.648-.192 1.737 1.737 0 01-.48-.288.603.603 0 01-.18-.444c0-.16.04-.288.12-.384a.78.78 0 01.312-.24c.128-.064.268-.108.42-.132.16-.024.316-.036.468-.036.168 0 .332.02.492.06.168.032.32.088.456.168a1 1 0 01.492.816h1.02c-.024-.376-.104-.688-.24-.936a1.54 1.54 0 00-.552-.6 2.05 2.05 0 00-.78-.312 4.602 4.602 0 00-.972-.096c-.272 0-.548.036-.828.108-.272.064-.52.168-.744.312a1.74 1.74 0 00-.54.54 1.52 1.52 0 00-.204.804c0 .4.1.712.3.936.2.224.448.4.744.528.304.12.632.216.984.288.352.064.676.14.972.228.304.08.556.188.756.324.2.136.3.336.3.6a.778.778 0 01-.144.48.927.927 0 01-.372.276 1.763 1.763 0 01-.48.132 3.734 3.734 0 01-.504.036c-.208 0-.412-.02-.612-.06a1.887 1.887 0 01-.528-.192 1.18 1.18 0 01-.372-.372 1.184 1.184 0 01-.156-.576zm6.792-4.248v-1.86h-1.02v1.86h-1.056v.9h1.056v3.948c0 .288.028.52.084.696.056.176.14.312.252.408.12.096.272.164.456.204.192.032.42.048.684.048h.78v-.9h-.468a5.34 5.34 0 01-.396-.012.544.544 0 01-.228-.084.326.326 0 01-.12-.168 1.38 1.38 0 01-.024-.288v-3.852h1.236v-.9h-1.236zm2.201 2.388v.96h3.468v-.96h-3.468zm5.912-3.504v-1.248h-1.02v1.248h1.02zm0 8.1v-6.984h-1.02v6.816c0 .32-.04.54-.12.66-.08.128-.232.192-.456.192h-.216a.266.266 0 01-.084-.012.556.556 0 01-.108-.012v.876c.16.032.332.048.516.048.456 0 .816-.128 1.08-.384.272-.248.408-.648.408-1.2zm2.324-3.876c0-.376.048-.708.144-.996a2.23 2.23 0 01.42-.744c.176-.2.38-.352.612-.456a1.881 1.881 0 011.5 0c.24.104.448.256.624.456s.312.448.408.744c.104.288.156.62.156.996s-.052.712-.156 1.008a2.096 2.096 0 01-.408.732c-.176.192-.384.34-.624.444a1.881 1.881 0 01-1.5 0 1.85 1.85 0 01-.612-.444 2.252 2.252 0 01-.42-.732 3.262 3.262 0 01-.144-1.008zm-1.08 0c0 .456.064.88.192 1.272s.32.736.576 1.032c.256.288.572.516.948.684.376.16.808.24 1.296.24.496 0 .928-.08 1.296-.24a2.75 2.75 0 00.948-.684c.256-.296.448-.64.576-1.032.128-.392.192-.816.192-1.272 0-.456-.064-.88-.192-1.272-.128-.4-.32-.744-.576-1.032a2.679 2.679 0 00-.948-.696c-.368-.168-.8-.252-1.296-.252-.488 0-.92.084-1.296.252-.376.168-.692.4-.948.696a2.829 2.829 0 00-.576 1.032 4.075 4.075 0 00-.192 1.272zm7.263-5.472V50h1.02v-.828h.024c.112.184.248.34.408.468.168.12.344.216.528.288.184.072.368.124.552.156.192.032.364.048.516.048.472 0 .884-.084 1.236-.252a2.45 2.45 0 00.888-.684c.24-.296.416-.64.528-1.032.12-.392.18-.808.18-1.248 0-.44-.06-.856-.18-1.248s-.3-.736-.54-1.032a2.453 2.453 0 00-.888-.72c-.352-.176-.768-.264-1.248-.264-.432 0-.828.08-1.188.24-.36.152-.624.4-.792.744h-.024v-3.204h-1.02zm4.8 5.412c0 .304-.032.6-.096.888a2.35 2.35 0 01-.312.768 1.624 1.624 0 01-.576.54c-.232.136-.524.204-.876.204s-.652-.064-.9-.192a1.866 1.866 0 01-.612-.528 2.256 2.256 0 01-.336-.744 3.647 3.647 0 01-.108-.888c0-.288.032-.572.096-.852.072-.28.184-.528.336-.744.152-.224.348-.404.588-.54s.532-.204.876-.204c.328 0 .612.064.852.192.248.128.448.3.6.516.16.216.276.464.348.744.08.272.12.552.12.84z" fill="#000"/><rect x="165.5" y="60.5" width="84" height="19" rx="9.5" fill="#fff" stroke="#1F75CB"/><path d="M177.828 65.432V74h1.02v-8.568h-1.02zm3.68 1.248v-1.248h-1.02v1.248h1.02zm-1.02 1.116V74h1.02v-6.204h-1.02zm2.6 0V74h1.02v-3.504c0-.28.036-.536.108-.768.08-.24.196-.448.348-.624a1.53 1.53 0 01.564-.408c.232-.096.504-.144.816-.144.392 0 .7.112.924.336.224.224.336.528.336.912V74h1.02v-4.08c0-.336-.036-.64-.108-.912-.064-.28-.18-.52-.348-.72a1.677 1.677 0 00-.66-.468c-.272-.112-.612-.168-1.02-.168-.92 0-1.592.376-2.016 1.128h-.024v-.984h-.96zm8.084 0v-1.86h-1.02v1.86h-1.056v.9h1.056v3.948c0 .288.028.52.084.696.056.176.14.312.252.408.12.096.272.164.456.204.192.032.42.048.684.048h.78v-.9h-.468a5.34 5.34 0 01-.396-.012.544.544 0 01-.228-.084.326.326 0 01-.12-.168 1.38 1.38 0 01-.024-.288v-3.852h1.236v-.9h-1.236zm2.201 2.388v.96h3.468v-.96h-3.468zm6.249-2.388v-1.86h-1.02v1.86h-1.056v.9h1.056v3.948c0 .288.028.52.084.696.056.176.14.312.252.408.12.096.272.164.456.204.192.032.42.048.684.048h.78v-.9h-.468a5.34 5.34 0 01-.396-.012.544.544 0 01-.228-.084.326.326 0 01-.12-.168 1.38 1.38 0 01-.024-.288v-3.852h1.236v-.9h-1.236zm6.677 2.508h-3.564c.016-.24.068-.464.156-.672a1.79 1.79 0 01.36-.564c.152-.16.332-.284.54-.372.216-.096.456-.144.72-.144.256 0 .488.048.696.144.216.088.4.212.552.372.16.152.284.336.372.552.096.216.152.444.168.684zm.984 1.728h-1.008c-.088.408-.272.712-.552.912-.272.2-.624.3-1.056.3-.336 0-.628-.056-.876-.168a1.752 1.752 0 01-.612-.444 1.818 1.818 0 01-.348-.648 2.515 2.515 0 01-.096-.78h4.644a4.76 4.76 0 00-.108-1.188 3.28 3.28 0 00-.456-1.152 2.587 2.587 0 00-.876-.864c-.36-.232-.816-.348-1.368-.348-.424 0-.816.08-1.176.24-.352.16-.66.384-.924.672a3.154 3.154 0 00-.6 1.02 3.733 3.733 0 00-.216 1.296c.016.472.084.908.204 1.308.128.4.316.744.564 1.032.248.288.552.512.912.672.368.16.8.24 1.296.24.704 0 1.288-.176 1.752-.528.464-.352.764-.876.9-1.572zm1.777.012h-1.02c.016.384.096.712.24.984.144.264.336.48.576.648.24.16.516.276.828.348.312.072.64.108.984.108.312 0 .624-.032.936-.096.32-.056.604-.16.852-.312.256-.152.46-.352.612-.6.16-.248.24-.56.24-.936 0-.296-.06-.544-.18-.744a1.414 1.414 0 00-.456-.492 2.235 2.235 0 00-.648-.324 7.251 7.251 0 00-.744-.204 23.14 23.14 0 00-.72-.156 5.249 5.249 0 01-.648-.192 1.737 1.737 0 01-.48-.288.603.603 0 01-.18-.444c0-.16.04-.288.12-.384a.78.78 0 01.312-.24c.128-.064.268-.108.42-.132.16-.024.316-.036.468-.036.168 0 .332.02.492.06.168.032.32.088.456.168a1 1 0 01.492.816h1.02c-.024-.376-.104-.688-.24-.936a1.54 1.54 0 00-.552-.6 2.05 2.05 0 00-.78-.312 4.602 4.602 0 00-.972-.096c-.272 0-.548.036-.828.108-.272.064-.52.168-.744.312a1.74 1.74 0 00-.54.54 1.52 1.52 0 00-.204.804c0 .4.1.712.3.936.2.224.448.4.744.528.304.12.632.216.984.288.352.064.676.14.972.228.304.08.556.188.756.324.2.136.3.336.3.6a.778.778 0 01-.144.48.927.927 0 01-.372.276 1.763 1.763 0 01-.48.132 3.734 3.734 0 01-.504.036c-.208 0-.412-.02-.612-.06a1.887 1.887 0 01-.528-.192 1.18 1.18 0 01-.372-.372 1.184 1.184 0 01-.156-.576zm6.792-4.248v-1.86h-1.02v1.86h-1.056v.9h1.056v3.948c0 .288.028.52.084.696.056.176.14.312.252.408.12.096.272.164.456.204.192.032.42.048.684.048h.78v-.9h-.468a5.34 5.34 0 01-.396-.012.544.544 0 01-.228-.084.326.326 0 01-.12-.168 1.38 1.38 0 01-.024-.288v-3.852h1.236v-.9h-1.236zm2.201 2.388v.96h3.468v-.96h-3.468zm5.912-3.504v-1.248h-1.02v1.248h1.02zm0 8.1v-6.984h-1.02v6.816c0 .32-.04.54-.12.66-.08.128-.232.192-.456.192h-.216a.266.266 0 01-.084-.012.556.556 0 01-.108-.012v.876c.16.032.332.048.516.048.456 0 .816-.128 1.08-.384.272-.248.408-.648.408-1.2zm2.324-3.876c0-.376.048-.708.144-.996a2.23 2.23 0 01.42-.744c.176-.2.38-.352.612-.456a1.881 1.881 0 011.5 0c.24.104.448.256.624.456s.312.448.408.744c.104.288.156.62.156.996s-.052.712-.156 1.008a2.096 2.096 0 01-.408.732c-.176.192-.384.34-.624.444a1.881 1.881 0 01-1.5 0 1.85 1.85 0 01-.612-.444 2.252 2.252 0 01-.42-.732 3.262 3.262 0 01-.144-1.008zm-1.08 0c0 .456.064.88.192 1.272s.32.736.576 1.032c.256.288.572.516.948.684.376.16.808.24 1.296.24.496 0 .928-.08 1.296-.24a2.75 2.75 0 00.948-.684c.256-.296.448-.64.576-1.032.128-.392.192-.816.192-1.272 0-.456-.064-.88-.192-1.272-.128-.4-.32-.744-.576-1.032a2.679 2.679 0 00-.948-.696c-.368-.168-.8-.252-1.296-.252-.488 0-.92.084-1.296.252-.376.168-.692.4-.948.696a2.829 2.829 0 00-.576 1.032 4.075 4.075 0 00-.192 1.272zm7.263-5.472V74h1.02v-.828h.024c.112.184.248.34.408.468.168.12.344.216.528.288.184.072.368.124.552.156.192.032.364.048.516.048.472 0 .884-.084 1.236-.252a2.45 2.45 0 00.888-.684c.24-.296.416-.64.528-1.032.12-.392.18-.808.18-1.248 0-.44-.06-.856-.18-1.248s-.3-.736-.54-1.032a2.453 2.453 0 00-.888-.72c-.352-.176-.768-.264-1.248-.264-.432 0-.828.08-1.188.24-.36.152-.624.4-.792.744h-.024v-3.204h-1.02zm4.8 5.412c0 .304-.032.6-.096.888a2.35 2.35 0 01-.312.768 1.624 1.624 0 01-.576.54c-.232.136-.524.204-.876.204s-.652-.064-.9-.192a1.866 1.866 0 01-.612-.528 2.256 2.256 0 01-.336-.744 3.647 3.647 0 01-.108-.888c0-.288.032-.572.096-.852.072-.28.184-.528.336-.744.152-.224.348-.404.588-.54s.532-.204.876-.204c.328 0 .612.064.852.192.248.128.448.3.6.516.16.216.276.464.348.744.08.272.12.552.12.84z" fill="#000"/><rect x="278" width="104" height="92" rx="4" fill="#E9F3FC"/><path d="M313.576 23.04v-6.648h1.92c.528 0 .972.076 1.332.228.36.144.652.36.876.648.232.28.396.624.492 1.032.104.4.156.856.156 1.368 0 .528-.056.98-.168 1.356-.104.368-.24.676-.408.924-.168.248-.36.444-.576.588-.208.144-.42.256-.636.336-.216.072-.42.12-.612.144a5.964 5.964 0 01-.48.024h-1.896zm-1.14-7.608V24h2.94c.712 0 1.328-.1 1.848-.3.52-.2.948-.488 1.284-.864.336-.384.584-.852.744-1.404.16-.56.24-1.2.24-1.92 0-1.376-.356-2.4-1.068-3.072-.712-.672-1.728-1.008-3.048-1.008h-2.94zm12.589 4.872h-3.564c.016-.24.068-.464.156-.672a1.79 1.79 0 01.36-.564c.152-.16.332-.284.54-.372.216-.096.456-.144.72-.144.256 0 .488.048.696.144.216.088.4.212.552.372.16.152.284.336.372.552.096.216.152.444.168.684zm.984 1.728h-1.008c-.088.408-.272.712-.552.912-.272.2-.624.3-1.056.3-.336 0-.628-.056-.876-.168a1.752 1.752 0 01-.612-.444 1.818 1.818 0 01-.348-.648 2.515 2.515 0 01-.096-.78h4.644a4.76 4.76 0 00-.108-1.188 3.28 3.28 0 00-.456-1.152 2.587 2.587 0 00-.876-.864c-.36-.232-.816-.348-1.368-.348-.424 0-.816.08-1.176.24-.352.16-.66.384-.924.672a3.154 3.154 0 00-.6 1.02 3.733 3.733 0 00-.216 1.296c.016.472.084.908.204 1.308.128.4.316.744.564 1.032.248.288.552.512.912.672.368.16.8.24 1.296.24.704 0 1.288-.176 1.752-.528.464-.352.764-.876.9-1.572zm1.19-4.236v8.568h1.02v-3.192h.024c.112.184.248.34.408.468.168.12.344.216.528.288.184.072.368.124.552.156.192.032.364.048.516.048.472 0 .884-.084 1.236-.252a2.45 2.45 0 00.888-.684c.24-.296.416-.64.528-1.032.12-.392.18-.808.18-1.248 0-.44-.06-.856-.18-1.248s-.3-.736-.54-1.032a2.453 2.453 0 00-.888-.72c-.352-.176-.768-.264-1.248-.264-.432 0-.828.08-1.188.24-.36.152-.624.4-.792.744h-.024v-.84h-1.02zm4.8 3.048c0 .304-.032.6-.096.888a2.35 2.35 0 01-.312.768 1.624 1.624 0 01-.576.54c-.232.136-.524.204-.876.204s-.652-.064-.9-.192a1.866 1.866 0 01-.612-.528 2.256 2.256 0 01-.336-.744 3.647 3.647 0 01-.108-.888c0-.288.032-.572.096-.852.072-.28.184-.528.336-.744.152-.224.348-.404.588-.54s.532-.204.876-.204c.328 0 .612.064.852.192.248.128.448.3.6.516.16.216.276.464.348.744.08.272.12.552.12.84zm2.337-5.412V24h1.02v-8.568h-1.02zm3.344 5.472c0-.376.048-.708.144-.996a2.23 2.23 0 01.42-.744c.176-.2.38-.352.612-.456a1.881 1.881 0 011.5 0c.24.104.448.256.624.456s.312.448.408.744c.104.288.156.62.156.996s-.052.712-.156 1.008a2.096 2.096 0 01-.408.732c-.176.192-.384.34-.624.444a1.881 1.881 0 01-1.5 0 1.85 1.85 0 01-.612-.444 2.252 2.252 0 01-.42-.732 3.262 3.262 0 01-.144-1.008zm-1.08 0c0 .456.064.88.192 1.272s.32.736.576 1.032c.256.288.572.516.948.684.376.16.808.24 1.296.24.496 0 .928-.08 1.296-.24a2.75 2.75 0 00.948-.684c.256-.296.448-.64.576-1.032.128-.392.192-.816.192-1.272 0-.456-.064-.88-.192-1.272-.128-.4-.32-.744-.576-1.032a2.679 2.679 0 00-.948-.696c-.368-.168-.8-.252-1.296-.252-.488 0-.92.084-1.296.252-.376.168-.692.4-.948.696a2.829 2.829 0 00-.576 1.032 4.075 4.075 0 00-.192 1.272zm9.663 3.924c-.12.304-.24.56-.36.768-.112.208-.24.376-.384.504a1.146 1.146 0 01-.468.288 1.647 1.647 0 01-.588.096c-.12 0-.24-.008-.36-.024a1.7 1.7 0 01-.348-.084v-.936c.088.04.188.072.3.096.12.032.22.048.3.048.208 0 .38-.052.516-.156a.867.867 0 00.324-.42l.42-1.044-2.46-6.168h1.152l1.812 5.076h.024l1.74-5.076h1.08l-2.7 7.032z" fill="#1068BF"/><rect x="288" y="36.5" width="84" height="19" rx="9.5" fill="#fff" stroke="#1F75CB"/><path d="M297.012 46.952c0-.304.032-.6.096-.888a2.35 2.35 0 01.312-.768c.144-.224.336-.404.576-.54.24-.136.532-.204.876-.204.352 0 .652.068.9.204.248.128.448.3.6.516.16.216.276.468.348.756a3.504 3.504 0 010 1.728 2.21 2.21 0 01-.324.756 1.781 1.781 0 01-.588.528c-.24.136-.532.204-.876.204-.328 0-.616-.064-.864-.192-.24-.128-.44-.3-.6-.516a2.474 2.474 0 01-.348-.732 3.408 3.408 0 01-.108-.852zm4.8 3.048v-8.568h-1.02v3.192h-.024a1.53 1.53 0 00-.42-.456 1.975 1.975 0 00-.516-.3 2.425 2.425 0 00-.552-.168 3.021 3.021 0 00-.516-.048c-.472 0-.888.088-1.248.264a2.53 2.53 0 00-.888.696 3.011 3.011 0 00-.528 1.02 4.523 4.523 0 00-.168 1.248c0 .44.06.856.18 1.248s.296.736.528 1.032c.24.296.536.532.888.708.36.176.78.264 1.26.264.432 0 .828-.076 1.188-.228.36-.152.624-.4.792-.744h.024V50h1.02zm5.877-3.696h-3.564c.016-.24.068-.464.156-.672a1.79 1.79 0 01.36-.564c.152-.16.332-.284.54-.372.216-.096.456-.144.72-.144.256 0 .488.048.696.144.216.088.4.212.552.372.16.152.284.336.372.552.096.216.152.444.168.684zm.984 1.728h-1.008c-.088.408-.272.712-.552.912-.272.2-.624.3-1.056.3-.336 0-.628-.056-.876-.168a1.752 1.752 0 01-.612-.444 1.818 1.818 0 01-.348-.648 2.515 2.515 0 01-.096-.78h4.644a4.76 4.76 0 00-.108-1.188 3.28 3.28 0 00-.456-1.152 2.587 2.587 0 00-.876-.864c-.36-.232-.816-.348-1.368-.348-.424 0-.816.08-1.176.24-.352.16-.66.384-.924.672a3.154 3.154 0 00-.6 1.02 3.733 3.733 0 00-.216 1.296c.016.472.084.908.204 1.308.128.4.316.744.564 1.032.248.288.552.512.912.672.368.16.8.24 1.296.24.704 0 1.288-.176 1.752-.528.464-.352.764-.876.9-1.572zm1.19-4.236v8.568h1.02v-3.192h.024c.112.184.248.34.408.468.168.12.344.216.528.288.184.072.368.124.552.156.192.032.364.048.516.048.472 0 .884-.084 1.236-.252a2.45 2.45 0 00.888-.684c.24-.296.416-.64.528-1.032.12-.392.18-.808.18-1.248 0-.44-.06-.856-.18-1.248s-.3-.736-.54-1.032a2.453 2.453 0 00-.888-.72c-.352-.176-.768-.264-1.248-.264-.432 0-.828.08-1.188.24-.36.152-.624.4-.792.744h-.024v-.84h-1.02zm4.8 3.048c0 .304-.032.6-.096.888a2.35 2.35 0 01-.312.768 1.624 1.624 0 01-.576.54c-.232.136-.524.204-.876.204s-.652-.064-.9-.192a1.866 1.866 0 01-.612-.528 2.256 2.256 0 01-.336-.744 3.647 3.647 0 01-.108-.888c0-.288.032-.572.096-.852.072-.28.184-.528.336-.744.152-.224.348-.404.588-.54s.532-.204.876-.204c.328 0 .612.064.852.192.248.128.448.3.6.516.16.216.276.464.348.744.08.272.12.552.12.84zM317 41.432V50h1.02v-8.568H317zm3.344 5.472c0-.376.048-.708.144-.996a2.23 2.23 0 01.42-.744c.176-.2.38-.352.612-.456a1.881 1.881 0 011.5 0c.24.104.448.256.624.456s.312.448.408.744c.104.288.156.62.156.996s-.052.712-.156 1.008a2.096 2.096 0 01-.408.732c-.176.192-.384.34-.624.444a1.881 1.881 0 01-1.5 0 1.85 1.85 0 01-.612-.444 2.252 2.252 0 01-.42-.732 3.262 3.262 0 01-.144-1.008zm-1.08 0c0 .456.064.88.192 1.272s.32.736.576 1.032c.256.288.572.516.948.684.376.16.808.24 1.296.24.496 0 .928-.08 1.296-.24a2.75 2.75 0 00.948-.684c.256-.296.448-.64.576-1.032.128-.392.192-.816.192-1.272 0-.456-.064-.88-.192-1.272-.128-.4-.32-.744-.576-1.032a2.679 2.679 0 00-.948-.696c-.368-.168-.8-.252-1.296-.252-.488 0-.92.084-1.296.252-.376.168-.692.4-.948.696a2.829 2.829 0 00-.576 1.032 4.075 4.075 0 00-.192 1.272zm9.663 3.924c-.12.304-.24.56-.36.768-.112.208-.24.376-.384.504a1.146 1.146 0 01-.468.288 1.647 1.647 0 01-.588.096c-.12 0-.24-.008-.36-.024a1.7 1.7 0 01-.348-.084v-.936c.088.04.188.072.3.096.12.032.22.048.3.048.208 0 .38-.052.516-.156a.867.867 0 00.324-.42l.42-1.044-2.46-6.168h1.152l1.812 5.076h.024l1.74-5.076h1.08l-2.7 7.032zm2.796.06v.6h6v-.6h-6zm12.264-.912c-.176.104-.42.156-.732.156-.264 0-.476-.072-.636-.216-.152-.152-.228-.396-.228-.732-.28.336-.608.58-.984.732a3.265 3.265 0 01-1.2.216c-.28 0-.548-.032-.804-.096a1.859 1.859 0 01-.648-.3 1.508 1.508 0 01-.444-.528 1.897 1.897 0 01-.156-.804c0-.352.06-.64.18-.864a1.54 1.54 0 01.468-.54c.2-.144.424-.252.672-.324.256-.072.516-.132.78-.18.28-.056.544-.096.792-.12.256-.032.48-.072.672-.12.192-.056.344-.132.456-.228.112-.104.168-.252.168-.444 0-.224-.044-.404-.132-.54a.81.81 0 00-.324-.312 1.261 1.261 0 00-.444-.144 3.232 3.232 0 00-.48-.036c-.432 0-.792.084-1.08.252-.288.16-.444.468-.468.924h-1.02c.016-.384.096-.708.24-.972s.336-.476.576-.636c.24-.168.512-.288.816-.36a4.42 4.42 0 01.996-.108c.28 0 .556.02.828.06.28.04.532.124.756.252.224.12.404.292.54.516.136.224.204.516.204.876v3.192c0 .24.012.416.036.528.032.112.128.168.288.168.088 0 .192-.02.312-.06v.792zm-1.656-3.18a1.332 1.332 0 01-.504.216c-.208.04-.428.076-.66.108-.224.024-.452.056-.684.096-.232.032-.44.088-.624.168a1.16 1.16 0 00-.456.348c-.112.144-.168.344-.168.6 0 .168.032.312.096.432.072.112.16.204.264.276.112.072.24.124.384.156.144.032.296.048.456.048.336 0 .624-.044.864-.132.24-.096.436-.212.588-.348.152-.144.264-.296.336-.456.072-.168.108-.324.108-.468v-1.044zm2.641-3v8.568h1.02v-3.192h.024c.112.184.248.34.408.468.168.12.344.216.528.288.184.072.368.124.552.156.192.032.364.048.516.048.472 0 .884-.084 1.236-.252a2.45 2.45 0 00.888-.684c.24-.296.416-.64.528-1.032.12-.392.18-.808.18-1.248 0-.44-.06-.856-.18-1.248s-.3-.736-.54-1.032a2.453 2.453 0 00-.888-.72c-.352-.176-.768-.264-1.248-.264-.432 0-.828.08-1.188.24-.36.152-.624.4-.792.744h-.024v-.84h-1.02zm4.8 3.048c0 .304-.032.6-.096.888a2.35 2.35 0 01-.312.768 1.624 1.624 0 01-.576.54c-.232.136-.524.204-.876.204s-.652-.064-.9-.192a1.866 1.866 0 01-.612-.528 2.256 2.256 0 01-.336-.744 3.647 3.647 0 01-.108-.888c0-.288.032-.572.096-.852.072-.28.184-.528.336-.744.152-.224.348-.404.588-.54s.532-.204.876-.204c.328 0 .612.064.852.192.248.128.448.3.6.516.16.216.276.464.348.744.08.272.12.552.12.84zm2.313-3.048v8.568h1.02v-3.192h.024c.112.184.248.34.408.468.168.12.344.216.528.288.184.072.368.124.552.156.192.032.364.048.516.048.472 0 .884-.084 1.236-.252a2.45 2.45 0 00.888-.684c.24-.296.416-.64.528-1.032.12-.392.18-.808.18-1.248 0-.44-.06-.856-.18-1.248s-.3-.736-.54-1.032a2.453 2.453 0 00-.888-.72c-.352-.176-.768-.264-1.248-.264-.432 0-.828.08-1.188.24-.36.152-.624.4-.792.744h-.024v-.84h-1.02zm4.8 3.048c0 .304-.032.6-.096.888a2.35 2.35 0 01-.312.768 1.624 1.624 0 01-.576.54c-.232.136-.524.204-.876.204s-.652-.064-.9-.192a1.866 1.866 0 01-.612-.528 2.256 2.256 0 01-.336-.744 3.647 3.647 0 01-.108-.888c0-.288.032-.572.096-.852.072-.28.184-.528.336-.744.152-.224.348-.404.588-.54s.532-.204.876-.204c.328 0 .612.064.852.192.248.128.448.3.6.516.16.216.276.464.348.744.08.272.12.552.12.84zm2.902 1.2h-1.02c.016.384.096.712.24.984.144.264.336.48.576.648.24.16.516.276.828.348.312.072.64.108.984.108.312 0 .624-.032.936-.096.32-.056.604-.16.852-.312.256-.152.46-.352.612-.6.16-.248.24-.56.24-.936 0-.296-.06-.544-.18-.744a1.414 1.414 0 00-.456-.492 2.235 2.235 0 00-.648-.324 7.251 7.251 0 00-.744-.204 23.14 23.14 0 00-.72-.156 5.249 5.249 0 01-.648-.192 1.737 1.737 0 01-.48-.288.603.603 0 01-.18-.444c0-.16.04-.288.12-.384a.78.78 0 01.312-.24c.128-.064.268-.108.42-.132.16-.024.316-.036.468-.036.168 0 .332.02.492.06.168.032.32.088.456.168a1 1 0 01.492.816h1.02c-.024-.376-.104-.688-.24-.936a1.54 1.54 0 00-.552-.6 2.05 2.05 0 00-.78-.312 4.602 4.602 0 00-.972-.096c-.272 0-.548.036-.828.108-.272.064-.52.168-.744.312a1.74 1.74 0 00-.54.54 1.52 1.52 0 00-.204.804c0 .4.1.712.3.936.2.224.448.4.744.528.304.12.632.216.984.288.352.064.676.14.972.228.304.08.556.188.756.324.2.136.3.336.3.6a.778.778 0 01-.144.48.927.927 0 01-.372.276 1.763 1.763 0 01-.48.132 3.734 3.734 0 01-.504.036c-.208 0-.412-.02-.612-.06a1.887 1.887 0 01-.528-.192 1.18 1.18 0 01-.372-.372 1.184 1.184 0 01-.156-.576z" fill="#000"/></svg>