<svg width="258" height="174" viewBox="0 0 258 174" xmlns="http://www.w3.org/2000/svg"><g fill="none" fill-rule="evenodd"><path d="M19.144 65.423l-2.062.785a1 1 0 0 1-1.29-1.29l.785-2.062a1 1 0 0 0 0-.712l-.785-2.062a1 1 0 0 1 1.29-1.29l2.062.785a1 1 0 0 0 .712 0l2.062-.785a1 1 0 0 1 1.29 1.29l-.785 2.062a1 1 0 0 0 0 .712l.785 2.062a1 1 0 0 1-1.29 1.29l-2.062-.785a1 1 0 0 0-.712 0z" fill="#EEE" fill-rule="nonzero"/><path d="M230.672 23.026l-.286 2.033a.953.953 0 0 1-1.671.483l-1.205-1.424a.954.954 0 0 0-.623-.332l-1.851-.204a.956.956 0 0 1-.536-1.659l1.522-1.374a.954.954 0 0 0 .306-.575l.286-2.033a.953.953 0 0 1 1.671-.483l1.205 1.424a.954.954 0 0 0 .623.332l1.851.204a.956.956 0 0 1 .536 1.659l-1.522 1.374a.954.954 0 0 0-.306.575z" fill="#E1DBF1" fill-rule="nonzero"/><path d="M74.86 9.893l-1.013 1.605a1 1 0 0 1-1.806-.257l-.52-1.803a1 1 0 0 0-.43-.57l-1.589-.996a1 1 0 0 1 .25-1.807l1.822-.532a1 1 0 0 0 .566-.426l1.013-1.605a1 1 0 0 1 1.806.257l.52 1.803a1 1 0 0 0 .43.57l1.589.996a1 1 0 0 1-.25 1.807l-1.822.532a1 1 0 0 0-.566.426z" fill="#FEE1D3" fill-rule="nonzero"/><circle fill="#FEE1D3" fill-rule="nonzero" transform="rotate(-37 83 9)" cx="83" cy="9" r="1"/><circle fill="#E1DBF1" fill-rule="nonzero" transform="rotate(-19 235 28)" cx="235" cy="28" r="1"/><circle fill="#E1DBF1" fill-rule="nonzero" transform="rotate(-19 221 21)" cx="221" cy="21" r="1"/><path d="M4 156h250" stroke="#E4E4E4" stroke-width="4" stroke-linecap="round"/><g transform="rotate(-15 290.809 -679.49)" fill-rule="nonzero"><path d="M50.874 40.226a22.328 22.328 0 0 1-1.47 2.814L55.85 51l-12.293 9.955-6.668-8.235c-.914.28-1.853.504-2.813.666l-2.366 10.25-15.412-3.559 2.243-9.714a22.481 22.481 0 0 1-2.806-2.052l-8.8 4.292L.003 38.387l8.122-3.962a22.583 22.583 0 0 1-.186-4.306L.003 26.25l6.933-14.217 7.374 3.596a22.513 22.513 0 0 1 3.823-3.127L16.3 4.557 31.711 1l1.88 8.143c1.59.233 3.125.633 4.588 1.18l5.38-6.642 12.292 9.954-5.765 7.118a22.259 22.259 0 0 1 1.556 3.657h9.437v15.817H50.874z" stroke="#6B4FBB" stroke-width="4" stroke-linecap="round" stroke-linejoin="bevel"/><ellipse stroke="#E3DEF2" stroke-width="3" fill="#FFF" cx="31.377" cy="32.363" rx="8.557" ry="8.554"/></g><g transform="rotate(7 -17.624 1395.213)" fill-rule="nonzero" stroke-width="3"><path d="M35.589 27.994a15.47 15.47 0 0 1-.997 1.89l4.476 5.527-8.603 6.966-4.652-5.744c-.639.194-1.295.349-1.965.461l-1.646 7.129-10.786-2.49 1.556-6.743a15.73 15.73 0 0 1-1.936-1.403l-6.15 3-4.853-9.95 5.648-2.755a15.574 15.574 0 0 1-.126-2.909L.033 18.28l4.853-9.95 5.152 2.513c.8-.807 1.689-1.528 2.65-2.147l-1.272-5.511L22.202.695 23.51 6.36c1.109.16 2.18.437 3.2.815l3.755-4.636 8.603 6.966-4 4.94a15.4 15.4 0 0 1 1.062 2.477h6.585v11.07h-7.126z" stroke="#FC6D26" stroke-linecap="round" stroke-linejoin="round"/><ellipse stroke="#FEE1D3" fill="#FFF" cx="21.961" cy="22.49" rx="5.989" ry="5.942"/></g><g fill-rule="nonzero"><path d="M32.831 167C25.896 152.954 22 137.141 22 120.42 22 62.197 69.234 15 127.5 15S233 62.198 233 120.42c0 16.721-3.896 32.534-10.831 46.58H32.83z" stroke="#EEE" stroke-width="4" fill="#FFF"/><path d="M127 17v7.718m30.399-3.16l-2.257 7.38m29.956 5.887l-4.316 6.398m26.856 14.401l-5.998 4.857m21.402 21.69l-7.205 2.766m14.039 27.056l-7.7.538m5.398 29.963l-7.52-1.736m-193.628 1.736l7.52-1.736m-9.822-28.765l7.7.538m-.866-30.36l7.205 2.766m8.2-29.313l5.997 4.857m16.542-25.656l4.316 6.398M96.6 21.557l2.257 7.38" stroke="#EEE" stroke-width="2" stroke-linecap="round" stroke-linejoin="round"/><g transform="translate(47 104)"><path d="M75.04 7.704L1.24 36.428a1 1 0 0 0 .557 1.913l80.09-15.799L75.04 7.704z" fill="#E4E4E4"/><ellipse stroke="#E4E4E4" stroke-width="3" fill="#FFF" transform="rotate(15 80.078 13.1)" cx="80.078" cy="13.099" rx="10.03" ry="9.911"/></g></g><g transform="translate(88 43)" fill-rule="nonzero"><path d="M64.017 49H13.621l.001-.017C6.04 48.613 0 42.058 0 34.028c0-7.856 5.78-14.299 13.13-14.923a13.677 13.677 0 0 1-.871-4.813C12.259 6.399 18.967 0 27.24 0c5.692 0 10.642 3.027 13.178 7.485a14.27 14.27 0 0 1 10.659-4.763c7.898 0 14.301 6.399 14.301 14.292a14.4 14.4 0 0 1-.151 2.09C72.936 19.719 79 26.166 79 34.028 79 42.297 72.292 49 64.017 49z" stroke="#FEE1D3" stroke-width="4"/><circle fill="#6B4FBB" cx="40" cy="39" r="2"/><rect fill="#6B4FBB" x="38" y="16" width="4" height="18" rx="2"/></g></g></svg>