<svg width="257" height="170" viewBox="0 0 257 170" xmlns="http://www.w3.org/2000/svg" xmlns:xlink="http://www.w3.org/1999/xlink"><defs><path d="M150 82.991L139.75 84 139 38.566a.554.554 0 0 1 .427-.552.547.547 0 0 1 .654.42L150 82.99z" id="b"/><filter x="-50%" y="-16.3%" width="172.7%" height="121.7%" filterUnits="objectBoundingBox" id="a"><feOffset dx="-2" dy="-4" in="SourceAlpha" result="shadowOffsetOuter1"/><feGaussianBlur stdDeviation=".5" in="shadowOffsetOuter1" result="shadowBlurOuter1"/><feColorMatrix values="0 0 0 0 0.976470588 0 0 0 0 0.976470588 0 0 0 0 0.976470588 0 0 0 1 0" in="shadowBlurOuter1"/></filter><path d="M23 21h94c5.523 0 10 4.477 10 10v43c0 5.523-4.477 10-10 10H23c-5.523 0-10-4.477-10-10V31c0-5.523 4.477-10 10-10z" id="d"/><filter x="-3.5%" y="-6.3%" width="111.4%" height="120.6%" filterUnits="objectBoundingBox" id="c"><feMorphology radius="1.5" operator="dilate" in="SourceAlpha" result="shadowSpreadOuter1"/><feOffset dx="5" dy="5" in="shadowSpreadOuter1" result="shadowOffsetOuter1"/><feComposite in="shadowOffsetOuter1" in2="SourceAlpha" operator="out" result="shadowOffsetOuter1"/><feColorMatrix values="0 0 0 0 0.977226828 0 0 0 0 0.977226828 0 0 0 0 0.977226828 0 0 0 1 0" in="shadowOffsetOuter1"/></filter><path d="M167 34h65c5.523 0 10 4.477 10 10v48c0 5.523-4.477 10-10 10h-65c-5.523 0-10-4.477-10-10V44c0-5.523 4.477-10 10-10z" id="f"/><filter x="-4.7%" y="-5.9%" width="115.3%" height="119.1%" filterUnits="objectBoundingBox" id="e"><feMorphology radius="1.5" operator="dilate" in="SourceAlpha" result="shadowSpreadOuter1"/><feOffset dx="5" dy="5" in="shadowSpreadOuter1" result="shadowOffsetOuter1"/><feComposite in="shadowOffsetOuter1" in2="SourceAlpha" operator="out" result="shadowOffsetOuter1"/><feColorMatrix values="0 0 0 0 0.980392157 0 0 0 0 0.980392157 0 0 0 0 0.980392157 0 0 0 1 0" in="shadowOffsetOuter1"/></filter><path d="M64 115h124c5.523 0 10 4.477 10 10v17c0 5.523-4.477 10-10 10H64c-5.523 0-10-4.477-10-10v-17c0-5.523 4.477-10 10-10z" id="h"/><filter x="-2.8%" y="-10.8%" width="109%" height="135.1%" filterUnits="objectBoundingBox" id="g"><feMorphology radius="1.5" operator="dilate" in="SourceAlpha" result="shadowSpreadOuter1"/><feOffset dx="5" dy="5" in="shadowSpreadOuter1" result="shadowOffsetOuter1"/><feComposite in="shadowOffsetOuter1" in2="SourceAlpha" operator="out" result="shadowOffsetOuter1"/><feColorMatrix values="0 0 0 0 0.976470588 0 0 0 0 0.976470588 0 0 0 0 0.976470588 0 0 0 1 0" in="shadowOffsetOuter1"/></filter></defs><g fill="none" fill-rule="evenodd"><g fill-rule="nonzero"><use fill="#000" filter="url(#a)" xlink:href="#b"/><use fill="#EEE" xlink:href="#b"/></g><circle stroke="#EEE" stroke-width="3" fill="#FFF" fill-rule="nonzero" cx="145" cy="86" r="6"/><path d="M83 90.565l3-.13M137.716 23l.568 3M157.293 23l-.586 3M173 29l-1 3M181 32l-1 2" stroke="#EEE" stroke-width="2" stroke-linecap="round" stroke-linejoin="round"/><path d="M146.5 151c35.622 0 64.5-28.878 64.5-64.5S182.122 22 146.5 22 82 50.878 82 86.5s28.878 64.5 64.5 64.5z" stroke="#EEE" stroke-width="3" stroke-linecap="round" stroke-linejoin="round" stroke-dasharray="1"/><g stroke-linecap="round" stroke-linejoin="round" stroke-dasharray="1" fill-rule="nonzero"><use fill="#000" filter="url(#c)" xlink:href="#d"/><use stroke="#E5E5E5" stroke-width="3" fill="#FFF" xlink:href="#d"/></g><path d="M21.5 30.259V74.74M119 75.5H21" stroke="#FEF0E8" stroke-width="3" stroke-linecap="round"/><path d="M25 70a877.42 877.42 0 0 1 11.3-27.025l12.842 8.86L61.984 35l24.655 22.595 7.192-5.76 12.841 9.747L119 48.734" stroke="#C3B8E3" stroke-width="2" stroke-linecap="round" stroke-linejoin="round" stroke-dasharray="1"/><rect stroke="#FC6D26" fill="#FFF" fill-rule="nonzero" x="88" y="40" width="11" height="6" rx="3"/><path d="M92.665 48.523L91 46h5l-1.665 2.523a1 1 0 0 1-1.67 0z" fill="#FC6D26" fill-rule="nonzero"/><path d="M180.716 18.407l-.205 1.146a.547.547 0 0 1-.635.439.549.549 0 0 1-.335-.198l-.662-.83a.55.55 0 0 0-.352-.2l-1.058-.152a.54.54 0 1 1-.274-.95l.902-.75a.54.54 0 0 0 .187-.32l.205-1.145a.547.547 0 0 1 .635-.439.549.549 0 0 1 .335.198l.662.83a.55.55 0 0 0 .352.2l1.058.152a.54.54 0 1 1 .274.95l-.902.75a.54.54 0 0 0-.187.32z" fill="#FEE1D3" fill-rule="nonzero"/><circle fill="#FEE1D3" fill-rule="nonzero" cx="187.5" cy="22.5" r="1"/><circle fill="#FEE1D3" fill-rule="nonzero" cx="173.5" cy="15.5" r="1"/><circle fill="#E1DBF1" fill-rule="nonzero" cx="251.5" cy="94.5" r="1"/><path d="M7.365 16.695l-.518 1.016a.53.53 0 0 1-.965-.05l-.375-.965a.53.53 0 0 0-.268-.287l-.935-.442a.53.53 0 0 1 .018-.968l1.049-.447a.53.53 0 0 0 .264-.247l.518-1.016a.53.53 0 0 1 .965.05l.375.965a.53.53 0 0 0 .268.287l.935.442a.53.53 0 0 1-.018.968l-1.049.447a.53.53 0 0 0-.264.247z" fill="#E1DBF1" fill-rule="nonzero"/><circle fill="#E1DBF1" fill-rule="nonzero" cx="14.5" cy="14.5" r="1"/><circle fill="#E1DBF1" fill-rule="nonzero" cx="3.5" cy="22.5" r="1"/><g stroke-linecap="round" stroke-linejoin="round" stroke-dasharray="1" fill-rule="nonzero"><use fill="#000" filter="url(#e)" xlink:href="#f"/><use stroke="#E5E5E5" stroke-width="3" fill="#FFF" xlink:href="#f"/></g><path d="M190 65h22c-.376-7.667-2.82-13.417-7.333-17.25S195.265 42 190 42v23z" stroke="#6B4FBB" stroke-width="2" fill="#FFF" fill-rule="nonzero" stroke-linecap="round" stroke-linejoin="round"/><path d="M201.727 53.273l-5.454 5.454" stroke="#E1DBF1" stroke-width="3" stroke-linecap="round" stroke-linejoin="round"/><path d="M199 51l-1 1" stroke="#F0EDF8" stroke-width="3" stroke-linecap="round" stroke-linejoin="round"/><path d="M222.174 66.208H230" stroke="#6B4FBB" stroke-width="3" stroke-linecap="round" stroke-linejoin="round"/><path d="M221.17 71.691H231" stroke="#FEE1D3" stroke-width="3" stroke-linecap="round" stroke-linejoin="round"/><path d="M184.323 47v21.102a2 2 0 0 0 2 2H208C207.154 81.232 197.866 90 186.531 90 174.64 90 165 80.35 165 68.444c0-11.159 8.469-20.337 19.323-21.444z" stroke="#FEE1D3" stroke-width="2" stroke-linecap="round" stroke-linejoin="round"/><path d="M84 104l3-1M204 115l-2-1" stroke="#EEE" stroke-width="2" stroke-linecap="round" stroke-linejoin="round"/><path d="M214.144 122.184l-.894.34a.6.6 0 0 1-.775-.774l.34-.894a1 1 0 0 0 0-.712l-.34-.894a.6.6 0 0 1 .775-.775l.894.34a1 1 0 0 0 .712 0l.894-.34a.6.6 0 0 1 .775.775l-.34.894a1 1 0 0 0 0 .712l.34.894a.6.6 0 0 1-.775.775l-.894-.34a1 1 0 0 0-.712 0z" fill="#EEE" fill-rule="nonzero"/><path d="M252.365 102.695l-.518 1.016a.53.53 0 0 1-.965-.05l-.375-.965a.53.53 0 0 0-.268-.287l-.935-.442a.53.53 0 0 1 .018-.968l1.049-.447a.53.53 0 0 0 .264-.247l.518-1.016a.53.53 0 0 1 .965.05l.375.965a.53.53 0 0 0 .268.287l.935.442a.53.53 0 0 1-.018.968l-1.049.447a.53.53 0 0 0-.264.247z" fill="#E1DBF1" fill-rule="nonzero"/><path d="M66.716 104.407l-.205 1.146a.547.547 0 0 1-.635.439.549.549 0 0 1-.335-.198l-.662-.83a.55.55 0 0 0-.352-.2l-1.058-.152a.54.54 0 1 1-.274-.95l.902-.75a.54.54 0 0 0 .187-.32l.205-1.145a.547.547 0 0 1 .635-.439.549.549 0 0 1 .335.198l.662.83a.55.55 0 0 0 .352.2l1.058.152a.54.54 0 1 1 .274.95l-.902.75a.54.54 0 0 0-.187.32z" fill="#FEE1D3" fill-rule="nonzero"/><circle fill="#FEE1D3" fill-rule="nonzero" cx="62.5" cy="97.5" r="1"/><circle fill="#E1DBF1" fill-rule="nonzero" cx="247.5" cy="107.5" r="1"/><circle fill="#EEE" fill-rule="nonzero" cx="210.5" cy="124.5" r="1"/><g stroke-linecap="round" stroke-linejoin="round" stroke-dasharray="1" fill-rule="nonzero"><use fill="#000" filter="url(#g)" xlink:href="#h"/><use stroke="#E5E5E5" stroke-width="3" fill="#FFF" xlink:href="#h"/></g><circle stroke="#6B4FBB" stroke-width="2" cx="71" cy="133" r="9"/><path d="M85.276 131H138M85.276 135.417H132" stroke="#E0E0E0" stroke-width="2" stroke-linecap="round" stroke-linejoin="round"/><rect fill="#FC6D26" fill-rule="nonzero" x="70" y="128" width="2" height="7" rx="1"/><rect stroke="#E0E0E0" stroke-width="2" x="148" y="128" width="11" height="11" rx="3"/><rect stroke="#FDC4A8" stroke-width="2" x="163" y="128" width="11" height="11" rx="3"/><rect stroke="#C3B8E3" stroke-width="2" x="178" y="128" width="11" height="11" rx="3"/><circle fill="#FC6D26" fill-rule="nonzero" cx="71" cy="137" r="1"/></g></svg>