<svg width="144" height="144" fill="none" xmlns="http://www.w3.org/2000/svg">
  <path d="M126.45 28.009a70.001 70.001 0 11-9.883-9.989" stroke="#AC7FFF" stroke-opacity=".24" stroke-width="4" stroke-linecap="round"/>
  <path d="M27.792 78.417c0 8.608 7 15.587 15.634 15.587h40.065c2.006 0 3.912-.43 5.629-1.205C86.79 97.003 82.297 100 77.139 100H37.075c-8.635 0-15.635-6.978-15.635-15.587 0-6.093 3.507-11.52 8.618-14.084a15.48 15.48 0 00-2.266 8.088z" fill="#AC7FFF" fill-opacity=".24"/>
  <path d="M45 99.999h31.705c1.81.026 3.606-.35 5.274-1.063a13.105 13.105 0 004.418-3.1 13.337 13.337 0 002.823-4.64 13.489 13.489 0 00-.694-10.65 13.266 13.266 0 00-3.399-4.222 13.038 13.038 0 00-4.782-2.484 12.921 12.921 0 00-5.363-.328 17.704 17.704 0 00-4.725-11.036c-2.806-3-6.564-4.9-10.614-5.365a17.122 17.122 0 00-11.525 2.823 17.559 17.559 0 00-7.035 9.686 15.212 15.212 0 00-3.87-.502c-1.998 0-3.977.4-5.822 1.176a15.198 15.198 0 00-4.935 3.347 15.457 15.457 0 00-3.298 5.009 15.641 15.641 0 000 11.817 15.458 15.458 0 003.298 5.01 15.2 15.2 0 004.935 3.346c1.742.733 3.726 1.135 5.609 1.177" stroke="#6E49CB" stroke-width="4" stroke-linecap="round"/>
  <circle cx="56" cy="100" r="12" fill="#4BEACC" stroke="#6E49CB" stroke-width="4" stroke-linecap="round"/>
  <path d="M52.042 99.65a1 1 0 00-1.417 1.412l1.417-1.411zm2.036 3.461l-.708.706a1.001 1.001 0 001.417 0l-.709-.706zm7.297-5.905a1 1 0 00-1.417-1.412l1.417 1.412zm-10.75 3.856l2.745 2.755 1.417-1.412-2.745-2.754-1.417 1.411zm4.162 2.755l6.588-6.611-1.417-1.412-6.588 6.611 1.417 1.412z" fill="#6E49CB"/>
  <path d="M117.75 51c0 8.699-7.052 15.75-15.75 15.75H86.25V51c0-8.699 7.052-15.75 15.75-15.75s15.75 7.051 15.75 15.75z" stroke="#AFA3C6" stroke-opacity=".16" stroke-width="6"/>
  <path d="M83.25 69.75H102c10.355 0 18.75-8.395 18.75-18.75S112.355 32.25 102 32.25 83.25 40.645 83.25 51v9.375" stroke="#6E49CB" stroke-width="4" stroke-linecap="round" stroke-linejoin="round"/>
  <path fill-rule="evenodd" clip-rule="evenodd" d="M104 46a2 2 0 10-4 0v3h-3a2 2 0 100 4h3v3a2 2 0 104 0v-3h3a2 2 0 100-4h-3v-3z" fill="#04AF92"/>
  <circle cx="75" cy="70" r="6" fill="#fff" stroke="#6E49CB" stroke-width="4" stroke-linecap="round" stroke-linejoin="round"/>
</svg>
