<svg width="303" height="170" viewBox="0 0 303 170" fill="none" xmlns="http://www.w3.org/2000/svg">
<path d="M236 87C236 91.2593 235.445 95.3891 234.404 99.321C248.885 101.451 260 113.928 260 129C260 145.569 246.569 159 230 159C229.328 159 228.661 158.978 228 158.934V159H113C95.8792 159 82 145.121 82 128C82 110.879 95.8792 97 113 97C113.987 97 114.963 97.0461 115.927 97.1364C114.073 94.2029 113 90.7267 113 87C113 76.5066 121.507 68 132 68C135.943 68 139.605 69.201 142.641 71.2572C149.157 52.4799 167.005 39 188 39C214.51 39 236 60.4903 236 87Z" fill="#EFEDF8" stroke="#6E49CB" stroke-width="4" stroke-linejoin="round"/>
<path d="M248.18 56H274C288.912 56 301 43.9117 301 29C301 14.0883 288.912 2 274 2C259.088 2 247 14.0883 247 29C247 36.038 249.693 42.447 254.104 47.253" stroke="#C2B7E6" stroke-width="4" stroke-linecap="round"/>
<path d="M219 76C219 64.9543 227.954 56 239 56" stroke="#C2B7E6" stroke-width="4" stroke-linecap="round"/>
<path d="M102 130H29C14.0883 130 2 117.912 2 103C2 88.0883 14.0883 76 29 76C43.9117 76 56 88.0883 56 103C56 110.038 53.3072 116.447 48.8957 121.253" stroke="#C2B7E6" stroke-width="4" stroke-linecap="round"/>
<path d="M66.5466 130H52C42.0589 130 34 138.059 34 148C34 157.941 42.0589 166 52 166C61.9411 166 70 157.941 70 148C70 145.621 69.5384 143.349 68.6998 141.27" stroke="#C2B7E6" stroke-width="4" stroke-linecap="round"/>
<path d="M101 85C101 68.4315 114.431 55 131 55C132.452 55 133.879 55.1031 135.276 55.3024C145.851 37.1785 165.503 25 188 25C202.139 25 215.155 29.8107 225.5 37.8847" stroke="#F2F2F2" stroke-width="8" stroke-linecap="round"/>
<path d="M175.68 132.845C182.021 132.845 195.68 131.15 195.68 127.895V92H155.68V127.895C155.68 131.15 169.338 132.845 175.68 132.845Z" fill="white"/>
<path fill-rule="evenodd" clip-rule="evenodd" d="M195.68 88C197.889 88 199.68 89.7909 199.68 92V127.895C199.68 129.822 198.646 131.19 197.8 131.975C196.961 132.753 195.96 133.299 195.079 133.693C193.291 134.492 191.042 135.079 188.833 135.515C184.364 136.397 179.104 136.845 175.68 136.845C172.255 136.845 166.995 136.397 162.527 135.515C160.318 135.079 158.068 134.492 156.281 133.693C155.4 133.299 154.398 132.753 153.559 131.975C152.713 131.19 151.68 129.822 151.68 127.895V92C151.68 89.7909 153.471 88 155.68 88H195.68ZM195.68 92V127.895C195.68 131.15 182.021 132.845 175.68 132.845C169.338 132.845 155.68 131.15 155.68 127.895V92H195.68Z" fill="#6E49CB"/>
<path d="M197 119C197 120.657 187.374 123 175.5 123C163.626 123 154 120.657 154 119" stroke="#6E49CB" stroke-width="2"/>
<path d="M197 106C197 107.657 187.374 110 175.5 110C163.626 110 154 107.657 154 106" stroke="#6E49CB" stroke-width="2"/>
<path d="M195.992 92.2735C195.992 93.7273 186.968 94.9058 175.836 94.9058C164.704 94.9058 155.68 93.7273 155.68 92.2735C155.68 90.8198 164.704 89.6413 175.836 89.6413C186.968 89.6413 195.992 90.8198 195.992 92.2735Z" fill="white"/>
<path fill-rule="evenodd" clip-rule="evenodd" d="M192.06 93.7881C191.068 93.9732 189.899 94.1407 188.585 94.2864C185.1 94.6729 180.597 94.9058 175.68 94.9058C170.763 94.9058 166.26 94.6729 162.774 94.2864C161.46 94.1407 160.291 93.9732 159.299 93.7881C157.003 93.3598 155.654 92.8374 155.654 92.2735C155.654 91.7097 157.003 91.1873 159.299 90.759C160.291 90.5739 161.46 90.4064 162.774 90.2607C166.26 89.8742 170.763 89.6413 175.68 89.6413C180.597 89.6413 185.1 89.8742 188.585 90.2607C189.899 90.4064 191.068 90.5739 192.06 90.759C194.357 91.1873 195.706 91.7097 195.706 92.2735C195.706 92.8374 194.357 93.3598 192.06 93.7881ZM190.355 98.1012C186.513 98.6062 181.326 98.9058 175.68 98.9058C170.033 98.9058 164.847 98.6062 161.005 98.1012C159.112 97.8524 157.387 97.534 156.055 97.1201C155.418 96.9221 154.631 96.631 153.923 96.1759C153.44 95.8656 151.68 94.6465 151.68 92.2735C151.68 89.9006 153.44 88.6815 153.923 88.3712C154.631 87.9161 155.418 87.625 156.055 87.427C157.387 87.0131 159.112 86.6947 161.005 86.4459C164.847 85.9409 170.033 85.6413 175.68 85.6413C181.326 85.6413 186.513 85.9409 190.355 86.4459C192.247 86.6947 193.972 87.0131 195.304 87.427C195.941 87.625 196.728 87.9161 197.437 88.3712C197.92 88.6815 199.68 89.9006 199.68 92.2735C199.68 94.6465 197.92 95.8656 197.437 96.1759C196.728 96.631 195.941 96.9221 195.304 97.1201C193.972 97.534 192.247 97.8524 190.355 98.1012Z" fill="#6E49CB"/>
<g clip-path="url(#clip0)">
<path d="M55.5189 142.463C55.6618 141.93 55.3452 141.381 54.8118 141.238C54.2783 141.096 53.7299 141.412 53.587 141.946L50.4812 153.537C50.3382 154.07 50.6548 154.619 51.1883 154.761C51.7218 154.904 52.2701 154.588 52.413 154.054L55.5189 142.463Z" fill="#FC6D26"/>
<path d="M49.7071 144.293C50.0976 144.683 50.0976 145.317 49.7071 145.707L47.4142 148L49.7071 150.293C50.0976 150.683 50.0976 151.317 49.7071 151.707C49.3166 152.098 48.6834 152.098 48.2929 151.707L45.2929 148.707C44.9024 148.317 44.9024 147.683 45.2929 147.293L48.2929 144.293C48.6834 143.902 49.3166 143.902 49.7071 144.293Z" fill="#FC6D26"/>
<path d="M56.2929 144.293C55.9024 144.683 55.9024 145.317 56.2929 145.707L58.5858 148L56.2929 150.293C55.9024 150.683 55.9024 151.317 56.2929 151.707C56.6834 152.098 57.3166 152.098 57.7071 151.707L60.7071 148.707C61.0976 148.317 61.0976 147.683 60.7071 147.293L57.7071 144.293C57.3166 143.902 56.6834 143.902 56.2929 144.293Z" fill="#FC6D26"/>
</g>
<path d="M264 27C264 25.8954 264.895 25 266 25H274C275.105 25 276 25.8954 276 27C276 28.1046 275.105 29 274 29H266C264.895 29 264 28.1046 264 27Z" fill="#FC6D26"/>
<path d="M278 27C278 25.8954 278.895 25 280 25H282C283.105 25 284 25.8954 284 27C284 28.1046 283.105 29 282 29H280C278.895 29 278 28.1046 278 27Z" fill="#FC6D26"/>
<path fill-rule="evenodd" clip-rule="evenodd" d="M260 17C258.895 17 258 17.8954 258 19V35C258 36.1046 258.895 37 260 37H272V39H264C262.895 39 262 39.8954 262 41C262 42.1046 262.895 43 264 43H284C285.105 43 286 42.1046 286 41C286 39.8954 285.105 39 284 39H276V37H288C289.105 37 290 36.1046 290 35V19C290 17.8954 289.105 17 288 17H260ZM262 21V33H286V21H262Z" fill="#FC6D26"/>
<path fill-rule="evenodd" clip-rule="evenodd" d="M15 91C15 89.8954 15.8954 89 17 89H25C26.1046 89 27 89.8954 27 91V99C27 100.105 26.1046 101 25 101H17C15.8954 101 15 100.105 15 99V91ZM19 97V93H23V97H19Z" fill="#FC6D26"/>
<path fill-rule="evenodd" clip-rule="evenodd" d="M31 91C31 89.8954 31.8954 89 33 89H41C42.1046 89 43 89.8954 43 91V99C43 100.105 42.1046 101 41 101H33C31.8954 101 31 100.105 31 99V91ZM35 97V93H39V97H35Z" fill="#FC6D26"/>
<path fill-rule="evenodd" clip-rule="evenodd" d="M17 105C15.8954 105 15 105.895 15 107V115C15 116.105 15.8954 117 17 117H25C26.1046 117 27 116.105 27 115V107C27 105.895 26.1046 105 25 105H17ZM19 109V113H23V109H19Z" fill="#FC6D26"/>
<path d="M33 105C31.8954 105 31 105.895 31 107V115C31 116.105 31.8954 117 33 117H41C42.1046 117 43 116.105 43 115V107C43 105.895 42.1046 105 41 105H33Z" fill="#FC6D26"/>
<path d="M281.602 168C292.315 168 301 159.27 301 148.5C301 137.73 292.315 129 281.602 129H221" stroke="#C2B7E6" stroke-width="4" stroke-linecap="round"/>
<path d="M278 149C278 148.448 278.448 148 279 148H283C283.552 148 284 148.448 284 149C284 149.552 283.552 150 283 150H279C278.448 150 278 149.552 278 149Z" fill="#FC6D26"/>
<path d="M279 151C278.448 151 278 151.448 278 152C278 152.552 278.448 153 279 153H281C281.552 153 282 152.552 282 152C282 151.448 281.552 151 281 151H279Z" fill="#FC6D26"/>
<path fill-rule="evenodd" clip-rule="evenodd" d="M283.586 142.586C283.211 142.211 282.702 142 282.172 142H276C275.448 142 275 142.448 275 143V155C275 155.552 275.448 156 276 156H286C286.552 156 287 155.552 287 155V146.828C287 146.298 286.789 145.789 286.414 145.414L283.586 142.586ZM285 147V154H277V144H282V146C282 146.552 282.448 147 283 147H285Z" fill="#FC6D26"/>
<defs>
<clipPath id="clip0">
<rect width="16" height="16" fill="white" transform="translate(45 140)"/>
</clipPath>
</defs>
</svg>
