<svg fill="none" height="228" viewBox="0 0 292 228" width="292" xmlns="http://www.w3.org/2000/svg"><rect height="224" rx="14" stroke="#f0f0f0" stroke-width="4" width="288" x="2" y="2"/><rect height="56" rx="6" stroke="#f0f0f0" stroke-width="4" width="256" x="18" y="18"/><circle cx="50" cy="46" fill="#fff" r="16.5" stroke="#999" stroke-width="3"/><path d="m51 44c0-.5523-.4477-1-1-1s-1 .4477-1 1v3.4142l2.2928 2.2929c.3906.3905 1.0238.3905 1.4144 0 .3905-.3905.3905-1.0237 0-1.4142l-1.7072-1.7071z" fill="#999"/><path clip-rule="evenodd" d="m49 38c-.5523 0-1 .4477-1 1s.4477 1 1 1v.0709c-3.3923.4852-6 3.4026-6 6.9291 0 3.866 3.134 7 7 7s7-3.134 7-7c0-1.5759-.5208-3.0302-1.3997-4.2001.0372-.028.073-.0589.1069-.0928l1-1c.3905-.3905.3905-1.0237 0-1.4142-.3906-.3905-1.0238-.3905-1.4144 0l-1 1c-.0338.0338-.0646.0695-.0926.1067-.9179-.6895-2.0108-1.1586-3.2002-1.3287v-.0709c.5523 0 1-.4477 1-1s-.4477-1-1-1zm1 14c2.7614 0 5-2.2386 5-5s-2.2386-5-5-5-5 2.2386-5 5 2.2386 5 5 5z" fill="#999" fill-rule="evenodd"/><rect fill="#f0f0f0" height="4" rx="2" width="184" x="76" y="46"/><rect height="56" rx="6" stroke="#efedf8" stroke-width="4" width="256" x="18" y="154"/><circle cx="50" cy="182" fill="#fff" r="16.5" stroke="#6e49cb" stroke-width="3"/><path d="m51 180c0-.552-.4477-1-1-1s-1 .448-1 1v3.414l2.2928 2.293c.3906.391 1.0238.391 1.4144 0 .3905-.39.3905-1.024 0-1.414l-1.7072-1.707z" fill="#6e49cb"/><path clip-rule="evenodd" d="m49 174c-.5523 0-1 .448-1 1s.4477 1 1 1v.071c-3.3923.485-6 3.403-6 6.929 0 3.866 3.134 7 7 7s7-3.134 7-7c0-1.576-.5208-3.03-1.3997-4.2.0372-.028.073-.059.1069-.093l1-1c.3905-.39.3905-1.024 0-1.414-.3906-.391-1.0238-.391-1.4144 0l-1 1c-.0338.034-.0646.069-.0926.107-.9179-.69-2.0108-1.159-3.2002-1.329v-.071c.5523 0 1-.448 1-1s-.4477-1-1-1zm1 14c2.7614 0 5-2.239 5-5s-2.2386-5-5-5-5 2.239-5 5 2.2386 5 5 5z" fill="#6e49cb" fill-rule="evenodd"/><rect fill="#f0edfa" height="4" rx="2" width="184" x="76" y="181"/><rect height="56" rx="6" stroke="#fcf0ea" stroke-width="4" width="256" x="18" y="86"/><circle cx="50" cy="114" fill="#fff" r="16.5" stroke="#fca121" stroke-width="3"/><path d="m51 112c0-.552-.4477-1-1-1s-1 .448-1 1v3.414l2.2928 2.293c.3906.391 1.0238.391 1.4144 0 .3905-.39.3905-1.024 0-1.414l-1.7072-1.707z" fill="#fca121"/><path clip-rule="evenodd" d="m49 106c-.5523 0-1 .448-1 1s.4477 1 1 1v.071c-3.3923.485-6 3.403-6 6.929 0 3.866 3.134 7 7 7s7-3.134 7-7c0-1.576-.5208-3.03-1.3997-4.2.0372-.028.073-.059.1069-.093l1-1c.3905-.39.3905-1.024 0-1.414-.3906-.391-1.0238-.391-1.4144 0l-1 1c-.0338.034-.0646.069-.0926.107-.9179-.69-2.0108-1.159-3.2002-1.329v-.071c.5523 0 1-.448 1-1s-.4477-1-1-1zm1 14c2.7614 0 5-2.239 5-5s-2.2386-5-5-5-5 2.239-5 5 2.2386 5 5 5z" fill="#fca121" fill-rule="evenodd"/><rect fill="#fff0e9" height="4" rx="2" width="184" x="76" y="113"/></svg>