<svg width="144" height="144" viewBox="0 0 144 144" fill="none" xmlns="http://www.w3.org/2000/svg"><path d="M126.45 28.009a70.001 70.001 0 1 1-9.883-9.989" stroke="#AC7FFF" stroke-opacity=".24" stroke-width="4" stroke-linecap="round"/><circle cx="52" cy="92" r="12" stroke="#6E49CB" stroke-width="4" stroke-linecap="round" stroke-linejoin="round"/><circle cx="52" cy="52" r="12" stroke="#6E49CB" stroke-width="4" stroke-linecap="round" stroke-linejoin="round"/><circle cx="93" cy="72" r="15.75" stroke="#AFA3C6" stroke-opacity=".16" stroke-width="6"/><path d="M109.889 80.144a18.75 18.75 0 1 0-4.881 6.256" stroke="#6E49CB" stroke-width="4" stroke-linecap="round" stroke-linejoin="round"/><path fill-rule="evenodd" clip-rule="evenodd" d="M95 67a2 2 0 1 0-4 0v3h-3a2 2 0 1 0 0 4h3v3a2 2 0 1 0 4 0v-3h3a2 2 0 1 0 0-4h-3v-3Z" fill="#04AF92"/></svg>