<svg width="234" height="162" viewBox="0 0 234 162" fill="none" xmlns="http://www.w3.org/2000/svg">
<path d="M174.68 56.344H200.5C215.412 56.344 227.5 44.1787 227.5 29.172C227.5 14.1653 215.412 2 200.5 2C185.588 2 173.5 14.1653 173.5 29.172C173.5 36.2548 176.193 42.7046 180.604 47.5412" stroke="#C2B7E6" stroke-width="4" stroke-linecap="round"/>
<path d="M145.5 76.4713C145.5 65.3553 154.454 56.3439 165.5 56.3439" stroke="#C2B7E6" stroke-width="4" stroke-linecap="round"/>
<path d="M102.5 121.758H29.5C14.5883 121.758 2.5 109.593 2.5 94.586C2.5 79.5793 14.5883 67.414 29.5 67.414C44.4117 67.414 56.5 79.5793 56.5 94.586C56.5 101.669 53.8072 108.119 49.3957 112.955" stroke="#C2B7E6" stroke-width="4" stroke-linecap="round"/>
<path d="M67.0466 121.758H52.5C42.5589 121.758 34.5 129.868 34.5 139.873C34.5 149.877 42.5589 157.987 52.5 157.987C62.4411 157.987 70.5 149.877 70.5 139.873C70.5 137.478 70.0384 135.192 69.1998 133.1" stroke="#C2B7E6" stroke-width="4" stroke-linecap="round"/>
<g clip-path="url(#clip0)">
<path d="M56.0188 134.3C56.1617 133.764 55.8451 133.211 55.3117 133.068C54.7782 132.925 54.2298 133.243 54.0869 133.78L50.9811 145.445C50.8381 145.981 51.1547 146.534 51.6882 146.677C52.2217 146.821 52.77 146.503 52.9129 145.965L56.0188 134.3Z" fill="#FC6D26"/>
<path d="M50.2071 136.142C50.5976 136.534 50.5976 137.173 50.2071 137.565L47.9142 139.873L50.2071 142.18C50.5976 142.573 50.5976 143.211 50.2071 143.603C49.8166 143.997 49.1834 143.997 48.7929 143.603L45.7929 140.584C45.4024 140.192 45.4024 139.554 45.7929 139.161L48.7929 136.142C49.1834 135.748 49.8166 135.748 50.2071 136.142Z" fill="#FC6D26"/>
<path d="M56.7929 136.142C56.4024 136.534 56.4024 137.173 56.7929 137.565L59.0858 139.873L56.7929 142.18C56.4024 142.573 56.4024 143.211 56.7929 143.603C57.1834 143.997 57.8166 143.997 58.2071 143.603L61.2071 140.584C61.5976 140.192 61.5976 139.554 61.2071 139.161L58.2071 136.142C57.8166 135.748 57.1834 135.748 56.7929 136.142Z" fill="#FC6D26"/>
</g>
<path d="M212.102 160C222.815 160 231.5 151.214 231.5 140.376C231.5 129.537 222.815 120.752 212.102 120.752H151.5" stroke="#C2B7E6" stroke-width="4" stroke-linecap="round"/>
<path d="M126.5 138.866C107.171 138.866 91.5 123.096 91.5 103.643C91.5 84.191 107.171 68.4204 126.5 68.4204C145.829 68.4204 161.5 84.191 161.5 103.643C161.5 123.096 145.829 138.866 126.5 138.866ZM126.5 131.451C141.76 131.451 154.132 119.001 154.132 103.643C154.132 88.2861 141.76 75.8358 126.5 75.8358C111.24 75.8358 98.8684 88.2861 98.8684 103.643C98.8684 119.001 111.24 131.451 126.5 131.451Z" fill="#FC6D26"/>
<path fill-rule="evenodd" clip-rule="evenodd" d="M126.126 87.1326C135.355 87.1326 142.906 94.5624 142.906 103.643C142.906 112.724 135.355 120.154 126.126 120.154C120.672 120.154 115.638 117.265 112.281 113.137L126.126 103.643V87.1326Z" fill="#6E49CB"/>
<g clip-path="url(#clip1)">
<path d="M29.5 90.2659L24.3571 91.9534V93.163C24.3571 94.9624 25.087 96.6873 26.3846 97.9546L29.5 100.997V90.2659Z" fill="#FC6D26"/>
<path fill-rule="evenodd" clip-rule="evenodd" d="M17.5 86.8909L29.5 83.5159L41.5 86.8909V93.1115C41.5 96.692 40.0551 100.126 37.4832 102.657L29.5 110.516L21.5168 102.657C18.9449 100.126 17.5 96.692 17.5 93.1115V86.8909ZM20.9286 93.1115V89.4367L29.5 87.026L38.0714 89.4367V93.1115C38.0714 95.7969 36.9878 98.3722 35.0588 100.271L29.5 105.743L23.9412 100.271C22.0122 98.3722 20.9286 95.7969 20.9286 93.1115Z" fill="#FC6D26"/>
</g>
<g clip-path="url(#clip2)">
<path d="M210.857 19.7295L209.51 24.8236C208.922 27.0444 207.518 28.9574 205.581 30.1751L194.728 36.9989L191.862 34.1144L198.642 23.192C199.852 21.243 201.753 19.8297 203.96 19.2385L209.022 17.8825C209.822 17.668 210.644 18.1473 210.857 18.9529C210.925 19.2074 210.925 19.4751 210.857 19.7295ZM207.292 21.47L204.732 22.156C203.261 22.5501 201.993 23.4923 201.187 24.7917L196.517 32.3145L203.992 27.6146C205.283 26.8029 206.219 25.5275 206.611 24.0469L207.292 21.47ZM196.5 38.2293L204 33.7006V35.2102C204 38.545 201.314 41.2484 198 41.2484H196.5V38.2293ZM190.5 32.1911H187.5V30.6815C187.5 27.3467 190.186 24.6433 193.5 24.6433H195L190.5 32.1911Z" fill="#FC6D26"/>
</g>
<defs>
<clipPath id="clip0">
<rect width="16" height="13.6779" fill="white" transform="translate(45.5 133.033)"/>
</clipPath>
<clipPath id="clip1">
<rect width="24" height="27.172" fill="white" transform="translate(17.5 83.5159)"/>
</clipPath>
<clipPath id="clip2">
<rect width="24" height="24.1529" fill="white" transform="translate(187.5 17.0955)"/>
</clipPath>
</defs>
</svg>
