<svg width="242" height="214" viewBox="0 0 242 214" fill="none" xmlns="http://www.w3.org/2000/svg">
<rect x="1" y="1" width="240" height="60" rx="4" fill="white"/>
<path d="M61 37H133" stroke="#C2B7E6" stroke-width="4" stroke-linecap="round"/>
<path d="M61 25H157" stroke="#C2B7E6" stroke-width="4" stroke-linecap="round"/>
<path d="M31 45C38.732 45 45 38.732 45 31C45 23.268 38.732 17 31 17C23.268 17 17 23.268 17 31C17 38.732 23.268 45 31 45Z" fill="#FCF0EA"/>
<path d="M35.6669 34.8889C36.526 34.8889 37.2224 34.1925 37.2224 33.3334C37.2224 32.4743 36.526 31.7778 35.6669 31.7778C34.8078 31.7778 34.1113 32.4743 34.1113 33.3334C34.1113 34.1925 34.8078 34.8889 35.6669 34.8889Z" fill="#FC6D26"/>
<path d="M27.8885 33.3334C27.8885 34.1925 27.192 34.8889 26.3329 34.8889C25.4738 34.8889 24.7773 34.1925 24.7773 33.3334C24.7773 32.4743 25.4738 31.7778 26.3329 31.7778C27.192 31.7778 27.8885 32.4743 27.8885 33.3334Z" fill="#FC6D26"/>
<path fill-rule="evenodd" clip-rule="evenodd" d="M31 15C22.1634 15 15 22.1634 15 31C15 39.8366 22.1634 47 31 47C39.8366 47 47 39.8366 47 31C47 22.1634 39.8366 15 31 15ZM28.5303 19.2544C29.3273 19.0877 30.1534 19 31 19C34.4216 19 37.5087 20.432 39.6947 22.7294L28.5303 19.2544ZM24.2563 21.0727C21.8209 22.7304 20.0272 25.2607 19.3251 28.214C21.8376 26.8352 23.8999 24.7359 25.2328 22.1942C24.891 21.8353 24.5651 21.4611 24.2563 21.0727ZM19.0066 30.5997C19.0022 30.7326 19 30.866 19 31C19 37.6274 24.3726 43 31 43C37.6274 43 43 37.6274 43 31C43 29.4405 42.7025 27.9506 42.1612 26.5837C40.6006 27.0709 38.9414 27.3332 37.2222 27.3332C33.2467 27.3332 29.5988 25.9317 26.7455 23.597C24.9944 26.6863 22.2789 29.1569 19.0066 30.5997ZM37.2222 25.3332C33.0462 25.3332 29.2802 23.575 26.625 20.756L40.2905 25.0095C39.3018 25.2216 38.2754 25.3332 37.2222 25.3332Z" fill="#FC6D26"/>
<rect x="173" y="19" width="54" height="24" rx="4" fill="white" stroke="#DFDFDF" stroke-width="2" stroke-linecap="round"/>
<rect x="1" y="1" width="240" height="60" rx="4" stroke="#DFDFDF" stroke-width="2" stroke-linecap="round"/>
<rect x="1" y="77" width="240" height="60" rx="4" fill="white"/>
<path d="M61 113H133" stroke="#C2B7E6" stroke-width="4" stroke-linecap="round"/>
<path d="M61 101H157" stroke="#C2B7E6" stroke-width="4" stroke-linecap="round"/>
<path d="M31 121C38.732 121 45 114.732 45 107C45 99.268 38.732 93 31 93C23.268 93 17 99.268 17 107C17 114.732 23.268 121 31 121Z" fill="#FCF0EA"/>
<path d="M35.6669 110.889C36.526 110.889 37.2224 110.192 37.2224 109.333C37.2224 108.474 36.526 107.778 35.6669 107.778C34.8078 107.778 34.1113 108.474 34.1113 109.333C34.1113 110.192 34.8078 110.889 35.6669 110.889Z" fill="#FC6D26"/>
<path d="M27.8885 109.333C27.8885 110.192 27.192 110.889 26.3329 110.889C25.4738 110.889 24.7773 110.192 24.7773 109.333C24.7773 108.474 25.4738 107.778 26.3329 107.778C27.192 107.778 27.8885 108.474 27.8885 109.333Z" fill="#FC6D26"/>
<path fill-rule="evenodd" clip-rule="evenodd" d="M31 91C22.1634 91 15 98.1634 15 107C15 115.837 22.1634 123 31 123C39.8366 123 47 115.837 47 107C47 98.1634 39.8366 91 31 91ZM28.5303 95.2544C29.3273 95.0877 30.1534 95 31 95C34.4216 95 37.5087 96.432 39.6947 98.7294L28.5303 95.2544ZM24.2563 97.0727C21.8209 98.7304 20.0272 101.261 19.3251 104.214C21.8376 102.835 23.8999 100.736 25.2328 98.1942C24.891 97.8353 24.5651 97.4611 24.2563 97.0727ZM19.0066 106.6C19.0022 106.733 19 106.866 19 107C19 113.627 24.3726 119 31 119C37.6274 119 43 113.627 43 107C43 105.441 42.7025 103.951 42.1612 102.584C40.6006 103.071 38.9414 103.333 37.2222 103.333C33.2467 103.333 29.5988 101.932 26.7455 99.597C24.9944 102.686 22.2789 105.157 19.0066 106.6ZM37.2222 101.333C33.0462 101.333 29.2802 99.575 26.625 96.756L40.2905 101.009C39.3018 101.222 38.2754 101.333 37.2222 101.333Z" fill="#FC6D26"/>
<rect x="173" y="95" width="54" height="24" rx="4" fill="white" stroke="#DFDFDF" stroke-width="2" stroke-linecap="round"/>
<rect x="1" y="77" width="240" height="60" rx="4" stroke="#DFDFDF" stroke-width="2" stroke-linecap="round"/>
<rect x="1" y="153" width="240" height="60" rx="4" fill="white"/>
<path d="M61 189H133" stroke="#C2B7E6" stroke-width="4" stroke-linecap="round"/>
<path d="M61 177H157" stroke="#C2B7E6" stroke-width="4" stroke-linecap="round"/>
<path d="M31 197C38.732 197 45 190.732 45 183C45 175.268 38.732 169 31 169C23.268 169 17 175.268 17 183C17 190.732 23.268 197 31 197Z" fill="#FCF0EA"/>
<path d="M35.6669 186.889C36.526 186.889 37.2224 186.192 37.2224 185.333C37.2224 184.474 36.526 183.778 35.6669 183.778C34.8078 183.778 34.1113 184.474 34.1113 185.333C34.1113 186.192 34.8078 186.889 35.6669 186.889Z" fill="#FC6D26"/>
<path d="M27.8885 185.333C27.8885 186.192 27.192 186.889 26.3329 186.889C25.4738 186.889 24.7773 186.192 24.7773 185.333C24.7773 184.474 25.4738 183.778 26.3329 183.778C27.192 183.778 27.8885 184.474 27.8885 185.333Z" fill="#FC6D26"/>
<path fill-rule="evenodd" clip-rule="evenodd" d="M31 167C22.1634 167 15 174.163 15 183C15 191.837 22.1634 199 31 199C39.8366 199 47 191.837 47 183C47 174.163 39.8366 167 31 167ZM28.5303 171.254C29.3273 171.088 30.1534 171 31 171C34.4216 171 37.5087 172.432 39.6947 174.729L28.5303 171.254ZM24.2563 173.073C21.8209 174.73 20.0272 177.261 19.3251 180.214C21.8376 178.835 23.8999 176.736 25.2328 174.194C24.891 173.835 24.5651 173.461 24.2563 173.073ZM19.0066 182.6C19.0022 182.733 19 182.866 19 183C19 189.627 24.3726 195 31 195C37.6274 195 43 189.627 43 183C43 181.441 42.7025 179.951 42.1612 178.584C40.6006 179.071 38.9414 179.333 37.2222 179.333C33.2467 179.333 29.5988 177.932 26.7455 175.597C24.9944 178.686 22.2789 181.157 19.0066 182.6ZM37.2222 177.333C33.0462 177.333 29.2802 175.575 26.625 172.756L40.2905 177.009C39.3018 177.222 38.2754 177.333 37.2222 177.333Z" fill="#FC6D26"/>
<rect x="173" y="171" width="54" height="24" rx="4" fill="white" stroke="#DFDFDF" stroke-width="2" stroke-linecap="round"/>
<rect x="1" y="153" width="240" height="60" rx="4" stroke="#DFDFDF" stroke-width="2" stroke-linecap="round"/>
</svg>
