<svg width="253" height="372" viewBox="0 0 253 372" fill="none" xmlns="http://www.w3.org/2000/svg">
<path d="M189.465 58.7049L79.5453 43.2567C74.0762 42.4881 69.0195 46.2986 68.2508 51.7677L48.4883 192.386C47.7196 197.855 51.5301 202.912 56.9992 203.68L166.919 219.128C172.388 219.897 177.445 216.087 178.213 210.617L197.976 69.9993C198.745 64.5302 194.934 59.4736 189.465 58.7049Z" fill="white" stroke="#E5E5E5" stroke-width="8"/>
<path d="M95.0355 76.7387L87.1133 75.6253C86.0195 75.4715 85.0082 76.2336 84.8545 77.3275C84.7007 78.4213 85.4628 79.4326 86.5567 79.5863L94.4788 80.6997C95.5726 80.8535 96.584 80.0914 96.7377 78.9975C96.8914 77.9037 96.1293 76.8924 95.0355 76.7387Z" fill="#FC8A51"/>
<path d="M134.647 82.3055L126.725 81.1922C125.631 81.0384 124.62 81.8005 124.466 82.8944C124.312 83.9882 125.074 84.9995 126.168 85.1532L134.09 86.2666C135.184 86.4203 136.195 85.6583 136.349 84.5644C136.503 83.4706 135.741 82.4593 134.647 82.3055Z" fill="#FC8A51"/>
<path d="M118.803 80.0788L102.959 77.8521C101.865 77.6984 100.854 78.4604 100.7 79.5543C100.546 80.6481 101.309 81.6594 102.402 81.8131L118.247 84.0399C119.34 84.1936 120.352 83.4315 120.506 82.3377C120.659 81.2439 119.897 80.2326 118.803 80.0788Z" fill="#FDE5D8"/>
<path d="M98.2272 111.521L82.3829 109.294C81.2891 109.14 80.2777 109.903 80.124 110.996C79.9703 112.09 80.7324 113.102 81.8262 113.255L97.6705 115.482C98.7643 115.636 99.7756 114.874 99.9294 113.78C100.083 112.686 99.321 111.675 98.2272 111.521Z" fill="#6B4FBB"/>
<path d="M121.993 114.861L106.149 112.635C105.055 112.481 104.043 113.243 103.89 114.337C103.736 115.431 104.498 116.442 105.592 116.596L121.436 118.822C122.53 118.976 123.541 118.214 123.695 117.12C123.849 116.026 123.087 115.015 121.993 114.861Z" fill="#FDE5D8"/>
<path d="M111.983 128.602L96.1387 126.375C95.0449 126.221 94.0336 126.983 93.8799 128.077C93.7261 129.171 94.4882 130.182 95.582 130.336L111.426 132.563C112.52 132.717 113.531 131.954 113.685 130.861C113.839 129.767 113.077 128.756 111.983 128.602Z" fill="#FC8A51"/>
<path d="M88.2171 125.262L80.295 124.148C79.2012 123.995 78.1898 124.757 78.0361 125.851C77.8824 126.944 78.6445 127.956 79.7383 128.11L87.6604 129.223C88.7543 129.377 89.7656 128.615 89.9193 127.521C90.073 126.427 89.311 125.416 88.2171 125.262Z" fill="#FDE5D8"/>
<path d="M92.6703 93.5731L84.7481 92.4597C83.6543 92.306 82.643 93.0681 82.4892 94.1619C82.3355 95.2558 83.0976 96.2671 84.1914 96.4208L92.1136 97.5342C93.2074 97.6879 94.2187 96.9258 94.3724 95.832C94.5262 94.7382 93.7641 93.7269 92.6703 93.5731Z" fill="#FDE5D8"/>
<path d="M108.514 95.7999L100.592 94.6865C99.498 94.5328 98.4867 95.2949 98.333 96.3887C98.1793 97.4826 98.9414 98.4939 100.035 98.6476L107.957 99.761C109.051 99.9147 110.062 99.1526 110.216 98.0588C110.37 96.965 109.608 95.9537 108.514 95.7999Z" fill="#FC8A51"/>
<path d="M127.828 130.829L119.906 129.715C118.812 129.562 117.801 130.324 117.647 131.418C117.494 132.511 118.256 133.523 119.35 133.676L127.272 134.79C128.366 134.944 129.377 134.181 129.531 133.088C129.684 131.994 128.922 130.982 127.828 130.829Z" fill="#FDE5D8"/>
<path d="M124.36 98.0267L116.438 96.9134C115.344 96.7596 114.332 97.5217 114.179 98.6155C114.025 99.7094 114.787 100.721 115.881 100.874L123.803 101.988C124.897 102.142 125.908 101.379 126.062 100.286C126.216 99.1918 125.454 98.1805 124.36 98.0267Z" fill="#6B4FBB"/>
<path d="M140.203 100.254L132.281 99.1402C131.187 98.9864 130.176 99.7485 130.022 100.842C129.869 101.936 130.631 102.948 131.725 103.101L139.647 104.215C140.741 104.368 141.752 103.606 141.906 102.512C142.059 101.419 141.297 100.407 140.203 100.254Z" fill="#FDE5D8"/>
<path d="M228.901 132.555L230.556 113.629C230.941 109.23 227.683 105.347 223.279 104.962L199.385 102.871C196.618 102.629 193.253 104.357 191.84 106.729L185.875 116.747L136.301 112.41C134.993 112.295 133.675 112.439 132.423 112.833C131.171 113.228 130.009 113.865 129.003 114.709C127.997 115.553 127.168 116.587 126.562 117.752C125.956 118.917 125.586 120.189 125.472 121.497L120.852 174.301C120.372 179.793 124.439 184.65 129.939 185.131L213.629 192.453C219.133 192.934 223.975 188.864 224.456 183.364L228.902 132.554L228.901 132.555Z" fill="white" stroke="#B5A7DD" stroke-width="8"/>
<path fill-rule="evenodd" clip-rule="evenodd" d="M62 132C62 122.06 70.06 114 80 114C89.94 114 98 122.06 98 132C98 141.94 89.94 150 80 150C70.06 150 62 141.94 62 132Z" fill="#C1E7D0"/>
<path fill-rule="evenodd" clip-rule="evenodd" d="M94.1434 132C94.1434 124.19 87.8114 117.857 80.0004 117.857C72.1904 117.857 65.8574 124.189 65.8574 132C65.8574 139.81 72.1894 146.143 80.0004 146.143C87.8104 146.143 94.1434 139.811 94.1434 132Z" fill="white"/>
<path fill-rule="evenodd" clip-rule="evenodd" d="M78.6854 133.875L75.5054 130.695C75.3649 130.555 75.1749 130.476 74.9764 130.475C74.778 130.474 74.5872 130.551 74.4454 130.69L72.8954 132.24C72.7564 132.382 72.6789 132.572 72.6797 132.771C72.6804 132.969 72.7594 133.159 72.8994 133.3L77.8194 138.22C78.3234 138.724 79.1394 138.724 79.6424 138.22L80.2964 137.567L88.1004 129.763C88.4004 129.463 88.3904 128.993 88.0954 128.696L86.5174 127.116C86.4478 127.045 86.3649 126.989 86.2734 126.95C86.1818 126.912 86.0836 126.891 85.9842 126.891C85.8849 126.891 85.7865 126.91 85.6947 126.948C85.6029 126.986 85.5195 127.042 85.4494 127.112L78.6854 133.875Z" fill="#31AF64"/>
<path fill-rule="evenodd" clip-rule="evenodd" d="M8 66C8 56.06 16.06 48 26 48C35.94 48 44 56.06 44 66C44 75.94 35.94 84 26 84C16.06 84 8 75.94 8 66Z" fill="#D5ECF7"/>
<path fill-rule="evenodd" clip-rule="evenodd" d="M40.1434 65.9999C40.1434 58.1899 33.8114 51.8569 26.0004 51.8569C18.1904 51.8569 11.8574 58.1889 11.8574 65.9999C11.8574 73.8099 18.1894 80.1429 26.0004 80.1429C33.8104 80.1429 40.1434 73.8109 40.1434 65.9999Z" fill="white"/>
<path fill-rule="evenodd" clip-rule="evenodd" d="M26.0009 55.7141C31.6809 55.7141 36.2869 60.3191 36.2869 66.0001C36.2869 71.6801 31.6819 76.2861 26.0009 76.2861C22.5509 76.2861 19.4959 74.5861 17.6309 71.9791L26.0009 66.0001V55.7141Z" fill="#2D9FD8"/>
<path d="M58.7817 122.568L59.768 122.429C65.2382 121.66 70.297 125.465 71.065 130.93L73.8512 150.755C74.6189 156.217 70.8052 161.271 65.3349 162.04L27.7127 167.327C22.2424 168.096 17.1836 164.291 16.4157 158.827L13.6294 139.002C12.8618 133.539 16.6755 128.486 22.1457 127.717L23.132 127.578L22.1578 120.646C20.7744 110.803 27.6343 101.7 37.4775 100.316C47.3208 98.9329 56.4241 105.793 57.8075 115.636L58.7817 122.568ZM52.8401 123.403L29.0737 126.743L28.0994 119.811C27.1771 113.249 31.7501 107.18 38.3126 106.258C44.8751 105.336 50.9436 109.909 51.8659 116.471L52.8401 123.403Z" fill="white" stroke="#FDE5D8" stroke-width="8"/>
<path fill-rule="evenodd" clip-rule="evenodd" d="M45.9411 146.168C46.9185 145.566 47.6589 144.646 48.0381 143.562C48.4172 142.478 48.412 141.297 48.0233 140.217C47.6347 139.137 46.8862 138.223 45.9035 137.629C44.9209 137.035 43.7639 136.798 42.6268 136.956C41.49 137.117 40.4434 137.665 39.6625 138.506C38.8815 139.348 38.4139 140.433 38.3381 141.578C38.2622 142.724 38.5828 143.861 39.246 144.798C39.9091 145.735 40.8745 146.416 41.9801 146.725L42.456 150.112C42.5308 150.636 42.8106 151.11 43.234 151.428C43.6574 151.746 44.1898 151.884 44.7144 151.81C45.8155 151.655 46.5705 150.646 46.417 149.554L45.941 146.167L45.9411 146.168Z" fill="#FC8A51"/>
<path d="M4 164.008C4 158.48 8.476 154 14 154H232C237.523 154 242 158.473 242 164.008V304.948C242 310.478 237.938 316.83 232.92 319.144L132.08 365.644C127.065 367.954 118.938 367.956 113.92 365.644L13.08 319.144C8.064 316.832 4 310.484 4 304.95V164.007V164.008Z" fill="white" stroke="#E5E5E5" stroke-width="8"/>
<path opacity="0.3" fill-rule="evenodd" clip-rule="evenodd" d="M145.838 258.53L143.278 250.537L138.204 234.694C137.944 233.879 136.806 233.879 136.544 234.694L131.47 250.537H114.62L109.545 234.694C109.285 233.879 108.147 233.879 107.885 234.694L102.812 250.537L100.252 258.53C100.018 259.26 100.274 260.058 100.885 260.51L123.045 276.84L145.205 260.51C145.815 260.058 146.071 259.26 145.837 258.53" fill="#A1A1A1"/>
<path opacity="0.3" fill-rule="evenodd" clip-rule="evenodd" d="M123.044 276.84L131.469 250.537H114.619L123.043 276.841" fill="#5C5C5C"/>
<path opacity="0.3" fill-rule="evenodd" clip-rule="evenodd" d="M123.045 276.84L114.62 250.537H102.811L123.043 276.841" fill="#787878"/>
<path opacity="0.3" fill-rule="evenodd" clip-rule="evenodd" d="M123.044 276.84L131.469 250.537H143.276L123.043 276.841" fill="#787878"/>
<path opacity="0.3" fill-rule="evenodd" clip-rule="evenodd" d="M102.812 250.537L100.252 258.53C100.018 259.26 100.274 260.058 100.885 260.51L123.045 276.84L102.81 250.538L102.812 250.537Z" fill="#A1A1A1"/>
<path opacity="0.3" fill-rule="evenodd" clip-rule="evenodd" d="M102.812 250.537H114.619L109.544 234.694C109.284 233.879 108.146 233.879 107.884 234.694L102.811 250.537H102.812Z" fill="#5C5C5C"/>
<path opacity="0.3" fill-rule="evenodd" clip-rule="evenodd" d="M143.277 250.537L145.837 258.53C145.951 258.885 145.952 259.267 145.838 259.622C145.724 259.977 145.502 260.288 145.203 260.51L123.043 276.84L143.277 250.537Z" fill="#A1A1A1"/>
<path opacity="0.3" fill-rule="evenodd" clip-rule="evenodd" d="M143.278 250.537H131.471L136.545 234.694C136.805 233.879 137.943 233.879 138.205 234.694L143.278 250.537Z" fill="#5C5C5C"/>
<path fill-rule="evenodd" clip-rule="evenodd" d="M61 172.29C62.105 172.29 63 171.472 63 170.462C63 169.452 62.105 168.632 61 168.632H45C43.895 168.632 43 169.452 43 170.462C43 171.472 43.895 172.292 45 172.292H61V172.29ZM97 172.29C98.105 172.29 99 171.472 99 170.462C99 169.452 98.105 168.632 97 168.632H81C79.895 168.632 79 169.452 79 170.462C79 171.472 79.895 172.292 81 172.292H97V172.29ZM133 172.29C134.105 172.29 135 171.472 135 170.462C135 169.452 134.105 168.632 133 168.632H117C115.895 168.632 115 169.452 115 170.462C115 171.472 115.895 172.292 117 172.292H133V172.29ZM169 172.29C170.105 172.29 171 171.472 171 170.462C171 169.452 170.105 168.632 169 168.632H153C151.895 168.632 151 169.452 151 170.462C151 171.472 151.895 172.292 153 172.292H169V172.29ZM205 172.29C206.105 172.29 207 171.472 207 170.462C207 169.452 206.105 168.632 205 168.632H189C187.895 168.632 187 169.452 187 170.462C187 171.472 187.895 172.292 189 172.292H205V172.29ZM222 196.983C222 197.993 222.895 198.813 224 198.813C225.105 198.813 226 197.993 226 196.983V182.35C226 181.34 225.105 180.52 224 180.52C222.895 180.52 222 181.34 222 182.35V196.983ZM20 196.983C20 197.993 20.895 198.813 22 198.813C23.105 198.813 24 197.993 24 196.983V182.35C24 181.34 23.105 180.52 22 180.52C20.895 180.52 20 181.34 20 182.35V196.983ZM222 229.906C222 230.916 222.895 231.736 224 231.736C225.105 231.736 226 230.916 226 229.906V215.274C226 214.264 225.105 213.444 224 213.444C222.895 213.444 222 214.264 222 215.274V229.906ZM20 229.906C20 230.916 20.895 231.736 22 231.736C23.105 231.736 24 230.916 24 229.906V215.274C24 214.264 23.105 213.444 22 213.444C20.895 213.444 20 214.264 20 215.274V229.906ZM222 262.829C222 263.839 222.895 264.657 224 264.657C225.105 264.657 226 263.837 226 262.827V248.2C226 247.188 225.105 246.37 224 246.37C222.895 246.37 222 247.188 222 248.2V262.83V262.829ZM20 262.829C20 263.839 20.895 264.657 22 264.657C23.105 264.657 24 263.837 24 262.827V248.2C24 247.188 23.105 246.37 22 246.37C20.895 246.37 20 247.188 20 248.2V262.83V262.829ZM222 295.751C222 296.761 222.895 297.581 224 297.581C225.105 297.581 226 296.761 226 295.751V281.12C226 280.11 225.105 279.29 224 279.29C222.895 279.29 222 280.11 222 281.12V295.752V295.751ZM20 295.751C20 296.761 20.895 297.581 22 297.581C23.105 297.581 24 296.761 24 295.751V281.12C24 280.11 23.105 279.29 22 279.29C20.895 279.29 20 280.11 20 281.12V295.752V295.751ZM199.023 315.306C198.035 315.758 197.635 316.856 198.129 317.76C198.622 318.664 199.823 319.03 200.811 318.58L215.121 312.035C216.111 311.583 216.511 310.485 216.017 309.581C215.523 308.679 214.321 308.311 213.333 308.764L199.023 315.308V315.306ZM166.823 330.029C165.836 330.481 165.435 331.579 165.929 332.483C166.422 333.387 167.624 333.753 168.612 333.301L182.922 326.757C183.912 326.307 184.312 325.207 183.817 324.303C183.323 323.4 182.122 323.033 181.134 323.485L166.824 330.029H166.823ZM134.623 344.753C133.636 345.203 133.236 346.303 133.73 347.207C134.224 348.11 135.425 348.477 136.413 348.025L150.723 341.481C151.713 341.029 152.113 339.931 151.619 339.027C151.124 338.123 149.922 337.757 148.934 338.209L134.624 344.753H134.623ZM110.953 342.73L98.767 337.16C97.78 336.708 96.577 337.074 96.084 337.977C95.59 338.881 95.991 339.98 96.979 340.431L109.164 346.004C109.918 346.349 110.734 346.649 111.602 346.902C112.654 347.209 113.779 346.678 114.115 345.715C114.45 344.753 113.869 343.725 112.817 343.417C112.18 343.235 111.557 343.006 110.953 342.733V342.73ZM66.57 322.437C65.582 321.985 64.38 322.351 63.887 323.255C63.393 324.158 63.793 325.257 64.781 325.709L79.091 332.253C80.079 332.703 81.281 332.338 81.774 331.435C82.268 330.531 81.868 329.432 80.88 328.981L66.568 322.437H66.57ZM34.37 307.714C33.382 307.262 32.18 307.628 31.687 308.532C31.193 309.436 31.594 310.535 32.582 310.986L46.892 317.53C47.88 317.982 49.082 317.616 49.576 316.712C50.07 315.809 49.669 314.71 48.681 314.258L34.369 307.715L34.37 307.714Z" fill="#EEEEEE"/>
<path fill-rule="evenodd" clip-rule="evenodd" d="M108 18C108 8.06 116.06 0 126 0C135.94 0 144 8.06 144 18C144 27.94 135.94 36 126 36C116.06 36 108 27.94 108 18Z" fill="#FADFD9"/>
<path fill-rule="evenodd" clip-rule="evenodd" d="M140.143 17.9999C140.143 10.1899 133.811 3.85693 126 3.85693C118.19 3.85693 111.857 10.1889 111.857 17.9999C111.857 25.8099 118.189 32.1429 126 32.1429C133.81 32.1429 140.143 25.8109 140.143 17.9999Z" fill="white"/>
<path fill-rule="evenodd" clip-rule="evenodd" d="M123.43 8.99411C123.43 8.28711 124 7.71411 124.713 7.71411H127.287C127.997 7.71411 128.571 8.28411 128.571 8.99411V19.2921C128.571 19.9981 128.001 20.5721 127.288 20.5721H124.714C124.545 20.5726 124.378 20.5399 124.223 20.4758C124.067 20.4117 123.925 20.3175 123.806 20.1986C123.687 20.0797 123.592 19.9384 123.528 19.7829C123.463 19.6273 123.43 19.4605 123.43 19.2921V8.99411ZM123.43 24.4271C123.43 23.7171 124 23.1431 124.713 23.1431H127.287C127.997 23.1431 128.571 23.7131 128.571 24.4271V27.0001C128.571 27.7101 128.001 28.2861 127.288 28.2861H124.714C124.545 28.2866 124.378 28.2538 124.221 28.1894C124.065 28.125 123.924 28.0303 123.804 27.9109C123.685 27.7914 123.59 27.6495 123.526 27.4934C123.462 27.3373 123.429 27.17 123.43 27.0011V24.4281V24.4271Z" fill="#E75E40"/>
<path fill-rule="evenodd" clip-rule="evenodd" d="M217 89C217 79.06 225.06 71 235 71C244.94 71 253 79.06 253 89C253 98.94 244.94 107 235 107C225.06 107 217 98.94 217 89Z" fill="#F6D4DC"/>
<path fill-rule="evenodd" clip-rule="evenodd" d="M249.143 88.9999C249.143 81.1899 242.811 74.8569 235 74.8569C227.19 74.8569 220.857 81.1889 220.857 88.9999C220.857 96.8099 227.189 103.143 235 103.143C242.81 103.143 249.143 96.8109 249.143 88.9999Z" fill="white"/>
<path fill-rule="evenodd" clip-rule="evenodd" d="M234.999 86.3479L231.396 82.7459C231.254 82.6066 231.062 82.5294 230.863 82.5313C230.663 82.5332 230.473 82.6139 230.333 82.7559L228.755 84.3339C228.685 84.4029 228.628 84.4852 228.589 84.5761C228.551 84.667 228.53 84.7646 228.529 84.8633C228.528 84.9621 228.547 85.0601 228.584 85.1517C228.621 85.2432 228.676 85.3266 228.745 85.3969L232.347 88.9999L228.745 92.6029C228.606 92.7454 228.529 92.9372 228.531 93.1365C228.532 93.3357 228.613 93.5261 228.755 93.6659L230.333 95.2439C230.635 95.5439 231.106 95.5439 231.396 95.2539L234.999 91.6519L238.602 95.2539C238.745 95.3932 238.937 95.4704 239.136 95.4685C239.335 95.4667 239.525 95.3859 239.665 95.2439L241.243 93.6659C241.314 93.5969 241.37 93.5146 241.409 93.4237C241.448 93.3329 241.468 93.2353 241.469 93.1365C241.47 93.0377 241.451 92.9397 241.414 92.8482C241.377 92.7566 241.323 92.6733 241.253 92.6029L237.651 88.9999L241.253 85.3969C241.393 85.2545 241.47 85.0626 241.468 84.8634C241.466 84.6641 241.385 84.4737 241.243 84.3339L239.665 82.7559C239.596 82.6853 239.514 82.6289 239.423 82.5902C239.332 82.5514 239.235 82.531 239.136 82.5301C239.037 82.5291 238.939 82.5477 238.847 82.5848C238.756 82.6218 238.673 82.6766 238.602 82.7459L234.999 86.3479Z" fill="#D22852"/>
</svg>
