<svg width="178" height="154" viewBox="0 0 178 154" fill="none" xmlns="http://www.w3.org/2000/svg">
<g clip-path="url(#clip0)">
<circle cx="91" cy="122" r="30" fill="white" stroke="#FC6D26" stroke-width="4"/>
<circle cx="91" cy="122" r="24" fill="#FCF0EA"/>
<path fill-rule="evenodd" clip-rule="evenodd" d="M87.8285 108C86.7676 108 85.7502 108.421 85 109.172L77.5922 116.579C77.2265 116.942 77 117.444 77 118V132C77 134.209 78.7909 136 81 136H101C103.209 136 105 134.209 105 132V118C105 117.448 104.776 116.948 104.414 116.586L97 109.172C96.2499 108.421 95.2325 108 94.1716 108H87.8285ZM98.1716 116L94.1716 112H93V116H98.1716ZM89 112H87.8285L83.8285 116H89V112ZM81 120H101V132H81V120Z" fill="#FC6D26"/>
<path d="M123 101L123 50C123 35.0883 135.088 23 150 23C164.912 23 177 35.0883 177 50C177 64.9117 164.912 77 150 77C142.962 77 136.553 74.3072 131.747 69.8957" stroke="#DFDFDF" stroke-width="4" stroke-linecap="round"/>
<path d="M150.981 42.5515C150.372 42.2091 149.628 42.2091 149.019 42.5515L137.099 49.2568C135.74 50.0214 135.74 51.9785 137.099 52.7431L149.019 59.4484C149.628 59.7909 150.372 59.7909 150.981 59.4484L162.901 52.7431C164.26 51.9785 164.26 50.0214 162.901 49.2568L150.981 42.5515Z" fill="#EFEDF8" stroke="#6E49CB" stroke-width="4"/>
<path d="M79.7962 56.1534C80.8301 56.5421 81.9834 56.019 82.3721 54.9851C82.7608 53.9512 82.2377 52.7979 81.2038 52.4092L79.7962 56.1534ZM88 84C88 85.1046 88.8954 86 90 86C91.1046 86 92 85.1046 92 84H88ZM115 29C115 41.5512 105.749 51.9452 93.6938 53.7293L94.2794 57.6862C108.267 55.6161 119 43.5632 119 29H115ZM65 29C65 15.1929 76.1929 4 90 4V0C73.9837 0 61 12.9837 61 29H65ZM90 4C103.807 4 115 15.1929 115 29H119C119 12.9837 106.016 0 90 0V4ZM81.2038 52.4092C71.7333 48.8488 65 39.7082 65 29H61C61 41.4283 68.8172 52.0258 79.7962 56.1534L81.2038 52.4092ZM92 84V60H88V84H92ZM93.6938 53.7293C90.7112 54.1707 88 56.6246 88 60H92C92 58.9571 92.8914 57.8916 94.2794 57.6862L93.6938 53.7293Z" fill="#DFDFDF"/>
<path d="M90.9805 20.5515C90.3717 20.2091 89.6283 20.2091 89.0195 20.5515L77.0989 27.2568C75.7396 28.0214 75.7396 29.9785 77.0989 30.7431L89.0195 37.4484C89.6283 37.7909 90.3717 37.7909 90.9805 37.4484L102.901 30.7431C104.26 29.9785 104.26 28.0214 102.901 27.2568L90.9805 20.5515Z" fill="#EFEDF8" stroke="#6E49CB" stroke-width="4"/>
<path d="M57 101L57 50C57 35.0883 44.9117 23 30 23C15.0883 23 2.99997 35.0883 2.99997 50C2.99997 64.9117 15.0883 77 30 77C37.0379 77 43.4469 74.3072 48.2529 69.8957" stroke="#DFDFDF" stroke-width="4" stroke-linecap="round"/>
<path d="M30.9805 42.2568C30.3717 41.9144 29.6283 41.9144 29.0195 42.2568L17.0989 48.9622C15.7396 49.7268 15.7396 51.6838 17.0989 52.4485L29.0195 59.1538C29.6283 59.4962 30.3717 59.4962 30.9805 59.1538L42.9011 52.4485C44.2604 51.6838 44.2604 49.7268 42.9011 48.9622L30.9805 42.2568Z" fill="#EFEDF8" stroke="#6E49CB" stroke-width="4"/>
<path fill-rule="evenodd" clip-rule="evenodd" d="M76 80H77C78.1046 80 79 80.8954 79 82C79 83.1046 78.1046 84 77 84H76V85C76 86.1046 75.1046 87 74 87C72.8954 87 72 86.1046 72 85V84H71C69.8954 84 69 83.1046 69 82C69 80.8954 69.8954 80 71 80H72V79C72 77.8954 72.8954 77 74 77C75.1046 77 76 77.8954 76 79V80Z" fill="#DFDFDF"/>
<path fill-rule="evenodd" clip-rule="evenodd" d="M141 90H142C143.105 90 144 90.8954 144 92C144 93.1046 143.105 94 142 94H141V95C141 96.1046 140.105 97 139 97C137.895 97 137 96.1046 137 95V94H136C134.895 94 134 93.1046 134 92C134 90.8954 134.895 90 136 90H137V89C137 87.8954 137.895 87 139 87C140.105 87 141 87.8954 141 89V90Z" fill="#DFDFDF"/>
<path fill-rule="evenodd" clip-rule="evenodd" d="M131 10H132C133.105 10 134 10.8954 134 12C134 13.1046 133.105 14 132 14H131V15C131 16.1046 130.105 17 129 17C127.895 17 127 16.1046 127 15V14H126C124.895 14 124 13.1046 124 12C124 10.8954 124.895 10 126 10H127V9C127 7.89543 127.895 7 129 7C130.105 7 131 7.89543 131 9V10Z" fill="#FC6D26"/>
<path fill-rule="evenodd" clip-rule="evenodd" d="M131 10H132C133.105 10 134 10.8954 134 12C134 13.1046 133.105 14 132 14H131V15C131 16.1046 130.105 17 129 17C127.895 17 127 16.1046 127 15V14H126C124.895 14 124 13.1046 124 12C124 10.8954 124.895 10 126 10H127V9C127 7.89543 127.895 7 129 7C130.105 7 131 7.89543 131 9V10Z" fill="white" fill-opacity="0.6"/>
<path fill-rule="evenodd" clip-rule="evenodd" d="M48 95H49C50.1046 95 51 95.8954 51 97C51 98.1046 50.1046 99 49 99H48V100C48 101.105 47.1046 102 46 102C44.8954 102 44 101.105 44 100V99H43C41.8954 99 41 98.1046 41 97C41 95.8954 41.8954 95 43 95H44V94C44 92.8954 44.8954 92 46 92C47.1046 92 48 92.8954 48 94V95Z" fill="#FC6D26"/>
<path fill-rule="evenodd" clip-rule="evenodd" d="M48 95H49C50.1046 95 51 95.8954 51 97C51 98.1046 50.1046 99 49 99H48V100C48 101.105 47.1046 102 46 102C44.8954 102 44 101.105 44 100V99H43C41.8954 99 41 98.1046 41 97C41 95.8954 41.8954 95 43 95H44V94C44 92.8954 44.8954 92 46 92C47.1046 92 48 92.8954 48 94V95Z" fill="white" fill-opacity="0.6"/>
</g>
<defs>
<clipPath id="clip0">
<rect width="178" height="154" fill="white"/>
</clipPath>
</defs>
</svg>
