<svg xmlns="http://www.w3.org/2000/svg" xmlns:xlink="http://www.w3.org/1999/xlink" width="240" height="212" viewBox="0 0 240 212">
  <defs>
    <path id="a" d="M25.375,16.048913 L25.375,11.951087 L22.815625,11.5271739 C22.6734375,10.9619565 22.3890625,10.3967391 21.9625,9.54891304 L23.5265625,7.42934783 L20.540625,4.46195652 L18.4078125,6.01630435 C17.696875,5.5923913 16.9859375,5.30978261 16.4171875,5.16847826 L16.1328125,2.625 L12.009375,2.625 L11.5828125,5.16847826 C10.871875,5.30978261 10.303125,5.5923913 9.5921875,6.01630435 L7.459375,4.46195652 L4.4734375,7.42934783 L5.8953125,9.54891304 C5.46875,10.2554348 5.3265625,10.8206522 5.0421875,11.5271739 L2.625,11.8097826 L2.625,15.9076087 L5.184375,16.3315217 C5.3265625,17.0380435 5.6109375,17.6032609 6.0375,18.3097826 L4.615625,20.4293478 L7.6015625,23.3967391 L9.734375,21.9836957 C10.303125,22.2663043 11.0140625,22.548913 11.725,22.8315217 L12.1515625,25.375 L16.4171875,25.375 L16.84375,22.8315217 C17.5546875,22.6902174 18.1234375,22.4076087 18.834375,21.9836957 L20.9671875,23.5380435 L23.953125,20.5706522 L22.3890625,18.451087 C22.815625,17.7445652 23.1,17.0380435 23.2421875,16.4728261 L25.375,16.048913 L25.375,16.048913 Z M14,18.1684783 C11.5828125,18.1684783 9.734375,16.3315217 9.734375,13.9293478 C9.734375,11.5271739 11.5828125,9.69021739 14,9.69021739 C16.4171875,9.69021739 18.265625,11.5271739 18.265625,13.9293478 C18.265625,16.3315217 16.4171875,18.1684783 14,18.1684783 L14,18.1684783 Z"/>
  </defs>
  <g fill="none" fill-rule="evenodd">
    <g transform="translate(0 152)">
      <rect width="240" height="60" fill="#FFFFFF" stroke="#DFDFDF" stroke-linecap="round" stroke-width="2" rx="4"/>
      <path fill="#DFDFDF" d="M210,16 C217.732025,16 224,22.26801 224,30 C224,37.732025 217.732025,44 210,44 C202.26801,44 196,37.732025 196,30 C196,22.26801 202.26801,16 210,16 Z M210,19.5 C204.201008,19.5 199.5,24.2010075 199.5,30 C199.5,35.798975 204.201008,40.5 210,40.5 C215.798975,40.5 220.5,35.798975 220.5,30 C220.5,24.2010075 215.798975,19.5 210,19.5 Z"/>
      <line x1="60" x2="132" y1="36" y2="36" stroke="#6E49CB" stroke-linecap="round" stroke-width="4"/>
      <line x1="60" x2="156" y1="24" y2="24" stroke="#6E49CB" stroke-linecap="round" stroke-width="4"/>
      <path fill="#6E49CB" d="M14,0 L26.25,3.5 L26.25,9.9510075 C26.25,13.664035 24.774925,17.2249875 22.149575,19.850425 L14,28 L5.850495,19.850425 C3.2249875,17.2249875 1.75,13.664035 1.75,9.9510075 L1.75,3.5 L14,0 Z M14,3.6400525 L5.25,6.1400525 L5.25,9.9510075 C5.25,12.7357825 6.356245,15.4064925 8.32538,17.3756275 L14,23.0503 L19.67455,17.3756275 C21.643825,15.4064925 22.75,12.7357825 22.75,9.9510075 L22.75,6.1400525 L14,3.6400525 Z M14,7 L14,18.12895 L10.8197075,14.973455 C9.4950625,13.6591525 8.75,11.870355 8.75,10.00433 L8.75,8.75 L14,7 Z" transform="translate(16 16)"/>
    </g>
    <g transform="translate(0 76)">
      <rect width="240" height="60" fill="#FFFFFF" stroke="#DFDFDF" stroke-linecap="round" stroke-width="2" rx="4"/>
      <path fill="#1AAA55" d="M14,0 C21.732025,0 28,6.26801 28,14 C28,21.732025 21.732025,28 14,28 C6.26801,28 0,21.732025 0,14 C0,6.26801 6.26801,0 14,0 Z M14,3.5 C8.2010075,3.5 3.5,8.2010075 3.5,14 C3.5,19.798975 8.2010075,24.5 14,24.5 C19.798975,24.5 24.5,19.798975 24.5,14 C24.5,8.2010075 19.798975,3.5 14,3.5 Z M12.25,15.0251325 L18.012575,9.2625575 C18.69595,8.5791475 19.80405,8.5791475 20.487425,9.2625575 C21.1182327,9.89341365 21.1667564,10.8860613 20.632996,11.5725777 L20.487425,11.7374425 L13.4874425,18.737425 C12.8565863,19.3682327 11.8639387,19.4167564 11.1774223,18.882996 L11.0125575,18.737425 L7.5125575,15.2374425 C6.8291475,14.554015 6.8291475,13.445985 7.5125575,12.7625575 C8.14341365,12.1317175 9.13606129,12.0831913 9.82257767,12.616979 L9.9874425,12.7625575 L12.25,15.0251325 L18.012575,9.2625575 L12.25,15.0251325 Z" transform="translate(196 16)"/>
      <line x1="60" x2="92" y1="36" y2="36" stroke="#6E49CB" stroke-linecap="round" stroke-width="4"/>
      <line x1="60" x2="156" y1="24" y2="24" stroke="#6E49CB" stroke-linecap="round" stroke-width="4"/>
      <path fill="#6E49CB" d="M1.75,26.25 L1.75,17.5 C1.75,14.7511335 3.33448362,12.3723345 5.63995375,11.2271003 C4.34249476,10.2750301 3.5,8.73590264 3.5,7 C3.5,4.10050506 5.85050506,1.75 8.75,1.75 C11.6494949,1.75 14,4.10050506 14,7 C14,8.73590264 13.1575052,10.2750301 11.8591025,11.2307956 C13.4840759,12.0350616 14.7506945,13.4534842 15.3573015,15.182784 C16.4686297,14.4357541 17.8084235,14 19.25,14 C23.1160733,14 26.25,17.1339267 26.25,21 L26.25,26.25 L1.75,26.25 Z M8.75,14 C6.81701081,14 5.25,15.5670108 5.25,17.5 L5.25,22.75 L12.25,22.75 L12.25,17.5 C12.25,15.5670108 10.6829892,14 8.75,14 Z M19.25,17.5 C17.3169761,17.5 15.75,19.066958 15.75,21 L15.75,22.75 L22.75,22.75 L22.75,21 C22.75,19.0669233 21.1830767,17.5 19.25,17.5 Z M19.25,7 C21.1829966,7 22.75,8.56700338 22.75,10.5 C22.75,12.4329966 21.1829966,14 19.25,14 C17.3170034,14 15.75,12.4329966 15.75,10.5 C15.75,8.56700338 17.3170034,7 19.25,7 Z M8.75,5.25 C7.78350169,5.25 7,6.03350169 7,7 C7,7.96649831 7.78350169,8.75 8.75,8.75 C9.71649831,8.75 10.5,7.96649831 10.5,7 C10.5,6.03350169 9.71649831,5.25 8.75,5.25 Z" transform="translate(16 16)"/>
    </g>
    <rect width="240" height="60" fill="#FFFFFF" stroke="#DFDFDF" stroke-linecap="round" stroke-width="2" rx="4"/>
    <path fill="#1AAA55" d="M14,0 C21.732025,0 28,6.26801 28,14 C28,21.732025 21.732025,28 14,28 C6.26801,28 0,21.732025 0,14 C0,6.26801 6.26801,0 14,0 Z M14,3.5 C8.2010075,3.5 3.5,8.2010075 3.5,14 C3.5,19.798975 8.2010075,24.5 14,24.5 C19.798975,24.5 24.5,19.798975 24.5,14 C24.5,8.2010075 19.798975,3.5 14,3.5 Z M12.25,15.0251325 L18.012575,9.2625575 C18.69595,8.5791475 19.80405,8.5791475 20.487425,9.2625575 C21.1182327,9.89341365 21.1667564,10.8860613 20.632996,11.5725777 L20.487425,11.7374425 L13.4874425,18.737425 C12.8565863,19.3682327 11.8639387,19.4167564 11.1774223,18.882996 L11.0125575,18.737425 L7.5125575,15.2374425 C6.8291475,14.554015 6.8291475,13.445985 7.5125575,12.7625575 C8.14341365,12.1317175 9.13606129,12.0831913 9.82257767,12.616979 L9.9874425,12.7625575 L12.25,15.0251325 L18.012575,9.2625575 L12.25,15.0251325 Z" transform="translate(196 16)"/>
    <line x1="60" x2="132" y1="36" y2="36" stroke="#6E49CB" stroke-linecap="round" stroke-width="4"/>
    <line x1="60" x2="156" y1="24" y2="24" stroke="#6E49CB" stroke-linecap="round" stroke-width="4"/>
    <use fill="#6E49CB" transform="translate(16 16)" xlink:href="#a"/>
  </g>
</svg>
