<svg fill="none" height="228" viewBox="0 0 292 228" width="292" xmlns="http://www.w3.org/2000/svg"><rect height="224" rx="14" stroke="#f0f0f0" stroke-width="4" width="288" x="2" y="2"/><rect height="56" rx="6" stroke="#f0edfa" stroke-width="4" width="90" x="18" y="18"/><path clip-rule="evenodd" d="m66.3248 45.2246c.4265-.6361.6752-1.4013.6752-2.2246 0-2.2091-1.7909-4-4-4s-4 1.7909-4 4c0 .8233.2487 1.5885.6752 2.2246-1.5581.5467-2.6752 2.0306-2.6752 3.7754v4h12v-4c0-1.7448-1.1171-3.2287-2.6752-3.7754zm-1.3248-2.2246c0 1.1046-.8954 2-2 2s-2-.8954-2-2 .8954-2 2-2 2 .8954 2 2zm-4 4c-1.1046 0-2 .8954-2 2v2h8v-2c0-1.1046-.8954-2-2-2z" fill="#6e49cb" fill-rule="evenodd"/><rect height="56" rx="6" stroke="#f0edfa" stroke-width="4" width="90" x="184" y="86"/><path clip-rule="evenodd" d="m232.325 113.225c.426-.636.675-1.402.675-2.225 0-2.209-1.791-4-4-4s-4 1.791-4 4c0 .823.249 1.589.675 2.225-1.558.546-2.675 2.03-2.675 3.775v4h12v-4c0-1.745-1.117-3.229-2.675-3.775zm-1.325-2.225c0 1.105-.895 2-2 2s-2-.895-2-2 .895-2 2-2 2 .895 2 2zm-4 4c-1.105 0-2 .895-2 2v2h8v-2c0-1.105-.895-2-2-2z" fill="#6e49cb" fill-rule="evenodd"/><rect height="56" rx="6" stroke="#fff0e9" stroke-width="4" width="158" x="116" y="18"/><path clip-rule="evenodd" d="m198.325 45.2246c.426-.6361.675-1.4013.675-2.2246 0-2.2091-1.791-4-4-4s-4 1.7909-4 4c0 .8233.249 1.5885.675 2.2246-1.558.5467-2.675 2.0306-2.675 3.7754v4h12v-4c0-1.7448-1.117-3.2287-2.675-3.7754zm-1.325-2.2246c0 1.1046-.895 2-2 2s-2-.8954-2-2 .895-2 2-2 2 .8954 2 2zm-4 4c-1.105 0-2 .8954-2 2v2h8v-2c0-1.1046-.895-2-2-2z" fill="#fca121" fill-rule="evenodd"/><rect height="56" rx="6" stroke="#fff0e9" stroke-width="4" width="90" x="18" y="154"/><path clip-rule="evenodd" d="m66.3248 181.225c.4265-.636.6752-1.402.6752-2.225 0-2.209-1.7909-4-4-4s-4 1.791-4 4c0 .823.2487 1.589.6752 2.225-1.5581.546-2.6752 2.03-2.6752 3.775v4h12v-4c0-1.745-1.1171-3.229-2.6752-3.775zm-1.3248-2.225c0 1.105-.8954 2-2 2s-2-.895-2-2 .8954-2 2-2 2 .895 2 2zm-4 4c-1.1046 0-2 .895-2 2v2h8v-2c0-1.105-.8954-2-2-2z" fill="#fca121" fill-rule="evenodd"/><rect height="56" rx="6" stroke="#f0f0f0" stroke-width="4" width="158" x="116" y="154"/><path clip-rule="evenodd" d="m196.325 181.225c.426-.636.675-1.402.675-2.225 0-2.209-1.791-4-4-4s-4 1.791-4 4c0 .823.249 1.589.675 2.225-1.558.546-2.675 2.03-2.675 3.775v4h12v-4c0-1.745-1.117-3.229-2.675-3.775zm-1.325-2.225c0 1.105-.895 2-2 2s-2-.895-2-2 .895-2 2-2 2 .895 2 2zm-4 4c-1.105 0-2 .895-2 2v2h8v-2c0-1.105-.895-2-2-2z" fill="#999" fill-rule="evenodd"/><rect height="56" rx="6" stroke="#f0f0f0" stroke-width="4" width="158" x="18" y="86"/><path clip-rule="evenodd" d="m100.325 113.225c.426-.636.675-1.402.675-2.225 0-2.209-1.7909-4-4-4s-4 1.791-4 4c0 .823.2487 1.589.6752 2.225-1.5581.546-2.6752 2.03-2.6752 3.775v4h12v-4c0-1.745-1.117-3.229-2.675-3.775zm-1.325-2.225c0 1.105-.8954 2-2 2s-2-.895-2-2 .8954-2 2-2 2 .895 2 2zm-4 4c-1.1046 0-2 .895-2 2v2h8v-2c0-1.105-.895-2-2-2z" fill="#999" fill-rule="evenodd"/></svg>