<svg width="430" height="156" viewBox="0 0 430 156" fill="none" xmlns="http://www.w3.org/2000/svg">
<path d="M2 149H428" stroke="#DFDFDF" stroke-width="4" stroke-linecap="round"/>
<path d="M2 149H56C56 149 92 149 92 113C92 77 128 77 128 77H302C302 77 338 77 338 113C338 149 374 149 374 149H428" stroke="#DFDFDF" stroke-width="4" stroke-linecap="round"/>
<path d="M128 77H152C152 77 188 77 188 41C188 5 224 5 224 5H374" stroke="#DFDFDF" stroke-width="4" stroke-linecap="round"/>
<path d="M160 154C162.761 154 165 151.761 165 149C165 146.239 162.761 144 160 144C157.239 144 155 146.239 155 149C155 151.761 157.239 154 160 154Z" fill="#C3B8E3"/>
<path d="M224 154C226.761 154 229 151.761 229 149C229 146.239 226.761 144 224 144C221.239 144 219 146.239 219 149C219 151.761 221.239 154 224 154Z" fill="#6B4FBB"/>
<path d="M288 154C290.761 154 293 151.761 293 149C293 146.239 290.761 144 288 144C285.239 144 283 146.239 283 149C283 151.761 285.239 154 288 154Z" fill="#C3B8E3"/>
<path d="M288 10C290.761 10 293 7.76142 293 5C293 2.23858 290.761 0 288 0C285.239 0 283 2.23858 283 5C283 7.76142 285.239 10 288 10Z" fill="#6B4FBB"/>
<path d="M195 82C197.761 82 200 79.7614 200 77C200 74.2386 197.761 72 195 72C192.239 72 190 74.2386 190 77C190 79.7614 192.239 82 195 82Z" fill="#C3B8E3"/>
<path d="M256 82C258.761 82 261 79.7614 261 77C261 74.2386 258.761 72 256 72C253.239 72 251 74.2386 251 77C251 79.7614 253.239 82 256 82Z" fill="white" stroke="#FC6D26" stroke-width="4"/>
<path d="M128 81C130.209 81 132 79.2091 132 77C132 74.7909 130.209 73 128 73C125.791 73 124 74.7909 124 77C124 79.2091 125.791 81 128 81Z" fill="#FDC4A8"/>
<path d="M374 153C376.209 153 378 151.209 378 149C378 146.791 376.209 145 374 145C371.791 145 370 146.791 370 149C370 151.209 371.791 153 374 153Z" fill="#FDC4A8"/>
<path d="M224 9C226.209 9 228 7.20914 228 5C228 2.79086 226.209 1 224 1C221.791 1 220 2.79086 220 5C220 7.20914 221.791 9 224 9Z" fill="#FDC4A8"/>
<path d="M374 9C376.209 9 378 7.20914 378 5C378 2.79086 376.209 1 374 1C371.791 1 370 2.79086 370 5C370 7.20914 371.791 9 374 9Z" fill="#FDC4A8"/>
<path d="M302 81C304.209 81 306 79.2091 306 77C306 74.7909 304.209 73 302 73C299.791 73 298 74.7909 298 77C298 79.2091 299.791 81 302 81Z" fill="#FDC4A8"/>
<path d="M238 59C236.895 59 236 59.8954 236 61C236 62.1046 236.895 63 238 63H244C245.105 63 246 62.1046 246 61C246 59.8954 245.105 59 244 59H238Z" fill="#FC6D26"/>
<path fill-rule="evenodd" clip-rule="evenodd" d="M246.343 53C247.404 53 248.421 53.4214 249.172 54.1716L256 61L249.172 67.8284C248.421 68.5786 247.404 69 246.343 69H228C225.791 69 224 67.2091 224 65V57C224 54.7909 225.791 53 228 53H246.343ZM246.343 57L250.343 61L246.343 65H228L228 57L246.343 57Z" fill="#FC6D26"/>
<path d="M56 154C58.7614 154 61 151.761 61 149C61 146.239 58.7614 144 56 144C53.2386 144 51 146.239 51 149C51 151.761 53.2386 154 56 154Z" fill="white" stroke="#FC6D26" stroke-width="4"/>
<path d="M38 131C36.8954 131 36 131.895 36 133C36 134.105 36.8954 135 38 135H44C45.1046 135 46 134.105 46 133C46 131.895 45.1046 131 44 131H38Z" fill="#FC6D26"/>
<path fill-rule="evenodd" clip-rule="evenodd" d="M46.3431 125C47.404 125 48.4214 125.421 49.1716 126.172L56 133L49.1716 139.828C48.4214 140.579 47.404 141 46.3431 141H28C25.7909 141 24 139.209 24 137V129C24 126.791 25.7909 125 28 125H46.3431ZM46.3431 129L50.3431 133L46.3431 137H28L28 129L46.3431 129Z" fill="#FC6D26"/>
</svg>
