<svg width="144" height="144" fill="none" xmlns="http://www.w3.org/2000/svg">
  <path d="M126.45 28.009a70.001 70.001 0 11-9.883-9.989" stroke="#AC7FFF" stroke-opacity=".24" stroke-width="4" stroke-linecap="round"/>
  <path fill-rule="evenodd" clip-rule="evenodd" d="M73 76c0 3.802-.849 7.406-2.367 10.633L91 107v12H78v-5h-5v-5l-2-2h-6l-3-3-2 2-5.78-5.78A25.06 25.06 0 0148 101c-13.807 0-25-11.193-25-25s11.193-25 25-25 25 11.193 25 25zM53.203 64.904c1.893-1.894 1.387-5.09-1.243-5.591A17.724 17.724 0 0048.635 59C38.895 59 31 66.896 31 76.635c0 1.137.108 2.248.313 3.325.502 2.63 3.697 3.136 5.59 1.243l16.3-16.3z" fill="#FFC46C"/>
  <path d="M51.96 59.313c2.63.502 3.136 3.697 1.243 5.59l-16.3 16.3c-1.893 1.893-5.088 1.387-5.59-1.243A17.724 17.724 0 0131 76.635C31 66.895 38.896 59 48.635 59c1.137 0 2.248.108 3.325.313z" stroke="#6E49CB" stroke-width="2" stroke-linecap="round"/>
  <path d="M70.633 86.633l-1.81-.852a2 2 0 00.396 2.266l1.414-1.414zM54.22 100.22l1.414-1.414a2 2 0 00-1.91-.523l.496 1.937zM60 106l-1.414 1.414L60 108.828l1.414-1.414L60 106zm2-2l1.414-1.414L62 101.172l-1.414 1.414L62 104zm3 3l-1.414 1.414.586.586H65v-2zm6 0l1.414-1.414-.586-.586H71v2zm2 2h2v-.828l-.586-.586L73 109zm0 5h-2v2h2v-2zm5 0h2v-2h-2v2zm0 5h-2v2h2v-2zm13 0v2h2v-2h-2zm0-12h2a2 2 0 00-.586-1.414L91 107zM71 76a22.9 22.9 0 01-2.177 9.781l3.62 1.703A26.904 26.904 0 0075 76h-4zM48 53c12.703 0 23 10.297 23 23h4c0-14.912-12.088-27-27-27v4zM25 76c0-12.703 10.297-23 23-23v-4c-14.912 0-27 12.088-27 27h4zm23 23c-12.703 0-23-10.297-23-23h-4c0 14.912 12.088 27 27 27v-4zm5.724-.717A23.049 23.049 0 0148 99v4a27.06 27.06 0 006.716-.842l-.992-3.875zm-.918 3.351l5.78 5.78 2.828-2.828-5.78-5.78-2.828 2.828zm8.608 5.78l2-2-2.828-2.828-2 2 2.828 2.828zm-.828-2l3 3 2.828-2.828-3-3-2.828 2.828zM65 109h6v-4h-6v4zm4.586-.586l2 2 2.828-2.828-2-2-2.828 2.828zM71 109v5h4v-5h-4zm2 7h5v-4h-5v4zm3-2v5h4v-5h-4zm2 7h13v-4H78v4zm15-2v-12h-4v12h4zm-.586-13.414L72.047 85.219l-2.828 2.828 20.367 20.367 2.828-2.828z" fill="#6E49CB"/>
  <path d="M41 88l19-20m7 22l24.5 24.5" stroke="#6E49CB" stroke-width="2" stroke-linecap="round" stroke-linejoin="round"/>
  <path d="M115.75 53c0 8.699-7.052 15.75-15.75 15.75H84.25V53c0-8.699 7.052-15.75 15.75-15.75s15.75 7.051 15.75 15.75z" stroke="#AFA3C6" stroke-opacity=".16" stroke-width="6"/>
  <path d="M81.25 71.75H100c10.355 0 18.75-8.395 18.75-18.75S110.355 34.25 100 34.25 81.25 42.645 81.25 53v9.375" stroke="#6E49CB" stroke-width="4" stroke-linecap="round" stroke-linejoin="round"/>
  <path fill-rule="evenodd" clip-rule="evenodd" d="M102 48a2 2 0 10-4 0v3h-3a2 2 0 100 4h3v3a2 2 0 104 0v-3h3a2 2 0 100-4h-3v-3z" fill="#04AF92"/>
  <circle cx="73" cy="72" r="6" fill="#fff" stroke="#6E49CB" stroke-width="4" stroke-linecap="round" stroke-linejoin="round"/>
</svg>
