<svg width="248" height="190" viewBox="0 0 248 190" fill="none" xmlns="http://www.w3.org/2000/svg">
<path d="M26 145H114C115.105 145 116 144.105 116 143C116 141.895 115.105 141 114 141H26C24.8954 141 24 141.895 24 143C24 144.105 24.8954 145 26 145Z" fill="#DBDBDB"/>
<path d="M2 137H90C91.1046 137 92 136.105 92 135C92 133.895 91.1046 133 90 133H2C0.895432 133 0 133.895 0 135C0 136.105 0.895432 137 2 137Z" fill="#DBDBDB"/>
<path d="M208 62H224C225.105 62 226 61.1046 226 60C226 58.8954 225.105 58 224 58H208C206.895 58 206 58.8954 206 60C206 61.1046 206.895 62 208 62Z" fill="#DBDBDB"/>
<path d="M108 62L196 62C197.105 62 198 61.1046 198 60C198 58.8954 197.105 58 196 58L108 58C106.895 58 106 58.8954 106 60C106 61.1046 106.895 62 108 62Z" fill="#DBDBDB"/>
<path d="M176 54L208 54C209.105 54 210 53.1046 210 52C210 50.8954 209.105 50 208 50L176 50C174.895 50 174 50.8954 174 52C174 53.1046 174.895 54 176 54Z" fill="#DBDBDB"/>
<rect x="99" y="17" width="88" height="155" rx="2" fill="white" stroke="#C2B7E6" stroke-width="4" stroke-linecap="round"/>
<path d="M174 71C175.105 71 176 71.8954 176 73C176 74.0544 175.184 74.9182 174.149 74.9945L174 75H163C161.895 75 161 74.1046 161 73C161 71.9456 161.816 71.0818 162.851 71.0055L163 71H174Z" fill="#DFDFDF"/>
<path d="M160 49C161.105 49 162 49.8954 162 51C162 52.0544 161.184 52.9182 160.149 52.9945L160 53H149C147.895 53 147 52.1046 147 51C147 49.9456 147.816 49.0818 148.851 49.0055L149 49H160Z" fill="#DFDFDF"/>
<path d="M174 38C175.105 38 176 38.8954 176 40C176 41.0544 175.184 41.9182 174.149 41.9945L174 42H163C161.895 42 161 41.1046 161 40C161 38.9456 161.816 38.0818 162.851 38.0055L163 38H174Z" fill="#DFDFDF"/>
<path d="M174 60C175.105 60 176 60.8954 176 62C176 63.0544 175.184 63.9182 174.149 63.9945L174 64H158C156.895 64 156 63.1046 156 62C156 60.9456 156.816 60.0818 157.851 60.0055L158 60H174Z" fill="#DFDFDF"/>
<path d="M174 27C175.105 27 176 27.8954 176 29C176 30.0544 175.184 30.9182 174.149 30.9945L174 31H158C156.895 31 156 30.1046 156 29C156 27.9456 156.816 27.0818 157.851 27.0055L158 27H174Z" fill="#DFDFDF"/>
<path d="M174 126C175.105 126 176 126.895 176 128C176 129.054 175.184 129.918 174.149 129.995L174 130H163C161.895 130 161 129.105 161 128C161 126.946 161.816 126.082 162.851 126.005L163 126H174Z" fill="#DFDFDF"/>
<path d="M160 104C161.105 104 162 104.895 162 106C162 107.054 161.184 107.918 160.149 107.995L160 108H149C147.895 108 147 107.105 147 106C147 104.946 147.816 104.082 148.851 104.005L149 104H160Z" fill="#DFDFDF"/>
<path d="M174 159C175.105 159 176 159.895 176 161C176 162.054 175.184 162.918 174.149 162.995L174 163H163C161.895 163 161 162.105 161 161C161 159.946 161.816 159.082 162.851 159.005L163 159H174Z" fill="#DFDFDF"/>
<path d="M174 93C175.105 93 176 93.8954 176 95C176 96.0544 175.184 96.9182 174.149 96.9945L174 97H163C161.895 97 161 96.1046 161 95C161 93.9456 161.816 93.0818 162.851 93.0055L163 93H174Z" fill="#DFDFDF"/>
<path d="M174 115C175.105 115 176 115.895 176 117C176 118.054 175.184 118.918 174.149 118.995L174 119H158C156.895 119 156 118.105 156 117C156 115.946 156.816 115.082 157.851 115.005L158 115H174Z" fill="#DFDFDF"/>
<path d="M174 148C175.105 148 176 148.895 176 150C176 151.054 175.184 151.918 174.149 151.995L174 152H158C156.895 152 156 151.105 156 150C156 148.946 156.816 148.082 157.851 148.005L158 148H174Z" fill="#DFDFDF"/>
<path d="M160 137C161.105 137 162 137.895 162 139C162 140.054 161.184 140.918 160.149 140.995L160 141H149C147.895 141 147 140.105 147 139C147 137.946 147.816 137.082 148.851 137.005L149 137H160Z" fill="#DFDFDF"/>
<path d="M174 82C175.105 82 176 82.8954 176 84C176 85.0544 175.184 85.9182 174.149 85.9945L174 86H158C156.895 86 156 85.1046 156 84C156 82.9456 156.816 82.0818 157.851 82.0055L158 82H174Z" fill="#DFDFDF"/>
<path d="M148.37 2.7386L50.3699 18.3715C48.4285 18.6812 47 20.3557 47 22.3216V167.59C47 169.555 48.4268 171.229 50.3666 171.54L148.367 187.257C150.797 187.647 153 185.769 153 183.307V6.68865C153 4.22816 150.8 2.351 148.37 2.7386Z" fill="#EFEDF8" stroke="#6E49CB" stroke-width="4"/>
<path d="M206.429 88.2119C203.423 87.2634 200.287 86.6644 197.084 86.4496M209.742 162.774C227.899 155.168 238.113 135.219 232.907 115.79C230.331 106.176 224.422 98.3395 216.743 93.1774" stroke="#F2F2F2" stroke-width="8" stroke-linecap="round"/>
<path d="M145 131L55 125V152L145 162V131Z" fill="#6E49CB"/>
<path d="M145 131L55 125V152L145 162V131Z" fill="white" fill-opacity="0.8"/>
<path d="M145 55L55 63V119L145 124V55Z" fill="white"/>
<circle cx="193" cy="126" r="30" fill="white" stroke="#FC6D26" stroke-width="4"/>
<circle cx="193" cy="126" r="24" fill="#FCF0EA"/>
<path fill-rule="evenodd" clip-rule="evenodd" d="M187 114C187 111.791 188.791 110 191 110H195C197.209 110 199 111.791 199 114V116H205C206.105 116 207 116.895 207 118C207 119.105 206.105 120 205 120H204.692L203.284 138.307C203.124 140.391 201.386 142 199.296 142H186.704C184.614 142 182.876 140.391 182.716 138.307L181.308 120H181C179.895 120 179 119.105 179 118C179 116.895 179.895 116 181 116H187V114ZM191 116H195V114H191V116ZM185.32 120L186.704 138L199.296 138L200.68 120H185.32Z" fill="#FC6D26"/>
<path d="M55 161L145 172.5" stroke="#C2B7E6" stroke-width="2" stroke-linecap="round" stroke-linejoin="round"/>
<path d="M126 40.8005C126 39.777 126.773 38.9187 127.791 38.8115L142.791 37.2326C143.972 37.1083 145 38.0342 145 39.2216V43.1995C145 44.223 144.227 45.0813 143.209 45.1885L128.209 46.7674C127.028 46.8917 126 45.9658 126 44.7784V40.8005Z" fill="#6E49CB"/>
<path d="M55 40.5L145 29" stroke="#C2B7E6" stroke-width="2" stroke-linecap="round" stroke-linejoin="round"/>
<path d="M137.885 14.2117L137.294 12.7787C136.522 10.9062 133.775 11.2359 133.468 13.238L133.233 14.7702L131.608 14.9652C129.759 15.1872 129.19 17.5937 130.744 18.6199L132.468 19.7584L132.164 21.7396C131.866 23.6874 134.266 24.8476 135.607 23.4034L136.512 22.4288L137.621 23.1616C139.266 24.2475 141.324 22.552 140.572 20.7303L139.808 18.8773L141.214 17.363C142.481 15.9981 141.359 13.7947 139.51 14.0166L137.885 14.2117Z" fill="#FC6D26" stroke="white" stroke-width="2"/>
<path d="M55 29.5L99 23" stroke="#C2B7E6" stroke-width="4" stroke-linecap="round" stroke-linejoin="round"/>
</svg>
