<svg xmlns="http://www.w3.org/2000/svg" width="307" height="270" viewBox="0 0 307 270">
  <g fill="none" fill-rule="evenodd">
    <g transform="translate(30 166)">
      <path stroke="#EEE" stroke-linecap="round" stroke-width="3" d="M219.69,85.73 C206.978,37.54 163.09,2 110.9,2 C58.55,2 14.55,37.757 1.99,86.18"/>
      <g fill="#F2F2F2" fill-rule="nonzero">
        <path d="M111.12,3.5 C161.733,3.598 205.51,37.86 218.24,86.11 C218.451,86.911 219.272,87.389 220.073,87.178 C220.874,86.967 221.352,86.146 221.141,85.345 C208.071,35.787 163.111,0.605 111.131,0.494995541 C110.303,0.493 109.63,1.164 109.627996,1.992 C109.626,2.82 110.297,3.493 111.125,3.49499554 M175.235,85.585 C167.552,35.925 141.544,0.593 111.125,0.494989965 C110.297,0.492 109.623,1.162 109.61999,1.99 C109.617,2.818 110.287,3.492 111.115,3.495 C139.696,3.591 164.78,37.665 172.265,86.045 C172.392,86.864 173.158,87.425 173.977,87.298 C174.796,87.171 175.357,86.405 175.23,85.586 M110.96,0.496 C58.65,0.496 13.47,35.938 0.54,85.796 C0.332,86.598 0.814,87.417 1.615,87.624 C2.417,87.832 3.236,87.35 3.443,86.549 C16.031,38.002 60.023,3.489 110.893,3.489 C111.781,3.489 112.453,2.818 112.453,1.99 C112.453,1.162 111.782,0.49 110.954,0.489 M49.674,86.299 C57.116,37.736 82.282,3.509 110.954,3.489 C111.782,3.488 112.453,2.816 112.453,1.988 C112.452,1.16 111.78,0.489 110.952,0.489 C80.44,0.517 54.352,35.999 46.712,85.849 C46.587,86.668 47.149,87.433 47.967,87.559 C48.786,87.684 49.551,87.122 49.677,86.304"/>
        <path d="M33.06,33.907 C54.758,45.85 82.1,52.5 110.998,52.5 C139.838,52.5 167.138,45.876 188.818,33.973 C189.544,33.574 189.81,32.662 189.411,31.936 C189.012,31.21 188.1,30.944 187.374,31.343 C166.144,42.996 139.344,49.503 111.004,49.503 C82.602,49.503 55.754,42.974 34.514,31.282 C33.788,30.883 32.876,31.147 32.477,31.873 C32.078,32.599 32.342,33.511 33.068,33.91"/>
        <rect width="3" height="86" x="110" y="2" rx="1.5"/>
      </g>
    </g>
    <g fill-rule="nonzero" transform="translate(135 162)">
      <circle cx="6" cy="6" r="6" fill="#F9E2D5"/>
      <circle cx="6" cy="6" r="3" fill="#FFF" stroke="#FC6D26" stroke-width="2"/>
    </g>
    <g fill-rule="nonzero" transform="translate(21 43)">
      <path fill="#FCF0EA" d="M215.76,178.82 C216.837,177.104 217.868,175.359 218.854,173.589 C219.257,172.865 218.997,171.952 218.273,171.549 C217.549,171.146 216.636,171.406 216.233,172.13 C215.273,173.855 214.268,175.554 213.223,177.226 C212.783,177.928 212.995,178.854 213.697,179.294 C214.399,179.734 215.325,179.522 215.765,178.82"/>
      <g transform="translate(186 25)">
        <path fill="#FCF0EA" d="M38.21 137.66C39.004 135.797 39.75 133.913 40.446 132.009 40.73 131.231 40.33 130.37 39.552 130.085 38.774 129.8 37.913 130.201 37.628 130.979 36.95 132.833 36.223 134.669 35.45 136.484 35.125 137.246 35.479 138.127 36.241 138.452 37.003 138.777 37.884 138.423 38.209 137.661M44.02 120.37C44.511 118.406 44.952 116.427 45.34 114.436 45.499 113.623 44.968 112.835 44.155 112.676 43.342 112.517 42.554 113.048 42.395 113.861 42.016 115.801 41.587 117.729 41.109 119.642 40.908 120.446 41.396 121.26 42.2 121.461 43.004 121.662 43.818 121.174 44.019 120.37"/>
        <path fill="#F9E2D5" d="M47.04 102.41C47.218 100.4 47.345 98.37 47.42 96.34 47.45 95.512 46.804 94.816 45.976 94.786 45.148 94.756 44.452 95.402 44.422 96.23 44.349 98.208 44.226 100.179 44.052 102.141 43.979 102.966 44.589 103.694 45.414 103.768 46.239 103.841 46.967 103.231 47.041 102.406M47.24 84.18C47.106 82.154 46.919 80.14 46.681 78.13 46.583 77.307 45.837 76.72 45.015 76.817 44.192 76.915 43.605 77.661 43.702 78.483 43.934 80.439 44.116 82.405 44.247 84.379 44.302 85.206 45.016 85.831 45.843 85.776 46.67 85.721 47.295 85.007 47.24 84.18"/>
        <path fill="#F4C6AC" d="M44.62 66.14C44.171 64.16 43.671 62.195 43.12 60.246 42.895 59.449 42.066 58.985 41.269 59.211 40.472 59.436 40.008 60.265 40.234 61.062 40.771 62.961 41.258 64.875 41.695 66.804 41.878 67.612 42.682 68.118 43.489 67.935 44.297 67.752 44.803 66.948 44.62 66.141M39.2 48.74C38.447 46.858 37.645 44.998 36.795 43.159 36.447 42.407 35.556 42.079 34.804 42.427 34.052 42.775 33.724 43.666 34.072 44.418 34.9 46.209 35.681 48.021 36.415 49.854 36.723 50.623 37.596 50.997 38.365 50.689 39.134 50.381 39.508 49.508 39.2 48.739"/>
        <path fill="#FC6D26" d="M31.11 32.38C30.072 30.641 28.989 28.928 27.861 27.245 27.4 26.557 26.468 26.372 25.78 26.833 25.092 27.294 24.907 28.226 25.368 28.914 26.466 30.554 27.522 32.222 28.533 33.914 28.958 34.625 29.878 34.858 30.59 34.433 31.301 34.008 31.534 33.088 31.109 32.376M20.55 17.478C19.253 15.922 17.917 14.399 16.54 12.912 15.977 12.304 15.028 12.267 14.42 12.829 13.812 13.392 13.775 14.341 14.337 14.949 15.677 16.398 16.98 17.882 18.243 19.398 18.773 20.034 19.719 20.121 20.356 19.59 20.992 19.06 21.079 18.114 20.548 17.477M7.89 4.473C6.369 3.136 4.813 1.838 3.224.581 2.574.067 1.631.177 1.117.827.603 1.477.713 2.42 1.363 2.934 2.911 4.158 4.427 5.423 5.909 6.726 6.531 7.273 7.479 7.212 8.026 6.59 8.573 5.968 8.512 5.02 7.89 4.473"/>
      </g>
      <path fill="#EFEDF8" d="M179.28,18.527 C177.569,17.442 175.829,16.403 174.064,15.409 C173.342,15.003 172.427,15.258 172.021,15.98 C171.615,16.702 171.87,17.617 172.592,18.023 C174.312,18.991 176.007,20.004 177.674,21.061 C178.374,21.504 179.3,21.297 179.744,20.597 C180.187,19.897 179.98,18.971 179.28,18.527 M163.14,9.993 C161.28,9.19 159.399,8.436 157.498,7.731 C156.721,7.443 155.858,7.839 155.57,8.616 C155.282,9.393 155.678,10.256 156.455,10.544 C158.307,11.231 160.139,11.965 161.951,12.747 C162.712,13.075 163.594,12.725 163.923,11.964 C164.251,11.203 163.901,10.321 163.14,9.992 M145.849,4.098 C143.887,3.598 141.911,3.15 139.921,2.753 C139.109,2.591 138.319,3.118 138.157,3.931 C137.995,4.743 138.522,5.533 139.335,5.695 C141.273,6.082 143.198,6.519 145.109,7.005 C145.912,7.21 146.728,6.725 146.933,5.922 C147.138,5.119 146.653,4.303 145.85,4.098 M127.919,1.003 C125.909,0.816 123.889,0.681 121.859,0.597 C121.031,0.563 120.333,1.207 120.299,2.034 C120.265,2.862 120.909,3.56 121.736,3.594 C123.714,3.675 125.684,3.807 127.645,3.989 C128.47,4.066 129.201,3.459 129.277,2.634 C129.354,1.809 128.747,1.078 127.922,1.002 M109.782,0.717 C107.754,0.841 105.734,1.017 103.722,1.245 C102.899,1.338 102.307,2.081 102.401,2.905 C102.494,3.728 103.237,4.32 104.061,4.226 C106.02,4.004 107.988,3.832 109.964,3.711 C110.791,3.66 111.42,2.949 111.37,2.122 C111.319,1.295 110.608,0.666 109.781,0.716 M91.731,3.244 C89.749,3.682 87.782,4.172 85.83,4.712 C85.032,4.933 84.564,5.76 84.785,6.558 C85.006,7.356 85.833,7.824 86.631,7.603 C88.532,7.076 90.448,6.603 92.379,6.173 C93.188,5.994 93.699,5.193 93.52,4.385 C93.341,3.576 92.54,3.065 91.732,3.244 M74.306,8.567 C72.419,9.31 70.553,10.103 68.709,10.944 C67.955,11.288 67.623,12.177 67.967,12.931 C68.311,13.685 69.2,14.017 69.954,13.673 C71.75,12.854 73.568,12.082 75.406,11.358 C76.177,11.054 76.555,10.183 76.252,9.413 C75.948,8.642 75.077,8.264 74.307,8.567"/>
      <g transform="translate(0 16)">
        <path fill="#EFEDF8" d="M57.904,0.58 C56.158,1.61 54.44,2.684 52.75,3.804 C52.059,4.261 51.87,5.192 52.328,5.883 C52.785,6.574 53.716,6.763 54.407,6.305 C56.053,5.215 57.727,4.167 59.427,3.164 C60.141,2.743 60.378,1.824 59.957,1.11 C59.536,0.396 58.617,0.159 57.903,0.58"/>
        <path fill="#E0DBF2" d="M42.949 11.06C41.386 12.349 39.856 13.678 38.361 15.046 37.75 15.605 37.708 16.554 38.267 17.165 38.826 17.776 39.775 17.818 40.386 17.259 41.842 15.926 43.333 14.631 44.856 13.375 45.495 12.848 45.586 11.903 45.059 11.263 44.532 10.624 43.587 10.533 42.947 11.06M29.871 23.663C28.525 25.178 27.218 26.729 25.953 28.312 25.436 28.959 25.541 29.903 26.188 30.42 26.835 30.937 27.779 30.832 28.296 30.185 29.529 28.642 30.802 27.132 32.114 25.655 32.664 25.036 32.608 24.088 31.989 23.537 31.37 22.987 30.422 23.043 29.871 23.662"/>
        <path fill="#C2B7E6" d="M18.852 38.21C17.759 39.916 16.71 41.65 15.707 43.41 15.297 44.13 15.548 45.046 16.268 45.456 16.988 45.866 17.904 45.615 18.314 44.895 19.291 43.18 20.313 41.49 21.378 39.829 21.825 39.132 21.622 38.204 20.925 37.757 20.228 37.31 19.3 37.513 18.853 38.21M10.236 54.3C9.423 56.156 8.659 58.033 7.944 59.93 7.652 60.705 8.044 61.57 8.819 61.863 9.594 62.155 10.459 61.763 10.752 60.988 11.448 59.14 12.193 57.311 12.984 55.504 13.316 54.745 12.971 53.861 12.212 53.528 11.453 53.196 10.569 53.541 10.236 54.3M4.248 71.58C3.738 73.539 3.279 75.514 2.872 77.502 2.706 78.314 3.229 79.106 4.04 79.273 4.852 79.439 5.644 78.916 5.811 78.105 6.208 76.168 6.655 74.245 7.151 72.337 7.36 71.535 6.879 70.716 6.077 70.508 5.275 70.299 4.456 70.78 4.248 71.582"/>
        <path fill="#6E49CB" d="M1.061 89.5C.864 91.51.718 93.53.625 95.56.587 96.388 1.227 97.089 2.055 97.127 2.883 97.165 3.584 96.525 3.622 95.697 3.713 93.72 3.855 91.75 4.047 89.79 4.128 88.966 3.525 88.232 2.7 88.151 1.876 88.07 1.142 88.673 1.061 89.498M.685 107.61C.799 109.639.964 111.659 1.182 113.67 1.271 114.494 2.011 115.089 2.835 115 3.659 114.911 4.254 114.171 4.165 113.347 3.953 111.387 3.791 109.418 3.681 107.441 3.635 106.614 2.927 105.981 2.099 106.027 1.272 106.073.639 106.781.685 107.609M3.12 125.68C3.548 127.662 4.027 129.631 4.557 131.584 4.774 132.384 5.598 132.856 6.398 132.639 7.198 132.422 7.67 131.598 7.453 130.798 6.937 128.896 6.47 126.978 6.053 125.047 5.878 124.237 5.08 123.722 4.27 123.897 3.46 124.072 2.945 124.87 3.12 125.68"/>
      </g>
      <path fill="#FDE5D8" d="M8.361,159.16 C9.095,161.05 9.878,162.92 10.709,164.767 C11.049,165.522 11.937,165.859 12.692,165.519 C13.447,165.179 13.784,164.291 13.444,163.536 C12.634,161.736 11.871,159.915 11.156,158.074 C10.856,157.302 9.987,156.919 9.215,157.219 C8.443,157.519 8.06,158.388 8.36,159.16 M16.271,175.576 C17.291,177.327 18.357,179.05 19.467,180.745 C19.921,181.438 20.851,181.632 21.544,181.178 C22.237,180.724 22.431,179.794 21.977,179.101 C20.896,177.45 19.857,175.77 18.864,174.061 C18.447,173.345 17.529,173.103 16.813,173.52 C16.097,173.937 15.855,174.855 16.272,175.571 M26.679,190.591 C27.96,192.161 29.281,193.697 30.641,195.199 C31.197,195.813 32.146,195.86 32.76,195.303 C33.374,194.747 33.421,193.798 32.864,193.184 C31.539,191.721 30.251,190.224 29.004,188.694 C28.48,188.052 27.535,187.956 26.894,188.48 C26.252,189.004 26.156,189.949 26.68,190.59"/>
    </g>
    <g fill-rule="nonzero" transform="translate(146 82)">
      <path fill="#F9E2D5" d="M3.229,76.861 C3.277,76.792 3.363,76.666 3.482,76.485 C3.676,76.191 3.898,75.844 4.143,75.447 C4.839,74.321 5.59,73.01 6.368,71.527 C6.753,70.794 6.471,69.887 5.737,69.502 C5.004,69.117 4.097,69.399 3.712,70.133 C2.966,71.553 2.25,72.803 1.59,73.872 C1.361,74.243 1.156,74.564 0.978,74.834 C0.874,74.992 0.804,75.094 0.771,75.141 C0.296,75.82 0.46,76.755 1.139,77.23 C1.818,77.705 2.753,77.541 3.228,76.862"/>
      <path fill="#F4C6AC" d="M11.208,60.31 C11.869,58.399 12.465,56.449 12.989,54.461 C13.2,53.66 12.722,52.839 11.921,52.628 C11.12,52.417 10.299,52.895 10.088,53.696 C9.584,55.609 9.009,57.488 8.373,59.329 C8.102,60.112 8.517,60.966 9.3,61.237 C10.083,61.508 10.937,61.093 11.208,60.31"/>
      <path fill="#FC6D26" d="M15.16,42.4 C15.357,40.367 15.469,38.327 15.491,36.28 C15.5,35.452 14.836,34.773 14.007,34.764 C13.179,34.755 12.5,35.419 12.491,36.248 C12.47,38.208 12.363,40.162 12.174,42.11 C12.094,42.935 12.697,43.668 13.522,43.748 C14.347,43.828 15.08,43.225 15.16,42.4"/>
      <path fill="#FDE5D8" d="M14.533,24.07 C14.19,22.06 13.754,20.06 13.222,18.074 C13.008,17.274 12.186,16.798 11.386,17.012 C10.586,17.226 10.11,18.048 10.324,18.848 C10.832,20.75 11.248,22.66 11.576,24.576 C11.716,25.393 12.491,25.941 13.307,25.802 C14.124,25.662 14.672,24.887 14.533,24.071 M9,6.533 C8.145,4.709 7.202,2.898 6.171,1.102 C5.759,0.383 4.842,0.135 4.123,0.548 C3.404,0.96 3.156,1.877 3.569,2.596 C4.559,4.321 5.463,6.058 6.283,7.808 C6.635,8.558 7.528,8.881 8.278,8.529 C9.028,8.177 9.351,7.284 8.999,6.534"/>
    </g>
    <g fill-rule="nonzero" transform="translate(86)">
      <rect width="80" height="87" x="33.806" y="8.486" fill="#FFF" stroke="#F2F2F2" stroke-width="4" rx="8" transform="rotate(-5 73.806 51.986)"/>
      <g transform="rotate(10 8.616 98.486)">
        <rect width="84" height="94" x="2" y="2" fill="#FFF" stroke="#F2F2F2" stroke-width="4" rx="8"/>
        <g transform="translate(14 20)">
          <g fill="#F9E2D5">
            <rect width="12" height="4" rx="2"/>
            <rect width="12" height="4" x="24" y="12" rx="2"/>
          </g>
          <rect width="12" height="4" y="36" fill="#6E49CB" rx="2"/>
          <g fill="#F9E2D5" transform="translate(0 36)">
            <rect width="12" height="4" x="18" rx="2"/>
            <rect width="12" height="4" y="18" rx="2"/>
          </g>
          <rect width="12" height="4" x="36" y="36" fill="#FC6D26" rx="2"/>
          <rect width="6" height="4" x="42" y="12" fill="#6E49CB" rx="2"/>
          <g fill="#F9E2D5">
            <rect width="6" height="4" x="36" y="24" rx="2"/>
            <rect width="6" height="4" x="54" y="36" rx="2"/>
            <rect width="6" height="4" x="48" y="24" rx="2"/>
            <rect width="6" height="4" x="42" y="54" rx="2"/>
            <rect width="6" height="4" y="24" rx="2"/>
            <rect width="18" height="4" x="18" rx="2"/>
          </g>
          <rect width="18" height="4" x="18" y="54" fill="#FC6D26" rx="2"/>
          <rect width="18" height="4" y="12" fill="#FC6D26" rx="2"/>
          <g fill="#FC6D26" transform="translate(12)">
            <rect width="18" height="4" y="24" rx="2"/>
            <rect width="12" height="4" x="30" rx="2"/>
          </g>
        </g>
      </g>
    </g>
    <g fill-rule="nonzero" transform="translate(233 217)">
      <circle cx="6" cy="6" r="6" fill="#F9E2D5"/>
      <circle cx="6" cy="6" r="3" fill="#FFF" stroke="#FC6D26" stroke-width="2"/>
    </g>
    <g fill-rule="nonzero" transform="translate(64 243)">
      <circle cx="13.5" cy="13.5" r="13.5" fill="#EFEDF8"/>
      <circle cx="13.5" cy="13.5" r="8.5" fill="#C2B7E6"/>
      <circle cx="13.5" cy="13.5" r="3.5" fill="#FFF" stroke="#6E49CB" stroke-width="2"/>
    </g>
    <circle cx="192" cy="210" r="3" fill="#FFF" fill-rule="nonzero" stroke="#FCF0EA" stroke-width="2"/>
    <g transform="translate(251 176)">
      <path fill="#FFF" fill-rule="nonzero" stroke="#DFDFDF" stroke-width="4" d="M29.7013062,2 C22.9943293,2 16.9216729,4.74144257 12.5254174,9.17134967 C8.12413834,13.6063188 5.40261239,19.7332505 5.40261239,26.5 C5.40261239,28.463325 5.6311959,30.373376 6.06382089,32.203345 L2.38933209,39.6927496 L9.52405276,40.1559368 C13.8863445,46.6948235 21.293992,51 29.7013062,51 C36.4082831,51 42.4809395,48.2585574 46.8771949,43.8286503 C51.278474,39.3936812 54,33.2667495 54,26.5 C54,19.7339563 51.2785891,13.6064348 46.8768342,9.1709862 C42.4810541,4.74155807 36.4089823,2 29.7013062,2 Z"/>
      <g transform="translate(17 17)">
        <path fill="#FFF" fill-rule="nonzero" stroke="#F4C6AC" stroke-linecap="round" stroke-linejoin="round" stroke-width="4" d="M13,20 C20.18,20 25.367,11.4692832 25.367,11.4692832 C25.717,10.9480657 25.736,10.0743704 25.403,9.53565402 C25.403,9.53565402 20.179,0 12.999,0 C5.819,0 0.595,9.53565402 0.595,9.53565402 C0.266,10.0831198 0.279,10.9580651 0.644,11.4867821 C0.644,11.4867821 5.819,20 12.999,20"/>
        <circle cx="13" cy="10" r="5" stroke="#FC6D26" stroke-width="2"/>
        <circle cx="13" cy="10" r="2" fill="#FC6D26" fill-rule="nonzero"/>
      </g>
    </g>
    <path fill="#FFF" fill-rule="nonzero" stroke="#DFDFDF" stroke-width="4" d="M30.2410894,2 C23.2668968,2 16.9538161,4.85272672 12.3837618,9.46257054 C7.80745968,14.0787166 4.97845359,20.4562942 4.97845359,27.5 C4.97845359,30.4950734 5.48990435,33.3696059 6.42894846,36.0401338 L2.91970854,43.1980996 L10.7323663,43.7064672 C15.3679165,49.3797036 22.3849932,53 30.2410894,53 C37.215282,53 43.5283628,50.1472733 48.0984171,45.5374295 C52.6747192,40.9212834 55.5037253,34.5437058 55.5037253,27.5 C55.5037253,20.4562942 52.6747192,14.0787166 48.0984171,9.46257054 C43.5283628,4.85272672 37.215282,2 30.2410894,2 Z" transform="matrix(-1 0 0 1 58 197)"/>
    <path fill="#6E49CB" d="M13.5,0 L13.5,3.90003 C16.8163219,4.57321922 19.3381295,7.43467301 19.4925039,10.9116497 L19.5,11.25 L19.5,16.9014 C20.3967,17.4201 21,18.38955 21,19.5 C21,21.1569 19.6569,22.5 18,22.5 C16.3431,22.5 15,21.1569 15,19.5 C15,18.4749692 15.5140544,17.5700805 16.2984186,17.0289605 L16.5,16.9014 L16.5,11.25 C16.5,9.3886365 15.3698895,7.79122717 13.7583584,7.10650053 L13.5,7.006065 L13.5,10.5 L7.5,5.25 L13.5,0 Z M3,1.5 C4.656855,1.5 6,2.843145 6,4.5 C6,5.52500308 5.48594556,6.42995361 4.70158143,6.97109506 L4.5,7.09866 L4.5,16.9014 C5.3967,17.4201 6,18.38955 6,19.5 C6,21.1569 4.656855,22.5 3,22.5 C1.343145,22.5 0,21.1569 0,19.5 C0,18.4749692 0.514054438,17.5700805 1.29841857,17.0289605 L1.5,16.9014 L1.5,7.09866 C0.6033,6.579945 0,5.61042 0,4.5 C0,2.843145 1.343145,1.5 3,1.5 Z" transform="translate(18 212)"/>
  </g>
</svg>
