<svg xmlns="http://www.w3.org/2000/svg" xmlns:xlink="http://www.w3.org/1999/xlink" width="255" height="211" viewBox="0 0 255 211">
  <defs>
    <circle id="geo-replication-empty-state-a" cx="6" cy="6" r="6"/>
    <circle id="geo-replication-empty-state-b" cx="13.5" cy="13.5" r="13.5"/>
    <circle id="geo-replication-empty-state-c" cx="13.5" cy="13.5" r="8.5"/>
    <path id="geo-replication-empty-state-d" d="M47.24,84.18 C47.106,82.154 46.919,80.14 46.681,78.13 C46.583,77.307 45.837,76.72 45.015,76.817 C44.192,76.915 43.605,77.661 43.702,78.483 C43.934,80.439 44.116,82.405 44.247,84.379 C44.302,85.206 45.016,85.831 45.843,85.776 C46.67,85.721 47.295,85.007 47.24,84.18"/>
    <path id="geo-replication-empty-state-e" d="M44.62,66.14 C44.171,64.16 43.671,62.195 43.12,60.246 C42.895,59.449 42.066,58.985 41.269,59.211 C40.472,59.436 40.008,60.265 40.234,61.062 C40.771,62.961 41.258,64.875 41.695,66.804 C41.878,67.612 42.682,68.118 43.489,67.935 C44.297,67.752 44.803,66.948 44.62,66.141"/>
    <rect id="geo-replication-empty-state-f" width="20" height="4" x="0" y="0" rx="2"/>
    <rect id="geo-replication-empty-state-g" width="32" height="4" x="112" y="0" rx="2"/>
    <rect id="geo-replication-empty-state-h" width="76" height="4" x="28" y="0" rx="2"/>
    <rect id="geo-replication-empty-state-i" width="36" height="4" x="6" y="10" rx="2"/>
    <rect id="geo-replication-empty-state-j" width="100" height="4" x="50" y="10" rx="2"/>
  </defs>
  <g fill="none" fill-rule="evenodd" transform="translate(2)">
    <g transform="translate(0 42)">
      <g transform="translate(14 81)">
        <path stroke="#EEE" stroke-linecap="round" stroke-width="3" d="M219.69,85.73 C206.978,37.54 163.09,2 110.9,2 C58.55,2 14.55,37.757 1.99,86.18"/>
        <g fill="#F2F2F2" fill-rule="nonzero">
          <path d="M111.12,3.5 C161.733,3.598 205.51,37.86 218.24,86.11 C218.451,86.911 219.272,87.389 220.073,87.178 C220.874,86.967 221.352,86.146 221.141,85.345 C208.071,35.787 163.111,0.605 111.131,0.494995541 C110.303,0.493 109.63,1.164 109.627996,1.992 C109.626,2.82 110.297,3.493 111.125,3.49499554 M175.235,85.585 C167.552,35.925 141.544,0.593 111.125,0.494989965 C110.297,0.492 109.623,1.162 109.61999,1.99 C109.617,2.818 110.287,3.492 111.115,3.495 C139.696,3.591 164.78,37.665 172.265,86.045 C172.392,86.864 173.158,87.425 173.977,87.298 C174.796,87.171 175.357,86.405 175.23,85.586 M110.96,0.496 C58.65,0.496 13.47,35.938 0.54,85.796 C0.332,86.598 0.814,87.417 1.615,87.624 C2.417,87.832 3.236,87.35 3.443,86.549 C16.031,38.002 60.023,3.489 110.893,3.489 C111.781,3.489 112.453,2.818 112.453,1.99 C112.453,1.162 111.782,0.49 110.954,0.489 M49.674,86.299 C57.116,37.736 82.282,3.509 110.954,3.489 C111.782,3.488 112.453,2.816 112.453,1.988 C112.452,1.16 111.78,0.489 110.952,0.489 C80.44,0.517 54.352,35.999 46.712,85.849 C46.587,86.668 47.149,87.433 47.967,87.559 C48.786,87.684 49.551,87.122 49.677,86.304"/>
          <path d="M33.06,33.907 C54.758,45.85 82.1,52.5 110.998,52.5 C139.838,52.5 167.138,45.876 188.818,33.973 C189.544,33.574 189.81,32.662 189.411,31.936 C189.012,31.21 188.1,30.944 187.374,31.343 C166.144,42.996 139.344,49.503 111.004,49.503 C82.602,49.503 55.754,42.974 34.514,31.282 C33.788,30.883 32.876,31.147 32.477,31.873 C32.078,32.599 32.342,33.511 33.068,33.91"/>
          <rect width="3" height="86" x="110" y="2" rx="1.5"/>
        </g>
      </g>
      <g transform="translate(195 108)">
        <use fill="#FC6D26" xlink:href="#geo-replication-empty-state-a"/>
        <use fill="#FFF" fill-opacity=".8" xlink:href="#geo-replication-empty-state-a"/>
        <circle cx="6" cy="6" r="3" fill="#FFF" fill-rule="nonzero" stroke="#FC6D26" stroke-width="2"/>
      </g>
      <g transform="translate(52 131)">
        <use fill="#6E49CB" xlink:href="#geo-replication-empty-state-b"/>
        <use fill="#FFF" fill-opacity=".9" xlink:href="#geo-replication-empty-state-b"/>
        <use fill="#6E49CB" xlink:href="#geo-replication-empty-state-c"/>
        <use fill="#FFF" fill-opacity=".6" xlink:href="#geo-replication-empty-state-c"/>
        <circle cx="13.5" cy="13.5" r="3.5" fill="#FFF" fill-rule="nonzero" stroke="#6E49CB" stroke-width="2"/>
      </g>
      <g transform="scale(1 -1) rotate(15 513.48 735.299)">
        <use fill="#FC6D26" xlink:href="#geo-replication-empty-state-d"/>
        <use fill="#FFF" fill-opacity=".8" xlink:href="#geo-replication-empty-state-d"/>
        <use fill="#FC6D26" xlink:href="#geo-replication-empty-state-e"/>
        <use fill="#FFF" fill-opacity=".6" xlink:href="#geo-replication-empty-state-e"/>
        <path fill="#FC6D26" d="M39.2 48.74C38.447 46.858 37.645 44.998 36.795 43.159 36.447 42.407 35.556 42.079 34.804 42.427 34.052 42.775 33.724 43.666 34.072 44.418 34.9 46.209 35.681 48.021 36.415 49.854 36.723 50.623 37.596 50.997 38.365 50.689 39.134 50.381 39.508 49.508 39.2 48.739M31.11 32.38C30.072 30.641 28.989 28.928 27.861 27.245 27.4 26.557 26.468 26.372 25.78 26.833 25.092 27.294 24.907 28.226 25.368 28.914 26.466 30.554 27.522 32.222 28.533 33.914 28.958 34.625 29.878 34.858 30.59 34.433 31.301 34.008 31.534 33.088 31.109 32.376M20.55 17.478C19.253 15.922 17.917 14.399 16.54 12.912 15.977 12.304 15.028 12.267 14.42 12.829 13.812 13.392 13.775 14.341 14.337 14.949 15.677 16.398 16.98 17.882 18.243 19.398 18.773 20.034 19.719 20.121 20.356 19.59 20.992 19.06 21.079 18.114 20.548 17.477M7.89 4.473C6.369 3.136 4.813 1.838 3.224.581 2.574.067 1.631.177 1.117.827.603 1.477.713 2.42 1.363 2.934 2.911 4.158 4.427 5.423 5.909 6.726 6.531 7.273 7.479 7.212 8.026 6.59 8.573 5.968 8.512 5.02 7.89 4.473"/>
      </g>
      <g fill="#6E49CB" transform="rotate(-28 171.41 9.338)">
        <path d="M4.248 1.58C3.738 3.539 3.279 5.514 2.872 7.502 2.706 8.314 3.229 9.106 4.04 9.273 4.852 9.439 5.644 8.916 5.811 8.105 6.208 6.168 6.655 4.245 7.151 2.337 7.36 1.535 6.879.716 6.077.508 5.275.299 4.456.78 4.248 1.582M1.061 19.5C.864 21.51.718 23.53.625 25.56.587 26.388 1.227 27.089 2.055 27.127 2.883 27.165 3.584 26.525 3.622 25.697 3.713 23.72 3.855 21.75 4.047 19.79 4.128 18.966 3.525 18.232 2.7 18.151 1.876 18.07 1.142 18.673 1.061 19.498M.685 37.61C.799 39.639.964 41.659 1.182 43.67 1.271 44.494 2.011 45.089 2.835 45 3.659 44.911 4.254 44.171 4.165 43.347 3.953 41.387 3.791 39.418 3.681 37.441 3.635 36.614 2.927 35.981 2.099 36.027 1.272 36.073.639 36.781.685 37.609M3.12 55.68C3.548 57.662 4.027 59.631 4.557 61.584 4.774 62.384 5.598 62.856 6.398 62.639 7.198 62.422 7.67 61.598 7.453 60.798 6.937 58.896 6.47 56.978 6.053 55.047 5.878 54.237 5.08 53.722 4.27 53.897 3.46 54.072 2.945 54.87 3.12 55.68"/>
        <path d="M3.12,55.68 C3.548,57.662 4.027,59.631 4.557,61.584 C4.774,62.384 5.598,62.856 6.398,62.639 C7.198,62.422 7.67,61.598 7.453,60.798 C6.937,58.896 6.47,56.978 6.053,55.047 C5.878,54.237 5.08,53.722 4.27,53.897 C3.46,54.072 2.945,54.87 3.12,55.68"/>
      </g>
      <g transform="translate(41 42)">
        <use fill="#6E49CB" xlink:href="#geo-replication-empty-state-f"/>
        <use fill="#FFF" fill-opacity=".8" xlink:href="#geo-replication-empty-state-f"/>
        <use fill="#6E49CB" xlink:href="#geo-replication-empty-state-g"/>
        <use fill="#FFF" fill-opacity=".8" xlink:href="#geo-replication-empty-state-g"/>
        <use fill="#6E49CB" xlink:href="#geo-replication-empty-state-h"/>
        <use fill="#FFF" fill-opacity=".8" xlink:href="#geo-replication-empty-state-h"/>
        <use fill="#FC6D26" xlink:href="#geo-replication-empty-state-i"/>
        <use fill="#FFF" fill-opacity=".8" xlink:href="#geo-replication-empty-state-i"/>
        <use fill="#FC6D26" xlink:href="#geo-replication-empty-state-j"/>
        <use fill="#FFF" fill-opacity=".8" xlink:href="#geo-replication-empty-state-j"/>
      </g>
      <g transform="translate(197)">
        <path fill="#FFF" stroke="#FDC4A8" stroke-linecap="round" stroke-width="4" d="M5.18017578,54 L27,54 C41.9116882,54 54,41.9116882 54,27 C54,12.0883118 41.9116882,0 27,0 C12.0883118,0 0,12.0883118 0,27 C0,30.5689042 0.692439454,33.9760805 1.95029997,37.0945105"/>
        <path fill="#FC6D26" d="M23.35725,2.617365 L22.0098,7.67916 C21.4224,9.88593 20.01795,11.786865 18.0813,12.996825 L7.228035,19.77735 L4.361835,16.91115 L11.14242,6.057945 C12.35238,4.12122 14.253315,2.716875 16.4601,2.12943 L21.52185,0.781983 C22.3224,0.5688765 23.1441,1.0450935 23.35725,1.845645 C23.4246,2.098485 23.4246,2.364525 23.35725,2.617365 Z M19.79235,4.34685 L17.23185,5.02848 C15.76065,5.4201 14.493345,6.35634 13.68669,7.64748 L9.01656,15.1227 L16.49175,10.452555 C17.78295,9.6459 18.7191,8.37861 19.11075,6.90744 L19.79235,4.34685 Z M9,21 L16.5,16.5 L16.5,18 C16.5,21.31365 13.81371,24 10.5,24 L9,24 L9,21 Z M3,15 L0,15 L0,13.5 C0,10.18629 2.68629,7.5 6,7.5 L7.5,7.5 L3,15 Z" transform="matrix(-1 0 0 1 39 15)"/>
      </g>
      <g transform="translate(0 44)">
        <path fill="#FFF" stroke="#C2B7E6" stroke-linecap="round" stroke-width="4" d="M3.45345052,36 L18,36 C27.9411255,36 36,27.9411255 36,18 C36,8.0588745 27.9411255,0 18,0 C8.0588745,0 0,8.0588745 0,18 C0,20.3792695 0.461626302,22.6507204 1.30019998,24.7296737" transform="rotate(180 18 18)"/>
        <path fill="#6E49CB" d="M15.5715,1.74491 L14.6732,5.11944 C14.2816,6.59062 13.3453,7.85791 12.0542,8.66455 L4.81869,13.1849 L2.90789,11.2741 L7.42828,4.03863 C8.23492,2.74748 9.50221,1.81125 10.9734,1.41962 L14.3479,0.521322 C14.8816,0.379251 15.4294,0.696729 15.5715,1.23043 C15.6164,1.39899 15.6164,1.57635 15.5715,1.74491 Z M13.1949,2.8979 L11.4879,3.35232 C10.5071,3.6134 9.66223,4.23756 9.12446,5.09832 L6.01104,10.0818 L10.9945,6.96837 C11.8553,6.4306 12.4794,5.58574 12.7405,4.60496 L13.1949,2.8979 Z M6,14 L11,11 L11,12 C11,14.2091 9.20914,16 7,16 L6,16 L6,14 Z M2,10 L0,10 L0,9 C0,6.79086 1.79086,5 4,5 L5,5 L2,10 Z" transform="translate(10.5 10.5)"/>
      </g>
    </g>
    <g transform="translate(55)">
      <rect width="126" height="72" x="2" y="2" fill="#FFF" stroke="#DFDFDF" stroke-width="4" rx="8"/>
      <g stroke-linecap="round" transform="translate(14 16)">
        <line x2="5" y1=".5" y2=".5" stroke="#C2B7E6" stroke-linejoin="round" stroke-width="2"/>
        <line x2="5" y1="32.5" y2="32.5" stroke="#C2B7E6" stroke-linejoin="round" stroke-width="2"/>
        <line x2="5" y1="10.5" y2="10.5" stroke="#C2B7E6" stroke-linejoin="round" stroke-width="2"/>
        <line x2="5" y1="42.5" y2="42.5" stroke="#C2B7E6" stroke-linejoin="round" stroke-width="2"/>
        <line x1="20" x2="36" y1=".5" y2=".5" stroke="#DFDFDF" stroke-width="4"/>
        <line x1="20" x2="29" y1="10.5" y2="10.5" stroke="#DFDFDF" stroke-width="4"/>
        <line x1="20" x2="29" y1="42.5" y2="42.5" stroke="#DFDFDF" stroke-width="4"/>
        <line x1="40" x2="61" y1="10.5" y2="10.5" stroke="#DFDFDF" stroke-width="4"/>
        <line x1="40" x2="61" y1="42.5" y2="42.5" stroke="#DFDFDF" stroke-width="4"/>
        <line x1="72" x2="86" y1="42.5" y2="42.5" stroke="#DFDFDF" stroke-width="4"/>
        <line x1="21" x2="43" y1="21.5" y2="21.5" stroke="#FC6D26" stroke-width="4"/>
        <line x1="79" x2="101" y1="21.5" y2="21.5" stroke="#FC6D26" stroke-width="4"/>
        <line x1="53" x2="67" y1="21.5" y2="21.5" stroke="#F4C6AC" stroke-width="4"/>
        <line x1="20" x2="36" y1="32.5" y2="32.5" stroke="#DFDFDF" stroke-width="4"/>
        <line x1="72" x2="86" y1="10.5" y2="10.5" stroke="#DFDFDF" stroke-width="4"/>
        <line x1="47" x2="55" y1=".5" y2=".5" stroke="#DFDFDF" stroke-width="4"/>
        <line x1="65" x2="86" y1="32.5" y2="32.5" stroke="#DFDFDF" stroke-width="4"/>
        <line x2="5" y1="21.5" y2="21.5" stroke="#F4C6AC" stroke-width="2"/>
        <line x1="47" x2="55" y1="32.5" y2="32.5" stroke="#DFDFDF" stroke-width="4"/>
        <line x1="65" x2="86" y1=".5" y2=".5" stroke="#DFDFDF" stroke-width="4"/>
      </g>
    </g>
  </g>
</svg>
