<svg width="16" height="16" viewBox="0 0 16 16" xmlns="http://www.w3.org/2000/svg"><title>icn/abuse</title><path d="M11.05 1.361l3.393 2.714a1.5 1.5 0 0 1 .564 1.171v5.54a1.5 1.5 0 0 1-.563 1.171l-3.392 2.716a1.5 1.5 0 0 1-.937.329H5.932a1.5 1.5 0 0 1-.937-.329L1.6 11.96a1.5 1.5 0 0 1-.563-1.172v-5.54a1.5 1.5 0 0 1 .562-1.17l3.392-2.716a1.5 1.5 0 0 1 .937-.33h4.184c.34 0 .67.116.936.33zM9.936 3.033H6.105L3.038 5.488v5.06l3.069 2.454h3.832l3.068-2.456v-5.06l-3.07-2.453zM8 4a1 1 0 0 1 1 1v3a1 1 0 1 1-2 0V5a1 1 0 0 1 1-1zm0 8a1 1 0 1 1 0-2 1 1 0 0 1 0 2z" fill="#000" fill-rule="nonzero"/></svg>