<svg xmlns="http://www.w3.org/2000/svg" width="16" height="16" viewBox="0 0 16 16"><path d="M11.408.328l4.029 3.222A1.5 1.5 0 0 1 16 4.72v6.555a1.5 1.5 0 0 1-.563 1.171l-4.026 3.224a1.5 1.5 0 0 1-.937.329H5.529a1.5 1.5 0 0 1-.937-.328L.563 12.45A1.5 1.5 0 0 1 0 11.28V4.724a1.5 1.5 0 0 1 .563-1.171L4.589.329A1.5 1.5 0 0 1 5.526 0h4.945c.34 0 .67.116.937.328zM10.296 2H5.702L2 4.964v6.074L5.704 14h4.594L14 11.036V4.962L10.296 2zM8 4a1 1 0 0 1 1 1v3a1 1 0 1 1-2 0V5a1 1 0 0 1 1-1zm0 8a1 1 0 1 1 0-2 1 1 0 0 1 0 2z"/></svg>