<svg xmlns="http://www.w3.org/2000/svg" width="16" height="16" viewBox="0 0 16 16">
  <path fill="#000000" fill-rule="evenodd" d="M9.19457511,9.96478997 L8.62685928,9.08962399 C8.56794198,8.99879965 8.57417821,8.88037338 8.64230867,8.79623927 L9.04667021,8.29689435 C9.11480067,8.21276024 9.22934245,8.18203808 9.33043166,8.22078445 L10.2679363,8.5801196 C10.524772,8.39819886 10.8114668,8.25565208 11.1192276,8.1612724 L11.4410062,7.17262656 C11.4745121,7.06968161 11.5704712,7 11.6787316,7 L12.3212684,7 C12.4295288,7 12.5254879,7.06968161 12.5589938,7.17262656 L12.8807724,8.1612724 C13.1885332,8.25565208 13.475228,8.39819886 13.7320637,8.5801196 L14.6695683,8.22078445 C14.7706575,8.18203808 14.8851993,8.21276024 14.9533298,8.29689435 L15.3576913,8.79623927 C15.4258218,8.88037338 15.432058,8.99879965 15.3731407,9.08962399 L14.8054249,9.96478997 C14.9181596,10.2615614 14.9851563,10.5808607 14.9978054,10.9140783 L15.8964836,11.454672 C15.9892529,11.5104767 16.0355625,11.6196514 16.0112092,11.725137 L15.8666698,12.3512057 C15.8423165,12.4566914 15.7528348,12.5345161 15.6449911,12.5440056 L14.5304406,12.6420793 C14.3870164,12.8667264 14.2144978,13.0709992 14.0181957,13.2495867 L14.1833967,14.4293444 C14.1984099,14.5365587 14.1427089,14.6412538 14.0454051,14.688712 L13.4678968,14.9703817 C13.370593,15.0178399 13.2537992,14.9972762 13.1785561,14.9194379 L12.3039739,14.0146896 C12.2040154,14.024748 12.1026093,14.0298994 12,14.0298994 C11.8973907,14.0298994 11.7959846,14.024748 11.6960261,14.0146896 L10.8214439,14.9194379 C10.7462008,14.9972762 10.629407,15.0178399 10.5321032,14.9703817 L9.95459491,14.688712 C9.85729113,14.6412538 9.80159009,14.5365587 9.81660327,14.4293444 L9.98180428,13.2495867 C9.78550221,13.0709992 9.6129836,12.8667264 9.46955937,12.6420793 L8.3550089,12.5440056 C8.24716523,12.5345161 8.15768346,12.4566914 8.13333017,12.3512057 L7.98879083,11.725137 C7.96443755,11.6196514 8.01074712,11.5104767 8.10351641,11.454672 L9.00219463,10.9140783 C9.01484375,10.5808607 9.08184041,10.2615614 9.19457511,9.96478997 L9.19457511,9.96478997 Z M6.78917044,8.02349924 C6.53792165,8.00802829 6.2750336,8 6,8 C0.963761568,8 6.26682202e-16,10.7405176 4.4408921e-16,12.48 C4.4408921e-16,14.2194824 0.0759028948,15 6,15 C6.55287578,15 7.05481465,14.993625 7.51050868,14.9806114 C6.57070755,13.9214461 6,12.527371 6,11 C6,9.9168248 6.28702647,8.90068822 6.78917044,8.02349924 L6.78917044,8.02349924 Z M5.97643891,7 C4.31958466,7 2.97643891,5.65685425 2.97643891,4 C2.97643891,2.34314575 4.31958466,1 5.97643891,1 C7.63329316,1 8.97643891,2.34314575 8.97643891,4 C8.97643891,5.65685425 7.63329316,7 5.97643891,7 Z M12,12 C12.5522847,12 13,11.5522847 13,11 C13,10.4477153 12.5522847,10 12,10 C11.4477153,10 11,10.4477153 11,11 C11,11.5522847 11.4477153,12 12,12 Z"/>
</svg>
