<svg width="16" height="16" viewBox="0 0 16 16" xmlns="http://www.w3.org/2000/svg"><title>icn/account</title><path d="M8.195 9.965l-.568-.875a.25.25 0 0 1 .015-.294l.405-.5a.25.25 0 0 1 .283-.075l.938.36c.257-.183.543-.325.851-.42l.322-.988A.25.25 0 0 1 10.679 7h.642a.25.25 0 0 1 .238.173l.322.988c.308.095.594.237.851.42l.938-.36a.25.25 0 0 1 .283.076l.405.5a.25.25 0 0 1 .015.293l-.568.875c.113.297.18.616.193.95l.898.54a.25.25 0 0 1 .115.27l-.144.626a.25.25 0 0 1-.222.193l-1.115.098a3.015 3.015 0 0 1-.512.608l.165 1.18a.25.25 0 0 1-.138.259l-.577.281a.25.25 0 0 1-.29-.05l-.874-.905a3.035 3.035 0 0 1-.608 0l-.875.904a.25.25 0 0 1-.289.051l-.577-.281a.25.25 0 0 1-.138-.26l.165-1.18a3.015 3.015 0 0 1-.512-.607l-1.115-.098a.25.25 0 0 1-.222-.193l-.144-.626a.25.25 0 0 1 .115-.27l.898-.54c.013-.334.08-.653.193-.95zm-1.78 3.033C1.071 12.953 1 12.28 1 10.84 1 9.349 1.964 7 7 7c.338 0 .658.01.96.03A4.992 4.992 0 0 0 6 11c0 .71.148 1.386.415 1.998zM6.476 6a2.5 2.5 0 1 1 0-5 2.5 2.5 0 0 1 0 5zM11 12a1 1 0 1 0 0-2 1 1 0 0 0 0 2z" fill="#000" fill-rule="evenodd"/></svg>