<svg xmlns="http://www.w3.org/2000/svg" width="16" height="16" viewBox="0 0 16 16">
  <path fill="#000000" fill-rule="evenodd" d="M10.4142136,7.94974747 L14.6568542,3.70710678 C15.0473785,3.31658249 15.0473785,2.68341751 14.6568542,2.29289322 C14.26633,1.90236893 13.633165,1.90236893 13.2426407,2.29289322 L8.29289322,7.24264069 C8.09763107,7.43790283 8,7.69382515 8,7.94974747 C8,8.20566979 8.09763107,8.4615921 8.29289322,8.65685425 L13.2426407,13.6066017 C13.633165,13.997126 14.26633,13.997126 14.6568542,13.6066017 C15.0473785,13.2160774 15.0473785,12.5829124 14.6568542,12.1923882 L10.4142136,7.94974747 L10.4142136,7.94974747 Z M3.41421356,7.94974747 L7.65685425,3.70710678 C8.04737854,3.31658249 8.04737854,2.68341751 7.65685425,2.29289322 C7.26632996,1.90236893 6.63316498,1.90236893 6.24264069,2.29289322 L1.29289322,7.24264069 C1.09763107,7.43790283 1,7.69382515 1,7.94974747 C1,8.20566979 1.09763107,8.4615921 1.29289322,8.65685425 L6.24264069,13.6066017 C6.63316498,13.997126 7.26632996,13.997126 7.65685425,13.6066017 C8.04737854,13.2160774 8.04737854,12.5829124 7.65685425,12.1923882 L3.41421356,7.94974747 Z" transform="matrix(-1 0 0 1 15.95 0)"/>
</svg>
