<svg xmlns="http://www.w3.org/2000/svg" width="16" height="16" viewBox="0 0 16 16"><path d="M5.535,7.95l-4.243,-4.243c-0.18,-0.186 -0.281,-0.436 -0.281,-0.695c0,-0.548 0.452,-1 1,-1c0.26,0 0.509,0.101 0.695,0.281l4.95,4.95c0.188,0.187 0.294,0.442 0.294,0.707c0,0.265 -0.106,0.52 -0.294,0.707l-4.95,4.95c-0.187,0.187 -0.442,0.293 -0.707,0.293c-0.549,0 -1,-0.452 -1,-1c0,-0.266 0.106,-0.52 0.293,-0.708l4.243,-4.242Zm7,0l-4.243,-4.243c-0.18,-0.186 -0.281,-0.436 -0.281,-0.695c0,-0.548 0.452,-1 1,-1c0.26,0 0.509,0.101 0.695,0.281l4.95,4.95c0.188,0.187 0.294,0.442 0.294,0.707c0,0.265 -0.106,0.52 -0.294,0.707l-4.95,4.95c-0.187,0.187 -0.442,0.293 -0.707,0.293c-0.549,0 -1,-0.452 -1,-1.001c0,-0.265 0.106,-0.519 0.293,-0.707l4.243,-4.242l0,0Z"/></svg>
