<svg width="16" height="16" viewBox="0 0 16 16" xmlns="http://www.w3.org/2000/svg"><path d="M11 10.5c-.892 0-1.5.228-1.5.5 0 .117.214.344.735.633.19.105.87.44.829.42.175.09.304.164.422.25.3.223.505.483.514.938.011 1.321-1.004 1.644-2.81 1.736A21.32 21.32 0 0 1 8 15 7 7 0 1 1 8 1.001c3.866 0 7 3.133 7 6.976.043 1.918-1.164 2.54-3.13 2.535-.13 0-.235-.002-.45-.006A18.799 18.799 0 0 0 11 10.5zm-3.5.5c0-1.088.659-1.828 1.649-2.2.582-.22 1.224-.3 1.85-.3.128 0 .224.001.463.006.202.005.3.006.412.006.991.003 1.135-.071 1.126-.512a5 5 0 1 0-5 5c.272 0 .474-.002.649-.005C7.921 12.47 7.5 11.851 7.5 11zM6 7a1 1 0 1 1 0-2 1 1 0 0 1 0 2zm-1 3a1 1 0 1 1 0-2 1 1 0 0 1 0 2zm4-4a1 1 0 1 1 0-2 1 1 0 0 1 0 2z" fill="#000" fill-rule="nonzero"/></svg>