<svg xmlns="http://www.w3.org/2000/svg" width="16" height="16" viewBox="0 0 16 16"><path fill-rule="evenodd" d="M2 15V1a1 1 0 0 1 1-1h4.604c.93 0 1.762.088 2.495.264.733.176 1.353.445 1.863.807.509.363.897.82 1.164 1.369.268.549.401 1.197.401 1.945 0 .366-.045.718-.137 1.055-.091.337-.23.652-.417.945a3.453 3.453 0 0 1-.71.796 3.645 3.645 0 0 1-1.021.588c.469.117.87.295 1.203.533.333.238.608.515.824.83.216.315.374.657.473 1.027.099.37.148.75.148 1.138 0 1.553-.5 2.725-1.5 3.516-1 .791-2.423 1.187-4.27 1.187H3a1 1 0 0 1-1-1zm3.297-5.967v4.319H8.12c.425 0 .791-.053 1.099-.16.307-.106.564-.252.769-.44.205-.186.357-.406.456-.659.099-.252.148-.529.148-.83a3.04 3.04 0 0 0-.131-.928 1.78 1.78 0 0 0-.413-.703 1.8 1.8 0 0 0-.73-.445c-.3-.103-.66-.154-1.077-.154H5.297zm0-2.33h2.44c.842-.014 1.468-.192 1.878-.533.41-.34.616-.826.616-1.456 0-.725-.21-1.247-.632-1.566-.421-.318-1.086-.478-1.995-.478H5.297v4.033z"/></svg>