<svg width="16" height="16" viewBox="0 0 16 16" xmlns="http://www.w3.org/2000/svg" xmlns:xlink="http://www.w3.org/1999/xlink">
  <title>
    icn/bold
  </title>
  <defs>
    <path d="M4 12.5v-9C4 2.67157288 4.67157288 2 5.5 2h2.1040404c2.18181819 0 3.8787879.6809816 3.8787879 2.98159509 0 1.06748466-.5171717 2.22699387-1.3737374 2.59509203v.07361963C11.1757576 7.96319018 12 8.86503067 12 10.4662577 12 12.9141104 10.189899 14 7.91111111 14H5.5c-.82842712 0-1.5-.6715729-1.5-1.5zm2.37575758-5.69631902h1.11515151c1.16363636 0 1.66464647-.55214724 1.66464647-1.41717791 0-.93865031-.53333334-1.28834356-1.64848485-1.28834356H6.37575758v2.70552147zm0 5.09815952h1.34141414c1.29292929 0 1.95555555-.5153374 1.95555555-1.6196319 0-1.04907977-.64646464-1.47239265-1.95555555-1.47239265H6.37575758v3.09202455z" id="a"/>
  </defs>
  <use xlink:href="#a" fill-rule="evenodd"/>
</svg>
