<svg xmlns="http://www.w3.org/2000/svg" width="16" height="16" viewBox="0 0 16 16">
  <path fill="#000000" fill-rule="evenodd" d="M12,2 L14,2 C15.1045695,2 16,2.8954305 16,4 L0,4 C-1.3527075e-16,2.8954305 0.8954305,2 2,2 L4.00005457,2 L4.00005457,1.00005457 C4.00005457,0.447784887 4.4477576,8.18522405e-05 5.00002728,8.18522405e-05 C5.55229697,8.18522405e-05 6,0.447784887 6,1.00005457 L6,1.99994543 L10.0000546,2 L10.0000546,1.00005457 C10.0000546,0.447784887 10.4477576,8.18522405e-05 11.0000273,8.18522405e-05 C11.552297,8.18522405e-05 12,0.447784887 12,1.00005457 L12,1.99994543 L12,2 Z M0,4 L16,4 L16,13 C16,14.6568542 14.6568542,16 13,16 L3,16 C1.34314575,16 2.02906125e-16,14.6568542 0,13 L0,4 Z M2,6.5 L2,13 C2,13.5522847 2.44771525,14 3,14 L13,14 C13.5522847,14 14,13.5522847 14,13 L14,6.5 C14,6.22385763 13.7761424,6 13.5,6 L2.5,6 C2.22385763,6 2,6.22385763 2,6.5 Z M5,8 L7,8 C7.55228475,8 8,8.44771525 8,9 C8,9.55228475 7.55228475,10 7,10 L5,10 C4.44771525,10 4,9.55228475 4,9 C4,8.44771525 4.44771525,8 5,8 Z"/>
</svg>
