<svg xmlns="http://www.w3.org/2000/svg" width="16" height="16" viewBox="0 0 16 16">
  <path fill="#1F1F1F" d="M8 15c-3.86599325 0-7-3.1340068-7-7 0-3.86599325 3.13400675-7 7-7 3.8659932 0 7 3.13400675 7 7 0 3.8659932-3.1340068 7-7 7zm0-2c2.7614237 0 5-2.2385763 5-5 0-2.76142375-2.2385763-5-5-5-2.76142375 0-5 2.23857625-5 5 0 2.7614237 2.23857625 5 5 5zm1.59090909-2.1363636L5.13636364 6.40909091c-.18181819-.18181818-.18181819-.45454546 0-.63636364l.63636363-.63636363c.18181818-.18181819.45454546-.18181819.63636364 0l4.45454549 4.45454545c.1818181.18181818.1818181.45454541 0 .63636361l-.6363637.6363637c-.1818182.1818181-.45454543.1818181-.63636361 0z"/>
</svg>
