<?xml version="1.0" encoding="UTF-8" standalone="no"?><!DOCTYPE svg PUBLIC "-//W3C//DTD SVG 1.1//EN" "http://www.w3.org/Graphics/SVG/1.1/DTD/svg11.dtd"><svg width="100%" height="100%" viewBox="0 0 16 16" version="1.1" xmlns="http://www.w3.org/2000/svg" xmlns:xlink="http://www.w3.org/1999/xlink" xml:space="preserve" xmlns:serif="http://www.serif.com/" style="fill-rule:evenodd;clip-rule:evenodd;stroke-linejoin:round;stroke-miterlimit:1.41421;"><path d="M8,15c-3.84,0 -7,-3.16 -7,-7c0,-3.84 3.16,-7 7,-7c3.84,0 7,3.16 7,7c0,3.84 -3.16,7 -7,7Zm0,-2c2.743,0 5,-2.257 5,-5c0,-2.743 -2.257,-5 -5,-5c-2.743,0 -5,2.257 -5,5c0,2.743 2.257,5 5,5Zm1.59,-2.136l-4.453,-4.455c-0.087,-0.083 -0.136,-0.198 -0.136,-0.318c0,-0.12 0.049,-0.235 0.136,-0.318l0.637,-0.637c0.083,-0.087 0.198,-0.136 0.318,-0.136c0.12,0 0.235,0.049 0.318,0.136l4.455,4.455c0.087,0.083 0.136,0.198 0.136,0.318c0,0.12 -0.049,0.235 -0.136,0.318l-0.637,0.637c-0.083,0.087 -0.198,0.136 -0.318,0.136c-0.12,0 -0.235,-0.049 -0.318,-0.136l-0.002,0Z" style="fill:#1f1f1f;fill-rule:nonzero;"/></svg>