<svg width="16" height="16" viewBox="0 0 16 16" xmlns="http://www.w3.org/2000/svg" xmlns:xlink="http://www.w3.org/1999/xlink"><defs><path d="M8 15A7 7 0 1 1 8 1a7 7 0 0 1 0 14zm0-2A5 5 0 1 0 8 3a5 5 0 0 0 0 10zm1.59-2.136L5.137 6.409a.44.44 0 0 1 0-.636l.637-.637a.44.44 0 0 1 .636 0l4.455 4.455a.44.44 0 0 1 0 .636l-.637.637a.44.44 0 0 1-.636 0z" id="a"/></defs><g fill="none" fill-rule="evenodd"><mask id="b" fill="#fff"><use xlink:href="#a"/></mask><use fill="#1F1F1F" fill-rule="nonzero" xlink:href="#a"/><g mask="url(#b)" fill="#000"><path d="M0 0h16v16H0z"/></g></g></svg>
