<svg xmlns="http://www.w3.org/2000/svg" width="16" height="16" viewBox="0 0 16 16">
  <path d="M15 14c.5522847 0 1 .4477153 1 1s-.4477153 1-1 1H2c-1.1045695 0-2-.8954305-2-2V1c0-.55228475.44771525-1 1-1s1 .44771525 1 1v13h13zM3.14231105 8.73522716l2.5020862-2.56167224c.19295112-.19754615.5095117-.20127117.70705784-.00832006.00210856.00205953.0041989.00413768.00627073.00623418L8 7.8332982l3.5915471-4.5535821c.1710107-.21681778.4854078-.25395176.7022255-.08294106.0358444.02827155.0676481.0613189.0945245.0982209l2.5158696 3.45434997C14.9664469 6.834858 15 6.9379202 15 7.04370836V12.5c0 .2761424-.2238576.5-.5.5h-11c-.27614237 0-.5-.2238576-.5-.5V9.08459605c0-.13057074.05107635-.25596147.14231105-.3493689z"/>
</svg>
