<svg width="16" height="16" viewBox="0 0 16 16" xmlns="http://www.w3.org/2000/svg" xmlns:xlink="http://www.w3.org/1999/xlink"><title>icn/collapse-left</title><defs><path d="M10.432 8l4.273-4.279a1.007 1.007 0 1 0-1.424-1.426L8.295 7.287a1.006 1.006 0 0 0 0 1.426l4.986 4.992a1.007 1.007 0 1 0 1.424-1.426L10.432 8zm-7 0l4.273-4.279a1.007 1.007 0 1 0-1.424-1.426L1.295 7.287a1.006 1.006 0 0 0 0 1.426l4.986 4.992a1.007 1.007 0 1 0 1.424-1.426L3.432 8z" id="a"/></defs><use fill="#000" xlink:href="#a" fill-rule="evenodd"/></svg>