<svg width="16" height="16" viewBox="0 0 16 16" xmlns="http://www.w3.org/2000/svg" xmlns:xlink="http://www.w3.org/1999/xlink"><title>icn/collapse-right</title><defs><path d="M5.568 8l-4.273 4.279a1.007 1.007 0 1 0 1.424 1.426l4.986-4.992a1.006 1.006 0 0 0 0-1.426L2.719 2.295a1.007 1.007 0 1 0-1.424 1.426L5.568 8zm7 0l-4.273 4.279a1.007 1.007 0 1 0 1.424 1.426l4.986-4.992a1.006 1.006 0 0 0 0-1.426L9.719 2.295a1.007 1.007 0 1 0-1.424 1.426L12.568 8z" id="a"/></defs><g fill="none" fill-rule="evenodd"><mask id="b" fill="#fff"><use xlink:href="#a"/></mask><use fill="#000" xlink:href="#a"/><g mask="url(#b)" fill="#000"><path d="M0 0h16v16H0z"/></g></g></svg>