<?xml version="1.0" encoding="UTF-8" standalone="no"?>
<svg width="16px" height="16px" viewBox="0 0 16 16" version="1.1" xmlns="http://www.w3.org/2000/svg" xmlns:xlink="http://www.w3.org/1999/xlink">
    <!-- Generator: Sketch 48.2 (47327) - http://www.bohemiancoding.com/sketch -->
    <title>icn/collapse-left</title>
    <desc>Created with Sketch.</desc>
    <defs>
        <path d="M10.4315418,8 L14.7053745,3.72098496 C15.0982085,3.32767459 15.0982085,2.68930162 14.7053745,2.29498277 C14.3115332,1.90167241 13.6739334,1.90167241 13.2810994,2.29498277 L8.29512915,7.28699891 C8.09871214,7.48365409 8,7.74182704 8,8 C8,8.25817296 8.09871214,8.51634591 8.29512915,8.71300109 L13.2810994,13.7050172 C13.6739334,14.0983276 14.3115332,14.0983276 14.7053745,13.7050172 C15.0982085,13.3117069 15.0982085,12.6723254 14.7053745,12.279015 L10.4315418,8 Z M3.43154184,8 L7.70537449,3.72098496 C8.0982085,3.32767459 8.0982085,2.68930162 7.70537449,2.29498277 C7.3115332,1.90167241 6.67393338,1.90167241 6.28109936,2.29498277 L1.29512915,7.28699891 C1.09871214,7.48365409 1,7.74182704 1,8 C1,8.25817296 1.09871214,8.51634591 1.29512915,8.71300109 L6.28109936,13.7050172 C6.67393338,14.0983276 7.3115332,14.0983276 7.70537449,13.7050172 C8.0982085,13.3117069 8.0982085,12.6723254 7.70537449,12.279015 L3.43154184,8 Z" id="path-1"></path>
    </defs>
    <g id="Icons" stroke="none" stroke-width="1" fill="none" fill-rule="evenodd">
        <g id="icn/collapse-left">
            <mask id="mask-2" fill="white">
                <use xlink:href="#path-1"></use>
            </mask>
            <use id="Mask" fill="#000000" xlink:href="#path-1"></use>
            <g id="c-fill/greys/$black-::-000000" mask="url(#mask-2)" fill="#000000">
                <rect id="fill/greys/$black-::-000000" x="0" y="0" width="16" height="16"></rect>
            </g>
        </g>
    </g>
</svg>