<?xml version="1.0" encoding="UTF-8" standalone="no"?>
<svg width="16px" height="16px" viewBox="0 0 16 16" version="1.1" xmlns="http://www.w3.org/2000/svg" xmlns:xlink="http://www.w3.org/1999/xlink">
    <!-- Generator: Sketch 48.2 (47327) - http://www.bohemiancoding.com/sketch -->
    <title>icn/collapse-right</title>
    <desc>Created with Sketch.</desc>
    <defs>
        <path d="M5.56845816,8 L1.29462551,12.279015 C0.901791496,12.6723254 0.901791496,13.3106984 1.29462551,13.7050172 C1.6884668,14.0983276 2.32606662,14.0983276 2.71890064,13.7050172 L7.70487085,8.71300109 C7.90128786,8.51634591 8,8.25817296 8,8 C8,7.74182704 7.90128786,7.48365409 7.70487085,7.28699891 L2.71890064,2.29498277 C2.32606662,1.90167241 1.6884668,1.90167241 1.29462551,2.29498277 C0.901791496,2.68829313 0.901791496,3.32767459 1.29462551,3.72098496 L5.56845816,8 Z M12.5684582,8 L8.29462551,12.279015 C7.9017915,12.6723254 7.9017915,13.3106984 8.29462551,13.7050172 C8.6884668,14.0983276 9.32606662,14.0983276 9.71890064,13.7050172 L14.7048709,8.71300109 C14.9012879,8.51634591 15,8.25817296 15,8 C15,7.74182704 14.9012879,7.48365409 14.7048709,7.28699891 L9.71890064,2.29498277 C9.32606662,1.90167241 8.6884668,1.90167241 8.29462551,2.29498277 C7.9017915,2.68829313 7.9017915,3.32767459 8.29462551,3.72098496 L12.5684582,8 Z" id="path-1"></path>
    </defs>
    <g id="Icons" stroke="none" stroke-width="1" fill="none" fill-rule="evenodd">
        <g id="icn/collapse-right">
            <mask id="mask-2" fill="white">
                <use xlink:href="#path-1"></use>
            </mask>
            <use id="Mask" fill="#000000" xlink:href="#path-1"></use>
            <g id="c-fill/greys/$black-::-000000" mask="url(#mask-2)" fill="#000000">
                <rect id="fill/greys/$black-::-000000" x="0" y="0" width="16" height="16"></rect>
            </g>
        </g>
    </g>
</svg>