<?xml version="1.0" encoding="UTF-8" standalone="no"?><!DOCTYPE svg PUBLIC "-//W3C//DTD SVG 1.1//EN" "http://www.w3.org/Graphics/SVG/1.1/DTD/svg11.dtd"><svg width="100%" height="100%" viewBox="0 0 16 16" version="1.1" xmlns="http://www.w3.org/2000/svg" xmlns:xlink="http://www.w3.org/1999/xlink" xml:space="preserve" xmlns:serif="http://www.serif.com/" style="fill-rule:evenodd;clip-rule:evenodd;stroke-linejoin:round;stroke-miterlimit:1.41421;"><path d="M5.568,8l-4.273,4.279c-0.189,0.189 -0.296,0.446 -0.296,0.713c0,0.553 0.455,1.008 1.008,1.008c0.267,0 0.523,-0.106 0.712,-0.295l4.986,-4.992c0.19,-0.189 0.296,-0.445 0.296,-0.713c0,-0.268 -0.106,-0.524 -0.296,-0.713l-4.986,-4.992c-0.189,-0.189 -0.445,-0.295 -0.712,-0.295c-0.553,0 -1.008,0.455 -1.008,1.008c0,0.267 0.107,0.524 0.296,0.713l4.273,4.279Zm7,0l-4.273,4.279c-0.189,0.189 -0.296,0.446 -0.296,0.713c0,0.553 0.455,1.008 1.008,1.008c0.267,0 0.523,-0.106 0.712,-0.295l4.986,-4.992c0.19,-0.189 0.296,-0.445 0.296,-0.713c0,-0.268 -0.106,-0.524 -0.296,-0.713l-4.986,-4.992c-0.189,-0.189 -0.445,-0.295 -0.712,-0.295c-0.553,0 -1.008,0.455 -1.008,1.008c0,0.267 0.107,0.524 0.296,0.713l4.273,4.279Z"/></svg>