<svg width="16" height="16" viewBox="0 0 16 16" xmlns="http://www.w3.org/2000/svg"><title>icn/comment-next</title><path d="M10.89 6.775L9.474 8.189a.5.5 0 0 1-.707-.707l1.06-1.06-1.06-1.061a.5.5 0 0 1 .707-.707l1.414 1.414a.5.5 0 0 1 0 .707zm-3 0L6.474 8.189a.5.5 0 0 1-.707-.707l1.06-1.06-1.06-1.061a.5.5 0 0 1 .707-.707l1.414 1.414a.5.5 0 0 1 0 .707zM5.413 12l-2.707 2.707C2.077 15.337 1 14.891 1 14V4a3 3 0 0 1 3-3h8a3 3 0 0 1 3 3v5a3 3 0 0 1-3 3H5.414zM3 11.586l1.293-1.293A1 1 0 0 1 5 10h7a1 1 0 0 0 1-1V4a1 1 0 0 0-1-1H4a1 1 0 0 0-1 1v7.586z" fill="#000" fill-rule="evenodd"/></svg>