<svg width="16" height="16" xmlns="http://www.w3.org/2000/svg">
  <path d="M1.47 11.56c-.146.237-.31.512-.448.732a.448.448 0 00.15.61l2.913 1.792a.448.448 0 00.62-.153l.43-.719c1.154-1.904 2.315-1.671 4.408-.672l2.888 1.373a.449.449 0 00.603-.224l1.386-3.136a.448.448 0 00-.224-.587c-.61-.287-1.821-.859-2.912-1.385-3.926-1.907-7.262-1.784-9.814 2.368z" fill="url(#Frame_1__paint0_linear)"/>
  <path d="M14.53 4.441c.146-.238.31-.513.448-.733a.448.448 0 00-.15-.61l-2.913-1.792a.448.448 0 00-.638.148l-.43.72c-1.154 1.904-2.315 1.671-4.408.672L3.56 1.479a.448.448 0 00-.602.224L1.57 4.84a.448.448 0 00.224.587c.61.287 1.821.858 2.913 1.384 3.934 1.905 7.27 1.777 9.822-2.37z" fill="url(#Frame_1__paint1_linear)"/>
  <defs>
    <linearGradient id="Frame_1__paint0_linear" x1="14.342" y1="15.619" x2="5.53" y2="10.556" gradientUnits="userSpaceOnUse">
      <stop offset=".18" stop-color="#0052CC"/>
      <stop offset="1" stop-color="#2684FF"/>
    </linearGradient>
    <linearGradient id="Frame_1__paint1_linear" x1="-3715.09" y1="10571.4" x2="-3409.99" y2="10921.5" gradientUnits="userSpaceOnUse">
      <stop offset=".18" stop-color="#0052CC"/>
      <stop offset="1" stop-color="#2684FF"/>
    </linearGradient>
  </defs>
</svg>

