<svg width="16" height="16" viewBox="0 0 16 16" xmlns="http://www.w3.org/2000/svg"><path d="M8 3H5a1 1 0 0 0-1 1v8a1 1 0 0 0 1 1h6a1 1 0 0 0 1-1V7H9a1 1 0 0 1-1-1V3zM5 1h4.244a2 2 0 0 1 1.434.606l2.756 2.834A2 2 0 0 1 14 5.835V12a3 3 0 0 1-3 3H5a3 3 0 0 1-3-3V4a3 3 0 0 1 3-3zm5.882 9.268l-1.414 1.414a.5.5 0 1 1-.707-.707l1.06-1.06-1.06-1.061a.5.5 0 1 1 .707-.708l1.414 1.415a.498.498 0 0 1 0 .707zm-3.614.707a.5.5 0 0 1-.707.707l-1.415-1.414a.498.498 0 0 1 0-.707l1.415-1.415a.5.5 0 1 1 .707.708l-1.06 1.06 1.06 1.06z" fill="#000" fill-rule="nonzero"/></svg>