<svg width="16" height="16" viewBox="0 0 16 16" xmlns="http://www.w3.org/2000/svg" xmlns:xlink="http://www.w3.org/1999/xlink">
  <title>
    icn/doc-image
  </title>
  <defs>
    <path d="M7.36363636 10.3636364L8.5 9l2.5 3H5l2-2 .36363636.3636364zM5 1h4.24417887c.5402004 0 1.05742783.21852227 1.43398983.60584321l2.7558211 2.83455888C13.7969441 4.81372646 14 5.31387965 14 5.83455888V12c0 1.6568542-1.3431458 3-3 3H5c-1.65685425 0-3-1.3431458-3-3V4c0-1.65685425 1.34314575-3 3-3zm0 2c-.55228475 0-1 .44771525-1 1v8c0 .5522847.44771525 1 1 1h6c.5522847 0 1-.4477153 1-1V5.83455888L9.24417887 3H5zm1.5 6C5.67157288 9 5 8.32842712 5 7.5S5.67157288 6 6.5 6 8 6.67157288 8 7.5 7.32842712 9 6.5 9zM8 2l3 1.99487305L13 7H9c-.55228475 0-1-.44771525-1-1V2z" id="a"/>
  </defs>
  <use xlink:href="#a"/>
</svg>
