<svg width="16" height="16" viewBox="0 0 16 16" xmlns="http://www.w3.org/2000/svg" xmlns:xlink="http://www.w3.org/1999/xlink">
  <title>
    icn/doc-text
  </title>
  <defs>
    <path d="M5 1h4.24417887c.5402004 0 1.05742783.21852227 1.43398983.60584321l2.7558211 2.83455888C13.7969441 4.81372646 14 5.31387965 14 5.83455888V12c0 1.6568542-1.3431458 3-3 3H5c-1.65685425 0-3-1.3431458-3-3V4c0-1.65685425 1.34314575-3 3-3zm0 2c-.55228475 0-1 .44771525-1 1v8c0 .5522847.44771525 1 1 1h6c.5522847 0 1-.4477153 1-1V5.83455888L9.24417887 3H5zm1.5 7h3c.27614237 0 .5.2238576.5.5s-.22385763.5-.5.5h-3c-.27614237 0-.5-.2238576-.5-.5s.22385763-.5.5-.5zm0-2h2c.27614237 0 .5.22385763.5.5 0 .27614237-.22385763.5-.5.5h-2c-.27614237 0-.5-.22385763-.5-.5 0-.27614237.22385763-.5.5-.5zM8 2l3 1.99487305L13 7H9c-.55228475 0-1-.44771525-1-1V2z" id="a"/>
  </defs>
  <use xlink:href="#a"/>
</svg>
