<svg xmlns="http://www.w3.org/2000/svg" width="16" height="16" viewBox="0 0 16 16"><path d="M8 2H5a2 2 0 0 0-2 2v8a2 2 0 0 0 2 2h6a2 2 0 0 0 2-2V7h-3a2 2 0 0 1-2-2V2zm2 .414V5h2.586L10 2.414zm1.036 7.607a.498.498 0 0 1-.147.354l-1.414 1.414a.5.5 0 0 1-.707-.707l1.06-1.06-1.06-1.061a.5.5 0 0 1 .707-.707l1.414 1.414a.498.498 0 0 1 .147.353zm-4.822 0l1.06 1.061a.5.5 0 0 1-.706.707l-1.414-1.414a.498.498 0 0 1 0-.707l1.414-1.414a.5.5 0 1 1 .707.707l-1.06 1.06zM5 0h4.586A2 2 0 0 1 11 .586L14.414 4A2 2 0 0 1 15 5.414V12a4 4 0 0 1-4 4H5a4 4 0 0 1-4-4V4a4 4 0 0 1 4-4z"/></svg>