<svg xmlns="http://www.w3.org/2000/svg" width="16" height="16" viewBox="0 0 16 16"><path d="M8.7 2.04l-.082.177c.283.223.422.413.417.571-.008.237-.311.057-.444.274-.133.218.038.542-.112.637-.15.096-.398-.386-.479-.46-.054-.049-.166-.257-.336-.625l-.216-.225a.844.844 0 0 0-.418-.035c-.177.038-.075.1-.035.132.04.032.32.037.452.2.132.164.03.224-.05.298-.054.05-.157.062-.31.035H5.952l-.402.398.03.325.229.455.324-.463c.008-.206.058-.342.15-.41.14-.1.342-.15.534-.085.191.066-.057.218.011.271.068.053.204-.098.313-.02.11.08.07.155.104.322.036.167.254.114.398.328.144.215.19.29.147.483-.043.195-.168.26-.305.232-.138-.028-.107-.246-.275-.348-.168-.102-.266-.114-.386-.054-.12.06-.016.129.023.235.04.106.274.321.224.43-.05.107-.108.116-.42 0-.21-.077-.414-.007-.615.212l-.76.722c-.153.715-.3 1.13-.44 1.243-.211.17-.177-.483-.483-.656-.306-.174-.494-.047-.8-.07-.307-.023-.42.65-.38.873a.434.434 0 0 0 .221.321c.236-.141.39-.184.465-.128.11.084-.144.267-.074.425.07.158.314.069.386.283.073.213.084.48-.05.706-.135.227-.275.178-.4.053-.127-.126-.033-.375-.255-.704-.223-.329-.381-.337-.63-.787-.158-.287-.35-.743-.575-1.366a6 6 0 0 0 3.21 7.198l.001-.075c0-.577-.004-.944-.012-1.102-.011-.236-.95-.945-1.104-1.2-.154-.256-.34-.595-.355-.746-.016-.151.185-.232.344-.325.16-.093-.11-.367.028-.626.137-.258.395-.438.496-.356.101.081.058.228.267.333.209.104.077-.213.456-.178.38.035.143.201.252.216.11.016.113-.127.299-.143.186-.015.282.445.471.622.19.178.452.008.611.043.159.034.267.09.402.255.136.166-.03.352.073.557.103.205 1.07.22 1.433.255.364.034.371.011.371.324s-.166.314-.453.507c-.286.193-.166.462-.38.762-.212.3-.316.062-.622.14-.306.077-.413.382-.452.568-.039.186-.386.094-.877.232-.29.082-.429.144-.569.204a6.002 6.002 0 0 0 7.682-4.3c-.094-.384-.18-.63-.258-.74-.213-.297-.36.21-.924.49-.564.278-.57-.288-.81-.49-.16-.133-.212-.44-.158-.92-.005-.478.02-.828.077-1.049.057-.221.126-.543.207-.965.351-.373.606-.572.764-.595.237-.034.336.374.658.3a.315.315 0 0 0 .035-.01 5.993 5.993 0 0 0-.475-.824l-.309-.043a.646.646 0 0 0-.332-.117c-.205-.02-.025.128-.089.24-.064.112-.235.724-.437.685-.201-.039-.204-.374-.17-.668.036-.294-.077-.35-.2-.412-.124-.062-.325-.213-.556-.295-.232-.082-.123-.175-.093-.274.03-.1.208-.015.193-.058-.014-.044-.313-.135-.266-.167.03-.02.2-.02.506.003l.216-.012.293-.163a.58.58 0 0 0-.376-.22c-.233-.036-.513-.034-.73-.142-.205-.103-.458-.36-.643-.638A5.965 5.965 0 0 0 8.7 2.04zM8 16A8 8 0 1 1 8 0a8 8 0 0 1 0 16z"/></svg>