<svg width="16" height="16" viewBox="0 0 16 16" xmlns="http://www.w3.org/2000/svg"><path d="M8.664 3.044c.165.15.245.283.242.396-.007.207-.273.05-.389.24-.116.19.033.473-.098.557-.131.084-.348-.338-.419-.403-.047-.043-.145-.225-.294-.547l-.19-.196a.921.921 0 0 0-.222-.042c-.071.01-.142.022-.212.035-.05.031.011.07.039.091.035.028.28.033.395.176.115.143.027.195-.044.26-.047.044-.137.054-.27.03h-.994l-.352.349.027.284.2.399.284-.406c.006-.18.05-.3.131-.358a.52.52 0 0 1 .466-.075c.168.057-.049.191.01.237.06.046.18-.086.275-.016.095.069.06.135.09.28.032.147.223.1.349.288.126.187.166.252.128.422-.037.17-.146.227-.267.203-.12-.024-.093-.215-.24-.304-.147-.09-.233-.1-.338-.048-.105.052-.014.113.02.206.035.093.24.281.196.376-.043.094-.094.101-.368 0-.182-.068-.362-.006-.537.186l-.666.632c-.133.625-.261.988-.385 1.087-.185.15-.154-.423-.422-.574-.268-.152-.433-.04-.7-.06-.269-.021-.368.568-.332.763a.38.38 0 0 0 .193.28c.206-.123.342-.16.406-.111.097.073-.125.234-.064.372.06.138.274.06.338.247a.746.746 0 0 1-.044.618c-.118.198-.24.156-.35.046-.111-.11-.029-.328-.224-.616-.194-.287-.333-.295-.55-.689a6.866 6.866 0 0 1-.353-.792 5 5 0 0 0 2.659 5.618c-.001-.384-.004-.634-.01-.752-.01-.207-.83-.827-.966-1.05-.135-.224-.298-.52-.311-.653-.014-.132.162-.203.301-.284.14-.082-.096-.322.024-.548.12-.226.346-.383.434-.312.089.072.05.2.234.291.183.092.068-.185.4-.155.331.03.124.176.22.19.095.013.098-.112.261-.126.163-.013.247.389.412.544.166.156.396.007.535.037s.233.079.352.224c.118.145-.027.308.063.487.09.18.936.193 1.255.223.318.03.324.01.324.284 0 .274-.146.275-.396.443-.251.17-.146.405-.332.667-.186.262-.277.054-.545.122s-.362.335-.396.498c-.034.162-.338.082-.767.203l-.105.03a5.001 5.001 0 0 0 6.173-4.127.703.703 0 0 0-.07-.134c-.186-.26-.315.184-.808.427-.494.244-.5-.251-.709-.427-.14-.117-.186-.386-.138-.806-.005-.418.017-.724.067-.918.05-.193.11-.474.18-.844.309-.327.531-.5.67-.52.112-.017.19.08.28.163a5.006 5.006 0 0 0-.472-.73.68.68 0 0 0-.178-.04c-.18-.018-.023.111-.078.21-.056.097-.206.632-.382.599-.177-.034-.18-.328-.149-.585.03-.257-.067-.307-.176-.36-.108-.055-.284-.187-.486-.259-.203-.072-.108-.153-.081-.24.026-.087.181-.012.169-.05-.013-.039-.274-.118-.234-.146.027-.018.175-.018.443.002l.19-.01.048-.027a5.008 5.008 0 0 0-.545-.363.848.848 0 0 1-.214-.07 1.034 1.034 0 0 1-.212-.149 4.965 4.965 0 0 0-1.399-.4zM8 15A7 7 0 1 1 8 1a7 7 0 0 1 0 14z" fill="#000" fill-rule="nonzero"/></svg>