<svg xmlns="http://www.w3.org/2000/svg" width="16" height="16" viewBox="0 0 16 16">
  <path fill="#000000" fill-rule="evenodd" d="M8,16 C12.4183,16 16,12.4183 16,8 C16,3.58172 12.4183,0 8,0 C3.58172,0 0,3.58172 0,8 C0,12.4183 3.58172,16 8,16 Z M10.5737,13.4215 C12.3111,12.5953 13.5885,10.9585 13.917,9 L11.4729,9 C11.3804,10.6958 11.0557,12.2268 10.5737,13.4215 Z M5.42625,2.5785 C3.68889,3.40475 2.41153,5.04151 2.08296,7 L4.52708,7 C4.6196,5.30417 4.94433,3.77317 5.42625,2.5785 Z M6.53039,9 C6.62681,10.57 6.94395,11.9101 7.35744,12.8552 C7.59501,13.3982 7.82916,13.7303 8,13.9057 C8.17085,13.7303 8.40499,13.3982 8.64256,12.8552 C9.05605,11.9101 9.37319,10.57 9.46961,9 L6.53039,9 Z M4.52708,9 C4.6196,10.6958 4.94433,12.2268 5.42625,13.4215 C3.68889,12.5953 2.41153,10.9585 2.08296,9 L4.52708,9 Z M9.46961,7 L6.53039,7 C6.62681,5.43001 6.94395,4.0899 7.35744,3.14478 C7.59501,2.60177 7.82915,2.26966 8,2.09426 C8.17085,2.26966 8.40499,2.60177 8.64256,3.14478 C9.05605,4.0899 9.37319,5.43001 9.46961,7 Z M11.4729,7 C11.3804,5.30417 11.0557,3.77317 10.5737,2.5785 C12.3111,3.40475 13.5885,5.04151 13.917,7 L11.4729,7 Z"/>
</svg>
