<svg xmlns="http://www.w3.org/2000/svg" width="16" height="16" viewBox="0 0 16 16">
  <path fill="#000000" d="M2.08295844,9 C2.43832671,11.1182098 3.90354947,12.8600807 5.86022399,13.6072099 C5.41068674,12.3874418 5.1066818,10.7850376 5.02321016,9 L2.08295844,9 L2.08295844,9 Z M2.08295844,7 L5.02321016,7 C5.1066818,5.21496243 5.41068674,3.61255823 5.86022399,2.3927901 C3.90354947,3.13991933 2.43832671,4.88179022 2.08295844,7 L2.08295844,7 Z M13.9170416,7 C13.5616733,4.88179022 12.0964505,3.13991933 10.139776,2.3927901 C10.5893133,3.61255823 10.8933182,5.21496243 10.9767898,7 L13.9170416,7 L13.9170416,7 Z M13.9170416,9 L10.9767898,9 C10.8933182,10.7850376 10.5893133,12.3874418 10.139776,13.6072099 C12.0964505,12.8600807 13.5616733,11.1182098 13.9170416,9 L13.9170416,9 Z M7.02570499,9 C7.10514876,10.5338014 7.36490281,11.9241135 7.75133801,12.9546074 C7.8328432,13.1719545 7.91690716,13.364263 8,13.5288606 C8.08309284,13.364263 8.1671568,13.1719545 8.24866199,12.9546074 C8.63509719,11.9241135 8.89485124,10.5338014 8.97429501,9 L7.02570499,9 L7.02570499,9 Z M7.02570499,7 L8.97429501,7 C8.89485124,5.46619856 8.63509719,4.07588651 8.24866199,3.04539263 C8.1671568,2.82804546 8.08309284,2.63573699 8,2.4711394 C7.91690716,2.63573699 7.8328432,2.82804546 7.75133801,3.04539263 C7.36490281,4.07588651 7.10514876,5.46619856 7.02570499,7 L7.02570499,7 Z M8,16 C3.581722,16 0,12.418278 0,8 C0,3.581722 3.581722,0 8,0 C12.418278,0 16,3.581722 16,8 C16,12.418278 12.418278,16 8,16 Z"/>
</svg>
