<svg xmlns="http://www.w3.org/2000/svg" xmlns:xlink="http://www.w3.org/1999/xlink" width="16" height="16" viewBox="0 0 16 16">
  <defs>
    <path id="ellipsis_v-a" d="M8,5 C6.8954305,5 6,4.1045695 6,3 C6,1.8954305 6.8954305,1 8,1 C9.1045695,1 10,1.8954305 10,3 C10,4.1045695 9.1045695,5 8,5 Z M8,10 C6.8954305,10 6,9.1045695 6,8 C6,6.8954305 6.8954305,6 8,6 C9.1045695,6 10,6.8954305 10,8 C10,9.1045695 9.1045695,10 8,10 Z M8,15 C6.8954305,15 6,14.1045695 6,13 C6,11.8954305 6.8954305,11 8,11 C9.1045695,11 10,11.8954305 10,13 C10,14.1045695 9.1045695,15 8,15 Z"/>
  </defs>
  <g fill="none" fill-rule="evenodd">
    <use fill="#000" xlink:href="#ellipsis_v-a"/>
  </g>
</svg>
