<svg xmlns="http://www.w3.org/2000/svg" width="16" height="16" viewBox="0 0 16 16">
  <path fill-rule="evenodd" d="M12.96 6.783l1.61.427a.5.5 0 0 1 .182.876l-3.486 2.752a1 1 0 0 1-.936.163l-8.931-2.98a.5.5 0 0 1-.058-.926L3.87 5.887l6.152 2.053a2.004 2.004 0 0 0 1.879-.32l1.06-.837zm.012 4.01l1.599.424a.5.5 0 0 1 .181.876l-3.486 2.751a1 1 0 0 1-.936.164l-8.931-2.981a.5.5 0 0 1-.058-.926l2.514-1.2 6.167 2.058a2.004 2.004 0 0 0 1.879-.32l1.071-.846zM6.265.988l8.306 2.204a.5.5 0 0 1 .181.876l-3.486 2.751a1 1 0 0 1-.936.164L1.399 4.002a.5.5 0 0 1-.058-.925l4.236-2.025a1 1 0 0 1 .688-.064z"/>
</svg>
