<svg xmlns="http://www.w3.org/2000/svg" width="16" height="16" viewBox="0 0 16 16">
  <path fill-rule="evenodd" d="M14.9853891 8.04383274l-.757465 2.27239506C14.09181 10.7245699 13.7096712 11 13.2792408 11H1.618034c-.55228476 0-1-.4477153-1-1 0-.1552451.03614508-.30835816.1055728-.4472136l.3184798-.6369596C1.2244728 8.97057987 1.41781768 9 1.618034 9h11.6612068c.706765 0 1.3484293-.37130052 1.7061483-.95616726zm0 2.99999996l-.757465 2.2723951C14.09181 13.7245699 13.7096712 14 13.2792408 14H1.618034c-.55228476 0-1-.4477153-1-1 0-.1552451.03614508-.3083582.1055728-.4472136l.3184798-.6369596C1.2244728 11.9705799 1.41781768 12 1.618034 12h11.6612068c.706765 0 1.3484293-.3713005 1.7061483-.9561673zM3.618034 2h10.9945401c.5522848 0 1 .44771525 1 1 0 .1074821-.0173279.2142613-.0513167.31622777l-1.3333333 4C14.09181 7.7245699 13.7096712 8 13.2792408 8H1.618034c-.55228476 0-1-.44771525-1-1 0-.1552451.03614508-.30835816.1055728-.4472136l2-4C2.8929988 2.21400238 3.23926193 2 3.618034 2zm-.38196602 4h9.32241362l.6666666-2H4.23606798l-1 2z"/>
</svg>
