<?xml version="1.0" encoding="UTF-8" standalone="no"?>
<svg
   xmlns:dc="http://purl.org/dc/elements/1.1/"
   xmlns:cc="http://creativecommons.org/ns#"
   xmlns:rdf="http://www.w3.org/1999/02/22-rdf-syntax-ns#"
   xmlns:svg="http://www.w3.org/2000/svg"
   xmlns="http://www.w3.org/2000/svg"
   xmlns:sodipodi="http://sodipodi.sourceforge.net/DTD/sodipodi-0.dtd"
   xmlns:inkscape="http://www.inkscape.org/namespaces/inkscape"
   width="16"
   height="16"
   viewBox="0 0 16 16"
   version="1.1"
   id="svg4"
   sodipodi:docname="export.svg"
   inkscape:version="0.92.5 (2060ec1f9f, 2020-04-08)">
  <metadata
     id="metadata10">
    <rdf:RDF>
      <cc:Work
         rdf:about="">
        <dc:format>image/svg+xml</dc:format>
        <dc:type
           rdf:resource="http://purl.org/dc/dcmitype/StillImage" />
      </cc:Work>
    </rdf:RDF>
  </metadata>
  <defs
     id="defs8" />
  <sodipodi:namedview
     pagecolor="#ffffff"
     bordercolor="#666666"
     borderopacity="1"
     objecttolerance="10"
     gridtolerance="10"
     guidetolerance="10"
     inkscape:pageopacity="0"
     inkscape:pageshadow="2"
     inkscape:window-width="1493"
     inkscape:window-height="860"
     id="namedview6"
     showgrid="false"
     inkscape:zoom="14.75"
     inkscape:cx="8"
     inkscape:cy="8"
     inkscape:window-x="0"
     inkscape:window-y="27"
     inkscape:window-maximized="0"
     inkscape:current-layer="svg4" />
  <path
     d="M 2,7.58997 C 1.4477,7.58997 1,7.14226 1,6.59 v -3 c 0,-1.1046 0.8954,-2 2,-2 l 10,0 c 1.10457,0 2,0.8954 2,2 v 3 c 0,0.55226 -0.44772,0.99997 -1,0.99997 -0.55228,0 -1,-0.44771 -1,-0.99997 v -3 l -10,0 v 3 C 3,7.14226 2.5523,7.58997 2,7.58997 Z m 6,7.41421 -3.7071,-3.7071 c -0.3905,-0.39053 -0.3905,-1.02369 0,-1.41422 0.3905,-0.39052 1.0237,-0.39052 1.4142,0 L 7,11.17576 7,6.59 c 0,-0.5523 0.44772,-1 1,-1 0.55228,0 1,0.4477 1,1 v 4.58576 l 1.29289,-1.2929 c 0.39053,-0.39052 1.02369,-0.39052 1.41422,0 0.39052,0.39053 0.39052,1.02369 0,1.41422 z"
     id="path2"
     inkscape:connector-curvature="0"
     style="fill:#000000;fill-rule:evenodd" />
</svg>
