<svg xmlns="http://www.w3.org/2000/svg" width="16" height="16" viewBox="0 0 16 16">
  <path fill="#000000" d="M13.1213203,4.17672321 L8.17157288,9.12647068 L8.17157288,9.12647068 C7.78104858,9.51699497 7.1478836,9.51699497 6.75735931,9.12647068 L6.75735931,9.12647068 L6.75735931,9.12647068 C6.36683502,8.73594639 6.36683502,8.10278141 6.75735931,7.71225712 L11.7071068,2.76250965 L10.3213984,1.37680128 C10.1261363,1.18153913 10.1261363,0.86495664 10.3213984,0.669694495 C10.4016803,0.589412598 10.5068947,0.538843944 10.619736,0.526306018 L15.3285701,0.00310222896 L15.3285701,0.00310222896 C15.6030235,-0.0273925949 15.8502329,0.170374918 15.8807278,0.444828333 C15.8848053,0.481525925 15.8848053,0.518562267 15.8807278,0.555259859 L15.8807278,0.555259859 L15.357524,5.26409396 C15.3270292,5.53854737 15.0798198,5.73631489 14.8053663,5.70582006 C14.692525,5.69328214 14.5873106,5.64271348 14.5070287,5.56243159 L13.1213203,4.17672321 Z M12,8.88382999 C12,8.33154524 12.4477153,7.88382999 13,7.88382999 C13.5522847,7.88382999 14,8.33154524 14,8.88382999 L14,12.88383 C14,14.5406842 12.6568542,15.88383 11,15.88383 L3,15.88383 C1.34314575,15.88383 -2.41183085e-16,14.5406842 -4.4408921e-16,12.88383 L-1.97215226e-31,4.88382999 C-6.46995335e-16,3.22697574 1.34314575,1.88382999 3,1.88382999 L7,1.88382999 C7.55228475,1.88382999 8,2.33154524 8,2.88382999 C8,3.43611474 7.55228475,3.88382999 7,3.88382999 L3,3.88382999 C2.44771525,3.88382999 2,4.33154524 2,4.88382999 L2,12.88383 C2,13.4361147 2.44771525,13.88383 3,13.88383 L11,13.88383 C11.5522847,13.88383 12,13.4361147 12,12.88383 L12,8.88382999 Z"/>
</svg>
