<svg xmlns="http://www.w3.org/2000/svg" width="16" height="16" viewBox="0 0 16 16">
  <path fill="#000000" d="M5,2 C5.55228,2 6,2.44772 6,3 C6,3.55228 5.55228,4 5,4 L4,4 L4,12 L12,12 L12,11 C12,10.4477 12.4477,10 13,10 C13.5523,10 14,10.4477 14,11 L14,12 C14,13.1046 13.1046,14 12,14 L4,14 C2.89543,14 2,13.1046 2,12 L2,4 C2,2.89543 2.89543,2 4,2 L5,2 Z M15,1 L15,6.24264 C15,6.79493 14.5523,7.24264 14,7.24264 C13.4477,7.24264 13,6.79493 13,6.24264 L13,4.41419 L8.71571,8.69846 C8.32519,9.08899 7.69202,9.08899 7.3015,8.69846 C6.91097,8.30794 6.91097,7.67477 7.3015,7.28425 L11.5858,3 L9.75735,3 C9.20507,3 8.75735,2.55228 8.75735,2 C8.75735,1.44772 9.20507,1 9.75735,1 L15,1 Z"/>
</svg>
