<svg width="16" height="16" viewBox="0 0 16 16" xmlns="http://www.w3.org/2000/svg"><path d="M8.362 5.011A5.857 5.857 0 0 0 8 5c.118 0 .236.007.351.02l.01-.009zM5.02 8.352A3 3 0 0 1 7.998 5c-1.979 0-3.56.967-4.82 3 .295.476.608.894.94 1.255l.902-.903zM2.704 10.67a10.547 10.547 0 0 1-1.406-1.914 1.5 1.5 0 0 1 0-1.51C2.925 4.453 5.188 3 8.001 3c.73 0 1.424.098 2.08.292l1.455-1.455a1 1 0 0 1 1.414 1.414l-9.9 9.9a1 1 0 1 1-1.414-1.414l1.068-1.068zM8.025 11c1.97-.008 3.543-.974 4.799-3a8.66 8.66 0 0 0-.754-1.045l1.417-1.416a10.79 10.79 0 0 1 1.216 1.706 1.5 1.5 0 0 1 0 1.51C13.077 11.547 10.813 13 8.001 13c-.616 0-1.206-.07-1.768-.208L8.025 11zM11 8.025L8.025 11A3 3 0 0 0 11 8.025z" fill="#000" fill-rule="evenodd"/></svg>