<svg width="16" height="16" viewBox="0 0 16 16" xmlns="http://www.w3.org/2000/svg">
  <title>
    file-additions-solid
  </title>
  <path d="M7 7H5c-.55228475 0-1 .44771525-1 1s.44771525 1 1 1h2v2c0 .5522847.44771525 1 1 1s1-.4477153 1-1V9h2c.5522847 0 1-.44771525 1-1s-.4477153-1-1-1H9V5c0-.55228475-.44771525-1-1-1s-1 .44771525-1 1v2zM4.25 2h7.5C12.9926407 2 14 3.00735931 14 4.25v7.5c0 1.2426407-1.0073593 2.25-2.25 2.25h-7.5C3.00735931 14 2 12.9926407 2 11.75v-7.5C2 3.00735931 3.00735931 2 4.25 2z"/>
</svg>
