<svg width="16" height="16" viewBox="0 0 16 16" xmlns="http://www.w3.org/2000/svg">
  <title>
    file-additions-solid
  </title>
  <path d="M7 7H5c-.55228475 0-1 .44771525-1 1s.44771525 1 1 1h2v2c0 .5522847.44771525 1 1 1s1-.4477153 1-1V9h2c.5522847 0 1-.44771525 1-1s-.4477153-1-1-1H9V5c0-.55228475-.44771525-1-1-1s-1 .44771525-1 1v2zM3.625 1h8.75C13.8247475 1 15 2.17525253 15 3.625v8.75C15 13.8247475 13.8247475 15 12.375 15h-8.75C2.17525253 15 1 13.8247475 1 12.375v-8.75C1 2.17525253 2.17525253 1 3.625 1z"/>
</svg>
