<svg xmlns="http://www.w3.org/2000/svg" width="16" height="16">
  <path fill-rule="evenodd" d="M14.5894005 5.4635973C15.4291053 5.99533634 15.9865972 6.93256356 15.9865972 8c0 .45329449-.1027214.90069571-.3004474 1.30859314L14.020472 12.7447909c-.626842 1.2931391-1.8948159 2.1438268-3.3139142 2.2450486C10.624704 14.9965719 10.5420089 15 10.4586187 15H3c-1.65685425 0-3-1.3431458-3-3V3c0-1.1045695.8954305-2 2-2h3.55848156c.86086082 0 1.6251385.55086019 1.8973666 1.36754447L7.66666667 3h4.97241253c1.1045695 0 2 .8954305 2 2a1.99999728 1.99999728 0 0 1-.0272122.32879797l-.0224665.13479933zM5.28608861 7c-.38319915 0-.73270026.2189802-.89985085.56380229L2.44725992 11.5638023c-.06590867.1359658-.10014915.2850995-.10014915.4361977 0 .5522847.44771525 1 1 1h7.07395783c.7663983 0 1.4654005-.4379604 1.7997017-1.1276046l1.6656778-3.43619769c.0659087-.13596581.1001491-.28509955.1001491-.43619771 0-.55228475-.4477152-1-1-1H5.28608861z"/>
</svg>
