<svg xmlns="http://www.w3.org/2000/svg" width="16" height="16" viewBox="0 0 16 16">
  <path fill="#000000" fill-rule="evenodd" d="M14.5894005,5.4635973 C15.4291053,5.99533634 15.9865972,6.93256356 15.9865972,8 C15.9865972,8.45329449 15.8838758,8.90069571 15.6861498,9.30859314 L14.020472,12.7447909 C13.39363,14.03793 12.1256561,14.8886177 10.7065578,14.9898395 C10.624704,14.9965719 10.5420089,15 10.4586187,15 L3,15 C1.34314575,15 -1.57345071e-15,13.6568542 -1.77635684e-15,12 L-1.77635684e-15,3 C-1.3527075e-16,1.8954305 0.8954305,1 2,1 L5.55848156,1 C6.41934238,1 7.18362006,1.55086019 7.45584816,2.36754447 L7.66666667,3 L12.6390792,3 C13.7436487,3 14.6390792,3.8954305 14.6390792,5 C14.6390792,5.11016172 14.6299775,5.22013512 14.611867,5.32879797 L14.5894005,5.4635973 Z M5.28608861,7 C4.90288946,7 4.55338835,7.2189802 4.38623776,7.56380229 L2.44725992,11.5638023 C2.38135125,11.6997681 2.34711077,11.8489018 2.34711077,12 C2.34711077,12.5522847 2.79482602,13 3.34711077,13 L10.4210686,13 C11.1874669,13 11.8864691,12.5620396 12.2207703,11.8723954 L13.8864481,8.43619771 C13.9523568,8.3002319 13.9865972,8.15109816 13.9865972,8 C13.9865972,7.44771525 13.538882,7 12.9865972,7 L5.28608861,7 Z"/>
</svg>
