<svg xmlns="http://www.w3.org/2000/svg" width="16" height="16" viewBox="0 0 16 16">
  <path fill="#000000" fill-rule="evenodd" d="M8.1716,2.17157 C7.52583,2.81734 7.14702,3.62898 7.03517,4.46935 C6.90573,5.30125 6.85212,5.37667 6.28598,5.94281 C5.58524,6.64355 5.51319,7.73491 6.06983,8.51598 L4.87871,9.70711 C4.69117,9.89464 4.43682,9.9999995 4.1716,9.9999995 L2.5,9.9999995 C1.67157,9.9999995 1,10.6716 1,11.4999995 C1,12.3284 1.67157,12.9999995 2.5,12.9999995 C2.73118,12.9999995 2.95014,12.9477 3.14571,12.8543 C3.0523,13.0499 3,13.2688 3,13.4999995 C3,14.3284 3.67157,14.9999995 4.5,14.9999995 C5.32843,14.9999995 6,14.3284 6,13.4999995 L6,13.4934 L6,11.8285 C6,11.5633 6.10534,11.3089 6.29288,11.1214 L7.48405,9.93019 C8.26512,10.4868 9.35648,10.4148 10.0572,9.71405 C10.6234,9.1479 10.6988,9.0943 11.5307,8.96486 C12.371,8.85301 13.1827,8.4742 13.8285,7.82843 C15.3906,6.26633 15.3906,3.73367 13.8285,2.17157 C12.2664,0.609476 9.7337,0.609476 8.1716,2.17157 Z M9.01478,4.75506 L9.01769,4.73321 C9.07361,4.31306 9.26137,3.91023 9.58581,3.58579 C10.3669,2.80474 11.6332,2.80474 12.4142,3.58579 C13.1953,4.36683 13.1953,5.63316 12.4142,6.41421 C12.0898,6.73866 11.687,6.92642 11.2668,6.98234 L11.245,6.98524 L11.1896,6.99386 C10.8236,7.05061 10.2877,7.13371 9.77394,7.40003 C9.2866,7.65262 8.91977,8.02156 8.69004,8.25261 L8.643,8.29983 L7.70019,7.35702 L7.74741,7.30999 C7.97847,7.08025 8.34741,6.71342 8.6,6.22608 C8.86631,5.71227 8.94942,5.1764 9.00617,4.81047 L9.01478,4.75506 Z"/>
</svg>
