<svg xmlns="http://www.w3.org/2000/svg" width="16" height="16" viewBox="0 0 16 16">
  <path fill="#000000" fill-rule="evenodd" d="M11,8 L11,15 L5,15 L5,8 L11,8 Z M9,10 L7,10 L7,13 L9,13 L9,10 Z M13.8195,6 C14.4375,6 14.9075,6.55487 14.8059,7.1644 L14,12 L12,12 L12,6 L13.8195,6 Z M4,6 L4,12 L2,12 L1.19407,7.1644 C1.09248,6.55487 1.56252,6 2.18046,6 L4,6 Z M8,3 C9.1045695,3 10,3.8954305 10,5 C10,6.1045695 9.1045695,7 8,7 C6.8954305,7 6,6.1045695 6,5 C6,3.8954305 6.8954305,3 8,3 Z M13,1 C14.1045695,1 15,1.8954305 15,3 C15,4.1045695 14.1045695,5 13,5 C11.8954305,5 11,4.1045695 11,3 C11,1.8954305 11.8954305,1 13,1 Z M3,1 C4.1045695,1 5,1.8954305 5,3 C5,4.1045695 4.1045695,5 3,5 C1.8954305,5 1,4.1045695 1,3 C1,1.8954305 1.8954305,1 3,1 Z"/>
</svg>
