<svg width="16" height="16" viewBox="0 0 16 16" xmlns="http://www.w3.org/2000/svg"><path d="M3.048 11.997C-.377 11.975.013 11.782.013 10.56.013 9.235.653 8 4 8c.444 0 .84.022 1.194.062.164.435.426.82.76 1.132-1.786.389-2.721 1.353-2.906 2.803zm2.94-7.222a2.993 2.993 0 0 0-.976 1.95 2 2 0 1 1 .975-1.95zm6.964 7.222c-.185-1.45-1.12-2.414-2.906-2.803.334-.311.596-.697.76-1.132C11.16 8.022 11.556 8 12 8c3.346 0 3.987 1.235 3.987 2.56 0 1.222.39 1.415-3.035 1.437zm-1.964-5.272a2.993 2.993 0 0 0-.976-1.95 2 2 0 1 1 .976 1.95zM8 9a2 2 0 1 1 0-4 2 2 0 0 1 0 4zm0 5c-2.177 0-3.987-.115-3.987-1.44S4.653 10 8 10c3.346 0 3.987 1.235 3.987 2.56S10.177 14 8 14z" fill="#000" fill-rule="evenodd"/></svg>