<svg xmlns="http://www.w3.org/2000/svg" width="16" height="16" viewBox="0 0 16 16">
  <path fill="#000000" d="M2.86785743,3.2395633 C4.18102841,1.8239427 6.02484077,1 8,1 C11.8659932,1 15,4.13400675 15,8 C15,11.8659932 11.8659932,15 8,15 C6.00505954,15 4.14286153,14.1596759 2.82534874,12.7141859 C2.45331169,12.3060108 2.48260732,11.6735239 2.89078238,11.3014869 C3.29895743,10.9294498 3.93144431,10.9587454 4.30348137,11.3669205 C5.24588336,12.4008632 6.57359894,13 8,13 C10.7614237,13 13,10.7614237 13,8 C13,5.23857625 10.7614237,3 8,3 C6.63395215,3 5.35891921,3.54977436 4.42706082,4.50218132 L5.22285404,5.14660196 C5.30692966,5.21468505 5.36665515,5.30820082 5.39306579,5.41311267 C5.46047892,5.68090005 5.29804349,5.95263375 5.03025611,6.02004688 L1.79777648,6.83379533 C1.75183143,6.84536159 1.70447565,6.85033889 1.65712984,6.84857789 C1.38117828,6.83831402 1.16579585,6.60629058 1.17605971,6.33033902 L1.2999555,2.999309 C1.3039766,2.89119865 1.34295392,2.7873088 1.41103702,2.70323318 C1.58481904,2.48863024 1.89966726,2.45553836 2.11427019,2.62932039 L2.86785743,3.2395633 Z M9,8 L10,8 C10.5522847,8 11,8.44771525 11,9 C11,9.55228475 10.5522847,10 10,10 L8,10 C7.72385763,10 7.47385763,9.88807119 7.29289322,9.70710678 C7.11192881,9.52614237 7,9.27614237 7,9 L7,6 C7,5.44771525 7.44771525,5 8,5 C8.55228475,5 9,5.44771525 9,6 L9,8 Z"/>
</svg>
