<svg width="16" height="16" viewBox="0 0 16 16" xmlns="http://www.w3.org/2000/svg" xmlns:xlink="http://www.w3.org/1999/xlink"><title>icn/home</title><defs><path d="M8.998 2.4l5.605 4.656c.47.39.531 1.084.14 1.55a1.11 1.11 0 0 1-.85.394H2.107a1.097 1.097 0 1 1-.717-1.938l5.473-4.614c.498-.51 1.32-.59 1.92-.212.077.048.149.103.215.165zM7.957 4.144L4.573 7h6.824l-3.44-2.857zM6.994 12c0-.552.45-1 1.006-1s1.007.448 1.007 1h2.014V9h2.013v3.467c0 .795-.558 1.533-1.41 1.533H4.377c-.851 0-1.41-.738-1.41-1.533V9H4.98v3h2.014z" id="a"/></defs><use fill="#000" fill-rule="nonzero" xlink:href="#a"/></svg>