<svg height="16" viewBox="0 0 16 16" width="16" xmlns="http://www.w3.org/2000/svg"><path d="m11.0205931 9.00001444h-6.04030045v2.99999996h2.01343349c0-.5522847.45072244-1 1.00671674-1s1.00671674.4477153 1.00671674 1h2.01343348zm2.0134335 0v3.46726406c0 .7943716-.558118 1.5327359-1.4094035 1.5327359h-7.24836049c-.85128549 0-1.40940344-.7383643-1.40940344-1.5327359v-3.46726406h-.85947075c-.61159374 0-1.10738842-.49248677-1.10738842-1.1 0-.32273283.14268057-.62918394.39025002-.83818387l5.47226598-4.61366122c.49813495-.5100932 1.32081799-.59008736 1.92070387-.21259632.07668487.04825559.14874422.10343827.21505499.16510669l5.60468964 4.65549105c.4691722.38971424.5314637 1.08344172.1391319 1.54948371-.2104035.2499334-.5215203.39435996-.8495116.39435996zm-5.07703623-4.85715144-3.38441936 2.85715144h6.82410959z"/></svg>