<svg xmlns="http://www.w3.org/2000/svg" xmlns:xlink="http://www.w3.org/1999/xlink" width="16" height="16" viewBox="0 0 16 16">
  <defs>
    <path id="a" d="M11.0205931 9.00001444H4.98029265v2.99999996h2.01343349c0-.5522847.45072244-1 1.00671674-1s1.00671674.4477153 1.00671674 1h2.01343348V9.00001444zm2.0134335 0v3.46726406c0 .7943716-.558118 1.5327359-1.4094035 1.5327359H4.37626261c-.85128549 0-1.40940344-.7383643-1.40940344-1.5327359V9.00001444h-.85947075C1.49579468 9.00001444 1 8.50752767 1 7.90001444c0-.32273283.14268057-.62918394.39025002-.83818387L6.862516 2.44816935c.49813495-.5100932 1.32081799-.59008736 1.92070387-.21259632.07668487.04825559.14874422.10343827.21505499.16510669l5.60468964 4.65549105c.4691722.38971424.5314637 1.08344172.1391319 1.54948371-.2104035.2499334-.5215203.39435996-.8495116.39435996h-.8585582zM7.95699037 4.142863L4.57257101 7.00001444h6.82410959L7.95699037 4.142863z"/>
  </defs>
  <use fill="#000" fill-rule="nonzero" xlink:href="#a"/>
</svg>
