<svg width="16" height="16" viewBox="0 0 16 16" xmlns="http://www.w3.org/2000/svg"><title>icn/hook</title><path d="M10 4a1 1 0 0 0-1-1H7a1 1 0 0 0-1 1h4zm0 1H6v1a1 1 0 0 0 1 1h2a1 1 0 0 0 1-1V5zM9 9v2.5a1.5 1.5 0 0 0 3 0V11h-.44a.3.3 0 0 1-.25-.466l1.44-2.16a.3.3 0 0 1 .5 0l1.44 2.16a.3.3 0 0 1-.25.466H14v.5a3.5 3.5 0 0 1-6 2.45 3.5 3.5 0 0 1-6-2.45V11h-.44a.3.3 0 0 1-.25-.466l1.44-2.16a.3.3 0 0 1 .5 0l1.44 2.16a.3.3 0 0 1-.25.466H4v.5a1.5 1.5 0 0 0 3 0V9a3 3 0 0 1-3-3V4a3 3 0 0 1 3-3h2a3 3 0 0 1 3 3v2a3 3 0 0 1-3 3z" fill="#000" fill-rule="evenodd"/></svg>