<svg xmlns="http://www.w3.org/2000/svg" width="16" height="16" viewBox="0 0 16 16">
  <path d="M9 0a1 1 0 01.117 1.993L9 2v1.724a3 3 0 01-1.027 2.26l-.155.126-1.168.889 1.168.891a3 3 0 011.175 2.187l.007.2V12a1 1 0 01.117 1.993L9 14H1a1 1 0 01-.117-1.993L1 12v-1.724a3 3 0 011.027-2.26l.155-.126 1.167-.891-1.167-.889a3 3 0 01-1.175-2.187L1 3.723V2A1 1 0 01.883.007L1 0h8zM5 8.249L3.39 9.487l-.099.087a1 1 0 00-.291.705V12h4v-1.72l-.009-.132a1 1 0 00-.381-.661L5 8.249zM7 2H3v1a1 1 0 001 1h2a1 1 0 001-1V2z" fill="#000" fill-rule="nonzero"/>
</svg>
