<svg xmlns="http://www.w3.org/2000/svg" width="16" height="16" viewBox="0 0 16 16">
  <path fill="#000000" fill-rule="evenodd" d="M12.0023 1c.5294.0007.9977.4341.9977.9967 0 .5625-.4683 1.0035-.9977.9965v1.731a2.9993 2.9993 0 01-1.0276 2.26l-1.3238 1.015 1.3238 1.017c.6895.525.963 1.3955 1.0206 2.26l.007 1.724c.5294.0005.9977.4532.9977.9965 0 .5433-.4908 1.0035-.9977.9965l-8.0046.007C3.4683 14.9996 3 14.5482 3 14.0037c0-.5446.4566-1.0035.9977-.9965v-1.731c0-.8663.3747-1.6903 1.0276-2.26l1.3228-1.017-1.3228-1.015c-.6895-.5252-1.0346-1.3938-1.0276-2.26v-1.731C3.4683 2.9926 3 2.5288 3 1.9967 3 1.4645 3.4683.9932 3.9977 1h8.0046zM8 9.2493l-1.611 1.238-.099.087-.0863.0989a.9998.9998 0 00-.1962.4751l-.0086.131v1.721h4.0022v-1.72l-.009-.132-.0257-.1288a1 1 0 00-.257-.4455l-.0985-.0867L8 9.2492zm2.0011-6.249H5.999l.0067 1.1166c0 .459.408.8766.8771.8766h2.2346c.4758 0 .8771-.4175.8771-.8766l.0067-1.1166z"/>
</svg>
