<svg xmlns="http://www.w3.org/2000/svg" width="38" height="38">
  <g fill="none" fill-rule="evenodd">
    <circle cx="19" cy="19" r="18" fill="#1F78D1"/>
    <path fill="#FFF" fill-rule="nonzero" d="M19 38C8.50658975 38 0 29.4934102 0 19 0 8.50658975 8.50658975 0 19 0c10.4934102 0 19 8.50658975 19 19 0 10.4934102-8.5065898 19-19 19zm0-2c9.3888407 0 17-7.6111593 17-17 0-9.38884075-7.6111593-17-17-17C9.61115925 2 2 9.61115925 2 19c0 9.3888407 7.61115925 17 17 17zm-6.2928932-8.2928932C12.0771419 28.3370716 11 27.8909049 11 27V15c0-1.6568543 1.3431458-3 3-3h10c1.6568542 0 3 1.3431457 3 3v5.9997169c0 1.6568543-1.3431458 3-3 3h-7.5855034l-3.7073898 3.7073899zM13 24.5857864l2.2931763-2.2931763c.1875364-.1875363.4418903-.2928932.7071068-.2928932H24c.5522847 0 1-.4477152 1-1V15c0-.5522848-.4477153-1-1-1H14c-.5522847 0-1 .4477152-1 1v9.5857864z"/>
  </g>
</svg>
