<svg xmlns="http://www.w3.org/2000/svg" width="16" height="16" viewBox="0 0 16 16">
  <path fill="#000000" d="M9,8 L10,8 C10.1081851,8 10.2134519,8.03508894 10.3,8.1 C10.5209139,8.26568542 10.5656854,8.5790861 10.4,8.8 L8.4,11.4666667 C8.37157288,11.5045695 8.33790283,11.5382395 8.3,11.5666667 C8.0790861,11.7323521 7.76568542,11.6875806 7.6,11.4666667 L5.6,8.8 C5.53508894,8.71345191 5.5,8.60818511 5.5,8.5 C5.5,8.22385763 5.72385763,8 6,8 L7,8 L7,1 C7,0.44771525 7.44771525,-4.60838236e-14 8,-4.61852778e-14 C8.55228475,-4.6286732e-14 9,0.44771525 9,1 L9,8 L9,8 Z M0,8 C0,7.44771525 0.44771525,7 1,7 C1.55228475,7 2,7.44771525 2,8 C2,11.3137085 4.6862915,14 8,14 C11.3137085,14 14,11.3137085 14,8 C14,7.44771525 14.4477153,7 15,7 C15.5522847,7 16,7.44771525 16,8 C16,12.418278 12.418278,16 8,16 C3.581722,16 0,12.418278 0,8 Z"/>
</svg>
