<svg xmlns="http://www.w3.org/2000/svg" width="16" height="16" viewBox="0 0 16 16">
  <path fill="#000000" d="M4,1 C4.55228,1 5,1.44772 5,2 C5,2.55228 4.55228,3 4,3 L3,3 L3,13 L13,13 L13,4 C13,3.44772 13.4477,3 14,3 C14.5523,3 15,3.44772 15,4 L15,13 C15,14.1046 14.1046,15 13,15 L3,15 C1.89543,15 1,14.1046 1,13 L1,3 C1,1.89543 1.89543,1 3,1 L4,1 Z M11,2.57571742e-14 C11.5523,2.57571742e-14 12,0.447715 12,1 C12,1.55228 11.5523,2 11,2 C9.89543,2 9,2.89543 9,4 L9,7.58576 L9.29289,7.29286 C9.68342,6.90234 10.3166,6.90234 10.7071,7.29286 C11.0976,7.68339 11.0976,8.31655 10.7071,8.70708 L8,11.4142 L5.29289,8.70708 C4.90237,8.31655 4.90237,7.68339 5.29289,7.29286 C5.68342,6.90234 6.31658,6.90234 6.70711,7.29286 L7,7.58576 L7,4 C7,1.79086 8.79086,2.57571742e-14 11,2.57571742e-14 Z"/>
</svg>
