<svg xmlns="http://www.w3.org/2000/svg" width="16" height="16" viewBox="0 0 16 16">
  <path fill="#000000" fill-rule="evenodd" d="M13,3 C14.1046,3 15,3.89543 15,5 L15,13 C15,14.1046 14.1046,15 13,15 L3,15 C1.89543,15 1,14.1046 1,13 L1,5 C1,3.89543 1.89543,3 3,3 C3.55228,3 4,3.44772 4,4 C4,4.55228 3.55228,5 3,5 L3,13 L13,13 L13,5 C12.4477,5 12,4.55228 12,4 C12,3.44772 12.4477,3 13,3 Z M8,1 C8.55228,1 9,1.44772 9,2 L9,7.58579 L9.29289,7.29289 C9.68342,6.90237 10.3166,6.90237 10.7071,7.29289 C11.0976,7.68342 11.0976,8.31658 10.7071,8.70711 L8,11.4142 L5.29289,8.70711 C4.90237,8.31658 4.90237,7.68342 5.29289,7.29289 C5.68342,6.90237 6.31658,6.90237 6.70711,7.29289 L7,7.58579 L7,2 C7,1.44772 7.44772,1 8,1 Z"/>
</svg>
