<svg xmlns="http://www.w3.org/2000/svg" viewBox="0 0 16 16" enable-background="new 0 0 16 16"><path d="m7 12h-1.6c-.2 0-.4.2-.4.5s.2.5.4.5h5.1c.2 0 .4-.2.4-.5s-.1-.5-.3-.5h-1.6v-4c0-.2 0-.5 0-1h-1.8-1.9c-.2 0-.3.2-.3.5s.1.5.3.5h1.7c0 0 0 0 0 0v4m1 3c-3.9 0-7-3.1-7-7s3.1-7 7-7 7 3.1 7 7-3.1 7-7 7m-1.5-10.8c0 .2 0 .3.1.5s.1.3.2.4.2.2.4.3c.2.1.3.1.5.1s.4 0 .5-.1c.2-.1.3-.2.4-.3s.2-.2.3-.4.1-.3.1-.5 0-.3-.1-.5-.1-.2-.2-.3c-.2-.2-.3-.2-.4-.3-.2-.1-.4-.1-.6-.1s-.3 0-.5.1c-.1.1-.2.1-.4.3s-.1.2-.2.4c-.1.1-.1.3-.1.4"/></svg>