<svg viewBox="0 0 16 16" xmlns="http://www.w3.org/2000/svg"><g fill="none" fill-rule="evenodd"><path d="m7 0c-3.9 0-7 3.1-7 7 0 3.9 3.1 7 7 7 3.9 0 7-3.1 7-7 0-3.9-3.1-7-7-7m2.6 12h-5.2c-.2 0-.4-.2-.4-.5 0-.3.2-.5.4-.5h1.6v-4h-1.7c-.2 0-.3-.2-.3-.5 0-.3.1-.5.3-.5h1.9 1.8c0 .5 0 .9 0 1v4h1.6c.2 0 .4.2.4.5 0 .3-.2.5-.4.5m-2.6-7.5c-.69 0-1.25-.56-1.25-1.25 0-.69.56-1.25 1.25-1.25.69 0 1.25.56 1.25 1.25 0 .69-.56 1.25-1.25 1.25" transform="translate(1 1)" fill="#000000" fill-rule="nonzero"/></g></svg>