<svg xmlns="http://www.w3.org/2000/svg" width="16" height="16" viewBox="0 0 16 16"><path fill-rule="evenodd" d="M5.803 8a5.97 5.97 0 0 0-.462 1H4.5a.5.5 0 0 1 0-1h1.303zM4.5 5h3a.5.5 0 0 1 0 1h-3a.5.5 0 0 1 0-1zm7.5.083a6.04 6.04 0 0 0-2 0V3a1 1 0 0 0-1-1H3a1 1 0 0 0-1 1v8a1 1 0 0 0 1 1h2.083a5.96 5.96 0 0 0 .72 2H3a3 3 0 0 1-3-3V3a3 3 0 0 1 3-3h6a3 3 0 0 1 3 3v2.083zm1.121 3.796zM11 16a5 5 0 1 1 0-10 5 5 0 0 1 0 10zm-1.293-2.292a3 3 0 0 0 4.001-4.001l-4.001 4zm-1.415-1.415l4.001-4a3 3 0 0 0-4.001 4.001z"/></svg>