<svg width="16" height="16" viewBox="0 0 16 16" xmlns="http://www.w3.org/2000/svg" xmlns:xlink="http://www.w3.org/1999/xlink"><title>icn/issue-child</title><defs><path d="M11 8H5v1h1a1 1 0 0 1 1 1v3a1 1 0 0 1-1 1H2a1 1 0 0 1-1-1v-3a1 1 0 0 1 1-1h1V7a1 1 0 0 1 1-1h3V5H4.5a.5.5 0 0 1-.5-.5v-2a.5.5 0 0 1 .5-.5h7a.5.5 0 0 1 .5.5v2a.5.5 0 0 1-.5.5H9v1h3a1 1 0 0 1 1 1v2h1a1 1 0 0 1 1 1v3a1 1 0 0 1-1 1h-4a1 1 0 0 1-1-1v-3a1 1 0 0 1 1-1h1V8zm-8 3v1h2v-1H3zm8 0v1h2v-1h-2z" id="a"/></defs><g fill="none" fill-rule="evenodd"><use fill="#000" xlink:href="#a"/><path stroke="#000" stroke-width="2" d="M8 4.5V4h3V3H5v1h3v.5zm0 0V7h-.5H12v3h-2v3h4v-3h-2V7H8V4.5zm-4 5v.5H2v3h4v-3H4v-.5zM2 13v-3h4v3H2zm2.5-1.5L4 11v.5-.5l-.5.5.5.5v-.5.5l.5-.5zm8 0L12 11v.5-.5l-.5.5.5.5v-.5.5l.5-.5zM10 10h4v3h-4v-3z"/></g></svg>