<svg width="16" height="16" viewBox="0 0 16 16" xmlns="http://www.w3.org/2000/svg" xmlns:xlink="http://www.w3.org/1999/xlink">
  <title>
    icn/issues
  </title>
  <defs>
    <path d="M10.8918984 3.07241939l1.0479743.18478615c1.6316829.28770972 2.7211885 1.84368488 2.4334788 3.47536779l-.8682409 4.92403877c-.2667044 1.5125559-1.6232457 2.5592118-3.1196615 2.4747968.3844561-.6093741.6089312-1.3297824.6144468-2.1022462.2722382-.1371343.4785961-.3965664.5355992-.719847l.8682409-4.92403873c.0959032-.5438943-.2672653-1.06255269-.8111596-1.15845593L11 5.12233384V4c0-.31931407-.0374155-.62988927-.1081016-.92758061zM4 1h3c1.65685425 0 3 1.34314575 3 3v8c0 1.6568542-1.34314575 3-3 3H4c-1.65685425 0-3-1.3431458-3-3V4c0-1.65685425 1.34314575-3 3-3zm0 2c-.55228475 0-1 .44771525-1 1v8c0 .5522847.44771525 1 1 1h3c.55228475 0 1-.4477153 1-1V4c0-.55228475-.44771525-1-1-1H4z" id="a"/>
  </defs>
  <use xlink:href="#a"/>
</svg>
