<svg xmlns="http://www.w3.org/2000/svg" width="16" height="16"><path d="M11 4a5.99 5.99 0 0 0-2 .341V3a1 1 0 0 0-1-1H4a1 1 0 0 0-1 1v10a1 1 0 0 0 1 1h2.528a6.003 6.003 0 0 0 2.705 1.736A2.99 2.99 0 0 1 8 16H4a3 3 0 0 1-3-3V3a3 3 0 0 1 3-3h4a3 3 0 0 1 3 3v1zM8.212 8.97l-.568-.876A.25.25 0 0 1 7.66 7.8l.404-.5a.25.25 0 0 1 .284-.076l.938.36c.256-.182.543-.325.85-.42l.323-.988a.25.25 0 0 1 .237-.173h.643a.25.25 0 0 1 .238.173l.321.989c.308.094.595.237.852.418l.937-.359a.25.25 0 0 1 .284.076l.404.5a.25.25 0 0 1 .016.293l-.568.875c.113.297.18.616.192.95l.9.54a.25.25 0 0 1 .114.27l-.145.627a.25.25 0 0 1-.221.192l-1.115.098a3.015 3.015 0 0 1-.512.608l.165 1.18a.25.25 0 0 1-.138.259l-.577.282a.25.25 0 0 1-.29-.051l-.874-.905a3.035 3.035 0 0 1-.608 0l-.875.905a.25.25 0 0 1-.29.05l-.577-.281a.25.25 0 0 1-.138-.26L9 12.254a3.015 3.015 0 0 1-.512-.607l-1.114-.098a.25.25 0 0 1-.222-.192l-.145-.627a.25.25 0 0 1 .115-.27l.899-.54c.012-.334.08-.653.192-.95zm2.806 2.034a1 1 0 1 0 0-2 1 1 0 0 0 0 2z"/></svg>