<svg xmlns="http://www.w3.org/2000/svg" width="16" height="16" viewBox="0 0 16 16"><path d="M8.168 9.008a1.006 1.006 0 0 1-.145-.098l-.777-.63a1 1 0 1 1 1.258-1.554l.777.63c.042.033.08.07.115.108.192-.122.4-.222.618-.298A1.007 1.007 0 0 1 10 7V6a1 1 0 0 1 2 0v1c0 .057-.005.112-.014.166.219.076.426.176.618.298.035-.038.073-.075.115-.109l.777-.629a1 1 0 1 1 1.258 1.554l-.777.63c-.046.037-.095.07-.145.098.074.21.125.431.15.66.056.003.112.011.168.024l.974.225a1 1 0 0 1-.45 1.949l-.974-.225a1.007 1.007 0 0 1-.156-.05 3.014 3.014 0 0 1-.428.536c.03.043.058.09.082.139l.439.898a1 1 0 1 1-1.798.877l-.438-.899a1.006 1.006 0 0 1-.063-.16 3.033 3.033 0 0 1-.676 0 1.006 1.006 0 0 1-.063.16l-.438.9a1 1 0 1 1-1.798-.878l.439-.898c.024-.05.051-.096.082-.14a3.014 3.014 0 0 1-.428-.535c-.05.02-.102.037-.156.05l-.974.225a1 1 0 0 1-.45-1.95l.974-.224c.056-.013.112-.021.168-.024.025-.229.076-.45.15-.66zM11 4a5.99 5.99 0 0 0-2 .341V3a1 1 0 0 0-1-1H4a1 1 0 0 0-1 1v10a1 1 0 0 0 1 1h2.528a6.003 6.003 0 0 0 2.705 1.736A2.99 2.99 0 0 1 8 16H4a3 3 0 0 1-3-3V3a3 3 0 0 1 3-3h4a3 3 0 0 1 3 3v1zm0 7a1 1 0 1 0 0-2 1 1 0 0 0 0 2z"/></svg>