<svg xmlns="http://www.w3.org/2000/svg" width="16" height="16" viewBox="0 0 16 16">
  <path fill="#000000" d="M10.4576904,15.0123625 L10.7692705,15.0673024 C12.4009534,15.3550122 13.9569286,14.2655066 14.2446383,12.6338237 L15.6338237,4.7553617 C15.9215334,3.12367879 14.8320279,1.56770363 13.200345,1.27999391 L11.2307295,0.932697551 C10.9516652,0.883490979 10.6748153,0.874569 10.406146,0.901754157 C10.7700808,1.49128488 10.9852436,2.18240134 10.9992687,2.922738 L12.8530486,3.24960941 C13.3969429,3.34551265 13.7601115,3.86417104 13.6642082,4.40806534 L12.2750228,12.2865274 C12.1791196,12.8304217 11.6604612,13.1935902 11.1165669,13.0976869 L10.9992736,13.077005 C10.9859666,13.7817807 10.7903808,14.4419579 10.4576904,15.0123625 L10.4576904,15.0123625 Z M3,0 L7,0 C8.65685425,-3.04359188e-16 10,1.34314575 10,3 L10,13 C10,14.6568542 8.65685425,16 7,16 L3,16 C1.34314575,16 2.02906125e-16,14.6568542 0,13 L0,3 C-2.02906125e-16,1.34314575 1.34314575,3.04359188e-16 3,0 Z M3,2 C2.44771525,2 2,2.44771525 2,3 L2,13 C2,13.5522847 2.44771525,14 3,14 L7,14 C7.55228475,14 8,13.5522847 8,13 L8,3 C8,2.44771525 7.55228475,2 7,2 L3,2 Z"/>
</svg>
