<svg width="16" height="16" viewBox="0 0 16 16" xmlns="http://www.w3.org/2000/svg"><path d="M6.093 13.96l-.651.777-2.344.21a.5.5 0 0 1-.542-.453v-.007l-.162-2.117a.5.5 0 0 1 .115-.36l4.125-4.916a4.06 4.06 0 0 1 .725-3.974c1.438-1.714 3.976-1.953 5.668-.534 1.692 1.42 1.897 3.96.459 5.675a4.06 4.06 0 0 1-3.788 1.404l-1.651 1.968-.766-.643-.651.776.765.643-.65.776-.767-.643-.65.776.765.643zm4.98-9.045a1.007 1.007 0 0 0 1.418-.134 1.007 1.007 0 0 0-.115-1.419 1.007 1.007 0 0 0-1.417.134 1.007 1.007 0 0 0 .114 1.419z" fill="#000" fill-rule="evenodd"/></svg>