<svg xmlns="http://www.w3.org/2000/svg" width="16" height="16" viewBox="0 0 16 16">
  <path fill="#000000" d="M9.4242315,2.25371225 L11.5035668,1.34897658 C11.9324424,1.16236933 12.433376,1.29796338 12.7095692,1.6754205 L15.7233793,5.79421979 C15.9022395,6.03865754 15.960673,6.35098907 15.8822799,6.6435558 L13.9357154,13.9082336 C13.50689,15.5086319 11.8618791,16.4583794 10.2614808,16.0295539 L9.76005302,15.8951968 C10.2650069,15.4136702 10.6441657,14.8013881 10.8432088,14.112671 C11.3558229,14.2149585 11.8666422,13.9027131 12.0038637,13.3905955 L13.8264405,6.58864655 L11.5679401,3.50208535 L10.8814775,3.80077082 C10.7583455,3.45927076 10.5430447,3.15346365 10.2533789,2.92051398 L9.4242315,2.25371225 L9.4242315,2.25371225 Z M0.377290757,3.69973616 L4.40014997,0.498175686 C4.76611447,0.206925757 5.28507351,0.208248384 5.64954869,0.501359924 L9.62668947,3.69978306 C9.86272024,3.88959939 10,4.17616478 10,4.47905215 L10,13 C10,14.6568542 8.65685425,16 7,16 L3,16 C1.34314575,16 -6.65003764e-15,14.6568542 -1.42108547e-14,13 L-1.33226763e-15,4.48218948 C-1.36957951e-15,4.17751484 0.138897072,3.88945987 0.377290757,3.69973616 Z M2,13 C2,13.5522847 2.44771525,14 3,14 L7,14 C7.55228475,14 8,13.5522847 8,13 L8,4.95810429 L5.01959538,2.56125801 L2,4.96437895 L2,13 Z M5,7 C4.44771525,7 4,6.55228475 4,6 C4,5.44771525 4.44771525,5 5,5 C5.55228475,5 6,5.44771525 6,6 C6,6.55228475 5.55228475,7 5,7 Z"/>
</svg>
