<svg xmlns="http://www.w3.org/2000/svg" width="16" height="16" viewBox="0 0 16 16">
  <path fill="#000000" fill-rule="evenodd" d="M9.82843,3 L13,3 L13,6.17157 L6.17188,12.9997 L3.00031,9.82812 L9.82843,3 Z M8.41422,1.58579 C8.78929,1.21071 9.298,1 9.82843,1 L15,1 L15,6.17157 C15,6.70201 14.7893,7.21071 14.4142,7.58579 L7.58609,14.4139 C6.80504,15.195 5.53871,15.195 4.75766,14.4139 L1.58609,11.2423 C0.805044,10.4613 0.805043,9.19496 1.58609,8.41391 L8.41422,1.58579 Z M11,6 C11.5523,6 12,5.55228 12,5 C12,4.44772 11.5523,4 11,4 C10.4477,4 10,4.44772 10,5 C10,5.55228 10.4477,6 11,6 Z"/>
</svg>
