<svg xmlns="http://www.w3.org/2000/svg" width="16" height="16" viewBox="0 0 16 16">
  <path fill="#000000" fill-rule="evenodd" d="M15,1 L9.82843,1 C9.298,1 8.78929,1.21071 8.41422,1.58579 L1.58609,8.41391 C0.805043,9.19496 0.805044,10.4613 1.58609,11.2423 L4.75766,14.4139 C5.53871,15.195 6.80504,15.195 7.58609,14.4139 L14.4142,7.58579 C14.7893,7.21071 15,6.70201 15,6.17157 L15,1 Z M11,6 C11.5523,6 12,5.55228 12,5 C12,4.44772 11.5523,4 11,4 C10.4477,4 10,4.44772 10,5 C10,5.55228 10.4477,6 11,6 Z"/>
</svg>
