<svg width="16" height="16" viewBox="0 0 16 16" xmlns="http://www.w3.org/2000/svg">
  <title>
    label
  </title>
  <path d="M8.78528133 2.02842711H13.027922c.5522848 0 1 .44771525 1 1V7.2710678c0 .26521649-.1053568.5195704-.2928932.70710678L8.37106776 13.3421356c-.78104858.7810486-2.04737854.7810486-2.82842712 0l-2.82842713-2.8284271c-.78104858-.7810486-.78104858-2.04737855 0-2.82842714l5.36396104-5.36396103c.18753637-.18753638.44189029-.29289322.70710678-.29289322zm.29289322 4.94974747c.39052429.39052429 1.02368925.39052429 1.41421355 0 .3905243-.39052429.3905243-1.02368927 0-1.41421356-.3905243-.39052429-1.02368926-.39052429-1.41421355 0-.3905243.39052429-.3905243 1.02368927 0 1.41421356z" fill-rule="evenodd"/>
</svg>
