<svg width="16" height="16" viewBox="0 0 16 16" xmlns="http://www.w3.org/2000/svg"><title>icn/link</title><path d="M8.692 7.278a2 2 0 0 0-2.828 0L3.743 9.4a2 2 0 0 0 2.828 2.829l.294-.294a5.018 5.018 0 0 0 2.534.294l-1.414 1.414a4 4 0 1 1-5.657-5.657L4.45 5.864a4 4 0 0 1 5.657 0 1 1 0 1 1-1.415 1.414zM7.278 8.692a2 2 0 0 0 2.829 0l2.12-2.12A2 2 0 0 0 9.4 3.741l-.294.295a5.018 5.018 0 0 0-2.534-.295l1.414-1.414a4 4 0 1 1 5.657 5.657l-2.121 2.122a4 4 0 0 1-5.657 0 1 1 0 1 1 1.414-1.415z" fill="#000" fill-rule="nonzero"/></svg>