<svg width="16" height="16" viewBox="0 0 16 16" xmlns="http://www.w3.org/2000/svg" xmlns:xlink="http://www.w3.org/1999/xlink">
  <title>
    icn/list-bulleted
  </title>
  <defs>
    <path d="M3 4c-.55228475 0-1-.44771525-1-1s.44771525-1 1-1 1 .44771525 1 1-.44771525 1-1 1zm0 5c-.55228475 0-1-.44771525-1-1s.44771525-1 1-1 1 .44771525 1 1-.44771525 1-1 1zm0 5c-.55228475 0-1-.4477153-1-1s.44771525-1 1-1 1 .4477153 1 1-.44771525 1-1 1zM5.81818182 2h7.36363638C13.6336875 2 14 2.44771525 14 3s-.3663125 1-.8181818 1H5.81818182C5.36631248 4 5 3.55228475 5 3s.36631248-1 .81818182-1zm0 5h7.36363638C13.6336875 7 14 7.44771525 14 8s-.3663125 1-.8181818 1H5.81818182C5.36631248 9 5 8.55228475 5 8s.36631248-1 .81818182-1zm0 5h7.36363638C13.6336875 12 14 12.4477153 14 13s-.3663125 1-.8181818 1H5.81818182C5.36631248 14 5 13.5522847 5 13s.36631248-1 .81818182-1z" id="a"/>
  </defs>
  <use xlink:href="#a" fill-rule="evenodd"/>
</svg>
