<svg xmlns="http://www.w3.org/2000/svg" width="16" height="16" viewBox="0 0 16 16"><path fill-rule="evenodd" d="M6.314 13.087C4.382 13.295 3 13.85 3 14.5c0 .828 2.239 1.5 5 1.5s5-.672 5-1.5c0-.65-1.382-1.205-3.314-1.413l-.202.225a2 2 0 0 1-2.968 0l-.202-.225zm2.428-.445a1 1 0 0 1-1.484 0C4.419 9.5 3 7.037 3 5.252 3 2.353 5.239 0 8 0s5 2.352 5 5.253c0 1.784-1.42 4.247-4.258 7.389zM11 5.252C11 3.436 9.634 2 8 2S5 3.435 5 5.253c0 1.027.974 2.824 3 5.203 2.026-2.38 3-4.176 3-5.203zM8 6a1 1 0 1 1 0-2 1 1 0 0 1 0 2z"/></svg>