<svg xmlns="http://www.w3.org/2000/svg" width="16" height="16" viewBox="0 0 16 16">
  <path fill="#000000" d="M10,5 L10,4 L12,4 L12,5 C13.6568542,5 15,6.34314575 15,8 L15,13 C15,14.6568542 13.6568542,16 12,16 L4,16 C2.34314575,16 1,14.6568542 1,13 L1,8 C1,6.34314575 2.34314575,5 4,5 L4,4 L6,4 L6,5 L10,5 Z M4,7 C3.44771525,7 3,7.44771525 3,8 L3,13 C3,13.5522847 3.44771525,14 4,14 L12,14 C12.5522847,14 13,13.5522847 13,13 L13,8 C13,7.44771525 12.5522847,7 12,7 L4,7 Z M4,4 C4,1.790861 5.790861,0 8,0 C10.209139,0 12,1.790861 12,4 L10,4 C10,2.8954305 9.1045695,2 8,2 C6.8954305,2 6,2.8954305 6,4 L4,4 Z"/>
</svg>
