<svg width="16" height="16" viewBox="0 0 16 16" xmlns="http://www.w3.org/2000/svg"><path d="M6 13H3.03a2 2 0 0 1-1.604-3.196c.525-.703.849-1.305.972-1.804.383-1.56 1.093-5.285 4.606-5.91a1 1 0 1 1 1.994-.024c3.601.533 4.198 4.166 4.659 5.934.14.542.455 1.154.943 1.838A2 2 0 0 1 12.972 13H10a2 2 0 0 1-4 0zm5.721-4.496c-.028-.108-.224-.904-.29-1.148-.117-.44-.233-.807-.365-1.144C10.47 4.687 9.66 4 8.064 4c-1.527 0-2.39.697-3.023 2.144-.279.64-.325.803-.701 2.334-.197.8-.64 1.623-1.31 2.522h9.942c-.619-.867-1.041-1.69-1.25-2.496z" fill="#000" fill-rule="evenodd"/></svg>