<svg width="16" height="16" viewBox="0 0 16 16" xmlns="http://www.w3.org/2000/svg"><title>icn/notifications-off</title><path d="M13.037 5.773c.295.828.465 1.633.62 2.227.14.542.455 1.154.943 1.838A2 2 0 0 1 12.972 13H10a2 2 0 0 1-4 0h-.19l2-2h5.162c-.619-.867-1.041-1.69-1.25-2.496-.028-.105-.216-.867-.286-1.13l1.601-1.6zm-2.46-3.197L9.044 4.11a3.959 3.959 0 0 0-.98-.11c-1.527 0-2.39.697-3.023 2.144-.279.64-.325.803-.701 2.334-.04.16-.089.321-.148.484l-2.945 2.945a2 2 0 0 1 .18-2.103c.524-.703.848-1.305.97-1.804.384-1.56 1.094-5.285 4.607-5.91a1 1 0 1 1 1.994-.024c.607.09 1.13.268 1.58.51zm3.798-.969a1 1 0 0 1 0 1.414L3.061 14.335a1 1 0 0 1-1.414-1.414L12.961 1.607a1 1 0 0 1 1.414 0z" fill="#000" fill-rule="evenodd"/></svg>