<svg xmlns="http://www.w3.org/2000/svg" width="16" height="16" viewBox="0 0 16 16"><path fill-rule="evenodd" d="M13.26 5.089c.243.757.382 1.478.5 2.017.187.86.74 2.188 1.66 3.982A2 2 0 0 1 13.64 14H10a2 2 0 1 1-4 0H4.35l2-2h7.29c-.993-1.937-1.6-3.396-1.835-4.468-.07-.326-.129-.59-.178-.81l1.634-1.633zM10.943 1.75l-1.48 1.48C9.07 3.076 8.612 3 8.069 3c-1.608 0-2.49.718-3.103 2.197-.28.676-.356.982-.654 2.428-.065.317-.17.673-.317 1.073L.45 12.242a1.99 1.99 0 0 1 .224-1.19c.962-1.787 1.521-3.064 1.68-3.831.322-1.566.947-5.501 4.65-6.134a1 1 0 1 1 1.994-.024 4.867 4.867 0 0 1 1.944.688zm2.932-.105a1 1 0 0 1 0 1.415L2.561 14.374a1 1 0 1 1-1.415-1.414L12.46 1.646a1 1 0 0 1 1.414 0z"/></svg>