<svg width="16" height="16" viewBox="0 0 16 16" xmlns="http://www.w3.org/2000/svg"><title>object-headphone</title><g fill="none" fill-rule="evenodd"><path d="M2.5 7h1a.5.5 0 0 1 .5.5v4a.5.5 0 0 1-.5.5h-1A1.5 1.5 0 0 1 1 10.5v-2A1.5 1.5 0 0 1 2.5 7zM13.5 7h-1a.5.5 0 0 0-.5.5v4a.5.5 0 0 0 .5.5h1a1.5 1.5 0 0 0 1.5-1.5v-2A1.5 1.5 0 0 0 13.5 7z" fill="#000"/><path d="M12.5 11.707L10.707 13.5h.793a1 1 0 0 0 1-1v-.793z" stroke="#000"/><rect fill="#000" x="8" y="12" width="3" height="2" rx="1"/><path d="M3 10V7a4 4 0 0 1 4-4h2a4 4 0 0 1 4 4v3" stroke="#000" stroke-width="2"/></g></svg>