<?xml version="1.0" encoding="UTF-8" standalone="no"?>
<svg width="16px" height="16px" viewBox="0 0 16 16" version="1.1" xmlns="http://www.w3.org/2000/svg" xmlns:xlink="http://www.w3.org/1999/xlink">
    <!-- Generator: Sketch 50.2 (55047) - http://www.bohemiancoding.com/sketch -->
    <title>object</title>
    <desc>Created with Sketch.</desc>
    <defs></defs>
    <g id="object" stroke="none" stroke-width="1" fill="none" fill-rule="evenodd">
        <path d="M5.5,4.87731452 C6.41446248,5.61037504 7,6.73680771 7,8 C7,9.26319229 6.41446248,10.389625 5.5,11.1226855 C6.18479897,11.6716408 7.05405329,12 8,12 C8.94594671,12 9.81520103,11.6716408 10.5,11.1226855 C9.58553752,10.389625 9,9.26319229 9,8 C9,6.73680771 9.58553752,5.61037504 10.5,4.87731452 C9.81520103,4.32835916 8.94594671,4 8,4 C7.05405329,4 6.18479897,4.32835916 5.5,4.87731452 Z M4.29930335,6.47906221 C4.1063929,6.94794185 4,7.46154623 4,8 C4,8.53845377 4.1063929,9.05205815 4.29930335,9.52093779 C4.72931148,9.15248082 5,8.60515432 5,8 C5,7.39484568 4.72931148,6.84751918 4.29930335,6.47906221 Z M11.7006967,6.47906221 C11.2706885,6.84751918 11,7.39484568 11,8 C11,8.60515432 11.2706885,9.15248082 11.7006967,9.52093779 C11.8936071,9.05205815 12,8.53845377 12,8 C12,7.46154623 11.8936071,6.94794185 11.7006967,6.47906221 Z M8,14 C4.6862915,14 2,11.3137085 2,8 C2,4.6862915 4.6862915,2 8,2 C11.3137085,2 14,4.6862915 14,8 C14,11.3137085 11.3137085,14 8,14 Z" id="Combined-Shape" fill="#000000" fill-rule="nonzero"></path>
    </g>
</svg>