<svg width="16" height="16" viewBox="0 0 16 16" xmlns="http://www.w3.org/2000/svg">
  <title>
    pipeline
  </title>
  <path d="M3.31 6.264l-.933-1.239a1 1 0 0 1 .022-1.23l.276-.341a1 1 0 0 1 1.199-.278l1.382.644a4.98 4.98 0 0 1 1.182-.571l.373-1.492A1 1 0 0 1 7.78 1h.438a1 1 0 0 1 .97.757l.373 1.492a4.98 4.98 0 0 1 1.182.57l1.382-.643a1 1 0 0 1 1.2.277l.275.341a1 1 0 0 1 .022 1.23l-.932 1.24c.148.401.246.826.287 1.268l1.375.701a1 1 0 0 1 .52 1.116l-.099.427a1 1 0 0 1-.956.775l-1.533.028a5.022 5.022 0 0 1-.819 1.025l.317 1.496a1 1 0 0 1-.54 1.106l-.394.192a1 1 0 0 1-1.204-.255l-.995-1.185a5.047 5.047 0 0 1-1.3 0l-.995 1.185a1 1 0 0 1-1.204.256l-.394-.193a1 1 0 0 1-.54-1.106l.317-1.496a5.022 5.022 0 0 1-.819-1.025l-1.533-.028a1 1 0 0 1-.956-.775l-.099-.427a1 1 0 0 1 .52-1.116l1.375-.701c.04-.442.14-.867.287-1.268zm2.386-.185l-.057.07a2.987 2.987 0 0 0-.577 2.461l.031.135c.214.837.78 1.534 1.532 1.922l.124.06c.38.175.804.273 1.251.273.448 0 .874-.098 1.255-.275l.116-.056a3.006 3.006 0 0 0 1.539-1.935l.026-.113a3.012 3.012 0 0 0-.585-2.484l-.037-.047A2.994 2.994 0 0 0 8 5c-.926 0-1.754.42-2.304 1.079zm3.68 2.337L7.777 9.482A.5.5 0 0 1 7 9.066V6.934a.5.5 0 0 1 .777-.416l1.599 1.066a.5.5 0 0 1 0 .832z"/>
</svg>
