<svg xmlns="http://www.w3.org/2000/svg" width="16" height="16" viewBox="0 0 16 16"><path d="M8.969 7.25a2 2 0 1 1-1.938 0A1.002 1.002 0 0 1 7 7V5.083a.2.2 0 0 1 .06-.142l.877-.87a.1.1 0 0 1 .141 0l.864.87A.2.2 0 0 1 9 5.083V7c0 .086-.01.17-.031.25zM8 16A8 8 0 1 1 8 0a8 8 0 0 1 0 16zm0-2A6 6 0 1 0 8 2a6 6 0 0 0 0 12zm4.5-4a.5.5 0 1 1 0-1 .5.5 0 0 1 0 1zm0-3a.5.5 0 1 1 0-1 .5.5 0 0 1 0 1zm-2 6a.5.5 0 1 1 0-1 .5.5 0 0 1 0 1zm0-9a.5.5 0 1 1 0-1 .5.5 0 0 1 0 1zm-5 9a.5.5 0 1 1 0-1 .5.5 0 0 1 0 1zm0-9a.5.5 0 1 1 0-1 .5.5 0 0 1 0 1zm-2 6a.5.5 0 1 1 0-1 .5.5 0 0 1 0 1zm0-3a.5.5 0 1 1 0-1 .5.5 0 0 1 0 1zM8 10a1 1 0 1 0 0-2 1 1 0 0 0 0 2z"/></svg>