<svg width="16" height="16" viewBox="0 0 16 16" xmlns="http://www.w3.org/2000/svg" xmlns:xlink="http://www.w3.org/1999/xlink"><title>icn/plus-square-o</title><defs><path d="M7 7V6a1 1 0 1 1 2 0v1h1a1 1 0 0 1 0 2H9v1a1 1 0 0 1-2 0V9H6a1 1 0 1 1 0-2h1zM5 2h6a3 3 0 0 1 3 3v6a3 3 0 0 1-3 3H5a3 3 0 0 1-3-3V5a3 3 0 0 1 3-3zm0 2a1 1 0 0 0-1 1v6a1 1 0 0 0 1 1h6a1 1 0 0 0 1-1V5a1 1 0 0 0-1-1H5z" id="a"/></defs><g fill="none" fill-rule="evenodd"><mask id="b" fill="#fff"><use xlink:href="#a"/></mask><use fill="#000" fill-rule="nonzero" xlink:href="#a"/><path d="M0 0h16v16H0z" mask="url(#b)" fill="#000"/></g></svg>