<svg width="16" height="16" viewBox="0 0 16 16" xmlns="http://www.w3.org/2000/svg"><title>icn/podcast</title><path d="M8.588 7.942l1.173 5.862A1 1 0 0 1 8.78 15H7.22a1 1 0 0 1-.98-1.196l1.172-5.862a3.014 3.014 0 0 0 1.176 0zm-3.416-4.77a1 1 0 1 1 1.414 1.414 2 2 0 0 0 0 2.828 1 1 0 0 1-1.414 1.414 4 4 0 0 1 0-5.656zm5.656 5.656a1 1 0 1 1-1.414-1.414 2 2 0 0 0 0-2.828 1 1 0 0 1 1.414-1.414 4 4 0 0 1 0 5.656zM3.05 1.05a1 1 0 0 1 1.414 1.414 5 5 0 0 0 0 7.072A1 1 0 0 1 3.05 10.95a7 7 0 0 1 0-9.9zm9.9 9.9a1 1 0 0 1-1.414-1.414 5 5 0 0 0 0-7.072A1 1 0 1 1 12.95 1.05a7 7 0 0 1 0 9.9zM8 7a1 1 0 1 1 0-2 1 1 0 0 1 0 2z" fill="#000" fill-rule="evenodd"/></svg>