<svg xmlns="http://www.w3.org/2000/svg" width="16" height="16"><path fill-rule="evenodd" d="M8.588 8.942l1.173 5.862a1 1 0 0 1-.785 1.177A1 1 0 0 1 8.78 16H7.22a1 1 0 0 1-1-1 1 1 0 0 1 .02-.196l1.172-5.862a3.014 3.014 0 0 0 1.176 0zM8 7.5a1.5 1.5 0 1 1 0-3 1.5 1.5 0 0 1 0 3zM4.464 2.464A1 1 0 0 1 5.88 3.88a3 3 0 0 0 0 4.242 1 1 0 0 1-1.415 1.415 5 5 0 0 1 0-7.072zm7.072 7.072A1 1 0 0 1 10.12 8.12a3 3 0 0 0 0-4.242 1 1 0 0 1 1.415-1.415 5 5 0 0 1 0 7.072zM2.343.343a1 1 0 1 1 1.414 1.414 6 6 0 0 0 0 8.486 1 1 0 1 1-1.414 1.414 8 8 0 0 1 0-11.314zm11.314 11.314a1 1 0 1 1-1.414-1.414 6 6 0 0 0 0-8.486A1 1 0 0 1 13.657.343a8 8 0 0 1 0 11.314z"/></svg>