<svg xmlns="http://www.w3.org/2000/svg" width="16" height="16" viewBox="0 0 16 16">
  <path fill="#000000" fill-rule="evenodd" d="M5,12 L15,12 C15.5522847,12 16,12.4477153 16,13 C16,13.5522847 15.5522847,14 15,14 L5,14 C5,14.5522847 4.55228475,15 4,15 C3.44771525,15 3,14.5522847 3,14 L3,12 C3,11.4477153 3.44771525,11 4,11 C4.55228475,11 5,11.4477153 5,12 Z M2,12 L1,12 C0.44771525,12 -6.76353751e-17,12.4477153 0,13 C6.76353751e-17,13.5522847 0.44771525,14 1,14 L2,14 L2,12 L2,12 Z M13,7 L15,7 C15.5522847,7 16,7.44771525 16,8 C16,8.55228475 15.5522847,9 15,9 L13,9 C13,9.55228475 12.5522847,10 12,10 C11.4477153,10 11,9.55228475 11,9 L11,7 C11,6.44771525 11.4477153,6 12,6 C12.5522847,6 13,6.44771525 13,7 L13,7 Z M10,7 L1,7 C0.44771525,7 -6.76353751e-17,7.44771525 0,8 C6.76353751e-17,8.55228475 0.44771525,9 1,9 L10,9 L10,7 L10,7 Z M6,2 L15,2 C15.5522847,2 16,2.44771525 16,3 C16,3.55228475 15.5522847,4 15,4 L6,4 C6,4.55228475 5.55228475,5 5,5 C4.44771525,5 4,4.55228475 4,4 L4,2 C4,1.44771525 4.44771525,1 5,1 C5.55228475,1 6,1.44771525 6,2 Z M3,2 L1,2 C0.44771525,2 -6.76353751e-17,2.44771525 0,3 C6.76353751e-17,3.55228475 0.44771525,4 1,4 L3,4 L3,2 L3,2 Z"/>
</svg>
