<svg xmlns="http://www.w3.org/2000/svg" width="16" height="16" viewBox="0 0 16 16">
  <path fill="#000000" d="M8,16 C3.581722,16 0,12.418278 0,8 C0,3.581722 3.581722,0 8,0 C12.418278,0 16,3.581722 16,8 C16,12.418278 12.418278,16 8,16 Z M8,14 C11.3137085,14 14,11.3137085 14,8 C14,4.6862915 11.3137085,2 8,2 C4.6862915,2 2,4.6862915 2,8 C2,11.3137085 4.6862915,14 8,14 Z M3.72577818,10.595825 C4.41229971,9.70933168 5.69374771,9 8,9 C10.3127499,9 11.5949128,9.70068823 12.2800103,10.5862904 C11.4038797,12.0330786 9.81485816,13 8,13 C6.18913152,13 4.60310779,12.0373252 3.72577818,10.595825 L3.72577818,10.595825 Z M8,8 C6.8954305,8 6,7.1045695 6,6 C6,4.8954305 6.8954305,4 8,4 C9.1045695,4 10,4.8954305 10,6 C10,7.1045695 9.1045695,8 8,8 Z"/>
</svg>
