<svg xmlns="http://www.w3.org/2000/svg" width="16" height="16" viewBox="0 0 16 16">
  <path fill="#000000" d="M6.26756439,9 C6.61337381,8.40219863 7.25971764,8 8,8 C8.74028236,8 9.38662619,8.40219863 9.73243561,9 L11,9 C11.5522847,9 12,9.44771525 12,10 C12,10.5522847 11.5522847,11 11,11 L9.73243561,11 C9.38662619,11.5978014 8.74028236,12 8,12 C7.25971764,12 6.61337381,11.5978014 6.26756439,11 L5,11 C4.44771525,11 4,10.5522847 4,10 C4,9.44771525 4.44771525,9 5,9 L6.26756439,9 L6.26756439,9 Z M7,2 L4,2 C3.44771525,2 3,2.44771525 3,3 L3,13 C3,13.5522847 3.44771525,14 4,14 L12,14 C12.5522847,14 13,13.5522847 13,13 L13,3 C13,2.44771525 12.5522847,2 12,2 L11,2 L11,5.5145898 C11,5.68027523 10.8656854,5.8145898 10.7,5.8145898 C10.6534265,5.8145898 10.6074926,5.80374628 10.5658359,5.78291796 L9.13416408,5.06708204 C9.04970583,5.02485292 8.95029417,5.02485292 8.86583592,5.06708204 L7.43416408,5.78291796 C7.28597053,5.85701474 7.10576862,5.79694743 7.03167184,5.64875388 C7.01084353,5.60709725 7,5.56116333 7,5.5145898 L7,2 Z M4,0 L12,0 C13.6568542,-3.04359188e-16 15,1.34314575 15,3 L15,13 C15,14.6568542 13.6568542,16 12,16 L4,16 C2.34314575,16 1,14.6568542 1,13 L1,3 C1,1.34314575 2.34314575,3.04359188e-16 4,0 Z M8,11 C8.55228475,11 9,10.5522847 9,10 C9,9.44771525 8.55228475,9 8,9 C7.44771525,9 7,9.44771525 7,10 C7,10.5522847 7.44771525,11 8,11 Z"/>
</svg>
