<svg xmlns="http://www.w3.org/2000/svg" width="16" height="16" viewBox="0 0 16 16"><path d="M8 16A8 8 0 1 1 8 0a8 8 0 0 1 0 16zm0-2A6 6 0 1 0 8 2a6 6 0 0 0 0 12zm-.778-4.151c0-.301.014-.575.044-.82a3.2 3.2 0 0 1 .154-.68c.073-.208.17-.4.294-.575.123-.176.278-.343.465-.503a4.81 4.81 0 0 0 .755-.758c.185-.242.277-.506.277-.793 0-.356-.074-.617-.222-.783-.148-.166-.37-.25-.667-.25a.92.92 0 0 0-.342.065.806.806 0 0 0-.29.199 1.04 1.04 0 0 0-.209.345 1.5 1.5 0 0 0-.088.506H5.082c.005-.51.092-.948.263-1.313.171-.364.401-.664.69-.899.29-.234.63-.406 1.023-.516.392-.11.813-.164 1.264-.164.497 0 .944.058 1.34.174.397.117.733.289 1.008.517.276.227.487.51.633.847.146.337.218.727.218 1.17 0 .295-.042.56-.126.792-.084.233-.2.449-.349.65a4.4 4.4 0 0 1-.523.584c-.2.19-.414.389-.642.598a2.73 2.73 0 0 0-.332.349c-.089.114-.16.233-.212.359a1.868 1.868 0 0 0-.116.41c-.025.148-.04.31-.044.489H7.222zm-.28 2.078c0-.164.03-.317.092-.458a1.05 1.05 0 0 1 .263-.366c.114-.103.248-.183.403-.243.155-.059.328-.089.52-.089.191 0 .364.03.52.09.154.059.289.14.403.242.114.103.201.224.263.366.061.141.092.294.092.458 0 .164-.03.316-.092.458a1.05 1.05 0 0 1-.263.365 1.278 1.278 0 0 1-.404.243c-.155.06-.328.089-.52.089-.19 0-.364-.03-.519-.089-.155-.06-.29-.14-.403-.243a1.05 1.05 0 0 1-.263-.365 1.135 1.135 0 0 1-.093-.458z"/></svg>