<svg xmlns="http://www.w3.org/2000/svg" width="16" height="16" viewBox="0 0 16 16"><path fill-rule="evenodd" d="M8 16A8 8 0 1 1 8 0a8 8 0 0 1 0 16zm-1.46-5.602h2.233a3.97 3.97 0 0 1 .051-.558c.029-.17.073-.326.133-.469.06-.143.14-.28.242-.41.102-.13.228-.263.38-.399.26-.24.504-.467.733-.683a5.03 5.03 0 0 0 .598-.668c.17-.23.302-.477.399-.742.096-.266.144-.568.144-.907 0-.505-.083-.95-.25-1.335a2.55 2.55 0 0 0-.723-.97c-.315-.26-.699-.456-1.152-.589a5.441 5.441 0 0 0-1.531-.2c-.516 0-.998.063-1.445.188a3.19 3.19 0 0 0-1.168.59c-.331.268-.594.61-.79 1.027-.195.417-.295.917-.3 1.5h2.64c.006-.224.04-.416.102-.578.062-.161.142-.293.238-.394a.921.921 0 0 1 .332-.227c.125-.05.255-.074.39-.074.34 0 .593.095.763.285.169.19.254.488.254.895 0 .328-.106.63-.317.906-.21.276-.499.565-.863.867-.214.182-.39.374-.531.574-.141.2-.253.42-.336.657a3.656 3.656 0 0 0-.176.777 7.89 7.89 0 0 0-.05.937zm-.321 2.375c0 .188.035.362.105.524.07.161.17.3.301.418.13.117.284.21.46.277.178.068.376.102.595.102.218 0 .416-.034.593-.102.178-.068.331-.16.461-.277a1.2 1.2 0 0 0 .301-.418c.07-.162.106-.336.106-.524 0-.187-.036-.362-.106-.523a1.2 1.2 0 0 0-.3-.418 1.461 1.461 0 0 0-.462-.277 1.651 1.651 0 0 0-.593-.102c-.22 0-.417.034-.594.102-.177.067-.33.16-.461.277a1.2 1.2 0 0 0-.3.418c-.071.161-.106.336-.106.523z"/></svg>