<svg width="16" height="16" viewBox="0 0 16 16" xmlns="http://www.w3.org/2000/svg"><title>icn/redo</title><path d="M4.625 4.423l1.757 1.439a.5.5 0 0 1-.206.877L1.6 7.752A.497.497 0 0 1 1 7.26l.028-4.739c0-.113.04-.223.11-.311a.49.49 0 0 1 .695-.074L3.08 3.158A6.866 6.866 0 0 1 8.08 1C11.9 1 15 4.134 15 8s-3.099 7-6.921 7a6.87 6.87 0 0 1-5.116-2.286 1.008 1.008 0 0 1 .064-1.413.98.98 0 0 1 1.397.066A4.902 4.902 0 0 0 8.08 13c2.73 0 4.944-2.239 4.944-5s-2.214-5-4.944-5c-1.313 0-2.54.52-3.454 1.423z" fill="#000" fill-rule="nonzero"/></svg>