<svg width="16" height="16" viewBox="0 0 16 16" xmlns="http://www.w3.org/2000/svg"><title>icn/repeat</title><path d="M11.375 4.423A4.897 4.897 0 0 0 7.921 3c-2.73 0-4.944 2.239-4.944 5s2.214 5 4.944 5c1.41 0 2.723-.6 3.655-1.633a.98.98 0 0 1 1.397-.066c.403.373.432 1.005.064 1.413A6.87 6.87 0 0 1 7.921 15C4.1 15 1 11.866 1 8s3.099-7 6.921-7c1.915 0 3.706.792 4.999 2.158l1.247-1.021a.49.49 0 0 1 .695.074c.07.088.11.198.11.311L15 7.26a.497.497 0 0 1-.6.492L9.824 6.739a.5.5 0 0 1-.206-.877l1.757-1.439z" fill="#000" fill-rule="nonzero"/></svg>