<svg xmlns="http://www.w3.org/2000/svg" width="16" height="16" viewBox="0 0 16 16">
  <path fill="#000000" d="M11.4936981,4.42296966 C10.5694613,3.51935683 9.32772029,3 8,3 C5.23857625,3 3,5.23857625 3,8 C3,10.7614237 5.23857625,13 8,13 C9.42640106,13 10.7541166,12.4008632 11.6965186,11.3669205 C12.0685557,10.9587454 12.7010426,10.9294498 13.1092176,11.3014869 C13.5173927,11.6735239 13.5466883,12.3060108 13.1746513,12.7141859 C11.8571385,14.1596759 9.99494046,15 8,15 C4.13400675,15 1,11.8659932 1,8 C1,4.13400675 4.13400675,1 8,1 C9.93703057,1 11.7477364,1.79243881 13.0555035,3.15824462 L14.3168869,2.13679645 C14.5314899,1.96301442 14.8463381,1.9961063 15.0201201,2.21070923 C15.0915705,2.29894308 15.1308642,2.40886697 15.1315383,2.52240071 L15.1596687,7.26012902 C15.1613083,7.53626652 14.9387838,7.76144934 14.6626463,7.76308892 C14.6257235,7.76330815 14.5888901,7.7594368 14.5528197,7.75154568 L9.92447078,6.73900086 C9.65470843,6.6799849 9.48386472,6.41345741 9.54288069,6.14369506 C9.56714506,6.03278245 9.62843459,5.9334303 9.71666844,5.86197994 L11.4936981,4.42296966 Z"/>
</svg>
