<svg width="16" height="16" viewBox="0 0 16 16" xmlns="http://www.w3.org/2000/svg">
  <title>
    rocket
  </title>
  <path d="M3.16127198 8.42506766l-2.01634897.0630142c-.0827774.00258693-.1629419-.02916055-.22150294-.08772159-.1171573-.11715729-.11715734-.30710673 0-.42426407l2.41432566-2.41432566c.03982306-.03982305.09005153-.06763233.14493904-.08024632l2.13907954-.49159304c-.0719651.09656962-.1456445.19640377-.22123129.29970531-.35966245.49153678-1.73373256 2.43384055-1.97211847 2.76548848-.0906512.12611606-.17950784.24917876-.26714257.36994269zm7.8197092 1.92232383l-.49192132 2.14050782c-.01261398.05488752-.04042323.10511602-.0802463.14493907l-2.41432565 2.41432566c-.11715734.11715734-.3071068.11715727-.42426407 0-.0585611-.0585611-.09030857-.13872558-.08772161-.22150296l.06302428-2.01667222c.11645794-.08457591.23499421-.17024741.3562609-.25751019.36393867-.26188803 2.29475395-1.62840806 2.77858391-1.98229272.10365218-.07581367.20378637-.14967955.30060986-.22179446zM7.85049305 3.87745035c1.4453208-1.4453208 3.30683984-1.89262628 5.5845571-1.34191642.53985028 2.2885769.0925448 4.15009595-1.34191639 5.58455714-1.19076638 1.19076637-3.23371785 2.46918381-5.72915136 4.3149378-.12698676.09392598-.36558304.32060624-.71578906.68004056-.38541442.39556522-1.01852354.40379842-1.4140914.01838659a.99933027.99933027 0 0 1-.00925435-.00913485L2.84636558 11.745882c-.3905361-.3905361-.39053608-1.02372022 6e-8-1.41425635a1.00008885 1.00008885 0 0 1 .00929332-.00917277c.35910452-.34984683.58573666-.58846394.6798963-.71585118 1.83723208-2.4855654 3.11640047-4.53061404 4.31493779-5.72915136zm1.34191642 2.90072427c.39052429.3905243 1.02368927.3905243 1.41421356 0 .39052429-.3905243.39052429-1.02368927 0-1.41421356-.3905243-.3905243-1.02368927-.3905243-1.41421356 0-.3905243.39052429-.3905243 1.02368927 0 1.41421356z" fill-rule="evenodd"/>
</svg>
