<svg width="16" height="16" viewBox="0 0 16 16" xmlns="http://www.w3.org/2000/svg" xmlns:xlink="http://www.w3.org/1999/xlink">
  <title>
    icn/scale
  </title>
  <defs>
    <path d="M11.2914268 4H4.70789508l1.1631524 3.60290745c.43656021 1.35226136-.27124374 2.81389395-1.58092437 3.26464775C4.03524151 10.9552779 3.76832971 11 3.49966092 11 2.11913631 11 1 9.844478 1 8.41906938c0-.27740384.04331382-.55299355.12827435-.81616193l1.2058562-3.73518405c.01020705-.03161671.02150302-.06254224.0338305-.09274694C2.14338398 3.59160068 2 3.3125449 2 3c0-.55228475.44771525-1 1-1h10c.5522847 0 1 .44771525 1 1 0 .31280132-.1436193.59205855-.368514.7754276.012336.03017322.0235874.06095537.0337053.0922958l1.2058562 3.73518405c.4365602 1.35226136-.2712438 2.81389395-1.5809244 3.26464775C13.0352415 10.9552779 12.7683297 11 12.4996609 11 11.1191363 11 10 9.844478 10 8.41906938c0-.27740384.0433138-.55299355.1282744-.81616193L11.2914268 4zM7 12V5.99997272c0-.55227536.44769736-.99998843.99997272-1.0000078.5522503-.00001938.99995334.44765225.99997271.99990255V12H11c.5522847 0 1 .4477153 1 1s-.4477153 1-1 1H5c-.55228475 0-1-.4477153-1-1s.44771525-1 1-1h2zM3.07082496 8.27147658c-.01536406.04759075-.02319683.09742774-.02319683.1475928 0 .25776753.20238197.46672941.45203279.46672941.04858543 0 .09685313-.00808743.14294532-.02395102.23683956-.08151325.36483715-.34583144.28589063-.59037119l-.42883595-1.32833519-.42883596 1.32833519zm9.42883594-1.32833519l-.4288359 1.32833519c-.0153641.04759075-.0231969.09742774-.0231969.1475928 0 .25776753.202382.46672941.4520328.46672941.0485854 0 .0968531-.00808743.1429453-.02395102.2368396-.08151325.3648372-.34583144.2858907-.59037119l-.428836-1.32833519z" id="a"/>
  </defs>
  <use xlink:href="#a" fill-rule="evenodd"/>
</svg>
