<svg width="16" height="16" viewBox="0 0 16 16" xmlns="http://www.w3.org/2000/svg"><title>icn/scale</title><path d="M4.278 8.414a.785.785 0 0 0-.066-.244L3.5 6.582 2.787 8.17a.786.786 0 0 0-.065.244h1.556zm9 0a.785.785 0 0 0-.066-.244L12.5 6.582l-.713 1.588a.786.786 0 0 0-.065.244h1.556zM7 13V6a1 1 0 0 1 2 0v7h2a1 1 0 0 1 0 2H5a1 1 0 0 1 0-2h2zM3 1h10a1 1 0 0 1 0 2H3a1 1 0 1 1 0-2zm9.891 2.254l1.888 4.209a2.511 2.511 0 0 1-1.254 3.316c-.322.146-.672.221-1.025.221-1.38 0-2.5-1.123-2.5-2.508 0-.355.075-.705.22-1.029l1.888-4.209a.429.429 0 0 1 .783 0zm-9 0L5.78 7.463a2.511 2.511 0 0 1-1.254 3.316c-.322.146-.672.221-1.025.221C2.12 11 1 9.877 1 8.492c0-.355.075-.705.22-1.029l1.888-4.209a.429.429 0 0 1 .783 0z" fill="#000" fill-rule="evenodd"/></svg>