<svg xmlns="http://www.w3.org/2000/svg" width="16" height="16" viewBox="0 0 16 16"><path fill-rule="evenodd" d="M13.99 9a.792.792 0 0 0-.078-.231L13 7l-.912 1.769a.791.791 0 0 0-.077.231h1.978zm-10 0a.792.792 0 0 0-.078-.231L3 7l-.912 1.769A.791.791 0 0 0 2.011 9h1.978zM2 0h12a1 1 0 0 1 0 2H2a1 1 0 1 1 0-2zm3 14h6a1 1 0 0 1 0 2H5a1 1 0 0 1 0-2zM8 4a1 1 0 0 1 1 1v9H7V5a1 1 0 0 1 1-1zm-4.53-.714l2.265 4.735c.68 1.42.006 3.091-1.504 3.73A3.161 3.161 0 0 1 3 12c-1.657 0-3-1.263-3-2.821 0-.4.09-.794.264-1.158L2.53 3.286a.53.53 0 0 1 .94 0zm10 0l2.265 4.735c.68 1.42.006 3.091-1.504 3.73A3.161 3.161 0 0 1 13 12c-1.657 0-3-1.263-3-2.821 0-.4.09-.794.264-1.158l2.266-4.735a.53.53 0 0 1 .94 0z"/></svg>