<svg width="16" height="16" viewBox="0 0 16 16" xmlns="http://www.w3.org/2000/svg" xmlns:xlink="http://www.w3.org/1999/xlink">
  <title>
    icn/screen-normal
  </title>
  <defs>
    <path d="M12 12v1c0 .5522847-.4477153 1-1 1s-1-.4477153-1-1v-2c0-.5522847.4477153-1 1-1h2c.5522847 0 1 .4477153 1 1s-.4477153 1-1 1h-1zm-1-6c-.5522847 0-1-.44771525-1-1V3c0-.55228475.4477153-1 1-1s1 .44771525 1 1v1h1c.5522847 0 1 .44771525 1 1s-.4477153 1-1 1h-2zm-6 4c.55228475 0 1 .4477153 1 1v2c0 .5522847-.44771525 1-1 1s-1-.4477153-1-1v-1H3c-.55228475 0-1-.4477153-1-1s.44771525-1 1-1h2zM4 4V3c0-.55228475.44771525-1 1-1s1 .44771525 1 1v2c0 .55228475-.44771525 1-1 1H3c-.55228475 0-1-.44771525-1-1s.44771525-1 1-1h1zm3 2h2c.55228475 0 1 .44771525 1 1v2c0 .55228475-.44771525 1-1 1H7c-.55228475 0-1-.44771525-1-1V7c0-.55228475.44771525-1 1-1z" id="a"/>
  </defs>
  <use xlink:href="#a" fill-rule="evenodd"/>
</svg>
