<svg width="16" height="16" viewBox="0 0 16 16" xmlns="http://www.w3.org/2000/svg" xmlns:xlink="http://www.w3.org/1999/xlink">
  <title>
    icn/screen-full
  </title>
  <defs>
    <path d="M12 12v-2c0-.55228475.4477153-1 1-1s1 .44771525 1 1v3c0 .5522847-.4477153 1-1 1h-3c-.55228475 0-1-.4477153-1-1s.44771525-1 1-1h2zm-9 2c-.55228475 0-1-.4477153-1-1v-3c0-.55228475.44771525-1 1-1s1 .44771525 1 1v2h2c.55228475 0 1 .4477153 1 1s-.44771525 1-1 1H3zM13 2c.5522847 0 1 .44771525 1 1v3c0 .55228475-.4477153 1-1 1s-1-.44771525-1-1V4h-2c-.55228475 0-1-.44771525-1-1s.44771525-1 1-1h3zM4 4v2c0 .55228475-.44771525 1-1 1s-1-.44771525-1-1V3c0-.55228475.44771525-1 1-1h3c.55228475 0 1 .44771525 1 1s-.44771525 1-1 1H4zm3 2h2c.55228475 0 1 .44771525 1 1v2c0 .55228475-.44771525 1-1 1H7c-.55228475 0-1-.44771525-1-1V7c0-.55228475.44771525-1 1-1z" id="a"/>
  </defs>
  <use xlink:href="#a" fill-rule="evenodd"/>
</svg>
