<svg width="16" height="16" viewBox="0 0 16 16" xmlns="http://www.w3.org/2000/svg"><title>icn/settings</title><path d="M8 10a2 2 0 1 0 0-4 2 2 0 0 0 0 4zM3.31 6.264l-.933-1.239a1 1 0 0 1 .022-1.23l.276-.341a1 1 0 0 1 1.199-.278l1.382.644a4.98 4.98 0 0 1 1.182-.571l.373-1.492A1 1 0 0 1 7.78 1h.438a1 1 0 0 1 .97.757l.373 1.492a4.98 4.98 0 0 1 1.182.57l1.382-.643a1 1 0 0 1 1.2.277l.275.341a1 1 0 0 1 .022 1.23l-.932 1.24c.148.401.246.826.287 1.268l1.375.701a1 1 0 0 1 .52 1.116l-.099.427a1 1 0 0 1-.956.775l-1.533.028a5.022 5.022 0 0 1-.819 1.025l.317 1.496a1 1 0 0 1-.54 1.106l-.394.192a1 1 0 0 1-1.204-.255l-.995-1.185a5.047 5.047 0 0 1-1.3 0l-.995 1.185a1 1 0 0 1-1.204.256l-.394-.193a1 1 0 0 1-.54-1.106l.317-1.496a5.022 5.022 0 0 1-.819-1.025l-1.533-.028a1 1 0 0 1-.956-.775l-.099-.427a1 1 0 0 1 .52-1.116l1.375-.701c.04-.442.14-.867.287-1.268z" fill="#000" fill-rule="nonzero"/></svg>