<svg xmlns="http://www.w3.org/2000/svg" width="16" height="16" viewBox="0 0 16 16"><path d="M4 0h8c1.657 0 3 1.373 3 3.067v7.346c0 1.065-.54 2.053-1.426 2.611l-4 2.52a2.944 2.944 0 0 1-3.148 0l-4-2.52A3.083 3.083 0 0 1 1 10.414V3.066C1 1.373 2.343 0 4 0zm0 2.045c-.552 0-1 .457-1 1.022v7.346c0 .355.18.685.475.87l4 2.52a.981.981 0 0 0 1.05 0l4-2.52c.295-.185.475-.515.475-.87V3.067c0-.565-.448-1.022-1-1.022H4zm0 1.533c0-.282.224-.511.5-.511h4V12.1a.52.52 0 0 1-.069.258.494.494 0 0 1-.684.183l-3.5-2.098a.513.513 0 0 1-.247-.44V3.577z"/></svg>