<svg xmlns="http://www.w3.org/2000/svg" width="16" height="16" viewBox="0 0 16 16">
  <path fill="#000000" d="M10.6691639,9.31077819 C11.888414,9.07789671 13.1744611,9.62268348 13.830127,10.7583302 C14.6585541,12.1932081 14.1669287,14.0279793 12.7320508,14.8564065 C11.2971729,15.6848336 9.46240172,15.1932081 8.6339746,13.7583302 C7.97830863,12.6226835 8.14953296,11.2365407 8.96083931,10.2970798 C8.9260566,10.2548537 8.89428451,10.2092002 8.8660254,10.160254 L4.3660254,2.3660254 C4.08988303,1.88773278 4.25375818,1.27614237 4.73205081,1 C5.21034343,0.723857625 5.82193384,0.88773278 6.09807621,1.3660254 L10.5980762,9.16025404 C10.6263353,9.20920025 10.6499863,9.25954242 10.6691639,9.31077819 L10.6691639,9.31077819 Z M7.38675135,9.66025404 L7.09807621,10.160254 C7.0698171,10.2092002 7.03804502,10.2548537 7.0032623,10.2970798 C7.81456866,11.2365407 7.98579298,12.6226835 7.33012702,13.7583302 C6.50169989,15.1932081 4.66692868,15.6848336 3.23205081,14.8564065 C1.79717294,14.0279793 1.30554747,12.1932081 2.1339746,10.7583302 C2.78964056,9.62268348 4.07568759,9.07789671 5.29493774,9.31077819 C5.31411528,9.25954242 5.3377663,9.20920025 5.3660254,9.16025404 L6.23205081,7.66025404 L7.38675135,9.66025404 L7.38675135,9.66025404 Z M9.69615242,5.66025404 L8.54145188,3.66025404 L9.8660254,1.3660254 C10.1421678,0.88773278 10.7537582,0.723857625 11.2320508,1 C11.7103434,1.27614237 11.8742186,1.88773278 11.5980762,2.3660254 L9.69615242,5.66025404 L9.69615242,5.66025404 Z M4.23205081,13.1243557 C4.71034343,13.400498 5.32193384,13.2366229 5.59807621,12.7583302 C5.87421859,12.2800376 5.71034343,11.6684472 5.23205081,11.3923048 C4.75375818,11.1161625 4.14216778,11.2800376 3.8660254,11.7583302 C3.58988303,12.2366229 3.75375818,12.8482133 4.23205081,13.1243557 Z M11.7320508,13.1243557 C12.2103434,12.8482133 12.3742186,12.2366229 12.0980762,11.7583302 C11.8219338,11.2800376 11.2103434,11.1161625 10.7320508,11.3923048 C10.2537582,11.6684472 10.089883,12.2800376 10.3660254,12.7583302 C10.6421678,13.2366229 11.2537582,13.400498 11.7320508,13.1243557 Z"/>
</svg>
