<svg xmlns="http://www.w3.org/2000/svg" width="16" height="16" viewBox="0 0 16 16">
  <path fill-rule="evenodd" d="M10.5 13v.5978762c0 .0937098-.0263347.1855336-.0760008.2649994-.1463552.2341683-.4548304.3053549-.68899867.1589997l-2.55660189-1.5978761c-.06438456-.0402404-.11875933-.0946152-.15899968-.1589997-.14635516-.2341683-.07516858-.5426435.15899968-.6889987l2.55660189-1.59787613c.0794658-.04966613.17128961-.07600085.26499947-.07600085.2761424 0 .5.22385758.5.49999998V11H12c.5522847 0 1-.4477153 1-1 0-.55228475-.4477153-1-1-1H2c-.55228475 0-1-.44771525-1-1s.44771525-1 1-1h10c1.6568542 0 3 1.34314575 3 3 0 1.6568542-1.3431458 3-3 3h-1.5zM2 3h12c.5522847 0 1 .44771525 1 1s-.4477153 1-1 1H2c-.55228475 0-1-.44771525-1-1s.44771525-1 1-1zm0 8h3c.55228475 0 1 .4477153 1 1s-.44771525 1-1 1H2c-.55228475 0-1-.4477153-1-1s.44771525-1 1-1z"/>
</svg>
