<svg xmlns="http://www.w3.org/2000/svg" width="16" height="16" viewBox="0 0 16 16">
  <path fill-rule="evenodd" d="M2 3h4c.55228475 0 1 .44771525 1 1s-.44771525 1-1 1H2c-.55228475 0-1-.44771525-1-1s.44771525-1 1-1zm9 6C9.34314575 9 8 7.65685425 8 6s1.34314575-3 3-3c1.6568542 0 3 1.34314575 3 3s-1.3431458 3-3 3zM2 7h4c.55228475 0 1 .44771525 1 1s-.44771525 1-1 1H2c-.55228475 0-1-.44771525-1-1s.44771525-1 1-1zm0 4h12c.5522847 0 1 .4477153 1 1s-.4477153 1-1 1H2c-.55228475 0-1-.4477153-1-1s.44771525-1 1-1z"/>
</svg>
