<svg width="16" height="16" viewBox="0 0 16 16" xmlns="http://www.w3.org/2000/svg"><title>icn/star-o</title><path d="M10.357 10.682a3 3 0 0 1 .655-2.083l1.074-1.337-1.517-.394a3 3 0 0 1-1.825-1.37L8 4.244l-.744 1.252A3 3 0 0 1 5.43 6.868l-1.516.394 1.074 1.337a3 3 0 0 1 .655 2.083l-.112 1.644 1.295-.551a3 3 0 0 1 2.348 0l1.295.55-.112-1.643zm-5.544 4.122a1 1 0 0 1-1.389-.989l.223-3.269a1 1 0 0 0-.218-.694L1.386 7.309a1 1 0 0 1 .528-1.595l3.014-.782a1 1 0 0 0 .609-.457L7.14 1.777a1 1 0 0 1 1.72 0l1.603 2.698a1 1 0 0 0 .609.457l3.014.782a1 1 0 0 1 .528 1.595l-2.043 2.543a1 1 0 0 0-.219.694l.224 3.27a1 1 0 0 1-1.39.988l-2.795-1.189a1 1 0 0 0-.782 0l-2.796 1.189z" fill="#000" fill-rule="nonzero"/></svg>