<svg xmlns="http://www.w3.org/2000/svg" width="16" height="16" viewBox="0 0 16 16"><path d="M10.975 10.99a3 3 0 0 1 .655-2.083l1.54-1.916-2.219-.576a3 3 0 0 1-1.825-1.37L8 3.15 6.874 5.044a3 3 0 0 1-1.825 1.371l-2.218.576 1.54 1.916a3 3 0 0 1 .654 2.083L4.86 13.39l1.965-.836a3 3 0 0 1 2.348 0l1.965.836-.164-2.399zM7.61 14.394l-3.465 1.473a1 1 0 0 1-1.39-.989l.276-4.024a1 1 0 0 0-.219-.694L.303 7.037A1 1 0 0 1 .83 5.443l3.715-.964a1 1 0 0 0 .609-.457L7.14.682a1 1 0 0 1 1.72 0l1.985 3.34a1 1 0 0 0 .609.457l3.715.964a1 1 0 0 1 .528 1.594L13.19 10.16a1 1 0 0 0-.219.694l.275 4.024a1 1 0 0 1-1.389.989l-3.465-1.473a1 1 0 0 0-.782 0z"/></svg>