<svg width="16" height="16" viewBox="0 0 16 16" xmlns="http://www.w3.org/2000/svg"><path fill-rule="evenodd" clip-rule="evenodd" d="M15.747 9.441a.611.611 0 0 0 .224-.682l-.896-2.755-1.277-3.931-.14-.434-.06-.186-.226-.695-.003-.007-.068-.211a.307.307 0 0 0-.582 0l-.068.21-.003.008-.226.696-.06.185-.14.433-1.277 3.929H5.052L3.777 2.074l-.142-.435-.062-.19L3.35.755 3.347.75 3.278.54a.306.306 0 0 0-.58 0l-.07.21-.001.006-.224.691-.062.192-.141.435L.926 6.001.03 8.759a.61.61 0 0 0 .22.682L8 15.071l7.747-5.63Zm-7.748 3.776 6.345-4.61-.696-2.139L13.01 4.5l-.638 1.963A1.5 1.5 0 0 1 10.945 7.5H5.052a1.5 1.5 0 0 1-1.427-1.037l-.636-1.96-.636 1.96-.697 2.144L8 13.218Z" fill="#000"/></svg>
