<svg width="16" height="16" viewBox="0 0 16 16" xmlns="http://www.w3.org/2000/svg" xmlns:xlink="http://www.w3.org/1999/xlink">
  <title>
    icn/task-done
  </title>
  <defs>
    <path d="M7.64644661 7.85355339l1.41421356-1.41421356c.39052429-.39052429 1.02368923-.39052429 1.41421353 0 .3905243.39052429.3905243 1.02368927 0 1.41421356L8.35355339 9.97487373c-.19526215.19526217-.45118446.29289327-.70710678.29289327-.25592232 0-.51184464-.0976311-.70710678-.29289327L5.52512627 8.56066017c-.3905243-.39052429-.3905243-1.02368927 0-1.41421356.39052429-.39052429 1.02368927-.39052429 1.41421356 0l.70710678.70710678zM5 2h6c1.6568542 0 3 1.34314575 3 3v6c0 1.6568542-1.3431458 3-3 3H5c-1.65685425 0-3-1.3431458-3-3V5c0-1.65685425 1.34314575-3 3-3zm0 2c-.55228475 0-1 .44771525-1 1v6c0 .5522847.44771525 1 1 1h6c.5522847 0 1-.4477153 1-1V5c0-.55228475-.4477153-1-1-1H5z" id="a"/>
  </defs>
  <use xlink:href="#a"/>
</svg>
