<svg width="16" height="16" viewBox="0 0 16 16" xmlns="http://www.w3.org/2000/svg"><title>icn/template</title><path d="M4 1h8a3 3 0 0 1 3 3v8a3 3 0 0 1-3 3H4a3 3 0 0 1-3-3V4a3 3 0 0 1 3-3zm0 2a1 1 0 0 0-1 1v8a1 1 0 0 0 1 1h8a1 1 0 0 0 1-1V4a1 1 0 0 0-1-1H4zm.8 1h1.4a.8.8 0 0 1 .8.8v1.4a.8.8 0 0 1-.8.8H4.8a.8.8 0 0 1-.8-.8V4.8a.8.8 0 0 1 .8-.8zm3.7 0h3a.5.5 0 1 1 0 1h-3a.5.5 0 0 1 0-1zm0 2h3a.5.5 0 1 1 0 1h-3a.5.5 0 0 1 0-1zm-4 3h7a.5.5 0 1 1 0 1h-7a.5.5 0 0 1 0-1zm0 2h7a.5.5 0 1 1 0 1h-7a.5.5 0 1 1 0-1z" fill="#000" fill-rule="nonzero"/></svg>