<svg width="16" height="16" viewBox="0 0 16 16" xmlns="http://www.w3.org/2000/svg"><title>icn/terminal</title><path d="M6.707 8.707l-1.414 1.414a1 1 0 1 1-1.414-1.414L4.586 8l-.707-.707a1 1 0 1 1 1.414-1.414l1.414 1.414a1 1 0 0 1 0 1.414zM4 1h8c2.21 0 4 1.567 4 3.5v7c0 1.933-1.79 3.5-4 3.5H4c-2.21 0-4-1.567-4-3.5v-7C0 2.567 1.79 1 4 1zm0 2c-1.105 0-2 .746-2 1.667v6.666C2 12.253 2.895 13 4 13h8c1.105 0 2-.746 2-1.667V4.667C14 3.747 13.105 3 12 3H4zm5 6h2a1 1 0 0 1 0 2H9a1 1 0 0 1 0-2z" fill="#000" fill-rule="nonzero"/></svg>