<svg xmlns="http://www.w3.org/2000/svg" width="16" height="16" viewBox="0 0 16 16">
  <path d="M7 8c0 .25592232-.09763107.51184464-.29289322.70710678L5.29289322 10.1213203c-.3905243.3905243-1.02368927.3905243-1.41421356 0-.3905243-.39052425-.3905243-1.02368923 0-1.41421352L4.58578644 8l-.70710678-.70710678c-.3905243-.3905243-.3905243-1.02368927 0-1.41421356.3905243-.3905243 1.02368927-.3905243 1.41421356 0l1.41421356 1.41421356C6.90236893 7.48815536 7 7.74407768 7 8zM4 0h8c2.209139 0 4 1.790861 4 4v8c0 2.209139-1.790861 4-4 4H4c-2.209139 0-4-1.790861-4-4V4c0-2.209139 1.790861-4 4-4zm0 2c-1.1045695 0-2 .8954305-2 2v8c0 1.1045695.8954305 2 2 2h8c1.1045695 0 2-.8954305 2-2V4c0-1.1045695-.8954305-2-2-2H4zm5 7h2c.5522847 0 1 .44771525 1 1 0 .5522847-.4477153 1-1 1H9c-.55228475 0-1-.4477153-1-1 0-.55228475.44771525-1 1-1z"/>
</svg>
