<svg width="16" height="16" viewBox="0 0 16 16" xmlns="http://www.w3.org/2000/svg"><path d="M11.95 8.536l1.06-1.061a1 1 0 0 1 1.415 1.414l-1.061 1.06 1.06 1.061a1 1 0 0 1-1.414 1.415l-1.06-1.061-1.06 1.06a1 1 0 1 1-1.415-1.414l1.06-1.06-1.06-1.06a1 1 0 0 1 1.414-1.415l1.06 1.06zm-3.763-.489a1.995 1.995 0 0 0 .58 1.55l.354.353-.353.353a2 2 0 1 0 2.828 2.829l.354-.354.353.354c.07.069.142.132.218.189-.633.47-2.105.679-5.521.679-5.924 0-6-.669-6-2.16S1.964 8 7 8c.424 0 .819.016 1.187.047zM6.477 7a2.5 2.5 0 1 1 0-5 2.5 2.5 0 0 1 0 5z" fill="#000" fill-rule="evenodd"/></svg>