<svg xmlns="http://www.w3.org/2000/svg" width="16" height="16" viewBox="0 0 16 16">
  <path fill="#000000" fill-rule="evenodd" d="M10.5211265,8.01001764 C15.1034542,8.18999753 16,10.7554131 16,12.48 C16,14.0134455 15.9441751,14.7701291 12.1916788,14.9545379 C12.8006469,14.4156906 13,13.6235045 13,12.48 C13,10.5685008 12.1961211,8.97681439 10.5211265,8.01001764 L10.5211265,8.01001764 Z M8.85084671,6.78169132 C9.54763575,6.06182476 9.97643891,5.08098855 9.97643891,4 C9.97643891,2.91901145 9.54763575,1.93817524 8.85084671,1.21830868 C9.19841914,1.07752821 9.57837518,1 9.97643891,1 C11.6332932,1 12.9764389,2.34314575 12.9764389,4 C12.9764389,5.65685425 11.6332932,7 9.97643891,7 C9.57837518,7 9.19841914,6.92247179 8.85084671,6.78169132 L8.85084671,6.78169132 Z M5.97643891,7 C4.31958466,7 2.97643891,5.65685425 2.97643891,4 C2.97643891,2.34314575 4.31958466,1 5.97643891,1 C7.63329316,1 8.97643891,2.34314575 8.97643891,4 C8.97643891,5.65685425 7.63329316,7 5.97643891,7 Z M6,15 C0.0759028948,15 0,14.2194824 0,12.48 C1.82592993e-16,10.7405176 0.963761568,8 6,8 C11.0362384,8 12,10.6919336 12,12.48 C12,14.2680664 11.9240971,15 6,15 Z"/>
</svg>
