<svg width="16" height="16" viewBox="0 0 16 16" xmlns="http://www.w3.org/2000/svg" xmlns:xlink="http://www.w3.org/1999/xlink">
  <title>
    icn/users
  </title>
  <defs>
    <path d="M10.3792835 13.9998323C10.838907 13.5150597 11 12.8191051 11 11.84c0-1.5536022-.5463687-2.88217349-1.6827876-3.75211313C9.67363073 8.03090919 10.0667202 8 10.5 8c3.7771788 0 4.5 2.3073717 4.5 3.84 0 1.5326283-.0569272 2.16-4.5 2.16-.040604 0-.0808417-.0000559-.1207165-.0001677zM8.60047464 6.12543332C8.85562952 5.63973247 9 5.086726 9 4.5c0-.586726-.14437048-1.13973247-.39952536-1.62543332C9.05899136 2.33923512 9.73987938 2 10.5 2 11.8807119 2 13 3.11928813 13 4.5S11.8807119 7 10.5 7c-.76012062 0-1.44100864-.33923512-1.89952536-.87456668zM5.5 7C4.11928813 7 3 5.88071187 3 4.5S4.11928813 2 5.5 2 8 3.11928813 8 4.5 6.88071187 7 5.5 7zm0 7C1.05692717 14 1 13.3309849 1 11.84 1 10.3490151 1.72282118 8 5.5 8s4.5 2.3073717 4.5 3.84C10 13.3726283 9.94307283 14 5.5 14z" id="a"/>
  </defs>
  <use fill="#000" xlink:href="#a" fill-rule="evenodd"/>
</svg>
