<svg xmlns="http://www.w3.org/2000/svg" width="16" height="16" viewBox="0 0 16 16"><path d="M15.572 10.506c.867 1.42.375 3.247-1.098 4.082a3.184 3.184 0 0 1-1.57.412h-9.81C1.387 15 0 13.665 0 12.018a2.9 2.9 0 0 1 .427-1.512L5.332 2.47C6.2 1.05 8.096.577 9.57 1.412c.453.257.831.622 1.098 1.059l4.905 8.035zM8.89 3.479a1.014 1.014 0 0 0-.366-.353 1.053 1.053 0 0 0-1.412.353l-4.905 8.035a.967.967 0 0 0-.143.504c0 .549.462.994 1.032.994h9.81c.184 0 .364-.048.523-.137a.974.974 0 0 0 .366-1.361L8.889 3.479zM8 5a1 1 0 0 1 1 1v2a1 1 0 1 1-2 0V6a1 1 0 0 1 1-1zm0 7a1 1 0 1 1 0-2 1 1 0 0 1 0 2z"/></svg>