<svg width="39" height="50" viewBox="0 0 39 50" fill="none" xmlns="http://www.w3.org/2000/svg">
<path d="M38.2111 48.394C38.1598 48.2619 38.0838 48.1408 37.9825 48.032C37.8813 47.9225 37.7574 47.8363 37.6103 47.772C37.4632 47.7083 37.2941 47.6761 37.1032 47.6761C36.9123 47.6761 36.7433 47.7083 36.5961 47.772C36.4497 47.8363 36.3252 47.9232 36.2246 48.032C36.1233 48.1408 36.0473 48.2619 35.996 48.394C35.9447 48.526 35.9187 48.6615 35.9187 48.8011V48.8668C35.9187 49.0009 35.9433 49.1344 35.994 49.2678C36.0439 49.4019 36.1185 49.5237 36.2184 49.6339C36.3183 49.7441 36.4422 49.833 36.59 49.9001C36.7385 49.9672 36.9096 50 37.1032 50C37.2969 50 37.4679 49.9665 37.6164 49.9001C37.7642 49.833 37.8888 49.7441 37.988 49.6339C38.0879 49.5237 38.1625 49.4013 38.2125 49.2678C38.2624 49.1344 38.2877 49.0003 38.2877 48.8668V48.8011C38.2884 48.6615 38.2624 48.526 38.2111 48.394ZM37.9367 49.3143C37.858 49.458 37.7465 49.5723 37.6041 49.6579C37.4611 49.7434 37.2948 49.7872 37.1032 49.7872C36.9123 49.7872 36.7446 49.7441 36.6023 49.6579C36.4593 49.5723 36.3484 49.4574 36.2697 49.3143C36.1911 49.1713 36.1514 49.0119 36.1514 48.8374C36.1514 48.6574 36.1911 48.4959 36.2697 48.3522C36.3484 48.2092 36.4593 48.0963 36.6023 48.0128C36.7446 47.93 36.9116 47.8883 37.1032 47.8883C37.2941 47.8883 37.4611 47.93 37.6041 48.0128C37.7465 48.0963 37.858 48.2092 37.9367 48.3522C38.0154 48.4959 38.0551 48.6574 38.0551 48.8374C38.0551 49.0126 38.0154 49.1713 37.9367 49.3143Z" fill="#F79200"/>
<path d="M37.5071 48.9523C37.6042 48.8756 37.6521 48.7655 37.6521 48.6211C37.6521 48.4767 37.6035 48.3658 37.5071 48.2892C37.4099 48.2133 37.2744 48.1749 37.0999 48.1749H36.9254H36.7632H36.6182V49.4518H36.9254V49.0672H37.0999C37.1061 49.0672 37.1115 49.0666 37.117 49.0666L37.3777 49.4525H37.7267L37.4058 49.0111C37.4427 48.994 37.477 48.9756 37.5071 48.9523ZM36.9254 48.4322H37.1204C37.1957 48.4322 37.2505 48.448 37.2867 48.4794C37.323 48.5109 37.3408 48.5581 37.3408 48.6211C37.3408 48.684 37.323 48.7306 37.2867 48.7621C37.2505 48.7935 37.1957 48.8086 37.1204 48.8086H36.9254V48.4322Z" fill="#F79200"/>
<path d="M20.3783 49.4574L19.1726 49.9979V43.9454C19.1726 43.9454 24.3856 40.4917 25.5885 39.5515C28.7534 37.0778 32.5266 33.2191 32.5266 28.8861V27.3581L35.3158 25.1259H19.1726V19.3963H38.3452V28.8868C38.3452 41.2533 21.1119 49.1289 20.3783 49.4574ZM19.1788 5.76244C20.6308 5.95952 27.5066 7.14814 32.5273 12.422V16.7228H38.3458V10.289L37.6615 9.48979C30.5161 1.12772 19.8904 0.0656923 19.4409 0.0246346L19.1726 0V5.76381C19.1747 5.76312 19.1767 5.76312 19.1788 5.76244Z" fill="#FFBE12"/>
<path d="M19.1725 25.1266H0V10.2897L0.68361 9.49047C7.82901 1.12772 18.4547 0.0656923 18.9029 0.0246346L19.1725 0V5.76381C17.7314 5.96704 10.8077 7.19193 5.81718 12.4234V17.5234L3.31951 19.3977H19.1719V25.1266H19.1725ZM12.7559 39.5522C9.5897 37.0785 5.81718 33.581 5.81718 29.7456L7.20219 27.8015H0V29.7456C0 41.4586 17.2333 49.1296 17.9668 49.458L19.1732 49.9986V43.946C19.1726 43.946 13.9589 40.4924 12.7559 39.5522Z" fill="#F79200"/>
</svg>
