<svg width="36" height="36" viewBox="0 0 36 36" fill="none" xmlns="http://www.w3.org/2000/svg">
<circle cx="18" cy="18" r="18" fill="#6FDAC9"/>
<path fill-rule="evenodd" clip-rule="evenodd" d="M25.7071 19.2929L25 18.5858L23.5858 20L24.2929 20.7071L25.5858 22H8H7V24H8H25.5858L24.2929 25.2929L23.5858 26L25 27.4142L25.7071 26.7071L28.7071 23.7071L29.4142 23L28.7071 22.2929L25.7071 19.2929Z" fill="black"/>
<path fill-rule="evenodd" clip-rule="evenodd" d="M11.7071 16.2929L12.4142 17L11 18.4142L10.2929 17.7071L7.29289 14.7071L6.58579 14L7.29289 13.2929L10.2929 10.2929L11 9.58578L12.4142 11L11.7071 11.7071L10.4142 13H28H29V15H28H10.4142L11.7071 16.2929Z" fill="black"/>
</svg>
