<svg width="72" height="72" fill="none" xmlns="http://www.w3.org/2000/svg">
  <path d="M1.44 47.44V19.76A8.56 8.56 0 0110 11.2V48a4 4 0 004 4h56.56a7.44 7.44 0 01-7.44 7.44h-4.08v9.36l-9.36-9.36H13.44c-6.627 0-12-5.373-12-12z" fill="#AC7FFF" fill-opacity=".24"/>
  <path d="M71.5 40.88a2 2 0 01-4 0h4zM49.68 60v-2a2 2 0 011.46.633L49.68 60zm9.36 10h2a2 2 0 01-3.46 1.367L59.04 70zm8.46-20.92a2 2 0 114 0h-4zM2 48h2-2zm65.5-7.12V22h4v18.88h-4zM57.5 12H14V8h43.5v4zM4 22v26H0V22h4zm10 36h35.68v4H14v-4zm37.14.633l9.36 10-2.92 2.734-9.36-10 2.92-2.734zM57.04 70v-9.195h4V70h-4zM67.5 50.345V49.08h4v1.265h-4zM4 48c0 5.523 4.477 10 10 10v4C6.268 62 0 55.732 0 48h4zm55.844 10a7.655 7.655 0 007.656-7.655h4C71.5 56.782 66.282 62 59.844 62v-4zM14 12C8.477 12 4 16.477 4 22H0C0 14.268 6.268 8 14 8v4zm43.04 48.805A2.805 2.805 0 0159.844 58v4c.66 0 1.196-.535 1.196-1.195h-4zM67.5 22c0-5.523-4.477-10-10-10V8c7.732 0 14 6.268 14 14h-4z" fill="#6E49CB"/>
  <path d="M16 39h32m-32-8h42" stroke="#6E49CB" stroke-width="4" stroke-linecap="round"/>
</svg>