<svg height="128" viewBox="0 0 142 128" width="142" xmlns="http://www.w3.org/2000/svg"><g fill="none" fill-rule="evenodd" transform=""><path d="m94 62h20v4h-20z" fill="#f0edf8"/><path d="m79.753048 92.253048h25v4h-25z" fill="#fee1d3" transform="matrix(.70710678 .70710678 -.70710678 .70710678 93.667262 -37.626677)"/><path d="m37.753048 32.253048h25v4h-25z" fill="#f0edf8" transform="matrix(.70710678 .70710678 -.70710678 .70710678 38.93934 -25.501786)"/><path d="m37.753048 92.253048h25v4h-25z" fill="#f0edf8" transform="matrix(.70710678 -.70710678 .70710678 .70710678 -51.928192 63.14035)"/><g fill="#fee1d3"><path d="m79.753048 32.253048h25v4h-25z" transform="matrix(.70710678 -.70710678 .70710678 .70710678 2.79973 75.265241)"/><path d="m28 62h20v4h-20z"/><rect fill-rule="evenodd" height="30" rx="5" width="30" y="49"/></g><rect height="26" rx="5" stroke="#fdc4a8" stroke-width="4" width="26" x="2" y="51"/><rect fill="#c3b8e3" fill-rule="evenodd" height="50" rx="10" width="50" x="46" y="39"/><rect height="46" rx="10" stroke="#6b4fbb" stroke-width="4" width="46" x="48" y="41"/><rect fill="#fef0e8" fill-rule="evenodd" height="30" rx="5" width="30" x="84"/><rect height="26" rx="5" stroke="#fee1d3" stroke-width="4" width="26" x="86" y="2"/><rect fill="#fee1d3" fill-rule="evenodd" height="30" rx="5" width="30" x="84" y="98"/><rect height="26" rx="5" stroke="#fdc4a8" stroke-width="4" width="26" x="86" y="100"/><rect fill="#f0edf8" fill-rule="evenodd" height="30" rx="5" width="30" x="112" y="49"/><rect height="26" rx="5" stroke="#e1dbf1" stroke-width="4" width="26" x="114" y="51"/><rect fill="#f0edf8" fill-rule="evenodd" height="30" rx="5" width="30" x="28" y="98"/><rect height="26" rx="5" stroke="#e1dbf1" stroke-width="4" width="26" x="30" y="100"/><rect fill="#f0edf8" fill-rule="evenodd" height="30" rx="5" width="30" x="28"/><rect height="26" rx="5" stroke="#e1dbf1" stroke-width="4" width="26" x="30" y="2"/></g></svg>
