<svg xmlns="http://www.w3.org/2000/svg" xmlns:xlink="http://www.w3.org/1999/xlink" width="422" height="244" viewBox="0 0 422 244">
  <defs>
    <rect id="a" width="20" height="4" x="57" y="8" rx="2"/>
    <rect id="b" width="76" height="4" x="23" y="0" rx="2"/>
    <rect id="c" width="49" height="4" x="187" y="84" rx="2"/>
    <rect id="d" width="10" height="4" x="107" y="0" rx="2"/>
    <rect id="e" width="20" height="4" x="0" y="84" rx="2"/>
    <rect id="f" width="92" height="4" x="28" y="84" rx="2"/>
    <rect id="g" width="36" height="4" x="16" y="92" rx="2"/>
    <rect id="h" width="92" height="4" x="60" y="92" rx="2"/>
    <rect id="i" width="92" height="4" x="8" y="100" rx="2"/>
    <rect id="j" width="76" height="4" x="85" y="8" rx="2"/>
    <rect id="k" width="53" height="4" x="169" y="8" rx="2"/>
  </defs>
  <g fill="none" fill-rule="evenodd">
    <g transform="translate(125 80)">
      <use fill="#6E49CB" xlink:href="#a"/>
      <use fill="#FFFFFF" fill-opacity=".8" xlink:href="#a"/>
      <use fill="#6E49CB" xlink:href="#b"/>
      <use fill="#FFFFFF" fill-opacity=".8" xlink:href="#b"/>
      <use fill="#6E49CB" xlink:href="#c"/>
      <use fill="#FFFFFF" fill-opacity=".8" xlink:href="#c"/>
      <use fill="#6E49CB" xlink:href="#d"/>
      <use fill="#FFFFFF" fill-opacity=".8" xlink:href="#d"/>
      <use fill="#6E49CB" xlink:href="#e"/>
      <use fill="#FFFFFF" fill-opacity=".8" xlink:href="#e"/>
      <use fill="#6E49CB" xlink:href="#f"/>
      <use fill="#FFFFFF" fill-opacity=".8" xlink:href="#f"/>
      <use fill="#6E49CB" xlink:href="#g"/>
      <use fill="#FFFFFF" fill-opacity=".8" xlink:href="#g"/>
      <use fill="#6E49CB" xlink:href="#h"/>
      <use fill="#FFFFFF" fill-opacity=".8" xlink:href="#h"/>
      <use fill="#6E49CB" xlink:href="#i"/>
      <use fill="#FFFFFF" fill-opacity=".8" xlink:href="#i"/>
      <use fill="#6E49CB" xlink:href="#j"/>
      <use fill="#FFFFFF" fill-opacity=".8" xlink:href="#j"/>
      <use fill="#6E49CB" xlink:href="#k"/>
      <use fill="#FFFFFF" fill-opacity=".6" xlink:href="#k"/>
    </g>
    <rect width="268" height="48" x="77" y="104" fill="#EFEDF8" stroke="#6E49CB" stroke-width="4" rx="8"/>
    <g stroke-linecap="round" transform="translate(31 22)">
      <path stroke="#C2B7E6" stroke-linejoin="round" stroke-width="2" d="M0 .5L5.48837209.5M0 33.5L5.48837209 33.5M0 11.5L5.48837209 11.5M0 44.5L5.48837209 44.5"/>
      <path stroke="#DFDFDF" stroke-width="4" d="M21.2674419.5L37.7325581.5M21.2674419 11.5L30.872093 11.5M21.2674419 44.5L30.872093 44.5M41.8488372 11.5L63.8023256 11.5M41.8488372 44.5L63.8023256 44.5M74.7790698 44.5L89.872093 44.5"/>
      <path stroke="#FC6D26" stroke-width="4" d="M21.2674419 22.5L44.5930233 22.5M82 22.5L105.325581 22.5"/>
      <path stroke="#F4C6AC" stroke-width="4" d="M55.5697674,22.5 L70.6627907,22.5"/>
      <path stroke="#DFDFDF" stroke-width="4" d="M100.848837.5L117.313953.5M100.848837 33.5L117.313953 33.5M21.2674419 33.5L37.7325581 33.5M74.7790698 11.5L89.872093 11.5M48.7093023.5L56.9418605.5M67.9186047 33.5L89.872093 33.5"/>
      <path stroke="#F4C6AC" stroke-width="2" d="M0,22.5 L5.48837209,22.5"/>
      <path stroke="#DFDFDF" stroke-width="4" d="M48.7093023 33.5L56.9418605 33.5M67.9186047.5L89.872093.5"/>
    </g>
    <rect width="150" height="10" x="89" y="123" fill="#FC6D26" stroke="#FFFFFF" stroke-width="2" rx="4"/>
    <g stroke="#6E49CB" stroke-linecap="round" transform="translate(302 114)">
      <circle cx="12" cy="12" r="12" fill="#FFFFFF" stroke-width="4"/>
      <circle cx="12" cy="12" r="7" stroke-width="2"/>
      <path stroke-width="2" d="M21,21 L26.6568542,26.6568542"/>
      <path stroke-width="4" d="M25,25 L29.2426407,29.2426407"/>
    </g>
    <g transform="translate(211 198)">
      <rect width="118" height="24" x="2" y="2" fill="#FCF0EA" stroke="#FC6D26" stroke-width="4" rx="4"/>
      <path stroke="#FC6D26" stroke-linecap="round" stroke-width="4" d="M9,10 L55,10"/>
      <path stroke="#F4C6AC" stroke-linecap="round" stroke-width="2" d="M9,18 L23,18"/>
      <path stroke="#FC6D26" stroke-linecap="round" stroke-width="2" d="M27 18L57 18M61 18L78 18"/>
      <path stroke="#F4C6AC" stroke-linecap="round" stroke-width="2" d="M82,18 L103,18"/>
    </g>
    <g transform="translate(325 26)">
      <circle cx="20" cy="20" r="18" fill="#FCF0EA" stroke="#FC6D26" stroke-width="4"/>
      <path stroke="#FC6D26" stroke-width="2" d="M10.9172558 4.4065024C14.4294594 10.1596286 20.7662463 14 28 14L28 14C30.9073158 14 33.6697432 13.3796594 36.1621395 12.2641211M2.25081488 19.0037858C7.46462994 17.2898412 11.7319767 13.4900815 14.0657264 8.59163532"/>
      <circle cx="26" cy="23" r="2" fill="#FC6D26"/>
      <circle cx="14" cy="23" r="2" fill="#FC6D26"/>
    </g>
    <path fill="#FCF0EA" stroke="#FC6D26" stroke-width="4" d="M404,133.152074 L391.750721,133.152074 L389.43884,129.022934 C389.085159,128.391242 388.417714,128 387.693749,128 L382,128 C380.895431,128 380,128.895431 380,130 L380,148 C380,149.104569 380.895431,150 382,150 L404,150 C405.104569,150 406,149.104569 406,148 L406,135.152074 C406,134.047504 405.104569,133.152074 404,133.152074 Z"/>
    <path stroke="#C2B7E6" stroke-linecap="round" stroke-width="4" d="M345 90C369.300529 90 389 70.300529 389 46 389 21.699471 369.300529 2 345 2 320.699471 2 301 21.699471 301 46 301 57.4692579 305.388274 67.9135795 312.577409 75.7455512M371.180176 166L393 166C407.911688 166 420 153.911688 420 139 420 124.088312 407.911688 112 393 112 378.088312 112 366 124.088312 366 139 366 146.037954 368.692805 152.446969 373.104319 157.252952M326.933085 242C343.538583 242 357 228.568542 357 212 357 195.431458 343.538583 182 326.933085 182L233 182"/>
    <path stroke="#C2B7E6" stroke-linecap="round" stroke-width="4" d="M120.844465,82 C131.423775,82 140,73.4934102 140,63 C140,52.5065898 131.423775,44 120.844465,44 L2,44" transform="rotate(180 71 63)"/>
    <path stroke="#C2B7E6" stroke-linecap="round" stroke-width="4" d="M174,90 C162.954305,90 154,98.954305 154,110"/>
    <path stroke="#C2B7E6" stroke-linecap="round" stroke-width="4" d="M304,146 C292.954305,146 284,154.954305 284,166" transform="rotate(-90 294 156)"/>
    <path stroke="#C2B7E6" stroke-linecap="round" stroke-width="4" d="M135,152 L114.059356,152 C102.98088,152 94,160.954305 94,172" transform="rotate(-90 114.5 162)"/>
  </g>
</svg>
