<svg xmlns="http://www.w3.org/2000/svg" width="102" height="102" viewBox="0 0 102 102">
  <g fill="none" fill-rule="evenodd">
    <g transform="translate(0 4)">
      <circle cx="49" cy="49" r="49" fill="#EEE"/>
      <circle cx="49" cy="49" r="45" fill="#FFF"/>
    </g>
    <g transform="translate(13 24)">
      <g transform="translate(0 9)">
        <path fill="#EFEDF8" d="M23.6988625 0L25.0822483 0C26.1413933-1.94561787e-16 27 .858606698 27 1.91775174L27 5C27 6.1045695 26.1045695 7 25 7L18.0173887 7C16.9818952 7 16.1424619 6.16056668 16.1424619 5.1250732 16.1424619 4.45426836 16.5008352 3.83457131 17.0822483 3.5L22.7013404.266520913C23.004789.0919029407 23.348759-2.06722333e-15 23.6988625 0zM15 18L25 18C26.1045695 18 27 18.8954305 27 20L27 23C27 24.1045695 26.1045695 25 25 25L15 25C13.8954305 25 13 24.1045695 13 23L13 20C13 18.8954305 13.8954305 18 15 18z"/>
        <g fill="#F9E2D5">
          <path d="M2,9 L12,9 C13.1045695,9 14,9.8954305 14,11 L14,14 C14,15.1045695 13.1045695,16 12,16 L2,16 C0.8954305,16 1.3527075e-16,15.1045695 0,14 L0,11 C-1.3527075e-16,9.8954305 0.8954305,9 2,9 Z"/>
          <rect width="14" height="7" x="13" y="35" rx="2"/>
          <rect width="7" height="7" x="4" y="35" rx="2"/>
          <rect width="7" height="7" x="4" y="18" rx="2"/>
          <rect width="7" height="7" x="4" rx="2"/>
          <rect width="14" height="7" y="26" rx="2"/>
        </g>
        <path fill="#EFEDF8" d="M15,0 L25,0 C26.1045695,-2.02906125e-16 27,0.8954305 27,2 L27,5 C27,6.1045695 26.1045695,7 25,7 L15,7 C13.8954305,7 13,6.1045695 13,5 L13,2 C13,0.8954305 13.8954305,2.02906125e-16 15,0 Z"/>
        <rect width="14" height="7" x="37" fill="#EFEDF8" rx="2"/>
        <rect width="14" height="7" x="37" y="18" fill="#EFEDF8" rx="2"/>
        <rect width="9" height="7" x="50" y="26" fill="#EFEDF8" rx="2"/>
        <rect width="14" height="7" x="25" y="9" fill="#EFEDF8" rx="2"/>
        <rect width="7" height="7" x="29" fill="#EFEDF8" rx="2"/>
        <rect width="7" height="7" x="29" y="18" fill="#EFEDF8" rx="2"/>
        <rect width="7" height="7" x="16" y="26" fill="#EFEDF8" rx="2"/>
        <rect width="7" height="7" x="29" y="35" fill="#EFEDF8" rx="2"/>
        <rect width="7" height="7" x="53" y="18" fill="#EFEDF8" rx="2"/>
        <rect width="7" height="7" x="16" y="9" fill="#EFEDF8" rx="2"/>
        <rect width="7" height="7" x="41" y="9" fill="#EFEDF8" rx="2"/>
        <rect width="7" height="7" x="53" fill="#EFEDF8" rx="2"/>
        <rect width="14" height="7" x="50" y="9" fill="#EFEDF8" rx="2"/>
        <rect width="14" height="7" x="25" y="26" fill="#EFEDF8" rx="2"/>
        <rect width="14" height="7" x="37" y="35" fill="#EFEDF8" rx="2"/>
        <rect width="7" height="7" x="41" y="26" fill="#EFEDF8" rx="2"/>
      </g>
      <path fill="#FFF" d="M29.0471336,0.0809481952 L55.5471336,7.61798358 C56.4068866,7.86251147 57,8.64783885 57,9.5416896 L57,22.9714932 L57,22.9714932 C57,31.5707251 53.5681929,39.817757 47.4602357,45.8981715 L29.9109966,63.3676932 C29.1306887,64.1444566 27.869314,64.1444539 27.0890094,63.3676871 L9.53992714,45.8981715 L9.53992714,45.8981715 C3.43160357,39.817757 0,31.5707251 0,22.9714932 L0,9.5416896 C3.34624064e-16,8.64783885 0.593113375,7.86251147 1.4528664,7.61798358 L27.9528664,0.0809481952 C28.3105297,-0.0207771197 28.6894703,-0.0207771197 29.0471336,0.0809481952 Z M28.1514983,4.48468188 L4.41564927,11.1853224 C3.98483503,11.3069414 3.68733154,11.7000576 3.68733154,12.1477094 L3.68733154,22.0356139 L3.68733154,22.0356139 C3.68733154,29.8139895 6.81463546,37.273761 12.3812899,42.7739079 L27.7203283,57.9298236 C28.1098602,58.3147051 28.7364991,58.3147032 29.1260286,57.9298193 L44.4648734,42.7739079 L44.4648734,42.7739079 C50.0319236,37.273761 53.1590296,29.8139895 53.1590296,22.0356139 L53.1590296,12.1477094 C53.1590296,11.7000576 52.8615262,11.3069414 52.4307119,11.1853224 L28.6948629,4.48468188 C28.5172129,4.43453122 28.3291483,4.43453122 28.1514983,4.48468188 Z" transform="translate(10)"/>
      <path fill="#6E49CB" d="M25.5468934,0.0799353916 L48.5468934,6.61840991 C49.406766,6.86285578 50,7.64824089 50,8.54218421 L50,20.1308019 L50,20.1308019 C50,27.6704092 46.9896429,34.9012158 41.6317857,40.2323823 L26.4106603,55.3771777 C25.6304305,56.1534947 24.3695721,56.153492 23.5893457,55.3771716 L8.36835714,40.2323823 L8.36835714,40.2323823 C3.01017857,34.9012158 0,27.6704092 0,20.1308019 L0,8.54218421 C-9.03457651e-16,7.64824089 0.59323396,6.86285578 1.45310655,6.61840991 L24.4531066,0.0799353916 C24.8106193,-0.0216988743 25.1893807,-0.0216988743 25.5468934,0.0799353916 Z M24.6610517,3.93137461 L3.96293846,9.77168898 C3.53206486,9.89326708 3.23450135,10.2864119 3.23450135,10.7341097 L3.23450135,19.3102446 L3.23450135,19.3102446 C3.23450135,26.1301441 5.9777504,32.670699 10.8607806,37.4931004 L24.2299311,50.6963786 C24.6194227,51.0810378 25.2458045,51.0810359 25.6352937,50.6963743 L39.0042749,37.4931004 L39.0042749,37.4931004 C43.8876523,32.670699 46.6307278,26.1301441 46.6307278,19.3102446 L46.6307278,10.7341097 C46.6307278,10.2864119 46.3331642,9.89326708 45.9022907,9.77168898 L25.2041774,3.93137461 C25.0266024,3.88126887 24.8386267,3.88126887 24.6610517,3.93137461 Z" transform="translate(13 3)"/>
    </g>
    <g transform="translate(54 2)">
      <circle cx="23" cy="23" r="23" fill="#FCD7C8" stroke="#FFF" stroke-width="4"/>
      <circle cx="23" cy="23" r="21" fill="#FB722E" fill-rule="nonzero" opacity=".1"/>
      <circle cx="23" cy="23" r="18" fill="#FFF" fill-rule="nonzero"/>
      <path fill="#FC6D26" fill-rule="nonzero" d="M20,15.0015008 C20,13.3416708 21.347,12 23,12 C24.657,12 26,13.3426713 26,15.0015008 L26,22.9984992 C26,24.6583292 24.653,26 23,26 C21.343,26 20,24.6573287 20,22.9984992 L20,15.0015008 M23,34 C21.343,34 20,32.657 20,31 C20,29.343 21.343,28 23,28 C24.657,28 26,29.343 26,31 C26,32.657 24.657,34 23,34" transform="matrix(-1 0 0 1 46 0)"/>
    </g>
  </g>
</svg>
