<svg width="72" height="72" viewBox="0 0 72 72" fill="none" xmlns="http://www.w3.org/2000/svg">
  <g clip-path="url(#Gift__clip0_319:1657)">
    <path d="M14 43.2H6V66a4 4 0 004 4h52a4 4 0 004-4v-4H15a1 1 0 01-1-1V43.2z" fill="#AC7FFF" fill-opacity=".24"/>
    <path d="M8 43v-2H4v2h4zm60 8a2 2 0 10-4 0h4zm-4 0v15h4V51h-4zm-2 17H10v4h52v-4zM8 66V43H4v23h4zm2 2a2 2 0 01-2-2H4a6 6 0 006 6v-4zm54-2a2 2 0 01-2 2v4a6 6 0 006-6h-4z" fill="#6E49CB"/>
    <rect x="2" y="24" width="68" height="19" rx="4" stroke="#6E49CB" stroke-width="4" stroke-linecap="round" stroke-linejoin="round"/>
    <path d="M36 54c23.638-13.698 6.112-26.837 0-15.995C29.888 27.217 12.362 40.302 36 54z" fill="#FF675F" stroke="#6E49CB" stroke-width="4"/>
    <path d="M36 22c1.95-8.852 10.098-26.953 17.943-17.187C61.631 14.382 46.013 19.393 36 22zm0 0C34.05 13.148 25.902-4.953 18.057 4.813 10.37 14.382 25.987 19.393 36 22z" fill="#AC7FFF" fill-opacity=".24" stroke="#6E49CB" stroke-width="4"/>
  </g>
  <defs>
    <clipPath id="Gift__clip0_319:1657">
      <path fill="#fff" d="M0 0h72v72H0z"/>
    </clipPath>
  </defs>
</svg>
