<svg width="172" height="48" xmlns="http://www.w3.org/2000/svg"><path d="M47.912 27.174l-2.688-8.264L39.903 2.52a.92.92 0 00-1.745 0L32.838 18.9h-17.68L9.839 2.518a.919.919 0 00-1.743 0L2.783 18.9.094 27.174a1.832 1.832 0 00.663 2.047L24 46.11l23.24-16.89a1.834 1.834 0 00.672-2.046" fill="#FC6D26"/><path d="M24 46.097L32.84 18.9H15.166L24 46.097z" fill="#E24329"/><path d="M24 46.097L15.16 18.9H2.789L24 46.097z" fill="#FC6D26"/><path d="M2.779 18.908l-2.69 8.264a1.831 1.831 0 00.663 2.046L24 46.11 2.78 18.908z" fill="#FCA326"/><path d="M2.783 18.908h12.386l-5.33-16.38a.92.92 0 00-1.745 0l-5.311 16.38z" fill="#E24329"/><path d="M24 46.097L32.84 18.9h12.39L24 46.097z" fill="#FC6D26"/><path d="M45.22 18.908l2.69 8.264a1.827 1.827 0 01-.663 2.046L24 46.098l21.215-27.19h.006z" fill="#FCA326"/><path d="M45.226 18.908H32.842l5.32-16.38a.919.919 0 011.744 0l5.32 16.38z" fill="#E24329"/><path opacity=".6" fill-rule="evenodd" clip-rule="evenodd" d="M64.293 24.707a1 1 0 010-1.414l6.364-6.364a1 1 0 011.414 1.414L67.414 23h37.172l-4.657-4.657a1 1 0 011.414-1.414l6.364 6.364a1 1 0 010 1.414l-6.364 6.364a1 1 0 11-1.414-1.414L104.586 25H67.414l4.657 4.657a1 1 0 01-1.414 1.414l-6.364-6.364z" fill="#999"/><path d="M134.085 30.332a5.055 5.055 0 01-5.043 5.043A5.054 5.054 0 01124 30.332a5.055 5.055 0 015.042-5.042h5.043v5.042zM136.625 30.332a5.055 5.055 0 015.043-5.042 5.054 5.054 0 015.042 5.042v12.626A5.055 5.055 0 01141.668 48a5.055 5.055 0 01-5.043-5.042V30.332z" fill="#E01E5A"/><path d="M141.668 10.085a5.055 5.055 0 01-5.043-5.043A5.055 5.055 0 01141.668 0a5.055 5.055 0 015.042 5.042v5.043h-5.042zM141.668 12.625a5.054 5.054 0 015.042 5.043 5.055 5.055 0 01-5.042 5.042h-12.626A5.055 5.055 0 01124 17.668a5.054 5.054 0 015.042-5.043h12.626z" fill="#36C5F0"/><path d="M161.915 17.668a5.055 5.055 0 015.043-5.043A5.054 5.054 0 01172 17.668a5.055 5.055 0 01-5.042 5.042h-5.043v-5.042zM159.375 17.668a5.055 5.055 0 01-5.043 5.042 5.054 5.054 0 01-5.042-5.042V5.042A5.055 5.055 0 01154.332 0a5.055 5.055 0 015.043 5.042v12.626z" fill="#2EB67D"/><path d="M154.332 37.915a5.055 5.055 0 015.043 5.043A5.055 5.055 0 01154.332 48a5.055 5.055 0 01-5.042-5.042v-5.043h5.042zM154.332 35.375a5.054 5.054 0 01-5.042-5.043 5.055 5.055 0 015.042-5.042h12.626A5.055 5.055 0 01172 30.332a5.054 5.054 0 01-5.042 5.043h-12.626z" fill="#ECB22E"/></svg>