<svg width="80" height="22" viewBox="0 0 80 22" xmlns="http://www.w3.org/2000/svg"><path d="M13.814 7.542h3.645C16.851 3.667 13.496.968 9.13.968 3.964.968.087 4.766.087 11.128c0 6.248 3.703 10.123 9.15 10.123 4.887 0 8.386-3.144 8.386-8.234v-2.37h-8.01v2.794h4.55c-.058 2.816-1.938 4.599-4.908 4.599-3.305 0-5.57-2.477-5.57-6.95 0-4.445 2.303-6.913 5.494-6.913 2.38 0 4.01 1.272 4.636 3.365Zm6.218 13.438h3.49V6.18h-3.49v14.8Zm1.76-17.151c1.109 0 2.014-.85 2.014-1.89s-.905-1.9-2.014-1.9c-1.109 0-2.024.849-2.024 1.9s.9 1.89 2.017 1.89h.007ZM33.971 6.18H31.05V2.626h-3.49v3.556h-2.1V8.88h2.1v8.233c-.02 2.786 2.006 4.16 4.627 4.079a7.089 7.089 0 0 0 2.055-.348l-.59-2.73a4.247 4.247 0 0 1-1.02.137c-.878 0-1.582-.309-1.582-1.717V8.872h2.921V6.18Zm2.701 14.8h12.272v-2.998H40.25V1.237h-3.578V20.98Zm18.957.3c2.323 0 3.71-1.09 4.347-2.333h.115v2.033h3.36v-9.91c0-3.913-3.19-5.09-6.016-5.09-3.113 0-5.504 1.388-6.275 4.087l3.26.464c.345-1.013 1.329-1.88 3.04-1.88 1.62 0 2.506.829 2.506 2.285v.057c0 1.002-1.05 1.051-3.664 1.33-2.872.309-5.619 1.166-5.619 4.502-.01 2.912 2.12 4.455 4.946 4.455Zm1.147-2.56c-1.456 0-2.498-.666-2.498-1.948 0-1.34 1.167-1.899 2.72-2.121.917-.125 2.75-.357 3.2-.722v1.744c.01 1.643-1.321 3.042-3.422 3.042v.005Zm9.244 2.26h3.433v-2.332h.201c.55 1.08 1.698 2.593 4.244 2.593 3.49 0 6.102-2.768 6.102-7.644 0-4.936-2.69-7.616-6.112-7.616-2.613 0-3.702 1.57-4.234 2.641h-.147V1.237h-3.486V20.98Zm3.423-7.403c0-2.88 1.234-4.734 3.48-4.734 2.323 0 3.52 1.976 3.52 4.734 0 2.759-1.214 4.8-3.52 4.8-2.227 0-3.48-1.928-3.48-4.8Z" fill="#171321"/></svg>