<?xml version="1.0" encoding="UTF-8" standalone="no"?>
<svg
   xmlns:dc="http://purl.org/dc/elements/1.1/"
   xmlns:cc="http://creativecommons.org/ns#"
   xmlns:rdf="http://www.w3.org/1999/02/22-rdf-syntax-ns#"
   xmlns:svg="http://www.w3.org/2000/svg"
   xmlns="http://www.w3.org/2000/svg"
   xmlns:sodipodi="http://sodipodi.sourceforge.net/DTD/sodipodi-0.dtd"
   xmlns:inkscape="http://www.inkscape.org/namespaces/inkscape"
   width="492.50943"
   height="453.67966"
   viewBox="0 0 492.50943 453.67966"
   version="1.1"
   id="svg129"
   sodipodi:docname="gitlab_logo.svg"
   inkscape:version="0.92.2 5c3e80d, 2017-08-06">
  <metadata
     id="metadata135">
    <rdf:RDF>
      <cc:Work
         rdf:about="">
        <dc:format>image/svg+xml</dc:format>
        <dc:type
           rdf:resource="http://purl.org/dc/dcmitype/StillImage" />
        <dc:title></dc:title>
      </cc:Work>
    </rdf:RDF>
  </metadata>
  <defs
     id="defs133" />
  <sodipodi:namedview
     pagecolor="#ffffff"
     bordercolor="#666666"
     borderopacity="1"
     objecttolerance="10"
     gridtolerance="10"
     guidetolerance="10"
     inkscape:pageopacity="0"
     inkscape:pageshadow="2"
     inkscape:window-width="640"
     inkscape:window-height="480"
     id="namedview131"
     showgrid="false"
     fit-margin-top="0"
     fit-margin-left="0"
     fit-margin-right="0"
     fit-margin-bottom="0"
     inkscape:zoom="0.33714286"
     inkscape:cx="250.39026"
     inkscape:cy="223.50638"
     inkscape:window-x="684"
     inkscape:window-y="273"
     inkscape:window-maximized="0"
     inkscape:current-layer="svg129" />
  <g
     id="g127"
     style="fill:none;fill-rule:evenodd"
     transform="translate(-99.60974,-119.82672)">
    <path
       d="M 591.19865,379.22505 563.63998,294.41038 509.02265,126.31305 c -2.80934,-8.648 -15.04533,-8.648 -17.856,0 L 436.54798,294.41038 H 255.18132 l -54.62,-168.09733 c -2.80933,-8.648 -15.04533,-8.648 -17.856,0 l -54.61733,168.09733 -27.55733,84.81467 c -2.514669,7.736 0.24,16.21066 6.82,20.992 L 345.86399,573.50638 584.37865,400.21705 c 6.58,-4.78134 9.33333,-13.256 6.82,-20.992"
       id="path111"
       inkscape:connector-curvature="0"
       style="fill:#fc6d26" />
    <path
       d="m 345.86452,573.50638 90.684,-279.096 h -181.368 z"
       id="path113"
       inkscape:connector-curvature="0"
       style="fill:#e24329" />
    <path
       d="m 345.86452,573.50584 -90.684,-279.09466 h -127.092 z"
       id="path115"
       inkscape:connector-curvature="0"
       style="fill:#fc6d26" />
    <path
       d="m 128.08852,294.41078 -27.55866,84.81467 c -2.513336,7.736 0.24,16.21066 6.82133,20.99066 l 238.51333,173.28933 z"
       id="path117"
       inkscape:connector-curvature="0"
       style="fill:#fca326" />
    <path
       d="m 128.08852,294.41105 h 127.092 L 200.56186,126.31372 c -2.81067,-8.64933 -15.04667,-8.64933 -17.856,0 z"
       id="path119"
       inkscape:connector-curvature="0"
       style="fill:#e24329" />
    <path
       d="m 345.86452,573.50584 90.684,-279.09466 h 127.09199 z"
       id="path121"
       inkscape:connector-curvature="0"
       style="fill:#fc6d26" />
    <path
       d="m 563.64038,294.41078 27.55867,84.81467 c 2.51333,7.736 -0.24,16.21066 -6.82134,20.99066 L 345.86439,573.50544 Z"
       id="path123"
       inkscape:connector-curvature="0"
       style="fill:#fca326" />
    <path
       d="m 563.64038,294.41105 h -127.092 l 54.61867,-168.09733 c 2.81066,-8.64933 15.04666,-8.64933 17.856,0 z"
       id="path125"
       inkscape:connector-curvature="0"
       style="fill:#e24329" />
  </g>
</svg>
