<svg fill="none" height="201" viewBox="0 0 394 201" width="394" xmlns="http://www.w3.org/2000/svg"><path d="m176.202 186.526 3.2-16h38.721l3.2 16z" stroke="#dbdbdb" stroke-width="4"/><rect height="166" rx="8" stroke="#dbdbdb" stroke-width="4" width="251" x="71.668" y="4.17737"/><rect height="142" rx="3" stroke="#dbdbdb" stroke-width="4" width="228" x="82.668" y="16.1774"/><path d="m150.422 186.526h97.061c2.233 0 4.194 1.479 4.808 3.626.912 3.194-1.486 6.374-4.808 6.374h-97.061c-3.183 0-5.556-2.936-4.889-6.048.494-2.305 2.531-3.952 4.889-3.952z" stroke="#dbdbdb" stroke-width="4"/><rect fill="#dbdbdb" height="3" rx="1.5" transform="matrix(.999994 -.00337167 .0216221 .999766 169.102 134.035)" width="109.183"/><rect fill="#dbdbdb" height="3.00059" rx="1.5003" transform="matrix(.999994 -.00344448 .0211652 .999776 168.874 123.704)" width="89.3335"/><rect fill="#dbdbdb" height="3" rx="1.5" transform="matrix(.99996354 -.00853899 .00853899 .99996354 -.708584 1.450479)" width="126.693" x="169.508" y="83.7059"/><rect fill="#dbdbdb" height="3" rx="1.5" transform="matrix(.99996354 -.00853899 .00853899 .99996354 -.793974 1.451578)" width="80.1144" x="169.594" y="93.7063"/><path clip-rule="evenodd" d="m126.571 90.8504c-.586-.5858-1.535-.5858-2.121 0l-5.303 5.3033-1.768-1.7678c-.586-.5858-1.536-.5858-2.121 0-.586.5858-.586 1.5356 0 2.1213l2.828 2.8285c.586.5858 1.535.5858 2.121 0l6.364-6.364c.586-.5858.586-1.5355 0-2.1213z" fill="#fca121" fill-rule="evenodd"/><path clip-rule="evenodd" d="m126.571 128.85c-.586-.585-1.536-.585-2.122 0l-5.303 5.304-1.768-1.768c-.585-.586-1.535-.586-2.121 0s-.586 1.535 0 2.121l2.828 2.829c.586.585 1.536.585 2.122 0l6.364-6.364c.586-.586.586-1.536 0-2.122z" fill="#fca121" fill-rule="evenodd"/><path d="m120 71c11.046 0 20-8.9543 20-20s-8.954-20-20-20-20 8.9543-20 20 8.954 20 20 20z" style="fill-rule:evenodd;clip-rule:evenodd;fill:#fff;stroke:#6e49cb;stroke-width:4;stroke-linecap:round"/><path clip-rule="evenodd" d="m120 66c8.284 0 15-6.7157 15-15s-6.716-15-15-15-15 6.7157-15 15 6.716 15 15 15z" fill-rule="evenodd" stroke="#6e49cb" stroke-linecap="round" stroke-width="2"/><path d="m133 69 5 5" stroke="#6e49cb" stroke-linecap="round" stroke-width="2"/><path d="m136 72 10 10" stroke="#6e49cb" stroke-linecap="round" stroke-width="4"/><path d="m120.372 53.6854c1.173 0 2.124.9511 2.124 2.1243s-.951 2.1243-2.124 2.1243-2.124-.9511-2.124-2.1243.951-2.1243 2.124-2.1243z" fill="#fca121"/><path d="m120.371 43.4891c1.4 0 2.393 1.3187 2.06 2.6327l-.072.2315-1.988 7.3324-1.987-7.3324c-.52-1.3858.506-2.8642 1.987-2.8642z" fill="#fca121"/><rect fill="#ac93e6" height="3" opacity=".5" rx="1.5" transform="matrix(.999989 -.00479061 .0152195 .999884 168.126 40.8911)" width="128.611"/><rect fill="#ac93e6" height="3.00026" opacity=".5" rx="1.50013" transform="matrix(.999989 -.00465993 .0156462 .999878 168.28 50.7074)" width="78.7944"/><g fill="#fca121"><path d="m347.881 84.4358h1.621c0-2.8745 2.299-5.2048 5.134-5.2048v-1.6437c-3.731 0-6.755 3.0662-6.755 6.8485z"/><path clip-rule="evenodd" d="m354.906 79.5049c.746 0 1.351-.6132 1.351-1.3697s-.605-1.3697-1.351-1.3697-1.351.6132-1.351 1.3697.605 1.3697 1.351 1.3697z" fill-rule="evenodd"/><path d="m346.8 84.4358h-1.621c0-2.8745-2.298-5.2048-5.133-5.2048v-1.6437c3.73 0 6.754 3.0662 6.754 6.8485z"/><path clip-rule="evenodd" d="m339.776 79.505c-.746 0-1.351-.6132-1.351-1.3697 0-.7564.605-1.3697 1.351-1.3697s1.35.6133 1.35 1.3697c0 .7565-.604 1.3697-1.35 1.3697z" fill-rule="evenodd"/><rect height="1.35779" rx=".678893" width="5.40344" x="354.635" y="97.5851"/><rect height="1.35779" rx=".678893" transform="matrix(.96592583 .25881905 -.25881905 .96592583 38.451158 -88.385542)" width="5.40344" x="354.903" y="101.84"/><rect height="1.35779" rx=".678893" transform="matrix(.96592583 -.25881905 .25881905 .96592583 -12.117721 94.971969)" width="5.40344" x="354.633" y="93.5076"/><rect height="1.35779" rx=".678893" transform="matrix(-1 0 0 1 340.046 97.585)" width="5.40344"/><rect height="1.35779" rx=".678893" transform="matrix(-.965926 .258819 .258819 .965926 339.778 101.84)" width="5.40344"/><rect height="1.35779" rx=".678893" transform="matrix(-.965926 -.258819 -.258819 .965926 340.049 93.5075)" width="5.40344"/></g><rect height="21.1067" rx="7.41567" stroke="#fca121" stroke-width="3" width="14.8313" x="339.925" y="85.3881"/><path d="m338.965 92.6542h16.2103v2.03668h-16.2103z" fill="#fca121"/><path d="m22.8905 64.6842 2.1845-.0455 2.0543-4.4426 4.2319 10.0319 6.0326-17.7251 8.1311 23.5906 3.5804-11.9542 2.1846-.0454" stroke="#fca121" stroke-linecap="round" stroke-linejoin="round" stroke-width="3"/><path clip-rule="evenodd" d="m9.28673 48.2141-1.62741.675c-1.35211.5608-2.82881-.4732-2.76428-1.9355l.07766-1.7602-.67498-1.6274c-.5608-1.3521.4732-2.8288 1.93557-2.7643l1.76013.0777 1.62742-.675c1.35206-.5608 2.82876.4732 2.76426 1.9356l-.0776 1.7601.6749 1.6274c.5608 1.3521-.4732 2.8288-1.9355 2.7643z" fill="#fc8a51" fill-rule="evenodd" opacity=".2"/><path clip-rule="evenodd" d="m346.287 135.214-1.627.675c-1.352.561-2.829-.473-2.764-1.936l.077-1.76-.675-1.627c-.561-1.352.473-2.829 1.936-2.764l1.76.077 1.627-.675c1.352-.561 2.829.474 2.765 1.936l-.078 1.76.675 1.627c.561 1.353-.473 2.829-1.936 2.765z" fill="#fc8a51" fill-rule="evenodd" opacity=".2"/><path clip-rule="evenodd" d="m366.76 69.9057-2.353.1039c-1.755.0774-2.996-1.6946-2.323-3.3172l.903-2.176-.104-2.3535c-.078-1.7548 1.694-2.9956 3.317-2.3226l2.176.9025 2.353-.1039c1.755-.0774 2.996 1.6946 2.323 3.3172l-.902 2.176.103 2.3534c.078 1.7549-1.694 2.9957-3.317 2.3227z" fill="#fc8a51" fill-rule="evenodd" opacity=".2"/><path clip-rule="evenodd" d="m47.719 99.6366-1.1908-1.2984c-.9895-1.0788-.5229-2.8201.8734-3.2596l1.6805-.529 1.2984-1.1909c1.0788-.9894 2.8201-.5228 3.2596.8734l.529 1.6805 1.1909 1.2985c.9894 1.0787.5228 2.8199-.8734 3.2599l-1.6806.529-1.2984 1.191c-1.0787.989-2.82.522-3.2595-.874z" fill="#ac93e6" fill-rule="evenodd" opacity=".2"/><path clip-rule="evenodd" d="m45.8991 33.4151-1.7602-.076c-1.4625-.0632-2.3638-1.6244-1.6873-2.9225l.8142-1.5624.0761-1.7602c.0631-1.4624 1.6243-2.3638 2.9224-1.6873l1.5624.8143 1.7602.076c1.4624.0632 2.3638 1.6244 1.6873 2.9225l-.8143 1.5624-.076 1.7602c-.0632 1.4624-1.6244 2.3638-2.9224 1.6872z" fill="#ac93e6" fill-rule="evenodd" opacity=".2"/><path clip-rule="evenodd" d="m371.922 109.111-1.191-1.298c-.989-1.079-.523-2.82.874-3.26l1.68-.529 1.299-1.191c1.078-.989 2.82-.523 3.259.874l.529 1.68 1.191 1.299c.99 1.078.523 2.82-.873 3.259l-1.681.529-1.298 1.191c-1.079.989-2.82.523-3.26-.873z" fill="#ac93e6" fill-rule="evenodd" opacity=".2"/></svg>