<svg width="144" height="72" viewBox="0 0 144 72" fill="none" xmlns="http://www.w3.org/2000/svg"><g><path d="M64 36h66" stroke="#6E49CB" stroke-width="4" stroke-linecap="round" stroke-linejoin="round"/><circle cx="130" cy="36" r="12" fill="#4BEACC" stroke="#6E49CB" stroke-width="4" stroke-linecap="round"/><path d="M126.042 35.65a1.001 1.001 0 0 0-1.417 1.412l1.417-1.411Zm2.036 3.461-.708.706a1.001 1.001 0 0 0 1.417 0l-.709-.706Zm7.297-5.905a1 1 0 1 0-1.417-1.412l1.417 1.412Zm-10.75 3.856 2.745 2.755 1.417-1.412-2.745-2.754-1.417 1.411Zm4.162 2.755 6.588-6.611-1.417-1.412-6.588 6.611 1.417 1.412Z" fill="#6E49CB"/><circle cx="92" cy="36" r="12" fill="#FFD8A4" stroke="#6E49CB" stroke-width="4" stroke-linecap="round"/><path d="m94 29 .992.124a1 1 0 0 0-1.745-.782L94 29Zm-7 8-.753-.658A1 1 0 0 0 87 38v-1Zm6.25-2-.992-.124A1 1 0 0 0 93.25 36v-1ZM97 35l.753.658A1 1 0 0 0 97 34v1Zm-7 8-.992-.124a1 1 0 0 0 1.745.782L90 43Zm.75-6 .992.124A1 1 0 0 0 90.75 36v1Zm2.497-8.659-7 8 1.506 1.317 7-8-1.506-1.317Zm.995 6.783.75-6-1.984-.248-.75 6 1.984.248ZM97 34h-3.75v2H97v-2Zm-6.247 9.658 7-8-1.506-1.316-7 8 1.506 1.316Zm-.995-6.782-.75 6 1.984.248.75-6-1.984-.248ZM87 38h3.75v-2H87v2Z" fill="#6E49CB"/><path d="M11 10.08H2V70h34l9-9H11V10.08Z" fill="#AC7FFF" fill-opacity=".24"/><path d="M5 10H2v60h34l3-3" stroke="#6E49CB" stroke-width="4" stroke-linecap="round" stroke-linejoin="round"/><path d="M58 47H44v14l14-14Z" fill="#6E49CB" fill-opacity=".24"/><path d="M44 61H11V2h47v37M44 61l14-14H44v14Z" stroke="#6E49CB" stroke-width="4" stroke-linecap="round" stroke-linejoin="round"/><path d="M23 38h14m-14-8h23m-23-8h23m-23-8h23" stroke="#6E49CB" stroke-width="2" stroke-linecap="round"/><circle cx="58" cy="36" r="6" fill="#fff" stroke="#6E49CB" stroke-width="4" stroke-linecap="round" stroke-linejoin="round"/></g></svg>