<svg xmlns="http://www.w3.org/2000/svg" width="78" height="78" viewBox="0 0 78 78">
  <g fill="none">
    <circle cx="39" cy="39" r="37" fill="#FFFFFF"/>
    <path fill="#EEEEEE" d="M39,78 C17.46,78 0,60.54 0,39 C0,17.46 17.46,0 39,0 C60.54,0 78,17.46 78,39 C78,60.54 60.54,78 39,78 Z M39,74 C58.33,74 74,58.33 74,39 C74,19.67 58.33,4 39,4 C19.67,4 4,19.67 4,39 C4,58.33 19.67,74 39,74 Z"/>
    <path fill="#E1DBF1" d="M30,35 C27.790861,35 26,36.790861 26,39 L26,49 C26,51.209139 27.790861,53 30,53 L48,53 C50.209139,53 52,51.209139 52,49 L52,39 C52,36.790861 50.209139,35 48,35 L30,35 Z M30,31 L48,31 C52.418278,31 56,34.581722 56,39 L56,49 C56,53.418278 52.418278,57 48,57 L30,57 C25.581722,57 22,53.418278 22,49 L22,39 C22,34.581722 25.581722,31 30,31 Z"/>
    <path fill="#6B4FBB" d="M33,28.9999992 L33,30.9999992 L29,30.9999992 L29,28.9999992 C29,23.477 33.477,18.9999992 39,18.9999992 C41.6524902,18.9989384 44.1966462,20.0521658 46.0722402,21.9277598 C47.9478342,23.8033538 49.0010616,26.3475098 49,28.9999992 L49,30.9999992 L45,30.9999992 L45,28.9999992 C45.0007964,27.4084571 44.3689111,25.8818708 43.2435201,24.7564799 C42.1181292,23.6310889 40.5915429,22.9992036 39,22.9999992 C35.6862915,22.9999992 33,25.6862915 33,28.9999992 L33,28.9999992 Z M38,42.732 C37.216064,42.2793943 36.8338624,41.3566781 37.0681483,40.4823111 C37.3024343,39.6079441 38.0947886,38.9999492 39,38.9999492 C39.9052114,38.9999492 40.6975657,39.6079441 40.9318517,40.4823111 C41.1661376,41.3566781 40.783936,42.2793943 40,42.732 L40,44 C40,44.5522847 39.5522847,45 39,45 C38.4477153,45 38,44.5522847 38,44 L38,42.732 Z"/>
  </g>
</svg>
