<svg width="72" height="72" viewBox="0 0 72 72" fill="none" xmlns="http://www.w3.org/2000/svg"><g clip-path="url(#clip0_252_2099)"><path d="M48 55l7-7 12.5 12.5a4.95 4.95 0 11-7 7L48 55z" fill="#6E49CB" fill-opacity=".24"/><path d="M48 55l7-7 13.5 13.5a4.95 4.95 0 010 7v0a4.95 4.95 0 01-7 0L53 60M45 45l6 6" stroke="#6E49CB" stroke-width="4" stroke-linecap="round" stroke-linejoin="round"/><circle cx="27" cy="27" r="25" stroke="#6E49CB" stroke-width="4" stroke-linecap="round" stroke-linejoin="round"/><circle cx="27" cy="27" r="20" fill="#18A3FF" fill-opacity=".24"/><path d="M21 22l6-6M32 22l4-4M20 34l8-8" stroke="#6E49CB" stroke-width="2" stroke-linecap="round" stroke-linejoin="round"/></g><defs><clipPath id="clip0_252_2099"><path fill="#fff" d="M0 0h72v72H0z"/></clipPath></defs></svg>
