<svg width="144" height="144" viewBox="0 0 144 144" fill="none" xmlns="http://www.w3.org/2000/svg"><path d="M4.096 89A70 70 0 0 1 92.43 5.048m39.194 30.279A69.999 69.999 0 0 1 48.876 138.07" stroke="#AC7FFF" stroke-opacity=".24" stroke-width="4" stroke-linecap="round"/><path d="m87.586 61.448-5.047-5.034-55.814 47.481a19.51 19.51 0 0 0-5.278-.723c-2.917 0-5.684.641-8.167 1.789a5.837 5.837 0 0 0-5.446-3.731A5.83 5.83 0 0 0 2 107.054l.024 16.502C2.53 133.828 11.033 142 21.447 142h19.447c4.296 0 7.779-3.477 7.779-7.766s-3.483-7.765-7.78-7.765a8.45 8.45 0 0 0-.39.009 19.49 19.49 0 0 0 .39-3.892c0-1.912-.276-3.759-.791-5.503l47.484-55.635Z" fill="#AFA3C6" fill-opacity=".16"/><path d="m87.586 61.448-47.484 55.635c.515 1.744.792 3.591.792 5.503a19.49 19.49 0 0 1-.391 3.892c.13-.006.26-.009.39-.009 4.297 0 7.78 3.476 7.78 7.765S45.19 142 40.893 142H21.448c-10.414 0-18.916-8.172-19.423-18.443L2 107.054a5.83 5.83 0 0 1 5.834-5.824 5.837 5.837 0 0 1 5.446 3.731 19.412 19.412 0 0 1 8.167-1.789c1.83 0 3.6.252 5.278.723l39.012-33.188" stroke="#6E49CB" stroke-width="4" stroke-linecap="round" stroke-linejoin="round"/><path d="M40.875 122.5a19.28 19.28 0 0 0-3.09-10.5" stroke="#6E49CB" stroke-width="4" stroke-linecap="round" stroke-linejoin="round"/><path d="M112.659 54.938 92.72 67.626l-8.02 9.908c7.402 1.494 15.39-.629 21.129-6.369a23.246 23.246 0 0 0 6.83-16.227ZM89.082 31.36 76.394 51.3l-9.908 8.02c-1.495-7.403.628-15.39 6.368-21.13a23.247 23.247 0 0 1 16.228-6.83Z" fill="#6E49CB" fill-opacity=".24"/><path d="M81.067 44.148 99.85 62.93l-6.956 4.174-16-15.999 4.174-6.956Zm51.322-33.541.696.696v15.303l-15.999-16h15.303Z" fill="#FFC46C"/><path d="m66.417 59.057 9.948-7.89c8.96-14.186 17.738-32.162 34.259-38.672m-44.208 46.56c-1.4-7.334.738-15.21 6.415-20.888a23.38 23.38 0 0 1 4.361-3.434m32.072 32.072a23.416 23.416 0 0 1-3.434 4.36c-5.678 5.678-13.555 7.817-20.889 6.416l7.89-9.948c19.554-12.35 46.312-24.356 40.308-56.774-5.995-1.11-11.293-1.1-16.023-.222l15.999 15.999M76.741 50.952l16 15.998M80.915 43.996l18.781 18.78" stroke="#6E49CB" stroke-width="4" stroke-linecap="round" stroke-linejoin="round"/><circle cx="112.217" cy="32.17" r="7.87" transform="rotate(45 112.217 32.17)" fill="#6E49CB" fill-opacity=".24" stroke="#6E49CB" stroke-width="4"/></svg>