<svg width="72" height="72" viewBox="0 0 72 72" fill="none" xmlns="http://www.w3.org/2000/svg"><rect width="72" height="72" rx="36" fill="#E7E4F2"/><path d="M18.495 47.6a21 21 0 0 1 9.841-31.152M50.706 57h7.559M55 53l4 4-4 4M37.794 19l-4-4 4-4" stroke="#171321" stroke-width="2" stroke-linecap="square"/><path d="M34.465 15.056A21 21 0 1 1 35.995 57M15 57h20" stroke="#171321" stroke-width="2" stroke-linecap="square"/><circle cx="36" cy="36" r="13" fill="#FCA326" stroke="#171321" stroke-width="2" stroke-linecap="square"/><path fill-rule="evenodd" clip-rule="evenodd" d="M37 29v-1h-2v9h2v-8Zm-1 15a2 2 0 1 0 0-4 2 2 0 0 0 0 4Z" fill="#171321"/></svg>