<svg width="134" height="138" xmlns="http://www.w3.org/2000/svg">
  <path d="M108 2H12C6.477 2 2 6.477 2 12v114c0 5.523 4.477 10 10 10h96c5.523 0 10-4.477 10-10V12c0-5.523-4.477-10-10-10z" fill="#fff"/>
  <path d="M12 4a8 8 0 00-8 8v114a8 8 0 008 8h96a8 8 0 008-8V12a8.001 8.001 0 00-8-8H12zm0-4h96c6.627 0 12 5.373 12 12v114c0 6.627-5.373 12-12 12H12c-6.627 0-12-5.373-12-12V12C0 5.373 5.373 0 12 0z" fill="#DFDFDF"/>
  <path d="M22 25h12a2 2 0 010 4H22a2 2 0 010-4zm32 12h12a2 2 0 010 4H54a2 2 0 010-4z" fill="#E0DBF2"/>
  <path d="M66 25h12a2 2 0 010 4H66a2 2 0 010-4z" fill="#DFDFDF"/>
  <path d="M34 49h12a2 2 0 010 4H34a2 2 0 010-4z" fill="#E0DBF2"/>
  <path d="M42 25h4a2 2 0 010 4h-4a2 2 0 010-4z" fill="#DFDFDF"/>
  <path d="M54 61h4a2 2 0 010 4h-4a2 2 0 010-4z" fill="#6E49CB"/>
  <path d="M74 37h4a2 2 0 010 4h-4a2 2 0 010-4zm12-12h4a2 2 0 010 4h-4a2 2 0 010-4z" fill="#DFDFDF"/>
  <path d="M38 73h8a2 2 0 010 4h-8a2 2 0 010-4z" fill="#E0DBF2"/>
  <path d="M54 25h4a2 2 0 010 4h-4a2 2 0 010-4z" fill="#6E49CB"/>
  <path d="M46 61H22a2 2 0 000 4h24a2 2 0 000-4z" fill="#DFDFDF"/>
  <path d="M22 37h24a2 2 0 010 4H22a2 2 0 010-4z" fill="#6E49CB"/>
  <path d="M54 49h24a2 2 0 010 4H54a2 2 0 010-4z" fill="#C2B7E6"/>
  <path d="M22 49h4a2 2 0 010 4h-4a2 2 0 010-4z" fill="#DFDFDF"/>
  <path d="M22 73h8a2 2 0 010 4h-8a2 2 0 010-4z" fill="#6E49CB"/>
  <path d="M22 85h8a2 2 0 010 4h-8a2 2 0 010-4zm16 0h8a2 2 0 010 4h-8a2 2 0 010-4z" fill="#DFDFDF"/>
  <path d="M22 97h12a2 2 0 010 4H22a2 2 0 010-4z" fill="#E0DBF2"/>
  <path d="M40.375 109h14.25c1.312 0 2.375.895 2.375 2s-1.063 2-2.375 2h-14.25c-1.312 0-2.375-.895-2.375-2s1.063-2 2.375-2z" fill="#6E49CB"/>
  <path d="M42 97h4a2 2 0 010 4h-4a2 2 0 010-4z" fill="#E0DBF2"/>
  <path d="M22 109h10a2 2 0 010 4H22a2 2 0 010-4z" fill="#DFDFDF"/>
  <path d="M108.371 116.658c-12.994 9.078-31.014 7.817-42.612-3.78-13.012-13.013-13.012-34.108 0-47.12 13.012-13.01 34.107-13.01 47.118 0 11.599 11.6 12.855 29.624 3.781 42.613.13.109.257.224.379.347l15.244 15.243A5.884 5.884 0 01128.123 134a5.87 5.87 0 01-4.158-1.724l-15.242-15.243a5.675 5.675 0 01-.348-.38l-.004.005zm-1.035-9.326c9.95-9.95 9.95-26.083 0-36.032-9.95-9.95-26.082-9.95-36.032 0-9.95 9.95-9.95 26.082 0 36.032 9.95 9.95 26.083 9.95 36.032 0" fill="#6E49CB"/>
  <g clip-path="url(#search-timeout-md__clip0)" fill="#FC6D26">
    <path d="M97.287 75.314a16 16 0 10-1.416 28.136 2 2 0 00-1.718-3.613 12.001 12.001 0 01-16.445-14.899 12 12 0 0122.168-1.01 2 2 0 003.625-1.69 16.003 16.003 0 00-6.214-6.924z"/>
    <path d="M87 83a2 2 0 114 0v8a2 2 0 01-1.106 1.789l-4 2a2 2 0 01-1.788-3.578L87 89.764V83zm18 20a2 2 0 11-3.999.001A2 2 0 01105 103zm-2-14a2 2 0 00-2 2v6a2 2 0 104 0v-6a2 2 0 00-2-2z"/>
  </g>
  <defs>
    <clipPath id="search-timeout-md__clip0">
      <path fill="#fff" transform="matrix(-1 0 0 1 105 73)" d="M0 0h32v32H0z"/>
    </clipPath>
  </defs>
</svg>
