<svg xmlns="http://www.w3.org/2000/svg" width="355" height="201" viewBox="0 0 355 201">
  <g fill="none" fill-rule="evenodd">
    <g fill-rule="nonzero" transform="translate(118 4)">
      <path fill="#FFF" stroke="#EEE" stroke-width="2" d="M11.8,0 L106.2,0 C112.71655,0 118,5.33406522 118,11.9130435 L118,125.086957 C118,131.665935 112.71655,137 106.2,137 L11.8,137 C5.28345,137 0,131.665935 0,125.086957 L0,11.9130435 C0,5.33406522 5.28345,0 11.8,0 Z"/>
      <path fill="#E1DBF1" d="M22,25 L34,25 C35.1045695,25 36,25.8954305 36,27 C36,28.1045695 35.1045695,29 34,29 L22,29 C20.8954305,29 20,28.1045695 20,27 C20,25.8954305 20.8954305,25 22,25 Z M54,37 L66,37 C67.1045695,37 68,37.8954305 68,39 C68,40.1045695 67.1045695,41 66,41 L54,41 C52.8954305,41 52,40.1045695 52,39 C52,37.8954305 52.8954305,37 54,37 Z"/>
      <path fill="#EEE" d="M65,25 L77,25 C78.1045695,25 79,25.8954305 79,27 C79,28.1045695 78.1045695,29 77,29 L65,29 C63.8954305,29 63,28.1045695 63,27 C63,25.8954305 63.8954305,25 65,25 Z"/>
      <path fill="#E1DBF1" d="M34,49 L46,49 C47.1045695,49 48,49.8954305 48,51 C48,52.1045695 47.1045695,53 46,53 L34,53 C32.8954305,53 32,52.1045695 32,51 C32,49.8954305 32.8954305,49 34,49 Z"/>
      <path fill="#FEE1D3" d="M42,25 L46,25 C47.1045695,25 48,25.8954305 48,27 C48,28.1045695 47.1045695,29 46,29 L42,29 C40.8954305,29 40,28.1045695 40,27 C40,25.8954305 40.8954305,25 42,25 Z"/>
      <path fill="#FC6D26" d="M54,61 L58,61 C59.1045695,61 60,61.8954305 60,63 C60,64.1045695 59.1045695,65 58,65 L54,65 C52.8954305,65 52,64.1045695 52,63 C52,61.8954305 52.8954305,61 54,61 Z"/>
      <path fill="#FEF0E8" d="M73,37 L77,37 C78.1045695,37 79,37.8954305 79,39 C79,40.1045695 78.1045695,41 77,41 L73,41 C71.8954305,41 71,40.1045695 71,39 C71,37.8954305 71.8954305,37 73,37 Z M85,25 L89,25 C90.1045695,25 91,25.8954305 91,27 C91,28.1045695 90.1045695,29 89,29 L85,29 C83.8954305,29 83,28.1045695 83,27 C83,25.8954305 83.8954305,25 85,25 Z"/>
      <path fill="#E1DBF1" d="M38,73 L46,73 C47.1045695,73 48,73.8954305 48,75 C48,76.1045695 47.1045695,77 46,77 L38,77 C36.8954305,77 36,76.1045695 36,75 C36,73.8954305 36.8954305,73 38,73 Z"/>
      <path fill="#FC6D26" d="M65,61 L69,61 C70.1045695,61 71,61.8954305 71,63 C71,64.1045695 70.1045695,65 69,65 L65,65 C63.8954305,65 63,64.1045695 63,63 C63,61.8954305 63.8954305,61 65,61 Z"/>
      <path fill="#E1DBF1" d="M85.5,57 C86.8807119,57 88,58.1192881 88,59.5 C88,60.8807119 86.8807119,62 85.5,62 C84.1192881,62 83,60.8807119 83,59.5 C83,58.1192881 84.1192881,57 85.5,57 L85.5,57 Z M95.5,86 C96.8807119,86 98,87.1192881 98,88.5 C98,89.8807119 96.8807119,91 95.5,91 C94.1192881,91 93,89.8807119 93,88.5 C93,87.1192881 94.1192881,86 95.5,86 L95.5,86 Z"/>
      <path fill="#FC6D26" d="M104.5,86 C105.880712,86 107,87.1192881 107,88.5 C107,89.8807119 105.880712,91 104.5,91 C103.119288,91 102,89.8807119 102,88.5 C102,87.1192881 103.119288,86 104.5,86 Z M53,25 L57,25 C58.1045695,25 59,25.8954305 59,27 C59,28.1045695 58.1045695,29 57,29 L53,29 C51.8954305,29 51,28.1045695 51,27 C51,25.8954305 51.8954305,25 53,25 Z"/>
      <path fill="#EEE" d="M21.9761905,61 L45.6904762,61 C46.7818961,61 47.6666667,61.8954305 47.6666667,63 C47.6666667,64.1045695 46.7818961,65 45.6904762,65 L21.9761905,65 C20.8847706,65 20,64.1045695 20,63 C20,61.8954305 20.8847706,61 21.9761905,61 Z M71.8048452,71 L100.599917,71 C101.92594,71 103,72.12 103,73.5 C103,74.88 101.92594,76 100.599917,76 L71.8058333,76 C70.4798095,76 69.40575,74.88 69.40575,73.5 C69.40575,72.12 70.4798095,71 71.8058333,71 L71.8048452,71 Z"/>
      <path fill="#EFEDF8" d="M56.4280714,86 L85.5709286,86 C86.912968,86 88,87.12 88,88.5 C88,89.88 86.912968,91 85.5709286,91 L56.4290714,91 C55.087032,91 54,89.88 54,88.5 C54,87.12 55.087032,86 56.4290714,86 L56.4280714,86 Z"/>
      <path fill="#6B4FBB" d="M22,37 L46,37 C47.1045695,37 48,37.8954305 48,39 C48,40.1045695 47.1045695,41 46,41 L22,41 C20.8954305,41 20,40.1045695 20,39 C20,37.8954305 20.8954305,37 22,37 Z"/>
      <path fill="#C3B8E3" d="M53,49 L77,49 C78.1045695,49 79,49.8954305 79,51 C79,52.1045695 78.1045695,53 77,53 L53,53 C51.8954305,53 51,52.1045695 51,51 C51,49.8954305 51.8954305,49 53,49 Z"/>
      <path fill="#FEF0E8" d="M22,49 L26,49 C27.1045695,49 28,49.8954305 28,51 C28,52.1045695 27.1045695,53 26,53 L22,53 C20.8954305,53 20,52.1045695 20,51 C20,49.8954305 20.8954305,49 22,49 Z"/>
      <path fill="#6B4FBB" d="M54,73 L58,73 C59.1045695,73 60,73.8954305 60,75 C60,76.1045695 59.1045695,77 58,77 L54,77 C52.8954305,77 52,76.1045695 52,75 C52,73.8954305 52.8954305,73 54,73 Z"/>
      <path fill="#FC6D26" d="M22,73 L30,73 C31.1045695,73 32,73.8954305 32,75 C32,76.1045695 31.1045695,77 30,77 L22,77 C20.8954305,77 20,76.1045695 20,75 C20,73.8954305 20.8954305,73 22,73 Z"/>
      <path fill="#FEF0E8" d="M22,85 L30,85 C31.1045695,85 32,85.8954305 32,87 C32,88.1045695 31.1045695,89 30,89 L22,89 C20.8954305,89 20,88.1045695 20,87 C20,85.8954305 20.8954305,85 22,85 Z M38,85 L46,85 C47.1045695,85 48,85.8954305 48,87 C48,88.1045695 47.1045695,89 46,89 L38,89 C36.8954305,89 36,88.1045695 36,87 C36,85.8954305 36.8954305,85 38,85 Z"/>
      <path fill="#EFEDF8" d="M22,97 L34,97 C35.1045695,97 36,97.8954305 36,99 C36,100.104569 35.1045695,101 34,101 L22,101 C20.8954305,101 20,100.104569 20,99 C20,97.8954305 20.8954305,97 22,97 Z"/>
      <path fill="#FC6D26" d="M40.375,109 L54.625,109 C55.937,109 57,109.895 57,111 C57,112.105 55.937,113 54.625,113 L40.375,113 C39.063,113 38,112.105 38,111 C38,109.895 39.063,109 40.375,109 Z"/>
      <path fill="#6B4FBB" d="M71.375,100 L85.625,100 C86.937,100 88,101.12 88,102.5 C88,103.88 86.937,105 85.625,105 L71.375,105 C70.063,105 69,103.88 69,102.5 C69,101.12 70.063,100 71.375,100 Z"/>
      <path fill="#FEE1D3" d="M42,97 L46,97 C47.1045695,97 48,97.8954305 48,99 C48,100.104569 47.1045695,101 46,101 L42,101 C40.8954305,101 40,100.104569 40,99 C40,97.8954305 40.8954305,97 42,97 Z"/>
      <path fill="#FEF0E8" d="M59,109 L63,109 C64.1045695,109 65,109.895431 65,111 C65,112.104569 64.1045695,113 63,113 L59,113 C57.8954305,113 57,112.104569 57,111 C57,109.895431 57.8954305,109 59,109 Z M95.5,100 L100.5,100 C101.880712,100 103,101.119288 103,102.5 C103,103.880712 101.880712,105 100.5,105 L95.5,105 C94.1192881,105 93,103.880712 93,102.5 C93,101.119288 94.1192881,100 95.5,100 L95.5,100 Z"/>
      <path fill="#FC6D26" d="M56.5,100 L61.5,100 C62.8807119,100 64,101.119288 64,102.5 C64,103.880712 62.8807119,105 61.5,105 L56.5,105 C55.1192881,105 54,103.880712 54,102.5 C54,101.119288 55.1192881,100 56.5,100 Z"/>
      <path fill="#EEE" d="M22,109 L32,109 C33.1045695,109 34,109.895431 34,111 C34,112.104569 33.1045695,113 32,113 L22,113 C20.8954305,113 20,112.104569 20,111 C20,109.895431 20.8954305,109 22,109 Z"/>
    </g>
    <path fill="#E5E5E5" fill-rule="nonzero" d="M80.000009,75 C80.000009,73.8949991 80.8870176,73 81.9980172,73 L86.0020156,73 C87.1050151,73 88.000009,73.8879991 88.000009,75 C88.000009,76.1049969 87.1130151,77 86.0020156,77 L81.9980172,77 C81.4674417,77.0010627 80.9583192,76.7906277 80.5833326,76.415266 C80.2083461,76.0399043 79.9984204,75.5305718 80.000009,75 Z M94.0000033,75 C94.0000033,73.8949991 94.8870119,73 95.9980115,73 L100.00201,73 C101.105009,73 102.000003,73.8879991 102.000003,75 C102.000003,76.1049969 101.113009,77 100.00201,77 L95.9980115,77 C95.467436,77.0010627 94.9583135,76.7906277 94.5833269,76.415266 C94.2083404,76.0399043 93.9984147,75.5305718 94.0000033,75 Z"/>
    <circle cx="38" cy="74" r="35" fill="#FFF" fill-rule="nonzero"/>
    <path fill="#EEE" fill-rule="nonzero" d="M38,109 C18.67,109 3,93.33 3,74 C3,54.67 18.67,39 38,39 C57.33,39 73,54.67 73,74 C73,93.33 57.33,109 38,109 Z M38,105 C55.12,105 69,91.12 69,74 C69,56.88 55.12,43 38,43 C20.88,43 7,56.88 7,74 C7,91.12 20.88,105 38,105 Z"/>
    <path fill="#FEE1D3" fill-rule="nonzero" d="M38,93 C27.507,93 19,84.493 19,74 C19,63.507 27.507,55 38,55 C48.493,55 57,63.507 57,74 C57,84.493 48.493,93 38,93 M38,90 C46.837,90 54,82.837 54,74 C54,65.163 46.837,58 38,58 C29.163,58 22,65.163 22,74 C22,82.837 29.163,90 38,90"/>
    <path fill="#FC6D26" fill-rule="nonzero" d="M36,64.8652236 C36.0280029,63.2709793 36.9151793,62 38,62 C39.0848207,62 39.9719971,63.2709793 40,64.8652236 L40,72.698802 C39.9719971,74.2930462 39.0848207,75.5640255 38,75.5640255 C36.9151793,75.5640255 36.0280029,74.2930462 36,72.698802 L36,64.8652236 M38,84 C36.8954305,84 36,82.877579 36,81.4930026 C36,80.1084261 36.8954305,78.9860051 38,78.9860051 C39.1045695,78.9860051 40,80.1084261 40,81.4930026 C40,82.877579 39.1045695,84 38,84"/>
    <path fill="#E5E5E5" fill-rule="nonzero" d="M252.000009,75 C252.000009,73.8949991 252.887018,73 253.998017,73 L258.002016,73 C259.105015,73 260.000009,73.8879991 260.000009,75 C260.000009,76.1049969 259.113015,77 258.002016,77 L253.998017,77 C253.467442,77.0010627 252.958319,76.7906277 252.583333,76.415266 C252.208346,76.0399043 251.99842,75.5305718 252.000009,75 Z M266.000003,75 C266.000003,73.8949991 266.887012,73 267.998011,73 L272.00201,73 C273.105009,73 274.000003,73.8879991 274.000003,75 C274.000003,76.1049969 273.113009,77 272.00201,77 L267.998011,77 C267.467436,77.0010627 266.958314,76.7906277 266.583327,76.415266 C266.20834,76.0399043 265.998415,75.5305718 266.000003,75 Z"/>
    <circle cx="317" cy="74" r="35" fill="#FFF" fill-rule="nonzero"/>
    <path fill="#EEE" fill-rule="nonzero" d="M317,109 C297.67,109 282,93.33 282,74 C282,54.67 297.67,39 317,39 C336.33,39 352,54.67 352,74 C352,93.33 336.33,109 317,109 Z M317,105 C334.12,105 348,91.12 348,74 C348,56.88 334.12,43 317,43 C299.88,43 286,56.88 286,74 C286,91.12 299.88,105 317,105 Z"/>
    <path fill="#D2CAEA" fill-rule="nonzero" d="M317,93 C306.507,93 298,84.493 298,74 C298,63.507 306.507,55 317,55 C327.493,55 336,63.507 336,74 C336,84.493 327.493,93 317,93 M317,90 C325.837,90 333,82.837 333,74 C333,65.163 325.837,58 317,58 C308.163,58 301,65.163 301,74 C301,82.837 308.163,90 317,90"/>
    <path fill="#6B4FBB" fill-rule="nonzero" d="M311,70 L311,67 C311,63.6862915 313.686291,61 317,61 C320.313709,61 323,63.6862915 323,67 L323,70 L326,70 L326,85 L308,85 L308,70 L311,70 Z M314,70 L320,70 L320,67 C320,65.3431458 318.656854,64 317,64 C315.343146,64 314,65.3431458 314,67 L314,70 Z M311,73 L311,82 L323,82 L323,73 L311,73 Z M315.5,76 L318.5,76 L318.5,79 L315.5,79 L315.5,76 Z"/>
    <g transform="translate(153 52)">
      <g fill-rule="nonzero" transform="rotate(-45 79.07 31.801)">
        <circle cx="46" cy="46" r="46" fill="#EFEDF8" stroke="#6E49CB" stroke-width="4"/>
        <circle cx="46" cy="46" r="38" fill="#FFF" stroke="#C2B7E6" stroke-width="2"/>
        <rect width="4" height="14" x="41" y="93" fill="#6E49CB"/>
        <rect width="4" height="14" x="49" y="93" fill="#6E49CB"/>
        <rect width="14" height="8" x="40" y="109" fill="#EFEDF8" stroke="#6E49CB" stroke-width="4"/>
        <path fill="#EFEDF8" stroke="#6E49CB" stroke-width="4" d="M54,117 L40,117 L40,148 C40,149.932997 40.7835017,151.682997 42.0502525,152.949747 C43.3170034,154.216498 45.0670034,155 47,155 C48.9329966,155 50.6829966,154.216498 51.9497475,152.949747 C53.2164983,151.682997 54,149.932997 54,148 L54,117 Z"/>
      </g>
      <path fill="#6E49CB" fill-rule="nonzero" d="M69,51 C74.5228,51 79,55.47716 79,61 C79,66.52284 74.5228,71 69,71 L61,71 L61,75 L57,75 L57,79 L51,79 L51,73 L59.59474,64.40526 C59.20986,63.3424 59,62.1957 59,61 C59,55.47716 63.47716,51 69,51 Z M69,55 C65.6863,55 63,57.6863 63,61 C63,64.3137 65.6863,67 69,67 C72.3138,67 75,64.3137 75,61 C75,57.6863 72.3138,55 69,55 Z M70.4,57.6 C71.5044,57.6 72.4,58.49544 72.4,59.6 C72.4,60.70458 71.5044,61.6 70.4,61.6 C69.2954,61.6 68.3999,60.70458 68.3999,59.6 C68.3999,58.49544 69.2954,57.6 70.4,57.6 Z"/>
      <path stroke="#F2F2F2" stroke-linecap="round" stroke-width="4" d="M39,48 C37.7665898,50.1712692 36.754599,52.5181375 36,55 M57,95.0856079 C59.371698,95.6829647 61.8526901,96 64.4067488,96 C75.1095087,96 84.5292038,90.4327916 90,82 M95,61 C92.9759111,45.7500439 80.2679187,34 64.8930858,34 C57.2853244,34 50.3305281,36.8769509 45,41.6313124"/>
    </g>
  </g>
</svg>
