<svg width="72" height="72" fill="none" xmlns="http://www.w3.org/2000/svg"><path d="M61 42V11c-10 0-18-2-25-9-7 7-15 9-25 9v31c0 21 25 28 25 28s25-7 25-28z" stroke="#6E49CB" stroke-width="4" stroke-linecap="round" stroke-linejoin="round"/><circle cx="36" cy="36" r="12" fill="#4BEACC" stroke="#6E49CB" stroke-width="4" stroke-linecap="round"/><path d="M32.042 35.65a1 1 0 00-1.417 1.412l1.417-1.411zm2.036 3.461l-.708.706a1 1 0 001.417 0l-.709-.706zm7.297-5.905a1 1 0 10-1.417-1.412l1.417 1.412zm-10.75 3.856l2.745 2.755 1.417-1.412-2.745-2.754-1.417 1.411zm4.162 2.755l6.588-6.611-1.417-1.412-6.588 6.611 1.417 1.412z" fill="#6E49CB"/></svg>