<svg height="82" viewBox="0 0 78 82" width="78" xmlns="http://www.w3.org/2000/svg"><g fill="none" fill-rule="evenodd"><g fill-rule="nonzero"><path d="m2.12 42c1.527 19.032 17.455 34 36.88 34 .7395013 0 1.4739344-.021693 2.2026978-.0644774 1.4965395 2.0554389 3.340896 3.8420683 5.4464611 5.2730502-2.4676823.5185863-5.0265494.7914272-7.6491589.7914272-20.435 0-37-16.565-37-37 0-1.01.04-2.01.12-3zm73.76 0c.08.99.12 1.99.12 3 0 1.2839478-.0653938 2.552618-.1930327 3.8028617-.2809632-.3318214-.5707284-.6547083-.8696809-.9687693.4647296-1.8911033.7827449-3.8402973.9427136-5.8340924z" fill="#f9f9f9"/><path d="m39 0c21.54 0 39 17.46 39 39 0 3.706265-.5169229 7.291737-1.4826089 10.6882562-.9631988-1.265049-2.0591631-2.4218899-3.2677586-3.4503347.4920584-2.3346493.7503675-4.7561191.7503675-7.2379215 0-19.33-15.67-35-35-35s-35 15.67-35 35 15.67 35 35 35c.3128981 0 .6248372-.0041059.9357663-.0122668.7970016 1.3793572 1.7396903 2.66489 2.8069649 3.8348034-1.2319302.1174909-2.4803236.1774634-3.7427312.1774634-21.54 0-39-17.46-39-39s17.46-39 39-39z" fill="#eee"/><path d="m48 20c4.418 0 8 3.582 8 8l.0007145 13.2027401c-1.3782136.1878735-2.7158179.5033861-4.0005119.9342367l-.0002026-14.1369768c0-2.21-1.79-4-4-4h-18c-2.21 0-4 1.79-4 4v22c0 2.21 1.79 4 4 4l8.9192997-.0002904c-.5718769 1.2739629-1.0260813 2.6122152-1.3487778 4.0009216l-7.5705219-.0006312c-4.418 0-8-3.582-8-8v-22c0-4.418 3.582-8 8-8z" fill="#e1dbf2"/><path d="m45 44c.6622069 0 1.2489946.3214296 1.6129334.8168593-1.352335.9224284-2.594991 1.9910562-3.7067279 3.1833574l-9.9062055-.0002167c-1.105 0-2-.895-2-2s.895-2 2-2zm0-7c1.105 0 2 .895 2 2s-.895 2-2 2h-12c-1.105 0-2-.895-2-2s.895-2 2-2zm-4-7c1.105 0 2 .895 2 2s-.895 2-2 2h-8c-1.105 0-2-.895-2-2s.895-2 2-2z" fill="#6b4fbb"/></g><g transform="translate(40 44)"><path d="m11.934343 21.7918564c-.7810486-.7810486-.7810486-2.0473786 0-2.8284271.7810485-.7810486 2.0473785-.7810486 2.8284271 0l2.2417864 2.241891.0000639-7.177c0-1.1045695.8954305-2 2-2s2 .8954305 2 2l-.0000639 7.181 2.2452253-2.2440905c.7810486-.7810486 2.0473785-.7810486 2.8284271 0s.7810486 2.0473785 0 2.8284271l-5.6568542 5.6568543c-.698833.6988329-1.7861599.7723943-2.566781.2206841-.0258803-.0188687-.0497367-.0365353-.0732789-.0548004-.0655308-.050517-.1283803-.1058968-.1883672-.1658837z" fill="#e05842"/><path d="m19 38c-10.493 0-19-8.507-19-19s8.507-19 19-19 19 8.507 19 19-8.507 19-19 19zm0-4c8.284 0 15-6.716 15-15s-6.716-15-15-15-15 6.716-15 15 6.716 15 15 15z" fill="#f2b4a9" fill-rule="nonzero"/></g></g></svg>