<svg height="82" viewBox="0 0 78 82" width="78" xmlns="http://www.w3.org/2000/svg"><g fill="none"><path d="m2.12 42c1.527 19.032 17.455 34 36.88 34 .7395013 0 1.4739344-.021693 2.2026978-.0644774 1.4965395 2.0554389 3.340896 3.8420683 5.4464611 5.2730502-2.4676823.5185863-5.0265494.7914272-7.6491589.7914272-20.435 0-37-16.565-37-37 0-1.01.04-2.01.12-3zm73.76 0c.08.99.12 1.99.12 3 0 1.2839478-.0653938 2.552618-.1930327 3.8028617-.2809632-.3318214-.5707284-.6547083-.8696809-.9687693.4647296-1.8911033.7827449-3.8402973.9427136-5.8340924z" fill="#f9f9f9"/><path d="m39 0c21.54 0 39 17.46 39 39 0 3.706265-.5169229 7.291737-1.4826089 10.6882562-.9631988-1.265049-2.0591631-2.4218899-3.2677586-3.4503347.4920584-2.3346493.7503675-4.7561191.7503675-7.2379215 0-19.33-15.67-35-35-35s-35 15.67-35 35 15.67 35 35 35c.3128981 0 .6248372-.0041059.9357663-.0122668.7970016 1.3793572 1.7396903 2.66489 2.8069649 3.8348034-1.2319302.1174909-2.4803236.1774634-3.7427312.1774634-21.54 0-39-17.46-39-39s17.46-39 39-39z" fill="#eee"/><path d="m48 20c4.418 0 8 3.582 8 8l.0007145 13.2027401c-1.3782136.1878735-2.7158179.5033861-4.0005119.9342367l-.0002026-14.1369768c0-2.21-1.79-4-4-4h-18c-2.21 0-4 1.79-4 4v22c0 2.21 1.79 4 4 4l8.9192997-.0002904c-.5718769 1.2739629-1.0260813 2.6122152-1.3487778 4.0009216l-7.5705219-.0006312c-4.418 0-8-3.582-8-8v-22c0-4.418 3.582-8 8-8z" fill="#e1dbf2"/><path d="m45 44c.6622069 0 1.2489946.3214296 1.6129334.8168593-1.352335.9224284-2.594991 1.9910562-3.7067279 3.1833574l-9.9062055-.0002167c-1.105 0-2-.895-2-2s.895-2 2-2zm0-7c1.105 0 2 .895 2 2s-.895 2-2 2h-12c-1.105 0-2-.895-2-2s.895-2 2-2zm-4-7c1.105 0 2 .895 2 2s-.895 2-2 2h-8c-1.105 0-2-.895-2-2s.895-2 2-2z" fill="#6b4fbb"/><g transform="translate(40 44)"><path d="m19 38c-10.49342857 0-19-8.5065714-19-19 0-10.49342857 8.50657143-19 19-19 10.4934286 0 19 8.50657143 19 19 0 10.4934286-8.5065714 19-19 19m0-3.6190476c8.4948095 0 15.3809524-6.8861429 15.3809524-15.3809524s-6.8861429-15.38095238-15.3809524-15.38095238-15.38095238 6.88614288-15.38095238 15.38095238 6.88614288 15.3809524 15.38095238 15.3809524" fill="#fde2d7"/><path d="m17 11.7276447c0-1.5083875 1.1225-2.7276447 2.5-2.7276447 1.3808333 0 2.5 1.2201664 2.5 2.7276447v7.2673546c0 1.5083875-1.1225 2.7276447-2.5 2.7276447-1.3808333 0-2.5-1.2201664-2.5-2.7276447zm2.5 17.2723553c-1.3808333 0-2.5-1.2210756-2.5-2.7276447s1.1191667-2.7276447 2.5-2.7276447 2.5 1.2210756 2.5 2.7276447-1.1191667 2.7276447-2.5 2.7276447" fill="#fb722e"/></g></g></svg>