<svg xmlns="http://www.w3.org/2000/svg" xmlns:xlink="http://www.w3.org/1999/xlink" width="282" height="181" viewBox="0 0 282 181">
  <defs>
    <rect id="a" width="53" height="4" x="30" y="58" rx="2"/>
    <path id="b" d="M31,15 C22.163444,15 15,22.163444 15,31 C15,39.836556 22.163444,47 31,47 C39.836556,47 47,39.836556 47,31 C47,22.163444 39.836556,15 31,15 Z"/>
    <rect id="c" width="53" height="4" x="28" y="56" rx="2"/>
    <path id="d" d="M20,4 C11.163444,4 4,11.163444 4,20 C4,28.836556 11.163444,36 20,36 C28.836556,36 36,28.836556 36,20 C36,11.163444 28.836556,4 20,4 Z"/>
  </defs>
  <g fill="none" fill-rule="evenodd">
    <g transform="translate(71)">
      <rect width="136" height="177" x="2" y="2" fill="#FFFFFF" stroke="#DFDFDF" stroke-width="4" rx="8"/>
      <path fill="#DFDFDF" fill-rule="nonzero" d="M5 1C5.55228475 1 6 1.44771525 6 2 6 2.51283584 5.61395981 2.93550716 5.11662113 2.99327227L5 3 1 3C.44771525 3 0 2.55228475 0 2 0 1.48716416.38604019 1.06449284.883378875 1.00672773L1 1 5 1zM5 34C5.55228475 34 6 34.4477153 6 35 6 35.5128358 5.61395981 35.9355072 5.11662113 35.9932723L5 36 1 36C.44771525 36 0 35.5522847 0 35 0 34.4871642.38604019 34.0644928.883378875 34.0067277L1 34 5 34zM5 12C5.55228475 12 6 12.4477153 6 13 6 13.5128358 5.61395981 13.9355072 5.11662113 13.9932723L5 14 1 14C.44771525 14 0 13.5522847 0 13 0 12.4871642.38604019 12.0644928.883378875 12.0067277L1 12 5 12zM5 45C5.55228475 45 6 45.4477153 6 46 6 46.5128358 5.61395981 46.9355072 5.11662113 46.9932723L5 47 1 47C.44771525 47 0 46.5522847 0 46 0 45.4871642.38604019 45.0644928.883378875 45.0067277L1 45 5 45zM28.5 0C29.6045695 0 30.5.8954305 30.5 2 30.5 3.0543618 29.6841222 3.91816512 28.6492623 3.99451426L28.5 4 16.5 4C15.3954305 4 14.5 3.1045695 14.5 2 14.5.945638205 15.3158778.0818348781 16.3507377.00548573643L16.5 0 28.5 0zM23.5 11C24.6045695 11 25.5 11.8954305 25.5 13 25.5 14.0543618 24.6841222 14.9181651 23.6492623 14.9945143L23.5 15 16.5 15C15.3954305 15 14.5 14.1045695 14.5 13 14.5 11.9456382 15.3158778 11.0818349 16.3507377 11.0054857L16.5 11 23.5 11zM23.5 44C24.6045695 44 25.5 44.8954305 25.5 46 25.5 47.0543618 24.6841222 47.9181651 23.6492623 47.9945143L23.5 48 16.5 48C15.3954305 48 14.5 47.1045695 14.5 46 14.5 44.9456382 15.3158778 44.0818349 16.3507377 44.0054857L16.5 44 23.5 44zM47.5 11C48.6045695 11 49.5 11.8954305 49.5 13 49.5 14.0543618 48.6841222 14.9181651 47.6492623 14.9945143L47.5 15 31.5 15C30.3954305 15 29.5 14.1045695 29.5 13 29.5 11.9456382 30.3158778 11.0818349 31.3507377 11.0054857L31.5 11 47.5 11zM47.5 44C48.6045695 44 49.5 44.8954305 49.5 46 49.5 47.0543618 48.6841222 47.9181651 47.6492623 47.9945143L47.5 48 31.5 48C30.3954305 48 29.5 47.1045695 29.5 46 29.5 44.9456382 30.3158778 44.0818349 31.3507377 44.0054857L31.5 44 47.5 44zM66.5 44C67.6045695 44 68.5 44.8954305 68.5 46 68.5 47.0543618 67.6841222 47.9181651 66.6492623 47.9945143L66.5 48 55.5 48C54.3954305 48 53.5 47.1045695 53.5 46 53.5 44.9456382 54.3158778 44.0818349 55.3507377 44.0054857L55.5 44 66.5 44zM33.5 22C34.6045695 22 35.5 22.8954305 35.5 24 35.5 25.0543618 34.6841222 25.9181651 33.6492623 25.9945143L33.5 26 16.5 26C15.3954305 26 14.5 25.1045695 14.5 24 14.5 22.9456382 15.3158778 22.0818349 16.3507377 22.0054857L16.5 22 33.5 22zM52.5 22C53.6045695 22 54.5 22.8954305 54.5 24 54.5 25.0543618 53.6841222 25.9181651 52.6492623 25.9945143L52.5 26 41.5 26C40.3954305 26 39.5 25.1045695 39.5 24 39.5 22.9456382 40.3158778 22.0818349 41.3507377 22.0054857L41.5 22 52.5 22zM86.5 0C87.6045695 0 88.5.8954305 88.5 2 88.5 3.0543618 87.6841222 3.91816512 86.6492623 3.99451426L86.5 4 74.5 4C73.3954305 4 72.5 3.1045695 72.5 2 72.5.945638205 73.3158778.0818348781 74.3507377.00548573643L74.5 0 86.5 0zM86.5 33C87.6045695 33 88.5 33.8954305 88.5 35 88.5 36.0543618 87.6841222 36.9181651 86.6492623 36.9945143L86.5 37 74.5 37C73.3954305 37 72.5 36.1045695 72.5 35 72.5 33.9456382 73.3158778 33.0818349 74.3507377 33.0054857L74.5 33 86.5 33zM28.5 33C29.6045695 33 30.5 33.8954305 30.5 35 30.5 36.0543618 29.6841222 36.9181651 28.6492623 36.9945143L28.5 37 16.5 37C15.3954305 37 14.5 36.1045695 14.5 35 14.5 33.9456382 15.3158778 33.0818349 16.3507377 33.0054857L16.5 33 28.5 33zM66.5 11C67.6045695 11 68.5 11.8954305 68.5 13 68.5 14.0543618 67.6841222 14.9181651 66.6492623 14.9945143L66.5 15 55.5 15C54.3954305 15 53.5 14.1045695 53.5 13 53.5 11.9456382 54.3158778 11.0818349 55.3507377 11.0054857L55.5 11 66.5 11zM42.5 0C43.6045695 0 44.5.8954305 44.5 2 44.5 3.0543618 43.6841222 3.91816512 42.6492623 3.99451426L42.5 4 36.5 4C35.3954305 4 34.5 3.1045695 34.5 2 34.5.945638205 35.3158778.0818348781 36.3507377.00548573643L36.5 0 42.5 0zM66.5 33C67.6045695 33 68.5 33.8954305 68.5 35 68.5 36.0543618 67.6841222 36.9181651 66.6492623 36.9945143L66.5 37 50.5 37C49.3954305 37 48.5 36.1045695 48.5 35 48.5 33.9456382 49.3158778 33.0818349 50.3507377 33.0054857L50.5 33 66.5 33zM5 23C5.55228475 23 6 23.4477153 6 24 6 24.5128358 5.61395981 24.9355072 5.11662113 24.9932723L5 25 1 25C.44771525 25 0 24.5522847 0 24 0 23.4871642.38604019 23.0644928.883378875 23.0067277L1 23 5 23zM42.5 33C43.6045695 33 44.5 33.8954305 44.5 35 44.5 36.0543618 43.6841222 36.9181651 42.6492623 36.9945143L42.5 37 36.5 37C35.3954305 37 34.5 36.1045695 34.5 35 34.5 33.9456382 35.3158778 33.0818349 36.3507377 33.0054857L36.5 33 42.5 33zM66.5 0C67.6045695 0 68.5.8954305 68.5 2 68.5 3.0543618 67.6841222 3.91816512 66.6492623 3.99451426L66.5 4 50.5 4C49.3954305 4 48.5 3.1045695 48.5 2 48.5.945638205 49.3158778.0818348781 50.3507377.00548573643L50.5 0 66.5 0zM5 56C5.55228475 56 6 56.4477153 6 57 6 57.5128358 5.61395981 57.9355072 5.11662113 57.9932723L5 58 1 58C.44771525 58 0 57.5522847 0 57 0 56.4871642.38604019 56.0644928.883378875 56.0067277L1 56 5 56zM5 89C5.55228475 89 6 89.4477153 6 90 6 90.5128358 5.61395981 90.9355072 5.11662113 90.9932723L5 91 1 91C.44771525 91 0 90.5522847 0 90 0 89.4871642.38604019 89.0644928.883378875 89.0067277L1 89 5 89zM5 67C5.55228475 67 6 67.4477153 6 68 6 68.5128358 5.61395981 68.9355072 5.11662113 68.9932723L5 69 1 69C.44771525 69 0 68.5522847 0 68 0 67.4871642.38604019 67.0644928.883378875 67.0067277L1 67 5 67zM5 100C5.55228475 100 6 100.447715 6 101 6 101.512836 5.61395981 101.935507 5.11662113 101.993272L5 102 1 102C.44771525 102 0 101.552285 0 101 0 100.487164.38604019 100.064493.883378875 100.006728L1 100 5 100zM28.5 55C29.6045695 55 30.5 55.8954305 30.5 57 30.5 58.0543618 29.6841222 58.9181651 28.6492623 58.9945143L28.5 59 16.5 59C15.3954305 59 14.5 58.1045695 14.5 57 14.5 55.9456382 15.3158778 55.0818349 16.3507377 55.0054857L16.5 55 28.5 55zM23.5 66C24.6045695 66 25.5 66.8954305 25.5 68 25.5 69.0543618 24.6841222 69.9181651 23.6492623 69.9945143L23.5 70 16.5 70C15.3954305 70 14.5 69.1045695 14.5 68 14.5 66.9456382 15.3158778 66.0818349 16.3507377 66.0054857L16.5 66 23.5 66zM23.5 99C24.6045695 99 25.5 99.8954305 25.5 101 25.5 102.054362 24.6841222 102.918165 23.6492623 102.994514L23.5 103 16.5 103C15.3954305 103 14.5 102.104569 14.5 101 14.5 99.9456382 15.3158778 99.0818349 16.3507377 99.0054857L16.5 99 23.5 99zM47.5 66C48.6045695 66 49.5 66.8954305 49.5 68 49.5 69.0543618 48.6841222 69.9181651 47.6492623 69.9945143L47.5 70 31.5 70C30.3954305 70 29.5 69.1045695 29.5 68 29.5 66.9456382 30.3158778 66.0818349 31.3507377 66.0054857L31.5 66 47.5 66zM47.5 99C48.6045695 99 49.5 99.8954305 49.5 101 49.5 102.054362 48.6841222 102.918165 47.6492623 102.994514L47.5 103 31.5 103C30.3954305 103 29.5 102.104569 29.5 101 29.5 99.9456382 30.3158778 99.0818349 31.3507377 99.0054857L31.5 99 47.5 99zM66.5 99C67.6045695 99 68.5 99.8954305 68.5 101 68.5 102.054362 67.6841222 102.918165 66.6492623 102.994514L66.5 103 55.5 103C54.3954305 103 53.5 102.104569 53.5 101 53.5 99.9456382 54.3158778 99.0818349 55.3507377 99.0054857L55.5 99 66.5 99zM33.5 77C34.6045695 77 35.5 77.8954305 35.5 79 35.5 80.0543618 34.6841222 80.9181651 33.6492623 80.9945143L33.5 81 16.5 81C15.3954305 81 14.5 80.1045695 14.5 79 14.5 77.9456382 15.3158778 77.0818349 16.3507377 77.0054857L16.5 77 33.5 77zM52.5 77C53.6045695 77 54.5 77.8954305 54.5 79 54.5 80.0543618 53.6841222 80.9181651 52.6492623 80.9945143L52.5 81 41.5 81C40.3954305 81 39.5 80.1045695 39.5 79 39.5 77.9456382 40.3158778 77.0818349 41.3507377 77.0054857L41.5 77 52.5 77zM86.5 55C87.6045695 55 88.5 55.8954305 88.5 57 88.5 58.0543618 87.6841222 58.9181651 86.6492623 58.9945143L86.5 59 74.5 59C73.3954305 59 72.5 58.1045695 72.5 57 72.5 55.9456382 73.3158778 55.0818349 74.3507377 55.0054857L74.5 55 86.5 55zM86.5 88C87.6045695 88 88.5 88.8954305 88.5 90 88.5 91.0543618 87.6841222 91.9181651 86.6492623 91.9945143L86.5 92 74.5 92C73.3954305 92 72.5 91.1045695 72.5 90 72.5 88.9456382 73.3158778 88.0818349 74.3507377 88.0054857L74.5 88 86.5 88zM28.5 121C29.6045695 121 30.5 121.895431 30.5 123 30.5 124.054362 29.6841222 124.918165 28.6492623 124.994514L28.5 125 16.5 125C15.3954305 125 14.5 124.104569 14.5 123 14.5 121.945638 15.3158778 121.081835 16.3507377 121.005486L16.5 121 28.5 121zM23.5 132C24.6045695 132 25.5 132.895431 25.5 134 25.5 135.054362 24.6841222 135.918165 23.6492623 135.994514L23.5 136 16.5 136C15.3954305 136 14.5 135.104569 14.5 134 14.5 132.945638 15.3158778 132.081835 16.3507377 132.005486L16.5 132 23.5 132zM47.5 132C48.6045695 132 49.5 132.895431 49.5 134 49.5 135.054362 48.6841222 135.918165 47.6492623 135.994514L47.5 136 31.5 136C30.3954305 136 29.5 135.104569 29.5 134 29.5 132.945638 30.3158778 132.081835 31.3507377 132.005486L31.5 132 47.5 132zM66.5 132C67.6045695 132 68.5 132.895431 68.5 134 68.5 135.054362 67.6841222 135.918165 66.6492623 135.994514L66.5 136 55.5 136C54.3954305 136 53.5 135.104569 53.5 134 53.5 132.945638 54.3158778 132.081835 55.3507377 132.005486L55.5 132 66.5 132zM33.5 143C34.6045695 143 35.5 143.895431 35.5 145 35.5 146.054362 34.6841222 146.918165 33.6492623 146.994514L33.5 147 16.5 147C15.3954305 147 14.5 146.104569 14.5 145 14.5 143.945638 15.3158778 143.081835 16.3507377 143.005486L16.5 143 33.5 143zM52.5 143C53.6045695 143 54.5 143.895431 54.5 145 54.5 146.054362 53.6841222 146.918165 52.6492623 146.994514L52.5 147 41.5 147C40.3954305 147 39.5 146.104569 39.5 145 39.5 143.945638 40.3158778 143.081835 41.3507377 143.005486L41.5 143 52.5 143zM86.5 121C87.6045695 121 88.5 121.895431 88.5 123 88.5 124.054362 87.6841222 124.918165 86.6492623 124.994514L86.5 125 74.5 125C73.3954305 125 72.5 124.104569 72.5 123 72.5 121.945638 73.3158778 121.081835 74.3507377 121.005486L74.5 121 86.5 121zM28.5 88C29.6045695 88 30.5 88.8954305 30.5 90 30.5 91.0543618 29.6841222 91.9181651 28.6492623 91.9945143L28.5 92 16.5 92C15.3954305 92 14.5 91.1045695 14.5 90 14.5 88.9456382 15.3158778 88.0818349 16.3507377 88.0054857L16.5 88 28.5 88zM66.5 66C67.6045695 66 68.5 66.8954305 68.5 68 68.5 69.0543618 67.6841222 69.9181651 66.6492623 69.9945143L66.5 70 55.5 70C54.3954305 70 53.5 69.1045695 53.5 68 53.5 66.9456382 54.3158778 66.0818349 55.3507377 66.0054857L55.5 66 66.5 66zM33.5 110C34.6045695 110 35.5 110.895431 35.5 112 35.5 113.054362 34.6841222 113.918165 33.6492623 113.994514L33.5 114 16.5 114C15.3954305 114 14.5 113.104569 14.5 112 14.5 110.945638 15.3158778 110.081835 16.3507377 110.005486L16.5 110 33.5 110zM42.5 55C43.6045695 55 44.5 55.8954305 44.5 57 44.5 58.0543618 43.6841222 58.9181651 42.6492623 58.9945143L42.5 59 36.5 59C35.3954305 59 34.5 58.1045695 34.5 57 34.5 55.9456382 35.3158778 55.0818349 36.3507377 55.0054857L36.5 55 42.5 55zM66.5 88C67.6045695 88 68.5 88.8954305 68.5 90 68.5 91.0543618 67.6841222 91.9181651 66.6492623 91.9945143L66.5 92 50.5 92C49.3954305 92 48.5 91.1045695 48.5 90 48.5 88.9456382 49.3158778 88.0818349 50.3507377 88.0054857L50.5 88 66.5 88zM66.5 121C67.6045695 121 68.5 121.895431 68.5 123 68.5 124.054362 67.6841222 124.918165 66.6492623 124.994514L66.5 125 50.5 125C49.3954305 125 48.5 124.104569 48.5 123 48.5 121.945638 49.3158778 121.081835 50.3507377 121.005486L50.5 121 66.5 121zM5 78C5.55228475 78 6 78.4477153 6 79 6 79.5128358 5.61395981 79.9355072 5.11662113 79.9932723L5 80 1 80C.44771525 80 0 79.5522847 0 79 0 78.4871642.38604019 78.0644928.883378875 78.0067277L1 78 5 78zM5 111C5.55228475 111 6 111.447715 6 112 6 112.512836 5.61395981 112.935507 5.11662113 112.993272L5 113 1 113C.44771525 113 0 112.552285 0 112 0 111.487164.38604019 111.064493.883378875 111.006728L1 111 5 111zM52.5 110C53.6045695 110 54.5 110.895431 54.5 112 54.5 113.054362 53.6841222 113.918165 52.6492623 113.994514L52.5 114 41.5 114C40.3954305 114 39.5 113.104569 39.5 112 39.5 110.945638 40.3158778 110.081835 41.3507377 110.005486L41.5 110 52.5 110zM42.5 88C43.6045695 88 44.5 88.8954305 44.5 90 44.5 91.0543618 43.6841222 91.9181651 42.6492623 91.9945143L42.5 92 36.5 92C35.3954305 92 34.5 91.1045695 34.5 90 34.5 88.9456382 35.3158778 88.0818349 36.3507377 88.0054857L36.5 88 42.5 88zM66.5 55C67.6045695 55 68.5 55.8954305 68.5 57 68.5 58.0543618 67.6841222 58.9181651 66.6492623 58.9945143L66.5 59 50.5 59C49.3954305 59 48.5 58.1045695 48.5 57 48.5 55.9456382 49.3158778 55.0818349 50.3507377 55.0054857L50.5 55 66.5 55zM42.5 121C43.6045695 121 44.5 121.895431 44.5 123 44.5 124.054362 43.6841222 124.918165 42.6492623 124.994514L42.5 125 36.5 125C35.3954305 125 34.5 124.104569 34.5 123 34.5 121.945638 35.3158778 121.081835 36.3507377 121.005486L36.5 121 42.5 121zM5 122C5.55228475 122 6 122.447715 6 123 6 123.512836 5.61395981 123.935507 5.11662113 123.993272L5 124 1 124C.44771525 124 0 123.552285 0 123 0 122.487164.38604019 122.064493.883378875 122.006728L1 122 5 122zM5 133C5.55228475 133 6 133.447715 6 134 6 134.512836 5.61395981 134.935507 5.11662113 134.993272L5 135 1 135C.44771525 135 0 134.552285 0 134 0 133.487164.38604019 133.064493.883378875 133.006728L1 133 5 133zM5 144C5.55228475 144 6 144.447715 6 145 6 145.512836 5.61395981 145.935507 5.11662113 145.993272L5 146 1 146C.44771525 146 0 145.552285 0 145 0 144.487164.38604019 144.064493.883378875 144.006728L1 144 5 144z" transform="translate(15 21.5)"/>
    </g>
    <g transform="matrix(-1 0 0 1 282 57)">
      <g transform="matrix(-1 0 0 1 113 0)">
        <use fill="#6E49CB" xlink:href="#a"/>
        <use fill="#FFFFFF" fill-opacity=".6" xlink:href="#a"/>
      </g>
      <path fill="#C2B7E6" fill-rule="nonzero" d="M31,0 C48.1208272,0 62,13.8791728 62,31 C62,48.1208272 48.1208272,62 31,62 C29.8954305,62 29,61.1045695 29,60 C29,58.8954305 29.8954305,58 31,58 C45.9116882,58 58,45.9116882 58,31 C58,16.0883118 45.9116882,4 31,4 C16.0883118,4 4,16.0883118 4,31 C4,37.855045 6.56214322,44.3046413 11.1039519,49.2525688 C11.8508914,50.066298 11.7967476,51.33147 10.9830184,52.0784094 C10.1692892,52.8253489 8.90411728,52.7712051 8.15717781,51.9574759 C2.94445731,46.2786451 0,38.8666624 0,31 C0,13.8791728 13.8791728,0 31,0 Z" transform="matrix(-1 0 0 1 62 0)"/>
      <path fill="#6E49CB" fill-rule="nonzero" d="M31,11 C42.045695,11 51,19.954305 51,31 C51,42.045695 42.045695,51 31,51 C19.954305,51 11,42.045695 11,31 C11,19.954305 19.954305,11 31,11 Z" transform="matrix(-1 0 0 1 62 0)"/>
      <g transform="matrix(-1 0 0 1 62 0)">
        <use fill="#6E49CB" xlink:href="#b"/>
        <use fill="#FFFFFF" fill-opacity=".9" xlink:href="#b"/>
      </g>
      <path fill="#6E49CB" fill-rule="nonzero" d="M21.0182196,24.8200305 C20.235044,25.5989463 20.2315909,26.8652716 21.0105067,27.6484471 L32.8413797,39.5440202 L39.0783352,33.3294524 C39.8607868,32.5498094 39.8630637,31.2834815 39.0834207,30.5010299 C38.3037777,29.7185782 37.0374498,29.7163014 36.2549981,30.4959444 L32.855,33.884 L23.8466362,24.8277434 C23.0677203,24.0445678 21.8013951,24.0411147 21.0182196,24.8200305 Z"/>
    </g>
    <g transform="matrix(1 0 0 -1 2 117)">
      <g transform="matrix(-1 0 0 1 109 0)">
        <use fill="#6E49CB" xlink:href="#c"/>
        <use fill="#FFFFFF" fill-opacity=".6" xlink:href="#c"/>
      </g>
      <path fill="#C2B7E6" fill-rule="nonzero" d="M29,-2 C46.1208272,-2 60,11.8791728 60,29 C60,46.1208272 46.1208272,60 29,60 C27.8954305,60 27,59.1045695 27,58 C27,56.8954305 27.8954305,56 29,56 C43.9116882,56 56,43.9116882 56,29 C56,14.0883118 43.9116882,2 29,2 C14.0883118,2 2,14.0883118 2,29 C2,35.855045 4.56214322,42.3046413 9.10395192,47.2525688 C9.85089139,48.066298 9.79674761,49.33147 8.98301841,50.0784094 C8.16928921,50.8253489 6.90411728,50.7712051 6.15717781,49.9574759 C0.944457312,44.2786451 -2,36.8666624 -2,29 C-2,11.8791728 11.8791728,-2 29,-2 Z" transform="matrix(-1 0 0 1 58 0)"/>
      <g transform="translate(9 9)">
        <path fill="#FC6D26" fill-rule="nonzero" d="M20,0 C31.045695,0 40,8.954305 40,20 C40,31.045695 31.045695,40 20,40 C8.954305,40 0,31.045695 0,20 C0,8.954305 8.954305,0 20,0 Z" transform="matrix(1 0 0 -1 0 40)"/>
        <g transform="matrix(1 0 0 -1 0 40)">
          <use fill="#FC6D26" xlink:href="#d"/>
          <use fill="#FFFFFF" fill-opacity=".9" xlink:href="#d"/>
        </g>
        <path fill="#FC6D26" fill-rule="nonzero" d="M11.7707749,36.1145591 C15.1997255,30.4978046 21.2975178,27 28,27 C30.5396324,27 33.0074793,27.4980328 35.297923,28.4518074 L35.7536151,28.6486263 L36.5706639,26.8231315 C33.8974652,25.6266703 30.9919204,25 28,25 C20.7278531,25 14.0975784,28.7274019 10.2732963,34.7362719 L10.0637367,35.072436 L11.7707749,36.1145591 Z"/>
        <path fill="#FC6D26" fill-rule="nonzero" d="M13.1629487,31.838472 L14.9685042,30.9782574 C12.5672704,25.9381651 8.23474157,22.0365513 2.96991405,20.1846253 L2.56310531,20.0462275 L1.93852445,21.9462009 C6.73307176,23.522319 10.7140959,26.9684404 12.9782617,31.4616331 L13.1629487,31.838472 Z"/>
        <circle cx="26" cy="17" r="2" fill="#FC6D26" transform="matrix(1 0 0 -1 0 34)"/>
        <circle cx="14" cy="17" r="2" fill="#FC6D26" transform="matrix(1 0 0 -1 0 34)"/>
      </g>
    </g>
    <g transform="translate(89 43)">
      <rect width="100" height="89" x="2" y="2" fill="#FCF0EA" stroke="#FC6D26" stroke-width="4" rx="4"/>
      <rect width="74" height="10" x="15" y="30" fill="#FFFFFF" stroke="#FC6D26" stroke-width="2" rx="4"/>
      <rect width="74" height="10" x="15" y="46" fill="#FFFFFF" stroke="#FC6D26" stroke-width="2" rx="4"/>
      <rect width="38" height="12" x="52" y="67" fill="#6E49CB" rx="4"/>
      <line x1="16" x2="51" y1="16.5" y2="16.5" stroke="#FC6D26" stroke-linecap="round" stroke-width="4"/>
    </g>
  </g>
</svg>
