<svg width="144" height="144" viewBox="0 0 144 144" fill="none" xmlns="http://www.w3.org/2000/svg"><path d="M136 8H48C25.909 8 8 25.909 8 48v88h88c22.091 0 40-17.909 40-40V8Z" fill="#E7E4F2"/><circle cx="22" cy="72" r="8" stroke="#171321" stroke-width="2" stroke-linecap="square"/><circle cx="47" cy="47" r="12" fill="#D0C5E2" stroke="#171321" stroke-width="2" stroke-linecap="square"/><circle cx="109" cy="35" r="8" stroke="#171321" stroke-width="2" stroke-linecap="square"/><circle cx="42" cy="102" r="12" fill="#D0C5E2"/><path d="M41.038 113.961a12 12 0 1 0-8.176-4.184" stroke="#171321" stroke-width="2" stroke-linecap="square"/><circle cx="110" cy="72" r="12" fill="#D0C5E2"/><path d="M122 72a12.001 12.001 0 0 0-23.087-4.592 12 12 0 0 0 19.572 13.077" stroke="#171321" stroke-width="2" stroke-linecap="square"/><circle cx="72" cy="72" r="35" fill="#fff"/><path d="M94.397 98.897A34.86 34.86 0 0 1 72 107a34.86 34.86 0 0 1-22.397-8.103l9.054-9.054a8 8 0 0 1 5.657-2.343h15.372a8 8 0 0 1 5.657 2.343l9.054 9.054Z" fill="#AEA5D6"/><path d="M101.067 91.497a35.002 35.002 0 0 0-32.258-54.351 35 35 0 1 0 25.861 61.52l-6.984-6.98A16 16 0 0 0 76.373 87h-8.746a16 16 0 0 0-11.313 4.686L50 98" stroke="#171321" stroke-width="2" stroke-linecap="square"/><circle cx="72" cy="68" r="12" fill="#D0C5E2" stroke="#171321" stroke-width="2" stroke-linecap="square"/><circle cx="127" cy="127" r="15.867" fill="#FCA326" stroke="#171321" stroke-width="2" stroke-linecap="square"/><path fill-rule="evenodd" clip-rule="evenodd" d="M128 118v-1h-2v13h2v-12Zm-1 19a2 2 0 1 0 .001-3.999A2 2 0 0 0 127 137Z" fill="#171321"/></svg>