<?xml version="1.0" encoding="UTF-8"?>
<svg width="282px" height="181px" viewBox="0 0 282 181" version="1.1" xmlns="http://www.w3.org/2000/svg" xmlns:xlink="http://www.w3.org/1999/xlink">
    <!-- Generator: Sketch 62 (91390) - https://sketch.com -->
    <title>[x]-lg</title>
    <desc>Created with Sketch.</desc>
    <defs>
        <rect id="path-1" x="28" y="56" width="53" height="4" rx="2"></rect>
        <rect id="path-2" x="28" y="56" width="53" height="4" rx="2"></rect>
    </defs>
    <g id="[x]-lg" stroke="none" stroke-width="1" fill="none" fill-rule="evenodd">
        <rect fill="#FFFFFF" x="0" y="0" width="282" height="181"></rect>
        <g id="Group-3" transform="translate(71.000000, 0.000000)" stroke="#DFDFDF">
            <rect id="Rectangle" stroke-width="4" fill="#FFFFFF" x="2" y="2" width="136" height="177" rx="8"></rect>
            <g id="Group-2" transform="translate(16.000000, 23.000000)" stroke-linecap="round">
                <line x1="0" y1="0.5" x2="4" y2="0.5" id="txt" stroke-width="2" stroke-linejoin="round"></line>
                <line x1="0" y1="33.5" x2="4" y2="33.5" id="txt" stroke-width="2" stroke-linejoin="round"></line>
                <line x1="0" y1="11.5" x2="4" y2="11.5" id="txt" stroke-width="2" stroke-linejoin="round"></line>
                <line x1="0" y1="44.5" x2="4" y2="44.5" id="txt" stroke-width="2" stroke-linejoin="round"></line>
                <line x1="15.5" y1="0.5" x2="27.5" y2="0.5" id="txt" stroke-width="4"></line>
                <line x1="15.5" y1="11.5" x2="22.5" y2="11.5" id="txt" stroke-width="4"></line>
                <line x1="15.5" y1="44.5" x2="22.5" y2="44.5" id="txt" stroke-width="4"></line>
                <line x1="30.5" y1="11.5" x2="46.5" y2="11.5" id="txt" stroke-width="4"></line>
                <line x1="30.5" y1="44.5" x2="46.5" y2="44.5" id="txt" stroke-width="4"></line>
                <line x1="54.5" y1="44.5" x2="65.5" y2="44.5" id="txt" stroke-width="4"></line>
                <line x1="15.5" y1="22.5" x2="32.5" y2="22.5" id="txt" stroke-width="4"></line>
                <line x1="40.5" y1="22.5" x2="51.5" y2="22.5" id="txt" stroke-width="4"></line>
                <line x1="73.5" y1="0.5" x2="85.5" y2="0.5" id="txt" stroke-width="4"></line>
                <line x1="73.5" y1="33.5" x2="85.5" y2="33.5" id="txt" stroke-width="4"></line>
                <line x1="15.5" y1="33.5" x2="27.5" y2="33.5" id="txt" stroke-width="4"></line>
                <line x1="54.5" y1="11.5" x2="65.5" y2="11.5" id="txt" stroke-width="4"></line>
                <line x1="35.5" y1="0.5" x2="41.5" y2="0.5" id="txt" stroke-width="4"></line>
                <line x1="49.5" y1="33.5" x2="65.5" y2="33.5" id="txt" stroke-width="4"></line>
                <line x1="0" y1="22.5" x2="4" y2="22.5" id="txt" stroke-width="2" stroke-linejoin="round"></line>
                <line x1="35.5" y1="33.5" x2="41.5" y2="33.5" id="txt" stroke-width="4"></line>
                <line x1="49.5" y1="0.5" x2="65.5" y2="0.5" id="txt" stroke-width="4"></line>
            </g>
            <g id="Faux-text-1" transform="translate(16.000000, 78.000000)" stroke-linecap="round">
                <line x1="0" y1="0.5" x2="4" y2="0.5" id="txt" stroke-width="2" stroke-linejoin="round"></line>
                <line x1="0" y1="33.5" x2="4" y2="33.5" id="txt" stroke-width="2" stroke-linejoin="round"></line>
                <line x1="0" y1="11.5" x2="4" y2="11.5" id="txt" stroke-width="2" stroke-linejoin="round"></line>
                <line x1="0" y1="44.5" x2="4" y2="44.5" id="txt" stroke-width="2" stroke-linejoin="round"></line>
                <line x1="15.5" y1="0.5" x2="27.5" y2="0.5" id="txt" stroke-width="4"></line>
                <line x1="15.5" y1="11.5" x2="22.5" y2="11.5" id="txt" stroke-width="4"></line>
                <line x1="15.5" y1="44.5" x2="22.5" y2="44.5" id="txt" stroke-width="4"></line>
                <line x1="30.5" y1="11.5" x2="46.5" y2="11.5" id="txt" stroke-width="4"></line>
                <line x1="30.5" y1="44.5" x2="46.5" y2="44.5" id="txt" stroke-width="4"></line>
                <line x1="54.5" y1="44.5" x2="65.5" y2="44.5" id="txt" stroke-width="4"></line>
                <line x1="15.5" y1="22.5" x2="32.5" y2="22.5" id="txt" stroke-width="4"></line>
                <line x1="40.5" y1="22.5" x2="51.5" y2="22.5" id="txt" stroke-width="4"></line>
                <line x1="73.5" y1="0.5" x2="85.5" y2="0.5" id="txt" stroke-width="4"></line>
                <line x1="73.5" y1="33.5" x2="85.5" y2="33.5" id="txt" stroke-width="4"></line>
                <line x1="15.5" y1="66.5" x2="27.5" y2="66.5" id="txt" stroke-width="4"></line>
                <line x1="15.5" y1="77.5" x2="22.5" y2="77.5" id="txt" stroke-width="4"></line>
                <line x1="30.5" y1="77.5" x2="46.5" y2="77.5" id="txt" stroke-width="4"></line>
                <line x1="54.5" y1="77.5" x2="65.5" y2="77.5" id="txt" stroke-width="4"></line>
                <line x1="15.5" y1="88.5" x2="32.5" y2="88.5" id="txt" stroke-width="4"></line>
                <line x1="40.5" y1="88.5" x2="51.5" y2="88.5" id="txt" stroke-width="4"></line>
                <line x1="73.5" y1="66.5" x2="85.5" y2="66.5" id="txt" stroke-width="4"></line>
                <line x1="15.5" y1="33.5" x2="27.5" y2="33.5" id="txt" stroke-width="4"></line>
                <line x1="54.5" y1="11.5" x2="65.5" y2="11.5" id="txt" stroke-width="4"></line>
                <line x1="15.5" y1="55.5" x2="32.5" y2="55.5" id="txt" stroke-width="4"></line>
                <line x1="35.5" y1="0.5" x2="41.5" y2="0.5" id="txt" stroke-width="4"></line>
                <line x1="49.5" y1="33.5" x2="65.5" y2="33.5" id="txt" stroke-width="4"></line>
                <line x1="49.5" y1="66.5" x2="65.5" y2="66.5" id="txt" stroke-width="4"></line>
                <line x1="0" y1="22.5" x2="4" y2="22.5" id="txt" stroke-width="2" stroke-linejoin="round"></line>
                <line x1="0" y1="55.5" x2="4" y2="55.5" id="txt" stroke-width="2" stroke-linejoin="round"></line>
                <line x1="40.5" y1="55.5" x2="51.5" y2="55.5" id="txt" stroke-width="4"></line>
                <line x1="35.5" y1="33.5" x2="41.5" y2="33.5" id="txt" stroke-width="4"></line>
                <line x1="49.5" y1="0.5" x2="65.5" y2="0.5" id="txt" stroke-width="4"></line>
                <line x1="35.5" y1="66.5" x2="41.5" y2="66.5" id="txt" stroke-width="4"></line>
                <line x1="0" y1="66.5" x2="4" y2="66.5" id="txt" stroke-width="2" stroke-linejoin="round"></line>
                <line x1="0" y1="77.5" x2="4" y2="77.5" id="txt" stroke-width="2" stroke-linejoin="round"></line>
                <line x1="0" y1="88.5" x2="4" y2="88.5" id="txt" stroke-width="2" stroke-linejoin="round"></line>
            </g>
        </g>
        <g id="Group-4" transform="translate(239.500000, 89.000000) scale(-1, 1) translate(-239.500000, -89.000000) translate(199.000000, 59.000000)">
            <g id="line" transform="translate(54.500000, 58.000000) scale(-1, 1) translate(-54.500000, -58.000000) ">
                <use fill="#6E49CB" xlink:href="#path-1"></use>
                <use fill-opacity="0.6" fill="#FFFFFF" xlink:href="#path-1"></use>
            </g>
            <path d="M29,58 C45.0162577,58 58,45.0162577 58,29 C58,12.9837423 45.0162577,0 29,0 C12.9837423,0 0,12.9837423 0,29 C0,36.5592836 2.89227156,43.443041 7.63056487,48.6050224" id="Loop" stroke="#C2B7E6" stroke-width="4" stroke-linecap="round" transform="translate(29.000000, 29.000000) scale(-1, 1) translate(-29.000000, -29.000000) "></path>
        </g>
        <g id="Group" transform="translate(89.000000, 43.000000)">
            <rect id="Rectangle" stroke="#FC6D26" stroke-width="4" fill="#FCF0EA" x="2" y="2" width="100" height="89" rx="4"></rect>
            <rect id="Placeholder" stroke="#FC6D26" stroke-width="2" fill="#FFFFFF" x="15" y="30" width="74" height="10" rx="4"></rect>
            <rect id="Placeholder" stroke="#FC6D26" stroke-width="2" fill="#FFFFFF" x="15" y="46" width="74" height="10" rx="4"></rect>
            <rect id="Placeholder" fill="#6E49CB" x="52" y="67" width="38" height="12" rx="4"></rect>
        </g>
        <g id="check" transform="translate(231.000000, 68.000000)" stroke="#6E49CB" stroke-width="4">
            <circle id="Oval" fill="#EFEDF8" cx="20" cy="20" r="18"></circle>
            <path d="M13.3333333,20.9126984 C16.5459232,24.1137566 18.1522182,25.7142857 18.1522182,25.7142857 C18.1522182,25.7142857 21.6252883,22.2222222 28.5714286,15.2380952" id="Path-6" stroke-linecap="round"></path>
        </g>
        <g id="Group-4" transform="translate(42.500000, 87.000000) scale(1, -1) translate(-42.500000, -87.000000) translate(2.000000, 57.000000)">
            <g id="line" transform="translate(54.500000, 58.000000) scale(-1, 1) translate(-54.500000, -58.000000) ">
                <use fill="#6E49CB" xlink:href="#path-2"></use>
                <use fill-opacity="0.6" fill="#FFFFFF" xlink:href="#path-2"></use>
            </g>
            <path d="M29,58 C45.0162577,58 58,45.0162577 58,29 C58,12.9837423 45.0162577,0 29,0 C12.9837423,0 0,12.9837423 0,29 C0,36.5592836 2.89227156,43.443041 7.63056487,48.6050224" id="Loop" stroke="#C2B7E6" stroke-width="4" stroke-linecap="round" transform="translate(29.000000, 29.000000) scale(-1, 1) translate(-29.000000, -29.000000) "></path>
        </g>
        <g id="Head" transform="translate(11.000000, 68.000000)">
            <circle id="head" stroke="#FC6D26" stroke-width="4" fill="#FCF0EA" cx="20" cy="20" r="18"></circle>
            <path d="M10.9172558,4.4065024 C14.4294594,10.1596286 20.7662463,14 28,14 L28,14 C30.9073158,14 33.6697432,13.3796594 36.1621395,12.2641211" id="hair" stroke="#FC6D26" stroke-width="2"></path>
            <path d="M2.25081488,19.0037858 C7.46462994,17.2898412 11.7319767,13.4900815 14.0657264,8.59163532" id="hair" stroke="#FC6D26" stroke-width="2"></path>
            <circle id="eye-R" fill="#FC6D26" cx="26" cy="23" r="2"></circle>
            <circle id="eye-L" fill="#FC6D26" cx="14" cy="23" r="2"></circle>
        </g>
        <line x1="105" y1="59.5" x2="140" y2="59.5" id="Line-2" stroke="#FC6D26" stroke-width="4" stroke-linecap="round"></line>
    </g>
</svg>