<svg width="64" height="64" viewBox="0 0 64 64" fill="none" xmlns="http://www.w3.org/2000/svg">
<path d="M27.3699 18C27.2378 18.0013 27.1008 18.0332 26.9759 18.1024C26.5794 18.3222 26.434 18.8317 26.6536 19.2279L27.5489 20.8446C25.3919 22.1793 23.9625 24.459 23.9625 27.0608C23.9625 27.0717 23.9625 27.0881 23.9625 27.1043C23.9625 27.11 23.9624 27.1132 23.9625 27.1196C23.9625 27.1281 23.9625 27.1406 23.9625 27.1427V27.5443C23.5482 27.0676 22.9392 26.7666 22.2588 26.7666C21.0122 26.7666 20 27.7789 20 29.0254V35.9834C20 37.23 21.0122 38.2422 22.2588 38.2422C22.9392 38.2422 23.5482 37.9412 23.9625 37.4646V38.4392C23.9625 39.7532 25.0377 40.8284 26.3517 40.8284H26.958V43.9237C26.958 45.1703 27.9702 46.1825 29.2168 46.1825C30.4634 46.1825 31.4756 45.1703 31.4756 43.9237V40.8284H32.5244V43.9237C32.5244 45.1703 33.5366 46.1825 34.7832 46.1825C36.0298 46.1825 37.042 45.1703 37.042 43.9237V40.8284H37.6483C38.9623 40.8284 40.0375 39.7532 40.0375 38.4392V37.4646C40.4518 37.9412 41.0608 38.2422 41.7412 38.2422C42.9878 38.2422 44 37.23 44 35.9834V29.0254C44 27.7789 42.9878 26.7666 41.7412 26.7666C41.0608 26.7666 40.4518 27.0676 40.0375 27.5443V27.1503V27.1427C40.0376 27.1303 40.0375 27.1181 40.0375 27.1196C40.0377 27.0951 40.0375 27.0756 40.0375 27.0608C40.0375 24.4594 38.6049 22.182 36.4485 20.8472L37.3464 19.2279C37.566 18.8317 37.4206 18.3222 37.0241 18.1024C36.8992 18.0331 36.7622 18.0013 36.6301 18C36.3373 17.9972 36.0499 18.1516 35.8985 18.4247L34.9597 20.1207C34.0417 19.7819 33.0429 19.5963 32 19.5963C30.9582 19.5963 29.9575 19.78 29.0403 20.1181L28.1015 18.4247C27.9501 18.1516 27.6627 17.9972 27.3699 18V18Z" fill="white"/>
<path d="M22.259 27.355C21.3288 27.355 20.5886 28.0952 20.5886 29.0254V35.9834C20.5886 36.9137 21.3288 37.6539 22.259 37.6539C23.1892 37.6539 23.9294 36.9137 23.9294 35.9834V29.0254C23.9294 28.0952 23.1892 27.355 22.259 27.355ZM41.7414 27.355C40.8112 27.355 40.071 28.0952 40.071 29.0254V35.9834C40.071 36.9137 40.8112 37.6539 41.7414 37.6539C42.6716 37.6539 43.4118 36.9137 43.4118 35.9834V29.0254C43.4118 28.0952 42.6716 27.355 41.7414 27.355Z" fill="#A4C639"/>
<path d="M29.217 35.2953C28.2868 35.2953 27.5466 36.0355 27.5466 36.9657V43.9237C27.5466 44.854 28.2868 45.5942 29.217 45.5942C30.1472 45.5942 30.8874 44.854 30.8874 43.9237V36.9657C30.8874 36.0355 30.1472 35.2953 29.217 35.2953ZM34.7834 35.2953C33.8532 35.2953 33.113 36.0355 33.113 36.9657V43.9237C33.113 44.854 33.8532 45.5942 34.7834 45.5942C35.7136 45.5942 36.4538 44.854 36.4538 43.9237V36.9657C36.4538 36.0355 35.7136 35.2953 34.7834 35.2953Z" fill="#A4C639"/>
<path d="M27.3751 18.5884C27.3356 18.5888 27.2988 18.599 27.2625 18.6191C27.1434 18.6851 27.1043 18.822 27.1704 18.9414L28.3472 21.0672C26.0832 22.2452 24.554 24.4839 24.551 27.0531H39.4493C39.4462 24.4839 37.917 22.2452 35.6531 21.0672L36.8298 18.9414C36.896 18.822 36.8568 18.6851 36.7377 18.6191C36.7014 18.599 36.6646 18.5888 36.6252 18.5884C36.5406 18.5876 36.4605 18.6298 36.4154 18.7112L35.2233 20.86C34.2482 20.4274 33.1544 20.1846 32.0001 20.1846C30.8459 20.1846 29.7521 20.4274 28.7769 20.86L27.5849 18.7112C27.5398 18.6298 27.4596 18.5876 27.3751 18.5884ZM24.551 27.6415V38.4392C24.551 39.4369 25.3542 40.2401 26.3519 40.2401H37.6484C38.6461 40.2401 39.4493 39.4369 39.4493 38.4392V27.6415H24.551Z" fill="#A4C639"/>
<path d="M28.562 23.083C28.2219 23.083 27.9403 23.3645 27.9403 23.7046C27.9403 24.0447 28.2219 24.3262 28.562 24.3262C28.9021 24.3262 29.1836 24.0447 29.1836 23.7046C29.1836 23.3645 28.9021 23.083 28.562 23.083ZM35.4381 23.083C35.098 23.083 34.8165 23.3645 34.8165 23.7046C34.8165 24.0447 35.098 24.3262 35.4381 24.3262C35.7782 24.3262 36.0597 24.0447 36.0597 23.7046C36.0597 23.3645 35.7782 23.083 35.4381 23.083Z" fill="white"/>
</svg>
