<svg width="64" height="64" viewBox="0 0 64 64" fill="none" xmlns="http://www.w3.org/2000/svg">
<path d="M44.05 22.5391L33.95 16.5391C32.7437 15.8203 31.2563 15.8203 30.05 16.5391L19.95 22.5391C18.7438 23.2516 18 24.5766 18 26.0078V38.0016C18 39.4328 18.7438 40.7578 19.95 41.4703L30.05 47.4641C30.65 47.8203 31.325 48.0016 32 48.0016C32.675 48.0016 33.3438 47.8203 33.95 47.4641L44.05 41.4703C45.2563 40.7516 46 39.4328 46 38.0016V26.0078C46 24.5766 45.2563 23.2516 44.05 22.5391Z" fill="white"/>
<path d="M44.05 22.5391L33.95 16.5391C33.35 16.1828 32.675 16.0016 32 16.0016C31.325 16.0016 30.6562 16.1828 30.05 16.5391L19.95 22.5391C18.7438 23.2516 18 24.5766 18 26.0078V38.0016C18 39.4328 18.7438 40.7578 19.95 41.4703L30.05 47.4641C30.65 47.8203 31.325 48.0016 32 48.0016C32.675 48.0016 33.3438 47.8203 33.95 47.4641L44.05 41.4703C45.2563 40.7516 46 39.4328 46 38.0016V26.0078C46 24.5766 45.2563 23.2516 44.05 22.5391ZM30.4062 46.8516L20.3062 40.8578C19.3187 40.2703 18.7062 39.1766 18.7062 38.0016V26.0078C18.7062 24.8328 19.3187 23.7391 20.3062 23.1516L30.4062 17.1578C30.8938 16.8703 31.4437 16.7203 32 16.7203C32.5562 16.7203 33.1125 16.8703 33.5937 17.1578L43.6938 23.1516C44.525 23.6453 45.0875 24.5016 45.2438 25.4641C44.9063 24.7516 44.1563 24.5516 43.275 25.0703L33.7187 30.9766C32.525 31.6703 31.65 32.4578 31.65 33.8891V45.6641C31.65 46.5266 31.9937 47.0828 32.5312 47.2453C32.3562 47.2766 32.1812 47.2953 32 47.2953C31.4437 47.2891 30.8875 47.1391 30.4062 46.8516Z" fill="#283037"/>
<path d="M41.4062 39.1578L38.8875 40.6641C38.8187 40.7016 38.7687 40.7453 38.7687 40.8266V41.4828C38.7687 41.5641 38.825 41.5953 38.8875 41.5578L41.4437 40.0078C41.5125 39.9703 41.5187 39.8953 41.5187 39.8141V39.2328C41.525 39.1516 41.4687 39.1203 41.4062 39.1578Z" fill="#4DA825"/>
<path d="M36.05 33.6204C36.1313 33.5766 36.2 33.6329 36.2 33.7391L36.2062 34.6079C36.5687 34.4641 36.8875 34.4266 37.175 34.4891C37.2375 34.5079 37.2625 34.5891 37.2375 34.6891L37.0437 35.4579C37.0312 35.5141 36.9937 35.5766 36.9562 35.6141C36.9375 35.6329 36.925 35.6454 36.9062 35.6516C36.8812 35.6641 36.8563 35.6704 36.8312 35.6641C36.7 35.6329 36.3875 35.5641 35.9 35.8141C35.3875 36.0766 35.2063 36.5204 35.2125 36.8516C35.2188 37.2454 35.4188 37.3704 36.1188 37.3766C37.05 37.3891 37.4563 37.8016 37.4625 38.7391C37.475 39.6641 36.9812 40.6516 36.225 41.2641L36.2438 42.1266C36.2438 42.2329 36.175 42.3516 36.0937 42.3891L35.5813 42.6829C35.5 42.7266 35.4313 42.6766 35.4313 42.5704L35.425 41.7204C34.9875 41.9016 34.5437 41.9454 34.2625 41.8329C34.2062 41.8141 34.1875 41.7329 34.2063 41.6454L34.3938 40.8641C34.4063 40.8016 34.4438 40.7391 34.4875 40.7016C34.5063 40.6891 34.5187 40.6766 34.5375 40.6641C34.5687 40.6516 34.5938 40.6454 34.6188 40.6579C34.925 40.7579 35.3125 40.7141 35.6875 40.5204C36.1625 40.2766 36.4812 39.7954 36.475 39.3079C36.4687 38.8704 36.2312 38.6891 35.6562 38.6829C34.925 38.6829 34.2375 38.5391 34.225 37.4579C34.2187 36.5704 34.6812 35.6454 35.4125 35.0579L35.4062 34.1891C35.4062 34.0829 35.4688 33.9641 35.5563 33.9204L36.05 33.6204Z" fill="white"/>
</svg>
