<svg width="64" height="64" viewBox="0 0 64 64" fill="none" xmlns="http://www.w3.org/2000/svg">
<path d="M47.5929 41.0077C47.844 40.5728 48 40.0827 48 39.6427V24.3675C48 23.9274 47.8442 23.4375 47.593 23.0026L32 32.0051L47.5929 41.0077Z" fill="#00599C"/>
<path d="M33.3856 49.6803L46.6144 42.0428C46.9954 41.8228 47.3418 41.4428 47.5929 41.0078L32 32.0052L16.4071 41.0079C16.6582 41.4428 17.0046 41.8229 17.3856 42.0428L30.6144 49.6803C31.3764 50.1204 32.6236 50.1204 33.3856 49.6803Z" fill="#004482"/>
<path d="M47.593 23.0026C47.3418 22.5675 46.9953 22.1876 46.6144 21.9676L33.3856 14.33C32.6236 13.89 31.3764 13.89 30.6144 14.33L17.3856 21.9676C16.6235 22.4075 16 23.4876 16 24.3676V39.6428C16 40.0828 16.1559 40.5729 16.4071 41.0078L32 32.0052L47.593 23.0026Z" fill="#659AD2"/>
<path d="M32 42.6718C26.1184 42.6718 21.3333 37.8868 21.3333 32.0052C21.3333 26.1235 26.1184 21.3385 32 21.3385C35.7952 21.3385 39.3348 23.3809 41.2372 26.6685L36.6209 29.3398C35.6688 27.6942 33.898 26.6718 32 26.6718C29.0591 26.6718 26.6666 29.0643 26.6666 32.0052C26.6666 34.9459 29.0591 37.3385 32 37.3385C33.8982 37.3385 35.669 36.3162 36.6213 34.6703L41.2375 37.3414C39.3351 40.6294 35.7954 42.6718 32 42.6718Z" fill="white"/>
<path d="M42.6667 31.4126H41.4814V30.2274H40.2964V31.4126H39.1111V32.5977H40.2964V33.783H41.4814V32.5977H42.6667V31.4126Z" fill="white"/>
<path d="M47.111 31.4126H45.9258V30.2274H44.7407V31.4126H43.5555V32.5977H44.7407V33.783H45.9258V32.5977H47.111V31.4126Z" fill="white"/>
</svg>
