<svg width="64" height="64" viewBox="0 0 64 64" fill="none" xmlns="http://www.w3.org/2000/svg">
<path d="M31.9999 16C23.1779 16 16 23.1779 16 32.0001C16 40.8231 23.1779 48.0006 31.9999 48.0006C40.8221 48.0006 48 40.8231 48 32.0001C48 23.1779 40.8221 16 31.9999 16Z" fill="white"/>
<path d="M31.4148 32.2878C31.271 32.5993 31.1124 32.9493 30.9481 33.3218C30.3675 34.6373 29.7245 36.2381 29.4896 37.2636C29.4053 37.6288 29.353 38.0815 29.354 38.5833C29.354 38.7818 29.3646 38.9905 29.3815 39.203C30.2024 39.5046 31.089 39.6705 32.0149 39.6721C32.8578 39.6705 33.6675 39.5312 34.4254 39.2792C34.2473 39.1163 34.0773 38.9427 33.9225 38.7471C32.895 37.4368 32.3218 35.5166 31.4148 32.2878Z" fill="#91DC47"/>
<path d="M27.6212 25.7781C25.6589 27.1611 24.3747 29.4421 24.3699 32.0271C24.3747 34.5735 25.6202 36.825 27.5332 38.2137C28.0025 36.2591 29.1787 34.4693 30.9426 30.8818C30.8379 30.5941 30.7185 30.2791 30.5849 29.9482C30.0962 28.7225 29.391 27.299 28.7616 26.6543C28.4407 26.3176 28.0514 26.0266 27.6212 25.7781Z" fill="#91DC47"/>
<path d="M38.6743 40.7959C37.6618 40.669 36.8261 40.5159 36.0951 40.258C34.8656 40.8685 33.481 41.2134 32.0149 41.2134C26.9419 41.2134 22.8295 37.1016 22.8289 32.0271C22.8289 29.2738 24.0419 26.8055 25.9609 25.1221C25.4476 24.9981 24.9124 24.9258 24.3656 24.9268C21.6704 24.9521 18.8253 26.4438 17.6408 30.4721C17.53 31.0585 17.5564 31.5019 17.5564 32.0274C17.5564 40.013 24.0303 46.4869 32.0153 46.4869C36.9055 46.4869 41.2255 44.057 43.8416 40.3408C42.4266 40.6934 41.0659 40.862 39.9006 40.8656C39.4639 40.8656 39.0539 40.8423 38.6743 40.7959Z" fill="#63B132"/>
<path d="M35.9573 37.9942C36.0465 38.0385 36.2489 38.1107 36.5305 38.1906C38.4251 36.7997 39.6564 34.5593 39.6613 32.0272H39.6605C39.6534 27.8058 36.2373 24.3902 32.0149 24.3818C31.1756 24.3835 30.3694 24.522 29.6145 24.7721C31.1669 26.5416 31.9134 29.0703 32.6355 31.8365C32.6359 31.8377 32.6365 31.8387 32.6368 31.8397C32.6381 31.842 32.8678 32.6078 33.262 33.624C33.6535 34.6387 34.2113 35.895 34.8195 36.8105C35.2189 37.424 35.6581 37.8648 35.9573 37.9942Z" fill="#90B4FE"/>
<path d="M32.0153 17.5676C27.1723 17.5676 22.8883 19.9518 20.2643 23.6074C21.6299 22.7521 23.0243 22.4436 24.2412 22.4546C25.9219 22.4595 27.2433 22.9806 27.8773 23.3371C28.0304 23.4254 28.1758 23.5204 28.3182 23.618C29.4494 23.1198 30.6994 22.8411 32.0149 22.8411C37.0885 22.8418 41.2015 26.9535 41.2023 32.0271H41.2015C41.2015 34.5851 40.1553 36.898 38.4687 38.5635C38.8827 38.6099 39.3242 38.6388 39.775 38.6365C41.3764 38.6373 43.1073 38.2839 44.4049 37.1925C45.251 36.4798 45.9599 35.4361 46.353 33.8714C46.4299 33.267 46.4742 32.6526 46.4742 32.0274C46.4742 24.0421 40.0009 17.5676 32.0153 17.5676Z" fill="#5881D8"/>
</svg>
