<svg width="64" height="64" viewBox="0 0 64 64" fill="none" xmlns="http://www.w3.org/2000/svg">
<path d="M26.04 35.7147L26.1528 36.5983C25.6263 36.7675 24.9683 36.8427 24.1598 36.8427C23.1822 36.8427 22.5053 36.5983 22.1105 36.0907C21.7157 35.583 21.5088 34.7182 21.5088 33.4961C21.5088 32.274 21.6968 31.3903 22.1105 30.9015C22.5053 30.3939 23.1822 30.1494 24.1598 30.1494C24.8743 30.1494 25.4947 30.2246 26.0212 30.3563L25.9084 31.2587C25.3631 31.2211 24.7803 31.2023 24.1598 31.2023C23.6146 31.2023 23.2574 31.3715 23.0506 31.6912C22.8625 32.0296 22.7497 32.6312 22.7497 33.5149C22.7497 34.3986 22.8437 35.019 23.0506 35.3386C23.2574 35.6771 23.6146 35.8275 24.1598 35.8275C24.9495 35.8087 25.5887 35.7711 26.04 35.7147ZM31.436 34.6994L32.0188 36.7299H30.7591L30.2327 34.7182C30.1199 34.3234 29.8567 34.1353 29.4806 34.1353H28.3149V36.7299H27.1493V30.2434C27.7133 30.187 28.503 30.1682 29.5182 30.1682C30.3455 30.1682 30.9283 30.2999 31.2668 30.5819C31.6052 30.8639 31.7744 31.3527 31.7744 32.0672C31.7744 32.5748 31.6804 32.9509 31.4924 33.2141C31.3044 33.4773 30.9847 33.6465 30.5523 33.7029V33.7593C30.7403 33.7969 30.9095 33.9097 31.0788 34.0601C31.2668 34.1917 31.3796 34.4174 31.436 34.6994ZM30.3643 32.932C30.5147 32.7816 30.5899 32.5184 30.5899 32.1236C30.5899 31.7288 30.5147 31.4655 30.3643 31.3151C30.2139 31.1835 29.9319 31.1083 29.4994 31.1083H28.3337V33.1577H29.4994C29.9319 33.1577 30.2139 33.0825 30.3643 32.932ZM48.4513 30.2434H43.2809V31.2399H45.255V36.7299H46.4395V31.2399H48.4513V30.2434ZM52.0987 30.5443L54.0541 36.7111H52.832L52.3055 34.8686H49.899L49.3725 36.7111H48.1692L50.1058 30.5443C50.1622 30.3375 50.3126 30.2246 50.5382 30.2246H51.6851C51.8919 30.2434 52.0423 30.3375 52.0987 30.5443ZM52.0235 33.9285L51.3655 31.6912C51.2715 31.3527 51.2339 31.1647 51.2151 31.1459H50.9706L50.8202 31.6912L50.181 33.9285H52.0235ZM58.7732 35.7523H56.5171C56.3102 35.7523 56.1598 35.7147 56.0846 35.6395C56.0094 35.5642 55.953 35.4138 55.953 35.2258V30.2434H54.7685V35.395C54.7685 36.2975 55.2574 36.7487 56.235 36.7487C57.3443 36.7487 58.1904 36.7111 58.8108 36.6735L58.7732 35.7523ZM35.3091 32.7628C35.2715 32.8568 35.1775 33.1201 35.0459 33.5525H34.9706C34.839 33.1389 34.745 32.8756 34.7074 32.7628L33.5229 30.2434H32.282L34.4066 34.5302V36.7487H35.5911V34.5302L37.7157 30.2434H36.4936L35.3091 32.7628ZM41.3255 33.1389L40.0846 32.744C39.8026 32.65 39.6146 32.556 39.5206 32.4432C39.4078 32.3304 39.3702 32.1424 39.3702 31.8792C39.3702 31.5595 39.4454 31.3527 39.5958 31.2587C39.7462 31.1835 40.0282 31.1271 40.4607 31.1271C41.0247 31.1271 41.6828 31.1459 42.3972 31.1647L42.4724 30.3375C41.9084 30.187 41.2315 30.1118 40.4419 30.1118C39.6146 30.1118 39.0317 30.2246 38.7121 30.4503C38.3737 30.6759 38.2233 31.1459 38.2233 31.8604C38.2233 32.3492 38.3173 32.7628 38.5241 33.0637C38.7309 33.3645 39.0506 33.5901 39.5206 33.7405L40.8367 34.1541C41.0999 34.2293 41.2879 34.3234 41.3819 34.4362C41.4759 34.549 41.5323 34.737 41.5323 35.019C41.5323 35.3386 41.4571 35.5642 41.3255 35.6583C41.1751 35.7523 40.8931 35.8087 40.4607 35.8087C40.1786 35.8087 39.5018 35.7899 38.4113 35.7711L38.3361 36.6359C39.0317 36.7675 39.7274 36.8427 40.4419 36.8427C41.3067 36.8427 41.9084 36.7111 42.228 36.4667C42.5664 36.2223 42.7356 35.7335 42.7356 35.019C42.7356 34.5302 42.6416 34.1165 42.4348 33.8157C42.1716 33.5149 41.8332 33.2893 41.3255 33.1389ZM18.1246 33.6653L16.4137 27.2728C16.4137 27.254 16.3949 27.2352 16.3573 27.2164L9.94597 25.5055C9.92717 25.5055 9.88957 25.5055 9.87077 25.5243L5.17041 30.2058C5.15161 30.2246 5.15161 30.2434 5.15161 30.2811L6.86254 36.6735C6.86254 36.6923 6.88134 36.7111 6.91894 36.7299L13.3302 38.4409C13.349 38.4409 13.3866 38.4409 13.4054 38.4221L18.1058 33.7405C18.1246 33.7029 18.1434 33.6841 18.1246 33.6653ZM11.8449 28.6453L10.1528 34.925C10.1528 34.9438 10.134 34.9438 10.1152 34.925L5.52764 30.3375C5.50884 30.3187 5.52764 30.3187 5.52764 30.2999L11.8261 28.6077C11.8261 28.6265 11.8449 28.6265 11.8449 28.6453Z" fill="black"/>
</svg>
