<svg width="64" height="64" viewBox="0 0 64 64" fill="none" xmlns="http://www.w3.org/2000/svg">
<g opacity="0.54">
<path opacity="0.54" d="M30.6298 26.1624H33.668C34.6991 26.1624 35.599 26.3752 36.3688 26.802C37.1375 27.2288 37.7286 27.8221 38.141 28.5808C38.5535 29.3407 38.7597 30.2119 38.7597 31.1967C38.7597 32.1815 38.5535 33.0527 38.141 33.8126C37.7286 34.5724 37.1375 35.1646 36.3688 35.5914C35.6001 36.0182 34.7002 36.2311 33.668 36.2311H30.6298V26.1624ZM33.668 35.094C34.8591 35.094 35.8031 34.7522 36.5022 34.0673C37.2003 33.3825 37.5499 32.4263 37.5499 31.1978C37.5499 29.9693 37.2003 29.0131 36.5022 28.3283C35.8042 27.6434 34.8591 27.3016 33.668 27.3016H31.812V35.0929H33.668V35.094Z" fill="black"/>
<path opacity="0.54" d="M40.6003 36.1483C40.1878 35.9421 39.8691 35.6587 39.6442 35.297C39.4192 34.9363 39.3067 34.5261 39.3067 34.0662C39.3067 33.3064 39.5923 32.7142 40.1647 32.2874C40.7359 31.8606 41.4583 31.6477 42.3306 31.6477C42.7618 31.6477 43.1621 31.6952 43.5327 31.7889C43.9032 31.8826 44.1867 31.9907 44.3841 32.112V31.6764C44.3841 31.1416 44.1966 30.7126 43.8216 30.3894C43.4467 30.0663 42.9725 29.9042 42.4012 29.9042C41.9976 29.9042 41.6281 29.9913 41.2896 30.1645C40.9521 30.3376 40.6852 30.5791 40.4878 30.889L39.5879 30.2141C39.8691 29.7829 40.2562 29.4454 40.7481 29.2017C41.2399 28.958 41.7869 28.8356 42.3869 28.8356C43.3617 28.8356 44.1282 29.0914 44.6862 29.602C45.2443 30.1137 45.5233 30.8096 45.5233 31.6908V36.2333H44.3841V35.2065H44.3278C44.1216 35.5539 43.8117 35.8484 43.3992 36.0921C42.9868 36.3358 42.5225 36.4582 42.0064 36.4582C41.4826 36.4582 41.0139 36.3546 40.6003 36.1483ZM43.2449 35.094C43.5911 34.8878 43.8679 34.611 44.0742 34.2647C44.2804 33.9184 44.3841 33.538 44.3841 33.1255C44.1591 32.9755 43.8823 32.8531 43.5547 32.7594C43.2261 32.6656 42.8798 32.6182 42.5137 32.6182C41.8575 32.6182 41.3623 32.7539 41.0304 33.0263C40.6974 33.2987 40.5308 33.6505 40.5308 34.0806C40.5308 34.4743 40.6808 34.793 40.9808 35.0367C41.2807 35.2804 41.6601 35.4028 42.12 35.4028C42.5225 35.4028 42.8986 35.3003 43.2449 35.094Z" fill="black"/>
<path opacity="0.54" d="M46.7849 29.1729H47.9241V30.3121H47.9803C48.149 29.8897 48.4347 29.5622 48.8383 29.3273C49.2408 29.0935 49.6819 28.9755 50.1606 28.9755C50.3668 28.9755 50.5399 28.9898 50.6811 29.0174V30.2415C50.5212 30.204 50.3061 30.1853 50.0337 30.1853C49.4239 30.1853 48.9298 30.3871 48.5505 30.7896C48.1711 31.1933 47.9803 31.7182 47.9803 32.3644V36.3445H46.7849V29.1729ZM54.209 36.3147C53.9609 36.2199 53.7524 36.0909 53.5826 35.9276C53.3951 35.7468 53.254 35.5361 53.1602 35.2979C53.0665 35.0597 53.0191 34.7686 53.0191 34.4245V30.1434H51.7674V29.0604H53.0191V27.0356H54.2145V29.0604H55.9581V30.1434H54.2145V34.14C54.2145 34.5425 54.2895 34.8392 54.4395 35.031C54.617 35.2417 54.8751 35.3476 55.2126 35.3476C55.4838 35.3476 55.7474 35.2682 56 35.1082V36.2761C55.8588 36.3412 55.7165 36.3886 55.571 36.4173C55.4254 36.446 55.2401 36.4592 55.0152 36.4592C54.7273 36.4581 54.4582 36.4096 54.209 36.3147Z" fill="black"/>
</g>
<path d="M11.0614 35.949L8.49406 33.3817C8.18968 33.0685 8 32.6273 8 32.1961C8 31.9965 8.11249 31.6844 8.1974 31.5047L10.5674 26.5674L11.0614 35.949Z" fill="#01579B"/>
<path d="M19.8509 27.0613L17.2835 24.4939C17.0596 24.269 16.5921 23.9999 16.1972 23.9999C15.8576 23.9999 15.5245 24.0683 15.3084 24.1973L10.5685 26.5672L19.8509 27.0613Z" fill="#40C4FF"/>
<path d="M14.1228 39.0101H20.3449V36.3435L15.7032 34.8624L11.4573 36.3435L14.1228 39.0101Z" fill="#40C4FF"/>
<path d="M10.5685 34.5672C10.5685 35.359 10.6677 35.5542 11.0625 35.9501L11.4573 36.3449H20.3449L15.9998 31.4076L10.5685 26.5685V34.5672Z" fill="#29B6F6"/>
<path d="M18.4679 26.5674H10.5674L20.3438 36.3438H23.0104V30.221L19.8508 27.0614C19.4075 26.6159 19.0127 26.5674 18.4679 26.5674Z" fill="#01579B"/>
<path opacity="0.2" d="M11.1607 36.0483C10.7659 35.6513 10.6666 35.2609 10.6666 34.5672V26.6666L10.5674 26.5674V34.5661C10.5685 35.2609 10.5685 35.4528 11.1607 36.0483L11.4573 36.3449L11.1607 36.0483Z" fill="white"/>
<path opacity="0.2" d="M22.9123 30.1226V36.2454H20.2457L20.3449 36.3435H23.0115V30.2218L22.9123 30.1226Z" fill="#263238"/>
<path opacity="0.2" d="M19.8509 27.0614C19.3612 26.5718 18.9598 26.5674 18.3698 26.5674H10.5685L10.6677 26.6666H18.3709C18.6642 26.6666 19.4086 26.617 19.8509 27.0614Z" fill="white"/>
<path opacity="0.2" d="M22.9119 30.1227L19.8505 27.0613L17.2831 24.4939C17.0592 24.269 16.5917 23.9999 16.1968 23.9999C15.8572 23.9999 15.5241 24.0683 15.308 24.1973L10.5681 26.5672L8.19814 31.5045C8.11322 31.6843 8.00073 31.9964 8.00073 32.196C8.00073 32.6272 8.19042 33.0683 8.49479 33.3815L10.8614 35.7305C10.9177 35.8 10.9838 35.8706 11.0632 35.9489L11.1625 36.0481L11.4592 36.3448L14.0265 38.9121L14.1258 39.0114H20.2486H20.3478V36.3448H23.0144V36.3382V30.222L22.9119 30.1227Z" fill="url(#paint0_radial)"/>
<defs>
<radialGradient id="paint0_radial" cx="0" cy="0" r="1" gradientUnits="userSpaceOnUse" gradientTransform="translate(15.507 31.5052) scale(7.50631)">
<stop stop-color="white" stop-opacity="0.1"/>
<stop offset="1" stop-color="white" stop-opacity="0"/>
</radialGradient>
</defs>
</svg>
