<svg width="64" height="64" viewBox="0 0 64 64" fill="none" xmlns="http://www.w3.org/2000/svg">
<g clip-path="url(#clip0)">
<path d="M49.5047 33.2794L49.5091 35.9842L49.4913 28.4476L49.5047 33.2794ZM49.5047 33.2794L52.2274 30.5299M49.5047 33.2794L52.2408 35.9932M34.0015 33.3153C34.0146 32.7352 33.846 32.1425 33.5044 31.6628C33.0122 30.9716 32.2155 30.4997 31.3415 30.4896C31.2832 30.4896 31.2255 30.4896 31.1668 30.494C30.8213 30.5154 30.4867 30.5634 30.1906 30.6866C28.2433 31.4968 27.8982 34.201 29.5413 35.4244C30.9641 36.4839 33.0338 36.0513 33.7507 34.4348C33.9022 34.0932 34.0015 33.6625 34.0015 33.3153ZM34.0015 33.3153V28.4252M47.1404 30.812C46.7372 30.5515 46.2668 30.4575 45.8014 30.4582C45.7509 30.4582 45.6991 30.4608 45.6536 30.4627C44.3082 30.5206 43.0608 31.4713 43.0608 33.3153C43.0608 35.4954 45.3984 36.672 47.1448 35.6439M54.9905 35.4065C56.3665 34.2279 59.1238 31.8644 59.1238 31.8644C59.1238 31.8644 59.0233 31.6742 58.9581 31.5867C58.4017 30.84 57.5517 30.4672 56.6563 30.4672C54.4436 30.4672 52.7849 33.3284 54.9905 35.4065ZM54.9905 35.4065C55.1432 35.5504 55.353 35.6631 55.5861 35.7603C56.3954 36.0977 57.5033 36.07 58.1028 35.626L54.9905 35.4065ZM64 30.5299C63.3206 30.5317 62.6588 30.7697 62.1684 31.2285C61.3951 31.8668 61.2271 32.6728 61.237 33.6914L61.2594 36.0066M38.524 30.4761C38.4613 30.4773 38.399 30.4839 38.336 30.4851C36.6581 30.5159 35.4483 32.2587 35.8148 33.875C36.1719 35.4501 37.8927 36.3828 39.3794 35.8678C41.1106 35.4139 41.8167 33.2338 40.8661 31.7614C40.3462 30.956 39.465 30.4583 38.524 30.4761Z" stroke="#394D54" stroke-linecap="round" stroke-linejoin="round"/>
<path d="M15.6085 28.8397H18.0284V31.3135H19.252C19.817 31.3135 20.3982 31.2128 20.9333 31.0315C21.1963 30.9424 21.4914 30.8183 21.7507 30.6622C21.4091 30.2162 21.2347 29.6531 21.1834 29.098C21.1137 28.343 21.266 27.3602 21.777 26.7693L22.0314 26.4751L22.3345 26.7187C23.0977 27.3319 23.7395 28.1886 23.8526 29.1653C24.7715 28.895 25.8504 28.9589 26.6604 29.4264L26.9927 29.6182L26.8178 29.9595C26.1328 31.2965 24.7007 31.7107 23.3006 31.6374C21.2054 36.8557 16.6441 39.3262 11.1135 39.3262C8.25625 39.3262 5.63476 38.2581 4.14196 35.723C4.05443 35.5655 3.97948 35.4009 3.89999 35.2391C3.39539 34.1233 3.22779 32.9008 3.34148 31.6794L3.3756 31.3135H5.44488V28.8398H7.86478V26.4199H12.7046V24H15.6085V28.8398" fill="#394D54"/>
<mask id="mask0" mask-type="alpha" maskUnits="userSpaceOnUse" x="3" y="24" width="24" height="15">
<path d="M8.04305 24.2115V29.0797H5.7148V31.5138H3.7655C3.75722 31.5842 3.75052 31.6548 3.74372 31.7254C3.6219 33.0516 3.85341 34.2746 4.38532 35.3203L4.5639 35.6411C4.67094 35.8334 4.7958 36.014 4.92769 36.1901C5.05942 36.3661 5.10609 36.4634 5.18896 36.5804C6.59529 38.161 8.69173 38.9218 11.1121 38.9218C16.4722 38.9218 21.0212 36.5472 23.0345 31.2128C24.4628 31.3594 25.833 30.9931 26.4574 29.7742C25.4627 29.2002 24.1843 29.3842 23.4479 29.7544L25.3991 24.2115L17.7794 29.0797H15.3453V24.2115H8.04305Z" fill="white"/>
</mask>
<g mask="url(#mask0)">
<path d="M13.108 24.4033H15.2053V26.5007H13.108V24.4033Z" fill="#20C2EF"/>
<path d="M13.3655 26.3259V24.578V26.3259ZM13.68 26.3259V24.578V26.3259ZM13.9977 26.3259V24.578V26.3259ZM14.3156 26.3259V24.578V26.3259ZM14.6334 26.3259V24.578V26.3259ZM14.9478 26.3259V24.578V26.3259Z" fill="black"/>
<path d="M14.9478 26.3259V24.578M13.3655 26.3259V24.578V26.3259ZM13.68 26.3259V24.578V26.3259ZM13.9977 26.3259V24.578V26.3259ZM14.3156 26.3259V24.578V26.3259ZM14.6334 26.3259V24.578V26.3259Z" stroke="#394D54" stroke-width="1.56"/>
<path d="M15.5279 26.5006H17.6252V24.4034H15.5279V26.5006Z" fill="#00ACD3"/>
<path d="M15.7854 24.5781V26.3259V24.5781ZM16.0999 24.5781V26.3259V24.5781ZM16.4176 24.5781V26.3259V24.5781ZM16.7354 24.5781V26.3259V24.5781ZM17.0532 24.5781V26.3259V24.5781ZM17.3677 24.5781V26.3259V24.5781Z" fill="black"/>
<path d="M17.3677 24.5781V26.3259M15.7854 24.5781V26.3259V24.5781ZM16.0999 24.5781V26.3259V24.5781ZM16.4176 24.5781V26.3259V24.5781ZM16.7354 24.5781V26.3259V24.5781ZM17.0532 24.5781V26.3259V24.5781Z" stroke="#394D54" stroke-width="1.56"/>
<path d="M3.42838 26.8241H5.52565V28.9213H3.42838V26.8241Z" fill="#00ACD3"/>
<path d="M3.42838 29.2432H5.52565V31.3405H3.42838V29.2432Z" fill="#20C2EF"/>
<path d="M3.68591 28.7458V26.9979V28.7458ZM4.00042 28.7458V26.9979V28.7458ZM4.31811 28.7458V26.9979V28.7458ZM4.63596 28.7458V26.9979V28.7458ZM4.95376 28.7458V26.9979V28.7458ZM5.26821 28.7458V26.9979V28.7458Z" fill="black"/>
<path d="M5.26821 28.7458V26.9979M3.68591 28.7458V26.9979V28.7458ZM4.00042 28.7458V26.9979V28.7458ZM4.31811 28.7458V26.9979V28.7458ZM4.63596 28.7458V26.9979V28.7458ZM4.95376 28.7458V26.9979V28.7458Z" stroke="#394D54" stroke-width="1.56"/>
<path d="M3.68591 31.1657V29.4178V31.1657ZM4.00042 31.1657V29.4178V31.1657ZM4.31811 31.1657V29.4178V31.1657ZM4.63596 31.1657V29.4178V31.1657ZM4.95376 31.1657V29.4178V31.1657ZM5.26821 31.1657V29.4178V31.1657Z" fill="black"/>
<path d="M5.26821 31.1657V29.4178M3.68591 31.1657V29.4178V31.1657ZM4.00042 31.1657V29.4178V31.1657ZM4.31811 31.1657V29.4178V31.1657ZM4.63596 31.1657V29.4178V31.1657ZM4.95376 31.1657V29.4178V31.1657Z" stroke="#394D54" stroke-width="1.56"/>
<path d="M5.84827 31.3403H7.94554V29.2431H5.84827V31.3403Z" fill="#00ACD3"/>
<path d="M5.84824 28.9204H7.94551V26.8231H5.84824V28.9204Z" fill="#20C2EF"/>
<path d="M6.10577 29.4177V31.1655V29.4177ZM6.42028 29.4177V31.1655V29.4177ZM6.73797 29.4177V31.1655V29.4177ZM7.05582 29.4177V31.1655V29.4177ZM7.37362 29.4177V31.1655V29.4177ZM7.68807 29.4177V31.1655V29.4177Z" fill="black"/>
<path d="M7.68807 29.4177V31.1655M6.10577 29.4177V31.1655V29.4177ZM6.42028 29.4177V31.1655V29.4177ZM6.73797 29.4177V31.1655V29.4177ZM7.05582 29.4177V31.1655V29.4177ZM7.37362 29.4177V31.1655V29.4177Z" stroke="#394D54" stroke-width="1.56"/>
<path d="M6.10577 26.9979V28.7457V26.9979ZM6.42028 26.9979V28.7457V26.9979ZM6.73797 26.9979V28.7457V26.9979ZM7.05582 26.9979V28.7457V26.9979ZM7.37362 26.9979V28.7457V26.9979ZM7.68807 26.9979V28.7457V26.9979Z" fill="black"/>
<path d="M7.68807 26.9979V28.7457M6.10577 26.9979V28.7457V26.9979ZM6.42028 26.9979V28.7457V26.9979ZM6.73797 26.9979V28.7457V26.9979ZM7.05582 26.9979V28.7457V26.9979ZM7.37362 26.9979V28.7457V26.9979Z" stroke="#394D54" stroke-width="1.56"/>
<path d="M8.26819 26.8241H10.3655V28.9213H8.26819V26.8241Z" fill="#00ACD3"/>
<path d="M8.26816 29.2432H10.3654V31.3405H8.26816V29.2432Z" fill="#20C2EF"/>
<path d="M8.52567 28.7458V26.9979V28.7458ZM8.84017 28.7458V26.9979V28.7458ZM9.15786 28.7458V26.9979V28.7458ZM9.47571 28.7458V26.9979V28.7458ZM9.79351 28.7458V26.9979V28.7458ZM10.108 28.7458V26.9979V28.7458Z" fill="black"/>
<path d="M10.108 28.7458V26.9979M8.52567 28.7458V26.9979V28.7458ZM8.84017 28.7458V26.9979V28.7458ZM9.15786 28.7458V26.9979V28.7458ZM9.47571 28.7458V26.9979V28.7458ZM9.79351 28.7458V26.9979V28.7458Z" stroke="#394D54" stroke-width="1.56"/>
<path d="M8.52567 31.1657V29.4178V31.1657ZM8.84017 31.1657V29.4178V31.1657ZM9.15786 31.1657V29.4178V31.1657ZM9.47571 31.1657V29.4178V31.1657ZM9.79351 31.1657V29.4178V31.1657ZM10.108 31.1657V29.4178V31.1657Z" fill="black"/>
<path d="M10.108 31.1657V29.4178M8.52567 31.1657V29.4178V31.1657ZM8.84017 31.1657V29.4178V31.1657ZM9.15786 31.1657V29.4178V31.1657ZM9.47571 31.1657V29.4178V31.1657ZM9.79351 31.1657V29.4178V31.1657Z" stroke="#394D54" stroke-width="1.56"/>
<path d="M10.688 31.3403H12.7853V29.2431H10.688V31.3403Z" fill="#00ACD3"/>
<path d="M10.6881 28.9204H12.7854V26.8231H10.6881V28.9204Z" fill="#20C2EF"/>
<path d="M10.9456 29.4177V31.1655V29.4177ZM11.2601 29.4177V31.1655V29.4177ZM11.5778 29.4177V31.1655V29.4177ZM11.8957 29.4177V31.1655V29.4177ZM12.2135 29.4177V31.1655V29.4177ZM12.5279 29.4177V31.1655V29.4177Z" fill="black"/>
<path d="M12.5279 29.4177V31.1655M10.9456 29.4177V31.1655V29.4177ZM11.2601 29.4177V31.1655V29.4177ZM11.5778 29.4177V31.1655V29.4177ZM11.8957 29.4177V31.1655V29.4177ZM12.2135 29.4177V31.1655V29.4177Z" stroke="#394D54" stroke-width="1.56"/>
<path d="M10.9456 26.9979V28.7457V26.9979ZM11.2601 26.9979V28.7457V26.9979ZM11.5778 26.9979V28.7457V26.9979ZM11.8957 26.9979V28.7457V26.9979ZM12.2135 26.9979V28.7457V26.9979ZM12.5279 26.9979V28.7457V26.9979Z" fill="black"/>
<path d="M12.5279 26.9979V28.7457M10.9456 26.9979V28.7457V26.9979ZM11.2601 26.9979V28.7457V26.9979ZM11.5778 26.9979V28.7457V26.9979ZM11.8957 26.9979V28.7457V26.9979ZM12.2135 26.9979V28.7457V26.9979Z" stroke="#394D54" stroke-width="1.56"/>
<path d="M13.108 26.8241H15.2052V28.9213H13.108V26.8241Z" fill="#00ACD3"/>
<path d="M13.108 29.2432H15.2053V31.3405H13.108V29.2432Z" fill="#20C2EF"/>
<path d="M13.3655 28.7458V26.9979V28.7458ZM13.68 28.7458V26.9979V28.7458ZM13.9977 28.7458V26.9979V28.7458ZM14.3156 28.7458V26.9979V28.7458ZM14.6334 28.7458V26.9979V28.7458ZM14.9478 28.7458V26.9979V28.7458Z" fill="black"/>
<path d="M14.9478 28.7458V26.9979M13.3655 28.7458V26.9979V28.7458ZM13.68 28.7458V26.9979V28.7458ZM13.9977 28.7458V26.9979V28.7458ZM14.3156 28.7458V26.9979V28.7458ZM14.6334 28.7458V26.9979V28.7458Z" stroke="#394D54" stroke-width="1.56"/>
<path d="M13.3655 31.1657V29.4178V31.1657ZM13.68 31.1657V29.4178V31.1657ZM13.9977 31.1657V29.4178V31.1657ZM14.3156 31.1657V29.4178V31.1657ZM14.6334 31.1657V29.4178V31.1657ZM14.9478 31.1657V29.4178V31.1657Z" fill="black"/>
<path d="M14.9478 31.1657V29.4178M13.3655 31.1657V29.4178V31.1657ZM13.68 31.1657V29.4178V31.1657ZM13.9977 31.1657V29.4178V31.1657ZM14.3156 31.1657V29.4178V31.1657ZM14.6334 31.1657V29.4178V31.1657Z" stroke="#394D54" stroke-width="1.56"/>
<path d="M15.5279 31.3403H17.6252V29.2431H15.5279V31.3403Z" fill="#00ACD3"/>
<path d="M15.5279 28.9204H17.6252V26.8231H15.5279V28.9204Z" fill="#20C2EF"/>
<path d="M15.7854 29.4177V31.1655V29.4177ZM16.0999 29.4177V31.1655V29.4177ZM16.4176 29.4177V31.1655V29.4177ZM16.7354 29.4177V31.1655V29.4177ZM17.0532 29.4177V31.1655V29.4177ZM17.3677 29.4177V31.1655V29.4177Z" fill="black"/>
<path d="M17.3677 29.4177V31.1655M15.7854 29.4177V31.1655V29.4177ZM16.0999 29.4177V31.1655V29.4177ZM16.4176 29.4177V31.1655V29.4177ZM16.7354 29.4177V31.1655V29.4177ZM17.0532 29.4177V31.1655V29.4177Z" stroke="#394D54" stroke-width="1.56"/>
<path d="M15.7854 26.9979V28.7457V26.9979ZM16.0999 26.9979V28.7457V26.9979ZM16.4176 26.9979V28.7457V26.9979ZM16.7354 26.9979V28.7457V26.9979ZM17.0532 26.9979V28.7457V26.9979ZM17.3677 26.9979V28.7457V26.9979Z" fill="black"/>
<path d="M17.3677 26.9979V28.7457M15.7854 26.9979V28.7457V26.9979ZM16.0999 26.9979V28.7457V26.9979ZM16.4176 26.9979V28.7457V26.9979ZM16.7354 26.9979V28.7457V26.9979ZM17.0532 26.9979V28.7457V26.9979Z" stroke="#394D54" stroke-width="1.56"/>
</g>
<mask id="mask1" mask-type="alpha" maskUnits="userSpaceOnUse" x="3" y="24" width="24" height="15">
<path d="M8.04305 24.2115V29.0797H5.7148V31.5138H3.7655C3.75722 31.5842 3.75052 31.6548 3.74372 31.7254C3.6219 33.0516 3.85341 34.2746 4.38532 35.3203L4.5639 35.6411C4.67094 35.8334 4.7958 36.014 4.92769 36.1901C5.05942 36.3661 5.10609 36.4634 5.18896 36.5804C6.59529 38.161 8.69173 38.9218 11.1121 38.9218C16.4722 38.9218 21.0212 36.5472 23.0345 31.2128C24.4628 31.3594 25.833 30.9931 26.4574 29.7742C25.4627 29.2002 24.1843 29.3842 23.4479 29.7544L25.3991 24.2115L17.7794 29.0797H15.3453V24.2115H8.04305Z" fill="white"/>
</mask>
<g mask="url(#mask1)">
<path d="M23.4487 29.7548C23.6109 28.4939 22.6672 27.5033 22.082 27.0331C21.4076 27.8128 21.3028 29.8564 22.3608 30.7167C21.7704 31.2412 20.526 31.7167 19.252 31.7167H3.59822C3.47432 33.0466 3.59822 39.451 3.59822 39.451H26.5632L26.4588 29.7756C25.4642 29.2016 24.1852 29.3847 23.4487 29.7548" fill="#17B5EB"/>
</g>
<mask id="mask2" mask-type="alpha" maskUnits="userSpaceOnUse" x="3" y="24" width="24" height="15">
<path d="M8.04305 24.2115V29.0797H5.7148V31.5138H3.7655C3.75722 31.5842 3.75052 31.6548 3.74372 31.7254C3.6219 33.0516 3.85341 34.2746 4.38532 35.3203L4.5639 35.6411C4.67094 35.8334 4.7958 36.014 4.92769 36.1901C5.05942 36.3661 5.10609 36.4634 5.18896 36.5804C6.59529 38.161 8.69173 38.9218 11.1121 38.9218C16.4722 38.9218 21.0212 36.5472 23.0345 31.2128C24.4628 31.3594 25.833 30.9931 26.4574 29.7742C25.4627 29.2002 24.1843 29.3842 23.4479 29.7544L25.3991 24.2115L17.7794 29.0797H15.3453V24.2115H8.04305Z" fill="white"/>
</mask>
<g mask="url(#mask2)">
<path d="M3.59824 33.4187V39.451H26.5632V33.4187" fill="black" fill-opacity="0.17"/>
</g>
<mask id="mask3" mask-type="alpha" maskUnits="userSpaceOnUse" x="3" y="24" width="24" height="15">
<path d="M8.04305 24.2115V29.0797H5.7148V31.5138H3.7655C3.75722 31.5842 3.75052 31.6548 3.74372 31.7254C3.6219 33.0516 3.85341 34.2746 4.38532 35.3203L4.5639 35.6411C4.67094 35.8334 4.7958 36.014 4.92769 36.1901C5.05942 36.3661 5.10609 36.4634 5.18896 36.5804C6.59529 38.161 8.69173 38.9218 11.1121 38.9218C16.4722 38.9218 21.0212 36.5472 23.0345 31.2128C24.4628 31.3594 25.833 30.9931 26.4574 29.7742C25.4627 29.2002 24.1843 29.3842 23.4479 29.7544L25.3991 24.2115L17.7794 29.0797H15.3453V24.2115H8.04305Z" fill="white"/>
</mask>
<g mask="url(#mask3)">
<path d="M11.7722 38.9101C10.3393 38.2302 9.55281 37.3059 9.11519 36.2968L4.76236 36.4877L6.98478 39.4509L11.7722 38.9101Z" fill="#D4EDF1"/>
</g>
<mask id="mask4" mask-type="alpha" maskUnits="userSpaceOnUse" x="3" y="24" width="24" height="15">
<path d="M8.04305 24.2115V29.0797H5.7148V31.5138H3.7655C3.75722 31.5842 3.75052 31.6548 3.74372 31.7254C3.6219 33.0516 3.85341 34.2746 4.38532 35.3203L4.5639 35.6411C4.67094 35.8334 4.7958 36.014 4.92769 36.1901C5.05942 36.3661 5.10609 36.4634 5.18896 36.5804C6.59529 38.161 8.69173 38.9218 11.1121 38.9218C16.4722 38.9218 21.0212 36.5472 23.0345 31.2128C24.4628 31.3594 25.833 30.9931 26.4574 29.7742C25.4627 29.2002 24.1843 29.3842 23.4479 29.7544L25.3991 24.2115L17.7794 29.0797H15.3453V24.2115H8.04305Z" fill="white"/>
</mask>
<g mask="url(#mask4)">
<path d="M23.5471 29.708V29.7113C21.3394 32.5569 18.1727 35.0428 14.7732 36.3488C11.7406 37.5137 9.09665 37.5193 7.2725 36.5836C7.07608 36.4726 6.88351 36.3495 6.69044 36.233C5.35311 35.2983 4.59984 33.7522 4.66315 31.7154H3.59824V39.4509H26.5632V29.2913H23.9175L23.5471 29.708Z" fill="black" fill-opacity="0.085"/>
</g>
<path d="M4.82846 36.3853C6.32755 36.4674 7.92741 36.4821 9.32291 36.0447" stroke="#394D54" stroke-width="0.5" stroke-linecap="round"/>
<path d="M10.8126 35.3194C10.8126 35.6389 10.5536 35.8979 10.2341 35.8979C9.91456 35.8979 9.65549 35.6389 9.65549 35.3194C9.65549 34.9999 9.91456 34.7407 10.2341 34.7407C10.5536 34.7407 10.8126 34.9999 10.8126 35.3194Z" fill="#D4EDF1"/>
<path d="M10.3841 34.933C10.3336 34.9622 10.2995 35.0168 10.2995 35.0794C10.2995 35.1728 10.3752 35.2484 10.4686 35.2484C10.5326 35.2484 10.5882 35.2129 10.6169 35.1604C10.6372 35.2093 10.6485 35.2631 10.6485 35.3194C10.6485 35.5482 10.463 35.7337 10.2341 35.7337C10.0053 35.7337 9.81967 35.5482 9.81967 35.3194C9.81967 35.0905 10.0053 34.9049 10.2341 34.9049C10.287 34.9049 10.3375 34.9149 10.3841 34.933Z" fill="#394D54"/>
<path d="M0 33.5417H26.9153C26.3293 33.3931 25.0611 33.1922 25.2703 32.4242C24.2046 33.6573 21.6347 33.2893 20.9861 32.6812C20.2639 33.7288 16.0593 33.3306 15.7661 32.5145C14.8606 33.5771 12.0549 33.5771 11.1494 32.5145C10.856 33.3306 6.65151 33.7288 5.9292 32.6812C5.28063 33.2893 2.71094 33.6573 1.64521 32.4242C1.85435 33.1922 0.58617 33.3931 0 33.5417Z" fill="#394D54"/>
</g>
<defs>
<clipPath id="clip0">
<rect width="64" height="64" fill="white"/>
</clipPath>
</defs>
</svg>
