<svg width="64" height="64" viewBox="0 0 64 64" fill="none" xmlns="http://www.w3.org/2000/svg">
<path d="M32.2197 47.5607C40.9349 47.5607 48 40.4956 48 31.7804C48 23.0651 40.9349 16 32.2197 16C23.5044 16 16.4393 23.0651 16.4393 31.7804C16.4393 40.4956 23.5044 47.5607 32.2197 47.5607Z" fill="#5C2D91"/>
<path opacity="0.1" d="M21.2819 20.4381C19.6777 21.8676 18.3823 23.6097 17.4752 25.5575C16.5681 27.5054 16.0683 29.6179 16.0065 31.7658C15.9447 33.9136 16.3222 36.0514 17.1159 38.0481C17.9095 40.0449 19.1026 41.8585 20.622 43.3779C22.1413 44.8973 23.955 46.0903 25.9517 46.884C27.9485 47.6776 30.0863 48.0551 32.2341 47.9934C34.3819 47.9316 36.4945 47.4318 38.4423 46.5247C40.3902 45.6176 42.1322 44.3222 43.5618 42.718L21.2819 20.4381Z" fill="white"/>
<path d="M20.0884 36.3419C19.9964 36.3433 19.905 36.3257 19.8202 36.29C19.7353 36.2544 19.6587 36.2015 19.5953 36.1348C19.5302 36.0704 19.4787 35.9936 19.4439 35.9088C19.4092 35.8241 19.3919 35.7332 19.3931 35.6416C19.3925 35.5501 19.41 35.4594 19.4447 35.3748C19.4794 35.2901 19.5306 35.2132 19.5953 35.1485C19.6581 35.0806 19.7344 35.0267 19.8194 34.9901C19.9043 34.9536 19.996 34.9353 20.0884 34.9365C20.1808 34.9362 20.2722 34.9549 20.357 34.9914C20.4418 35.0279 20.5182 35.0813 20.5816 35.1485C20.6474 35.2126 20.6996 35.2893 20.7352 35.374C20.7708 35.4587 20.789 35.5498 20.7887 35.6416C20.7896 35.7336 20.7716 35.8248 20.736 35.9096C20.7004 35.9944 20.6479 36.071 20.5816 36.1348C20.5176 36.2008 20.441 36.2532 20.3562 36.2888C20.2715 36.3244 20.1804 36.3425 20.0884 36.3419Z" fill="white"/>
<path d="M29.887 36.2185H28.595L23.9743 29.0483C23.8594 28.8715 23.7636 28.6831 23.6883 28.4861H23.6489C23.6928 28.8955 23.7093 29.3074 23.6982 29.719V36.2185H22.6478V27.2286H24.0138L28.5112 34.2706C28.6986 34.5632 28.8202 34.7638 28.8761 34.8723H28.9008C28.8487 34.4337 28.8273 33.9921 28.8367 33.5506V27.2286H29.887V36.2185Z" fill="white"/>
<path d="M36.9981 36.2185H32.2196V27.2286H36.7762V28.1804H33.2946V31.1688H36.5394V32.1156H33.2946V35.2322H37.003L36.9981 36.2185Z" fill="white"/>
<path d="M44.0548 28.1804H41.4412V36.2185H40.3908V28.1804H37.8068V27.2286H44.0548V28.1804Z" fill="white"/>
</svg>
