<svg width="64" height="64" viewBox="0 0 64 64" fill="none" xmlns="http://www.w3.org/2000/svg">
<path d="M43.0539 25.246C41.7162 25.246 40.5036 25.7779 39.6134 26.6405L33.9681 22.5982C34.0034 22.4505 34.024 22.2973 34.024 22.1388C34.024 21.0462 33.1382 20.1603 32.0455 20.1603C30.9529 20.1603 30.067 21.0462 30.067 22.1388C30.067 23.2315 30.9529 24.1173 32.0455 24.1173C32.4281 24.1173 32.7841 24.0068 33.0869 23.8188L39.9974 28.8478C40.5361 27.724 41.7244 26.849 43.0539 26.849C44.9002 26.849 46.3971 28.3458 46.3971 30.1922C46.3971 31.6677 45.4412 32.9199 44.115 33.3634L44.5686 34.902C46.5594 34.2623 48 32.3955 48 30.1922C48 27.4605 45.7856 25.246 43.0539 25.246Z" fill="#0A7BFF"/>
<path d="M27.1956 20.4413C26.7917 21.7128 26.9311 23.0264 27.4822 24.1332L21.9347 28.279C21.805 28.201 21.6655 28.1351 21.5149 28.0872C20.4761 27.7572 19.3665 28.3319 19.0366 29.3706C18.7066 30.4094 19.2812 31.519 20.3199 31.8489C21.3586 32.1789 22.4682 31.6044 22.7982 30.5656C22.9137 30.2019 22.9162 29.8301 22.8289 29.4856L29.6966 24.4347C28.791 23.5832 28.318 22.1893 28.7194 20.9255C29.277 19.1702 31.152 18.1992 32.9073 18.7568C34.3099 19.2023 35.2116 20.4892 35.2329 21.884L36.8325 21.9173C36.8255 19.8317 35.4859 17.8983 33.3913 17.233C30.7945 16.4081 28.0205 17.8445 27.1956 20.4413Z" fill="#EB3D00"/>
<path d="M18.033 33.8111C19.1093 34.5965 20.3948 34.884 21.6135 34.7184L23.802 41.2589C23.6878 41.356 23.582 41.4663 23.4897 41.5926C22.8534 42.4646 23.0504 43.6916 23.9297 44.3331C24.8089 44.9748 26.0374 44.7879 26.6737 43.9159C27.31 43.0439 27.113 41.817 26.2338 41.1754C25.9259 40.9508 25.5752 40.8299 25.2222 40.8023L22.5898 32.7314C21.5019 33.3119 20.0363 33.3125 18.9664 32.5319C17.4808 31.4478 17.1479 29.3745 18.223 27.901C19.0823 26.7235 20.5805 26.2854 21.9059 26.71L22.4369 25.2159C20.4625 24.5575 18.2161 25.2015 16.9331 26.9598C15.3425 29.1398 15.8349 32.2073 18.033 33.8111Z" fill="#00BCD4"/>
<path d="M43.3562 41.4976C42.9487 40.2363 42.075 39.2556 40.9863 38.6802L43.0983 32.119C43.2489 32.107 43.4005 32.0795 43.5507 32.031C44.5864 31.6963 45.1562 30.5897 44.8234 29.5595C44.4905 28.529 43.381 27.9649 42.3453 28.2996C41.3095 28.6341 40.7397 29.7407 41.0725 30.7711C41.1892 31.1318 41.4023 31.4337 41.6727 31.6616L39.0109 39.7183C40.2403 39.8822 41.4317 40.7347 41.8367 41.9885C42.3992 43.7296 41.4363 45.5995 39.6862 46.1648C38.2875 46.6167 36.8093 46.0988 35.9849 44.984L34.6645 45.883C35.8774 47.5642 38.0859 48.3512 40.1744 47.6765C42.7638 46.84 44.1883 44.0736 43.3562 41.4976Z" fill="#86C351"/>
<path d="M28.0341 46.7902C29.1071 46.0051 29.7679 44.8667 29.9758 43.6521L36.8773 43.5817C36.9358 43.7207 37.0091 43.8559 37.1021 43.983C37.7435 44.8596 38.974 45.0502 39.8506 44.409C40.7273 43.7676 40.9179 42.5371 40.2766 41.6605C39.6353 40.7839 38.4048 40.5931 37.5281 41.2345C37.2213 41.4591 37.0004 41.7565 36.8679 42.0851L28.3721 42.1067C28.5995 43.3245 28.1599 44.7239 27.0933 45.5042C25.612 46.588 23.5326 46.2657 22.4489 44.7845C21.5829 43.6007 21.6147 42.0351 22.4182 40.9009L21.1512 39.9327C19.9297 41.6144 19.8697 43.9576 21.1629 45.7252C22.7662 47.9169 25.8426 48.3936 28.0341 46.7902Z" fill="#9032E9"/>
</svg>
