<svg width="64" height="64" viewBox="0 0 64 64" fill="none" xmlns="http://www.w3.org/2000/svg">
<path fill-rule="evenodd" clip-rule="evenodd" d="M43.9983 47.0201H45.9981V30.9811C45.9981 23.2576 39.7305 17 31.999 17C24.2835 17 17.9999 23.2596 17.9999 30.9811V47.0201H19.9998V30.9811C19.9998 24.3695 25.3814 18.9999 31.999 18.9999C38.6266 18.9999 43.9983 24.3635 43.9983 30.9811V47.0201ZM22.9596 20.3138C22.2276 19.5098 21.1717 19.0039 19.9998 19.0039C17.7899 19.0039 16 20.7938 16 23.0036C16 24.7395 17.1039 26.2154 18.6498 26.7694C18.8538 26.1274 19.1018 25.5075 19.3918 24.9095C18.5858 24.6515 18.0019 23.8956 18.0019 23.0036C18.0019 21.8997 18.8978 21.0037 20.0017 21.0037C20.6137 21.0037 21.1617 21.2797 21.5297 21.7117C21.9736 21.2117 22.4516 20.7458 22.9636 20.3138H22.9596ZM41.0424 20.3098C41.7744 19.5078 42.8283 19.0039 44.0003 19.0039C46.2101 19.0039 48 20.7938 48 23.0036C48 24.7375 46.8961 26.2154 45.3522 26.7694C45.1502 26.1274 44.9022 25.5055 44.6122 24.9075C45.4182 24.6495 46.0001 23.8936 46.0001 23.0036C46.0001 21.8997 45.1042 21.0037 44.0003 21.0037C43.3903 21.0037 42.8423 21.2777 42.4763 21.7097C42.0324 21.2097 41.5544 20.7438 41.0424 20.3118" fill="black"/>
<path fill-rule="evenodd" clip-rule="evenodd" d="M27.4512 31.0812H30.565V31.3292C30.565 31.8951 30.4991 32.3971 30.3651 32.8331C30.2351 33.237 30.0151 33.615 29.7051 33.965C29.0051 34.7529 28.1152 35.1469 27.0353 35.1469C25.9813 35.1469 25.0774 34.7669 24.3254 34.005C23.5735 33.241 23.1975 32.3231 23.1975 31.2512C23.1975 30.1572 23.5795 29.2313 24.3454 28.4693C25.1094 27.7054 26.0413 27.3214 27.1373 27.3214C27.7272 27.3214 28.2772 27.4414 28.7872 27.6834C29.2751 27.9234 29.7551 28.3153 30.2271 28.8553L29.4171 29.6313C28.7992 28.8073 28.0452 28.3953 27.1573 28.3953C26.3593 28.3953 25.6914 28.6713 25.1574 29.2213C24.6174 29.7613 24.3474 30.4392 24.3474 31.2512C24.3474 32.0911 24.6494 32.7831 25.2514 33.325C25.8153 33.829 26.4253 34.081 27.0813 34.081C27.6412 34.081 28.1432 33.893 28.5892 33.515C29.0351 33.135 29.2831 32.6791 29.3351 32.1491H27.4552V31.0792L27.4512 31.0812ZM33.2229 31.2012C33.2229 30.1412 33.6109 29.2293 34.3888 28.4673C35.1628 27.7054 36.0947 27.3254 37.1806 27.3254C38.2546 27.3254 39.1765 27.7094 39.9445 28.4773C40.7164 29.2453 41.1004 30.1672 41.1004 31.2452C41.1004 32.3291 40.7124 33.245 39.9385 34.003C39.1605 34.7609 38.2226 35.1409 37.1226 35.1409C36.1487 35.1409 35.2768 34.8049 34.5008 34.131C33.6489 33.385 33.2209 32.4091 33.2209 31.2012H33.2229ZM34.3688 31.2152C34.3688 32.0491 34.6488 32.7331 35.2088 33.271C35.7647 33.809 36.4087 34.077 37.1366 34.077C37.9266 34.077 38.5945 33.803 39.1365 33.257C39.6805 32.7031 39.9525 32.0311 39.9525 31.2372C39.9525 30.4332 39.6845 29.7593 39.1465 29.2173C38.6125 28.6713 37.9526 28.3973 37.1646 28.3973C36.3807 28.3973 35.7187 28.6713 35.1788 29.2173C34.6388 29.7573 34.3688 30.4252 34.3688 31.2172V31.2152ZM34.0008 39.0527C35.0508 39.1047 35.6247 39.1787 35.6247 39.1787C36.1667 39.2287 36.2727 38.9867 35.8567 38.6327C35.8567 38.6327 34.3068 37.0068 31.991 37.0068C29.6731 37.0068 28.1452 38.6327 28.1452 38.6327C27.7232 38.9807 27.8392 39.2327 28.3852 39.1787C28.3852 39.1787 28.9571 39.1047 30.0051 39.0527V40.0066C30.0051 40.5426 30.4531 41.0066 31.005 41.0066C31.541 41.0066 32.005 40.5606 32.005 40.0106V39.5067V40.0066C32.005 40.5426 32.4529 41.0066 33.0049 41.0066C33.5409 41.0066 34.0048 40.5606 34.0048 40.0106V39.0547L34.0008 39.0527ZM32.005 37.0088C33.1089 37.0088 34.0048 36.5608 34.0048 36.0089C34.0048 35.4569 33.1089 35.0089 32.005 35.0089C30.901 35.0089 30.0051 35.4569 30.0051 36.0089C30.0051 36.5608 30.901 37.0088 32.005 37.0088Z" fill="black"/>
</svg>
