<svg width="64" height="64" viewBox="0 0 64 64" fill="none" xmlns="http://www.w3.org/2000/svg">
<path d="M18.1745 33.7668V35.7918C17.9294 35.9742 17.6547 36.1128 17.3624 36.2015C17.0629 36.2902 16.7519 36.334 16.4395 36.3313C16.0617 36.3367 15.6861 36.2725 15.3315 36.1417C15.0157 36.0248 14.7269 35.8447 14.483 35.6125C14.2468 35.3838 14.0619 35.1075 13.9407 34.8019C13.8115 34.4748 13.7471 34.1257 13.7511 33.774C13.747 33.4205 13.8093 33.0694 13.9348 32.7389C14.0502 32.4355 14.2275 32.1595 14.4553 31.9283C14.6876 31.6973 14.9664 31.5184 15.2732 31.4035C15.6184 31.2737 15.9848 31.2099 16.3535 31.2154C16.5446 31.2148 16.7354 31.2314 16.9236 31.265C17.091 31.2944 17.2554 31.3388 17.4149 31.3976C17.5596 31.4517 17.6984 31.5206 17.8289 31.6032C17.9501 31.6829 18.0646 31.7721 18.1716 31.87L17.9048 32.2928C17.8874 32.3233 17.864 32.35 17.8359 32.3711C17.8078 32.3921 17.7756 32.4072 17.7415 32.4153C17.6653 32.4281 17.5872 32.4103 17.5242 32.3657L17.2953 32.233C17.2141 32.187 17.1287 32.149 17.0402 32.1193C16.9373 32.085 16.8321 32.0582 16.7253 32.0391C16.5923 32.0174 16.4577 32.0072 16.3229 32.0085C16.0932 32.0053 15.8653 32.048 15.6523 32.1339C15.4582 32.2137 15.284 32.3351 15.142 32.4896C14.9974 32.6516 14.8869 32.841 14.8169 33.0465C14.7381 33.2814 14.6997 33.5278 14.7031 33.7755C14.6991 34.0363 14.7406 34.2958 14.8256 34.5424C14.8998 34.7548 15.0175 34.9495 15.1711 35.1139C15.3227 35.2705 15.5069 35.392 15.7106 35.4696C15.9351 35.5539 16.1735 35.5955 16.4133 35.5921C16.5799 35.5944 16.7461 35.5748 16.9075 35.5338C17.0541 35.4943 17.1966 35.4411 17.3332 35.3748V34.4666H16.7034C16.6769 34.4688 16.6502 34.4654 16.6251 34.4566C16.6 34.4478 16.577 34.4338 16.5576 34.4155C16.5412 34.3997 16.5283 34.3806 16.5195 34.3596C16.5107 34.3385 16.5063 34.3159 16.5066 34.2931V33.7668H18.1745ZM19.6936 33.341C19.7886 33.1467 19.9232 32.9744 20.0887 32.8351C20.2428 32.716 20.4335 32.6542 20.6282 32.6602C20.7678 32.6529 20.9061 32.6902 21.0233 32.7666L20.9679 33.4066C20.961 33.4407 20.9437 33.4719 20.9183 33.4956C20.8923 33.5138 20.8611 33.523 20.8294 33.5218C20.7775 33.52 20.7258 33.5141 20.6748 33.5043C20.6093 33.4929 20.543 33.487 20.4765 33.4868C20.3907 33.4851 20.3052 33.4989 20.2243 33.5277C20.151 33.5551 20.0833 33.5956 20.0246 33.6472C19.9636 33.7024 19.911 33.7663 19.8686 33.8367C19.8196 33.917 19.7776 34.0014 19.7432 34.089V36.2758H18.8874V32.7258H19.3889C19.4203 32.7185 19.453 32.7186 19.4844 32.7261C19.5158 32.7337 19.5449 32.7484 19.5696 32.7693C19.5942 32.7901 19.6136 32.8164 19.6263 32.846C19.639 32.8757 19.6446 32.9079 19.6426 32.9401L19.6936 33.341ZM21.3411 33.22C21.7418 32.8503 22.2699 32.6497 22.815 32.6602C23.0055 32.657 23.1947 32.6912 23.372 32.7608C23.529 32.8251 23.6707 32.922 23.7875 33.0451C23.9026 33.1716 23.9904 33.3205 24.0455 33.4825C24.1054 33.661 24.135 33.8482 24.133 34.0365V36.2773H23.7481C23.6834 36.2804 23.6189 36.2679 23.56 36.2409C23.5095 36.206 23.4728 36.1543 23.4565 36.0951L23.3807 35.8385C23.2966 35.9141 23.2085 35.9851 23.1168 36.0513C23.0336 36.1114 22.9448 36.1631 22.8515 36.2059C22.7578 36.2474 22.6601 36.2791 22.5599 36.3006C22.4452 36.3232 22.3284 36.3339 22.2115 36.3327C22.0707 36.3346 21.9305 36.3144 21.796 36.2729C21.675 36.2359 21.5633 36.1738 21.4679 36.0907C21.3737 36.0087 21.2998 35.9058 21.2522 35.7904C21.199 35.6574 21.1732 35.5151 21.1763 35.3719C21.1763 35.2801 21.1916 35.189 21.2215 35.1022C21.2534 35.0091 21.3029 34.923 21.3673 34.8485C21.4439 34.76 21.5327 34.6829 21.6312 34.6196C21.7559 34.5432 21.8896 34.4825 22.0292 34.4389C22.2091 34.3808 22.3934 34.3374 22.5803 34.3091C22.8188 34.2729 23.0594 34.253 23.3005 34.2493V34.0336C23.3172 33.8458 23.2654 33.6584 23.1547 33.5058C23.0987 33.4471 23.0305 33.4014 22.955 33.3717C22.8795 33.3419 22.7984 33.329 22.7174 33.3338C22.6007 33.331 22.4844 33.3478 22.3733 33.3833C22.29 33.4118 22.2094 33.4479 22.1327 33.4912L21.9447 33.6006C21.8868 33.633 21.8214 33.6495 21.7551 33.6487C21.7027 33.6496 21.6515 33.6332 21.6093 33.602C21.5689 33.5732 21.5347 33.5365 21.5087 33.4941L21.3411 33.22ZM23.3005 34.7611C23.0918 34.7682 22.8838 34.7896 22.678 34.8252C22.5384 34.8472 22.4022 34.8868 22.2727 34.9433C22.1867 34.9803 22.1118 35.0391 22.0555 35.1139C22.0112 35.1754 21.9878 35.2495 21.9884 35.3253C21.9828 35.3856 21.9921 35.4464 22.0155 35.5024C22.0389 35.5583 22.0756 35.6076 22.1225 35.646C22.2245 35.7154 22.3463 35.7496 22.4695 35.7437C22.6269 35.7477 22.7831 35.7153 22.9258 35.6489C23.0667 35.5742 23.1935 35.4755 23.3005 35.3574V34.7611ZM28.0228 31.1323V36.2773H27.4994C27.4508 36.2817 27.4023 36.2683 27.3629 36.2396C27.3235 36.2109 27.2958 36.1689 27.285 36.1213L27.2122 35.7787C27.0725 35.9392 26.9057 36.0739 26.7194 36.1767C26.5187 36.2788 26.2956 36.3289 26.0706 36.3225C25.8859 36.3254 25.7033 36.284 25.5379 36.2019C25.3725 36.1197 25.2292 35.9991 25.12 35.8501C24.9947 35.6795 24.9032 35.4865 24.8503 35.2815C24.7829 35.0286 24.7505 34.7677 24.7541 34.5059C24.7527 34.2589 24.7891 34.013 24.862 33.777C24.9272 33.5651 25.0316 33.3673 25.1696 33.1938C25.2999 33.0307 25.464 32.8979 25.6507 32.8045C25.8463 32.7071 26.0621 32.6571 26.2805 32.6587C26.4548 32.6538 26.6282 32.6856 26.7894 32.752C26.9294 32.8127 27.0573 32.8982 27.167 33.0043V31.1323H28.0228ZM27.167 33.6326C27.0835 33.5249 26.9749 33.4393 26.8506 33.3833C26.734 33.3338 26.6084 33.3089 26.4817 33.3104C26.3611 33.308 26.2415 33.3329 26.1318 33.3833C26.0264 33.4328 25.9352 33.508 25.8665 33.602C25.7857 33.7146 25.7277 33.8419 25.6959 33.9767C25.6541 34.1519 25.6345 34.3317 25.6376 34.5118C25.6344 34.689 25.651 34.866 25.6872 35.0395C25.7135 35.1651 25.7629 35.2848 25.833 35.3923C25.8887 35.4781 25.9675 35.5463 26.0604 35.5892C26.1555 35.6308 26.2584 35.6517 26.3622 35.6504C26.5206 35.6552 26.6773 35.6169 26.8156 35.5396C26.9505 35.4558 27.0699 35.3492 27.1684 35.2247L27.167 33.6326ZM29.7314 31.1323V36.2773H28.8771V31.1323H29.7314ZM31.2448 34.608C31.2542 34.7692 31.2866 34.9283 31.341 35.0803C31.3856 35.2024 31.454 35.3144 31.5422 35.4098C31.6241 35.4949 31.7236 35.5611 31.8338 35.6037C31.9553 35.6476 32.0837 35.6693 32.2128 35.6679C32.3343 35.6706 32.4553 35.6538 32.5715 35.6183C32.6619 35.5907 32.7498 35.555 32.8339 35.5119C32.9097 35.4725 32.9797 35.4361 33.0322 35.404C33.0814 35.3739 33.1378 35.3573 33.1955 35.3559C33.2269 35.3539 33.2583 35.3602 33.2865 35.3743C33.3147 35.3884 33.3386 35.4097 33.3559 35.4361L33.6037 35.751C33.5121 35.859 33.405 35.9529 33.2859 36.0295C33.1704 36.1039 33.0466 36.1645 32.917 36.2102C32.7902 36.2546 32.6593 36.2864 32.5263 36.305C32.4003 36.3236 32.2731 36.3333 32.1458 36.3342C31.9103 36.3363 31.6765 36.2948 31.4562 36.2117C31.2475 36.132 31.0585 36.0082 30.9022 35.8487C30.7393 35.6773 30.6133 35.4743 30.5318 35.2524C30.437 34.9868 30.391 34.7062 30.3963 34.4243C30.3948 34.1912 30.4347 33.9596 30.5144 33.7405C30.5885 33.5343 30.703 33.345 30.8511 33.1836C31.0021 33.0229 31.1848 32.8953 31.3877 32.8089C31.8136 32.6361 32.2879 32.6246 32.7217 32.7768C32.9053 32.8446 33.072 32.9516 33.2101 33.0903C33.3508 33.2349 33.4601 33.4072 33.5308 33.5962C33.6112 33.815 33.6502 34.0469 33.646 34.2799C33.653 34.3691 33.6385 34.4586 33.6037 34.5409C33.5855 34.5651 33.5612 34.584 33.5333 34.5958C33.5054 34.6076 33.4748 34.6118 33.4448 34.608H31.2448ZM32.8747 34.0919C32.8751 33.9856 32.8594 33.8799 32.8281 33.7784C32.7978 33.6837 32.7481 33.5964 32.6823 33.5218C32.6177 33.4459 32.5364 33.386 32.4447 33.3469C32.2928 33.2863 32.1275 33.2678 31.9661 33.2935C31.8046 33.3192 31.6531 33.388 31.5276 33.4927C31.3748 33.6572 31.2796 33.867 31.2564 34.0904L32.8747 34.0919ZM37.6757 31.3772C37.9213 31.373 38.1663 31.4009 38.4047 31.4603C38.5891 31.5058 38.7623 31.5887 38.9135 31.7038C39.0419 31.8087 39.1422 31.944 39.2051 32.0974C39.2717 32.2648 39.3044 32.4437 39.3013 32.6237C39.3018 32.7512 39.279 32.8777 39.2342 32.997C39.1884 33.1177 39.1229 33.2301 39.0403 33.3294C38.952 33.4342 38.8471 33.5238 38.7298 33.5947C38.5976 33.6724 38.4546 33.7299 38.3055 33.7653C38.6359 33.7948 38.9484 33.9286 39.1978 34.1473C39.3011 34.2498 39.382 34.3728 39.4352 34.5084C39.4884 34.6439 39.5128 34.7891 39.5068 34.9346C39.51 35.1269 39.4723 35.3178 39.396 35.4944C39.3237 35.6589 39.2133 35.8038 39.0738 35.9172C38.9225 36.0409 38.7481 36.1331 38.5606 36.1884C38.3335 36.2525 38.0983 36.2834 37.8623 36.2802H36.2732V31.3772H37.6757ZM36.6231 31.6571V33.6691H37.6859C37.8839 33.674 38.0812 33.6444 38.2691 33.5816C38.4144 33.5335 38.5484 33.4561 38.6627 33.3542C38.7621 33.2655 38.8398 33.1553 38.8901 33.032C38.9381 32.9144 38.9628 32.7886 38.963 32.6616C38.9724 32.521 38.949 32.3801 38.8946 32.25C38.8402 32.12 38.7563 32.0044 38.6496 31.9123C38.4396 31.7412 38.117 31.6562 37.6815 31.6571H36.6231ZM37.8521 35.9916C38.2822 35.9916 38.6058 35.8982 38.8274 35.7131C38.9851 35.5611 39.0927 35.3648 39.1359 35.1502C39.1791 34.9356 39.156 34.7129 39.0695 34.5118C39.0102 34.3883 38.9229 34.2804 38.8143 34.1968C38.6926 34.1043 38.5539 34.0365 38.4061 33.9971C38.2269 33.9494 38.042 33.9263 37.8565 33.9286H36.6231V35.993L37.8521 35.9916ZM43.0802 32.8351V36.2773H42.8965C42.8835 36.2794 42.8701 36.2787 42.8574 36.2752C42.8446 36.2717 42.8327 36.2656 42.8225 36.2572C42.8123 36.2487 42.804 36.2383 42.7982 36.2264C42.7924 36.2145 42.7891 36.2016 42.7886 36.1884L42.758 35.6752C42.6059 35.8678 42.4183 36.0296 42.2055 36.1519C41.9944 36.273 41.7549 36.3359 41.5115 36.3342C41.3396 36.338 41.1687 36.3078 41.0085 36.2452C40.8708 36.1885 40.7488 36.0995 40.6528 35.9857C40.5545 35.8656 40.4815 35.7267 40.4385 35.5775C40.3872 35.4019 40.3626 35.2195 40.3656 35.0366V32.8351H40.698V35.0366C40.6811 35.3079 40.7595 35.5766 40.9196 35.7962C41.0028 35.8916 41.1072 35.9661 41.2244 36.014C41.3416 36.0618 41.4684 36.0816 41.5946 36.0717C41.816 36.0711 42.0331 36.0106 42.223 35.8968C42.4262 35.7738 42.6031 35.6117 42.7434 35.42V32.8351H43.0802ZM44.7204 31.6484C44.7207 31.6883 44.7117 31.7277 44.6941 31.7636C44.678 31.7995 44.6552 31.8322 44.6271 31.8598C44.5994 31.8875 44.5668 31.9097 44.5309 31.9254C44.4552 31.9565 44.3703 31.9565 44.2947 31.9254C44.2223 31.8938 44.1645 31.836 44.1328 31.7636C44.1164 31.7274 44.108 31.6881 44.1081 31.6484C44.1081 31.6073 44.1166 31.5666 44.1328 31.5288C44.1481 31.4919 44.1704 31.4582 44.1985 31.4297C44.2261 31.402 44.2588 31.3798 44.2947 31.3641C44.3703 31.333 44.4552 31.333 44.5309 31.3641C44.5994 31.3969 44.6537 31.4533 44.6839 31.523C44.7038 31.5608 44.7148 31.6027 44.716 31.6455L44.7204 31.6484ZM44.5746 32.8351V36.2773H44.2466V32.8351H44.5746ZM46.1112 31.2431V36.2773H45.7788V31.2402L46.1112 31.2431ZM49.9573 31.2431V36.2773H49.7765C49.7637 36.2785 49.7508 36.2771 49.7385 36.2731C49.7263 36.2692 49.715 36.2628 49.7053 36.2543C49.6956 36.2459 49.6878 36.2355 49.6822 36.2239C49.6766 36.2124 49.6735 36.1998 49.673 36.1869L49.6409 35.6431C49.4982 35.8421 49.3173 36.0106 49.1087 36.1388C48.9014 36.2613 48.6643 36.3243 48.4235 36.321C48.2357 36.3311 48.0482 36.2968 47.8762 36.2208C47.7042 36.1448 47.5526 36.0293 47.4336 35.8837C47.1974 35.5921 47.0793 35.1523 47.0793 34.5642C47.0778 34.3259 47.1112 34.0887 47.1784 33.8601C47.2389 33.6543 47.3378 33.4618 47.47 33.2929C47.5963 33.1332 47.7567 33.0037 47.9395 32.9139C48.1388 32.8153 48.3586 32.7654 48.581 32.7681C48.7904 32.7626 48.9982 32.8066 49.1875 32.8964C49.3642 32.9861 49.5171 33.1165 49.6336 33.2769V31.2358L49.9573 31.2431ZM49.6278 33.5758C49.5213 33.4002 49.3705 33.2559 49.1904 33.1573C49.0192 33.0745 48.8309 33.0331 48.6408 33.0363C48.4572 33.032 48.2751 33.0699 48.1086 33.1471C47.9574 33.2192 47.8258 33.3267 47.7252 33.4606C47.6179 33.6058 47.5392 33.77 47.4934 33.9446C47.4402 34.1473 47.4143 34.3562 47.4161 34.5657C47.4161 35.0789 47.5094 35.455 47.6989 35.6956C47.7958 35.8169 47.9204 35.9132 48.0622 35.9764C48.204 36.0396 48.3589 36.0678 48.5139 36.0586C48.7333 36.0602 48.9484 35.9984 49.1335 35.8807C49.3314 35.7529 49.4999 35.5844 49.6278 35.3865V33.5758ZM56.1039 31.6805H54.3835V36.2773H54.0278V31.6805H52.2972V31.3772H56.1039V31.6805ZM57.2702 32.7768C57.4972 32.773 57.7226 32.8161 57.9321 32.9037C58.1219 32.9842 58.2909 33.1069 58.4264 33.2623C58.565 33.4259 58.6691 33.6158 58.7325 33.8207C58.8716 34.2967 58.8716 34.8026 58.7325 35.2786C58.6686 35.4828 58.5645 35.6722 58.4264 35.8356C58.2913 35.991 58.1221 36.1133 57.9321 36.1927C57.5058 36.3579 57.0332 36.3579 56.6069 36.1927C56.4168 36.1133 56.2477 35.991 56.1126 35.8356C55.9723 35.6732 55.8671 35.4836 55.8035 35.2786C55.6645 34.8026 55.6645 34.2967 55.8035 33.8207C55.8667 33.6151 55.972 33.425 56.1126 33.2623C56.2481 33.1069 56.4171 32.9842 56.6069 32.9037C56.8182 32.8156 57.0456 32.7724 57.2746 32.7768H57.2702ZM57.2702 36.0615C57.455 36.0657 57.6385 36.0299 57.8082 35.9566C57.9587 35.888 58.0903 35.784 58.1916 35.6533C58.3001 35.5123 58.3785 35.3505 58.422 35.178C58.525 34.7684 58.525 34.3397 58.422 33.93C58.3785 33.7562 58.3001 33.593 58.1916 33.4504C58.0906 33.3187 57.959 33.2136 57.8082 33.1442C57.6378 33.073 57.4549 33.0363 57.2702 33.0363C57.0855 33.0363 56.9027 33.073 56.7322 33.1442C56.5809 33.2134 56.4488 33.3185 56.3474 33.4504C56.2401 33.594 56.1614 33.7568 56.1155 33.93C56.0125 34.3397 56.0125 34.7684 56.1155 35.178C56.1614 35.3499 56.2401 35.5113 56.3474 35.6533C56.4488 35.7845 56.581 35.8886 56.7322 35.9566C56.9033 36.0305 57.0883 36.0663 57.2746 36.0615H57.2702ZM61.1366 32.7768C61.3641 32.773 61.59 32.8162 61.8 32.9037C61.9894 32.9842 62.1579 33.1069 62.2928 33.2623C62.432 33.4255 62.5362 33.6156 62.5989 33.8207C62.74 34.2964 62.74 34.8029 62.5989 35.2786C62.5358 35.4832 62.4317 35.6727 62.2928 35.8356C62.1582 35.991 61.9896 36.1132 61.8 36.1927C61.3737 36.3579 60.9011 36.3579 60.4747 36.1927C60.2845 36.1129 60.115 35.9907 59.979 35.8356C59.8397 35.6728 59.735 35.4833 59.6714 35.2786C59.5304 34.8029 59.5304 34.2964 59.6714 33.8207C59.7347 33.6155 59.8394 33.4254 59.979 33.2623C60.1153 33.1071 60.2847 32.9846 60.4747 32.9037C60.6842 32.8161 60.9096 32.773 61.1366 32.7768ZM61.1366 36.0615C61.3219 36.0655 61.5058 36.0298 61.6761 35.9566C61.8266 35.888 61.9581 35.784 62.0595 35.6533C62.1668 35.5116 62.2451 35.3501 62.2899 35.178C62.391 34.7682 62.391 34.3399 62.2899 33.93C62.2451 33.7567 62.1669 33.5937 62.0595 33.4504C61.9585 33.3187 61.8269 33.2136 61.6761 33.1442C61.5054 33.073 61.3223 33.0364 61.1374 33.0364C60.9524 33.0364 60.7693 33.073 60.5987 33.1442C60.4479 33.2136 60.3162 33.3187 60.2152 33.4504C60.1068 33.5933 60.028 33.7563 59.9834 33.93C59.8784 34.3394 59.8784 34.7687 59.9834 35.178C60.028 35.3504 60.1069 35.512 60.2152 35.6533C60.3166 35.784 60.4482 35.888 60.5987 35.9566C60.7683 36.0299 60.9518 36.0657 61.1366 36.0615ZM64 31.2402V36.2773H63.6676V31.2402H64ZM11.9389 27.5866C11.572 27.2195 11.0768 27.0093 10.5578 27.0003C10.0388 26.9913 9.53662 27.1843 9.1572 27.5385C9.13846 27.5562 9.1234 27.5774 9.11289 27.6009C9.10238 27.6244 9.09663 27.6498 9.09596 27.6755C9.09624 27.7273 9.11663 27.777 9.15282 27.814L9.40213 28.0721C9.43465 28.1045 9.47774 28.1241 9.52352 28.1273C9.5693 28.1305 9.61471 28.1171 9.65143 28.0896C9.84919 27.9403 10.0904 27.86 10.3381 27.8607C10.5654 27.8597 10.7878 27.9263 10.9772 28.0521C11.1665 28.1778 11.3141 28.357 11.4014 28.5669C11.4886 28.7768 11.5114 29.0079 11.4669 29.2308C11.4225 29.4537 11.3127 29.6583 11.1516 29.8187C9.5625 31.4078 7.44122 26.9553 2.62715 29.2457C2.54525 29.284 2.47217 29.3388 2.41251 29.4068C2.35285 29.4747 2.30791 29.5542 2.28052 29.6404C2.25313 29.7265 2.24387 29.8174 2.25335 29.9073C2.26282 29.9972 2.29081 30.0842 2.33556 30.1628L3.16075 31.5901C3.24686 31.7386 3.38788 31.8473 3.55341 31.8929C3.71894 31.9384 3.89574 31.9171 4.04571 31.8335L4.06612 31.8219L4.05008 31.8335L4.41602 31.628C4.82385 31.3747 5.20919 31.087 5.56778 30.7678C5.60452 30.7363 5.65132 30.719 5.69972 30.719C5.74813 30.719 5.79493 30.7363 5.83167 30.7678C5.85379 30.7852 5.8717 30.8073 5.88407 30.8325C5.89644 30.8578 5.90295 30.8855 5.9031 30.9136C5.90362 30.941 5.8983 30.9681 5.88749 30.9933C5.87668 31.0184 5.86063 31.0409 5.84041 31.0594C5.46272 31.3947 5.05634 31.6961 4.62596 31.9604H4.6143L4.24836 32.1645C4.09368 32.2522 3.91879 32.2979 3.741 32.2972C3.55736 32.2972 3.3769 32.2492 3.21757 32.1578C3.05823 32.0665 2.92555 31.9351 2.83271 31.7767L2.05272 30.4281C0.553975 31.4866 -0.355771 33.5262 0.132634 36.114C0.141319 36.1573 0.164596 36.1962 0.198567 36.2243C0.232539 36.2525 0.275143 36.2681 0.319248 36.2686H1.20858C1.25481 36.2686 1.29944 36.2517 1.33407 36.221C1.36871 36.1904 1.39097 36.1482 1.39666 36.1024C1.43628 35.7877 1.58938 35.4984 1.82722 35.2886C2.06505 35.0789 2.37126 34.9631 2.68838 34.9631C3.00549 34.9631 3.31171 35.0789 3.54954 35.2886C3.78737 35.4984 3.94047 35.7877 3.9801 36.1024C3.98612 36.1484 4.00867 36.1906 4.04355 36.2212C4.07843 36.2518 4.12324 36.2686 4.16963 36.2686H5.03564C5.08186 36.2686 5.12649 36.2517 5.16113 36.221C5.19577 36.1904 5.21802 36.1482 5.22371 36.1024C5.26462 35.7885 5.41833 35.5003 5.65616 35.2914C5.89398 35.0826 6.19966 34.9674 6.51616 34.9674C6.83266 34.9674 7.13835 35.0826 7.37617 35.2914C7.61399 35.5003 7.7677 35.7885 7.80861 36.1024C7.8143 36.1482 7.83656 36.1904 7.8712 36.221C7.90583 36.2517 7.95046 36.2686 7.99669 36.2686H8.85249C8.90226 36.2686 8.95003 36.249 8.98549 36.2141C9.02095 36.1792 9.04125 36.1317 9.04202 36.0819C9.06243 34.8762 9.38755 33.4912 10.3148 32.7972C13.5266 30.3946 12.6825 28.3345 11.9389 27.5866ZM8.66296 31.2212L8.05063 30.9136C8.05039 30.8477 8.06704 30.7829 8.09901 30.7254C8.13097 30.6678 8.17717 30.6194 8.23319 30.5848C8.28921 30.5501 8.35317 30.5305 8.41896 30.5276C8.48475 30.5248 8.55017 30.5389 8.60896 30.5686C8.66774 30.5982 8.71794 30.6425 8.75473 30.6971C8.79152 30.7517 8.81369 30.8149 8.81911 30.8805C8.82453 30.9461 8.81301 31.0121 8.78568 31.072C8.75834 31.1319 8.71608 31.1838 8.66296 31.2227V31.2212Z" fill="#02303A"/>
</svg>
