<svg width="64" height="64" viewBox="0 0 64 64" fill="none" xmlns="http://www.w3.org/2000/svg">
<path d="M31.9999 16C23.1636 16 16 23.1626 16 31.9994C16 40.836 23.1638 47.9993 31.9999 47.9993C40.8367 47.9993 48 40.836 48 31.9994C48 23.1626 40.8367 16 31.9999 16ZM40.4823 23.7119C40.395 23.6449 40.2834 23.5882 40.15 23.5419C40.0197 23.4958 39.8772 23.449 39.7254 23.4034C39.5763 23.358 39.4345 23.2964 39.3061 23.2195C39.1785 23.1443 39.0713 23.0423 38.9865 22.9186C38.9027 22.7953 38.8603 22.6302 38.8603 22.4269C38.8603 22.2297 38.8992 22.0542 38.9769 21.9073C39.0552 21.7582 39.1602 21.632 39.2899 21.5324C39.4202 21.4316 39.5723 21.3552 39.7409 21.3047C39.9117 21.2544 40.0904 21.2285 40.2703 21.2285C40.4803 21.2285 40.6854 21.2591 40.8798 21.3178C41.0671 21.3754 41.2394 21.4706 41.391 21.6014L40.8552 22.1878C40.7874 22.1097 40.6977 22.05 40.588 22.0121C40.4714 21.9707 40.3588 21.9502 40.2548 21.9502C40.1937 21.9502 40.1296 21.9566 40.0648 21.9714C39.9997 21.9859 39.9376 22.0086 39.8794 22.0397C39.8203 22.0715 39.7707 22.1136 39.734 22.1651C39.696 22.2181 39.6768 22.2832 39.6768 22.3574C39.6768 22.4794 39.7212 22.5696 39.8131 22.6349C39.8989 22.696 40.0086 22.7492 40.1399 22.7911C40.2683 22.8338 40.4086 22.8772 40.5562 22.9186C40.7021 22.9607 40.8401 23.0206 40.9673 23.0968C41.0935 23.1727 41.1992 23.2764 41.2811 23.4034C41.3639 23.5303 41.4053 23.7021 41.4053 23.917C41.4053 24.1206 41.3668 24.3015 41.2907 24.4541C41.2145 24.6061 41.1108 24.7338 40.9811 24.8334C40.8517 24.9324 40.6982 25.0091 40.5276 25.0569C40.3544 25.1062 40.17 25.1306 39.9787 25.1306C39.7389 25.1306 39.5127 25.0941 39.3071 25.0209C39.1077 24.9497 38.9202 24.8351 38.7469 24.6786L39.3039 24.0664C39.3877 24.1723 39.4939 24.2564 39.6169 24.3158C39.7483 24.3774 39.8866 24.4097 40.0266 24.4097C40.0958 24.4097 40.1656 24.4018 40.2356 24.3858C40.3058 24.3695 40.3694 24.3436 40.4266 24.3121C40.4842 24.2786 40.5306 24.2349 40.5666 24.1837C40.6023 24.1307 40.6205 24.0669 40.6205 23.9964C40.621 23.8744 40.5752 23.7817 40.4823 23.7119ZM36.0722 21.3242H36.857V24.3136H38.3893V25.0355H36.0725V21.3242H36.0722ZM34.3645 21.3242H35.1487V25.0355H34.3645V21.3242ZM31.6102 21.3242H32.2666L33.8812 25.0355H32.9944L32.6713 24.2396H31.1838L30.8711 25.0355H30.006L31.6102 21.3242ZM26.7459 21.3242H28.1772C28.3655 21.3242 28.5466 21.3424 28.7164 21.3796C28.8838 21.4151 29.0329 21.4772 29.1591 21.5618C29.2848 21.6466 29.3858 21.7614 29.46 21.9041C29.5342 22.0468 29.5717 22.229 29.5717 22.4431C29.5717 22.7019 29.5037 22.9252 29.3691 23.1066C29.2402 23.2804 29.0509 23.3933 28.8069 23.4445L28.7492 23.4568L29.6984 25.0355H28.7576L27.9731 23.5355H27.5309V25.0355H26.7462V21.3242H26.7459ZM22.6218 22.3707C22.7204 22.1309 22.8606 21.9241 23.0386 21.7555C23.2158 21.5869 23.429 21.456 23.6725 21.3646C23.9165 21.2741 24.1871 21.2283 24.4765 21.2283C24.7735 21.2283 25.0505 21.2648 25.3007 21.336C25.5417 21.405 25.7576 21.525 25.942 21.6914L25.3884 22.2955C25.2777 22.1853 25.1516 22.1003 25.0148 22.0414C24.8713 21.9798 24.6904 21.9502 24.4765 21.9502C24.2978 21.9502 24.1336 21.9798 23.9887 22.0414C23.8431 22.1028 23.7169 22.1888 23.6129 22.298C23.5086 22.4079 23.4283 22.5395 23.3726 22.6896C23.3171 22.8399 23.29 23.0048 23.29 23.1798C23.29 23.358 23.3171 23.5236 23.3726 23.6728C23.4283 23.8209 23.5091 23.9518 23.6129 24.0614C23.7171 24.1701 23.8433 24.2566 23.9887 24.3178C24.1334 24.3786 24.298 24.4092 24.4765 24.4092C24.6584 24.4092 24.8169 24.3887 24.9495 24.3473C25.0742 24.3086 25.1767 24.2687 25.2541 24.2278L25.2595 24.2246L25.2681 24.2165L25.2765 24.2014V23.5712H24.6037V22.8508H26.0297V24.7786C25.7904 24.9016 25.539 24.9916 25.2829 25.0461C25.0209 25.1028 24.7491 25.1304 24.4765 25.1304C24.1871 25.1304 23.9168 25.0848 23.6725 24.9941C23.429 24.9041 23.2156 24.772 23.0386 24.6034C22.8614 24.4356 22.7204 24.2278 22.6218 23.9875C22.5227 23.7479 22.4722 23.4763 22.4722 23.1798C22.4722 22.8838 22.5227 22.6117 22.6218 22.3707ZM27.7441 35.1056C27.5043 35.2111 27.1982 35.3309 27.0787 35.3945C26.8581 35.512 26.5167 35.7693 26.325 36.0646C26.183 36.2842 26.0509 36.5827 26.008 36.7784C25.9819 36.9016 25.9688 37.082 25.9715 37.294C25.9767 37.7884 26.062 38.446 26.2318 38.897C26.425 39.4092 26.5303 39.5797 26.7531 40.0985C26.8477 40.3181 26.9365 40.5274 26.9794 40.6294C26.9973 40.6698 26.9919 40.7162 26.9678 40.7526C26.9086 40.8431 26.7758 41.0137 26.5557 41.132C26.1724 41.339 25.3652 41.4137 24.9647 41.4164H24.963C24.5632 41.4134 23.7561 41.339 23.3723 41.132C23.1522 41.0137 23.0199 40.8431 22.9607 40.7526C22.9361 40.7162 22.9314 40.6698 22.9486 40.6294C22.992 40.5274 23.081 40.3179 23.1754 40.0985C23.3982 39.5797 23.5034 39.4092 23.6967 38.897C23.8665 38.446 23.9518 37.7884 23.9567 37.294C23.9591 37.0823 23.9466 36.9016 23.9197 36.7784C23.8768 36.5824 23.745 36.284 23.603 36.0646C23.4117 35.7696 23.0696 35.512 22.8496 35.3945C22.6839 35.3065 22.1575 35.1091 21.9504 34.9949C21.6867 34.849 21.3429 34.6223 21.1122 34.4414C20.8551 34.2408 20.3504 33.7449 20.153 33.4999C19.7746 33.0306 19.4261 32.4802 19.2575 31.8867C19.0478 31.1508 19.0557 30.8358 19.0281 30.5982C19.0232 30.558 19.0537 30.5218 19.0946 30.5196C19.297 30.5129 20.0258 30.4962 22.5715 30.4922C22.6218 30.4915 22.6667 30.5228 22.6847 30.5696C23.4007 32.4664 25.2684 34.0352 27.733 34.8887C27.8338 34.923 27.8425 35.0627 27.7441 35.1056ZM34.012 40.5037C34.3253 41.3355 34.4963 41.6113 34.8584 42.4547C35.0115 42.8109 35.1559 43.1513 35.2261 43.3154C35.2545 43.3822 35.2468 43.4559 35.2074 43.517C35.1105 43.6644 34.8949 43.9402 34.5382 44.1327C33.9159 44.4691 32.605 44.5909 31.9545 44.5933H31.9521C31.3016 44.5909 29.9912 44.4691 29.3686 44.1327C29.012 43.9402 28.7973 43.6644 28.7004 43.517C28.661 43.4559 28.6534 43.3822 28.6817 43.3154C28.7519 43.1513 28.8954 42.8109 29.0484 42.4547C29.4107 41.6113 29.5818 41.3355 29.8953 40.5037C30.1713 39.771 30.3101 38.7038 30.3185 37.8995C30.3219 37.5577 30.3015 37.2632 30.2583 37.0625C30.1891 36.7453 29.9744 36.262 29.7437 35.9049C29.4332 35.424 28.8776 35.008 28.5205 34.8175C28.2504 34.6735 27.3964 34.3534 27.0599 34.1676C26.6316 33.9317 26.0733 33.5625 25.699 33.2697C25.2817 32.9434 24.4619 32.1391 24.142 31.7403C23.5273 30.9778 22.961 30.0841 22.6871 29.1211C22.3475 27.9258 22.3606 27.4151 22.3152 27.0289C22.3076 26.9621 22.3571 26.9037 22.4232 26.9012C22.8375 26.8862 24.6083 26.8477 31.9543 26.8551C39.2995 26.8477 41.0703 26.8862 41.4844 26.9012C41.5512 26.9037 41.601 26.9621 41.5926 27.0289C41.5473 27.4151 41.5603 27.926 41.2209 29.1211C40.9466 30.0841 40.3805 30.9778 39.7658 31.7403C39.4456 32.1389 38.6264 32.9431 38.2091 33.2697C37.8342 33.5625 37.2757 33.9317 36.8474 34.1676C36.5114 34.3534 35.6569 34.6735 35.3878 34.8175C35.0302 35.008 34.4751 35.424 34.1636 35.9049C33.9334 36.262 33.7187 36.7453 33.65 37.0625C33.6061 37.2632 33.5864 37.5579 33.5898 37.8995C33.597 38.7038 33.7362 39.771 34.012 40.5037ZM43.8465 33.4996C43.6496 33.7446 43.1451 34.2405 42.888 34.4411C42.6568 34.622 42.3133 34.8488 42.0491 34.9947C41.842 35.1088 41.3158 35.3062 41.1507 35.3942C40.9301 35.5118 40.588 35.7691 40.3963 36.0644C40.2548 36.284 40.1224 36.5824 40.08 36.7781C40.0527 36.9014 40.0411 37.0818 40.0426 37.2937C40.0478 37.7881 40.1335 38.4457 40.3031 38.8968C40.4966 39.4089 40.6016 39.5795 40.8244 40.0983C40.9188 40.3179 41.0072 40.5271 41.0511 40.6292C41.0684 40.6696 41.0637 40.7159 41.039 40.7524C40.9794 40.8429 40.8475 41.0134 40.6274 41.1317C40.2432 41.3387 39.437 41.4134 39.0365 41.4161H39.035C38.6345 41.4132 37.8273 41.3387 37.4441 41.1317C37.2235 41.0134 37.0916 40.8429 37.032 40.7524C37.0073 40.7159 37.0027 40.6696 37.0199 40.6292C37.0633 40.5271 37.1518 40.3176 37.2467 40.0983C37.4695 39.5795 37.5745 39.4089 37.7674 38.8968C37.9373 38.4457 38.023 37.7881 38.0285 37.2937C38.0299 37.082 38.0179 36.9014 37.9915 36.7781C37.9486 36.5822 37.8162 36.2837 37.6748 36.0644C37.4833 35.7693 37.1414 35.5118 36.9208 35.3942C36.8015 35.3306 36.4944 35.2108 36.2556 35.1054C36.157 35.0625 36.1657 34.923 36.2667 34.8882C38.7319 34.0347 40.5991 32.4659 41.3148 30.5691C41.3331 30.5223 41.3784 30.491 41.428 30.4917C43.974 30.4959 44.7028 30.5125 44.9049 30.5191C44.9458 30.5216 44.9761 30.5576 44.9714 30.5977C44.9445 30.8353 44.9517 31.1501 44.7422 31.8863C44.5736 32.48 44.2251 33.0304 43.8465 33.4996ZM28.7551 22.437C28.7551 22.5449 28.7307 22.629 28.6844 22.6889C28.6378 22.7485 28.5784 22.7921 28.5077 22.82C28.4394 22.8473 28.3608 22.8639 28.2765 22.8698C28.1927 22.8747 28.1131 22.8777 28.0396 22.8777H27.5307V21.9815H28.0924C28.1666 21.9815 28.244 21.9864 28.3231 21.998C28.4029 22.0076 28.4747 22.0298 28.5363 22.0596C28.5994 22.0917 28.6529 22.138 28.6928 22.1974C28.7339 22.257 28.7551 22.3389 28.7551 22.437ZM31.9144 22.3369L32.4065 23.583H31.4271L31.9144 22.3369Z" fill="#FEB672"/>
</svg>
