<svg width="64" height="64" viewBox="0 0 64 64" fill="none" xmlns="http://www.w3.org/2000/svg">
<path d="M37.1937 42.3697H33.119V23.623L37.1937 22.5009V42.3697Z" fill="#1A1A1A"/>
<path d="M14.9491 28.3871C14.3974 28.3871 13.858 28.2234 13.3993 27.9169C12.9405 27.6104 12.583 27.1747 12.3718 26.665C12.1607 26.1553 12.1055 25.5944 12.2131 25.0532C12.3207 24.5121 12.5864 24.015 12.9765 23.6249C13.3667 23.2348 13.8637 22.9691 14.4049 22.8615C14.946 22.7538 15.5069 22.8091 16.0166 23.0202C16.5263 23.2313 16.962 23.5889 17.2685 24.0476C17.5751 24.5064 17.7387 25.0457 17.7387 25.5975C17.7378 26.3371 17.4437 27.0461 16.9207 27.5691C16.3977 28.0921 15.6887 28.3862 14.9491 28.3871Z" fill="#4D64AE"/>
<path d="M17.1337 42.3351C17.1668 43.3099 17.0278 44.2828 16.7231 45.2093C16.5061 45.8663 16.1138 46.4516 15.5885 46.9019C15.0784 47.3199 14.4698 47.6005 13.8207 47.7168C13.0649 47.8636 12.2962 47.9339 11.5263 47.9268C11.0199 47.9321 10.5145 47.8827 10.0187 47.7795C9.63148 47.7013 9.25771 47.5672 8.9091 47.3815C8.64215 47.2435 8.41215 47.0436 8.23835 46.7985C8.08585 46.602 8.00215 46.3608 8.00013 46.112C7.99727 45.9092 8.04066 45.7084 8.12701 45.5248C8.21336 45.3412 8.34041 45.1798 8.4985 45.0526C8.88502 44.7524 9.36705 44.6021 9.85569 44.6295C10.0557 44.6252 10.2546 44.6593 10.4418 44.7298C10.6018 44.7915 10.7526 44.8748 10.89 44.9774C11.0185 45.0811 11.1399 45.1931 11.2536 45.3128C11.3508 45.4382 11.4385 45.5541 11.5138 45.6638C11.6475 45.8476 11.8069 46.0112 11.9871 46.1497C12.0938 46.2231 12.2183 46.2664 12.3475 46.275C12.4582 46.2763 12.567 46.2458 12.661 46.1873C12.7661 46.1087 12.844 45.999 12.8835 45.8738C12.9523 45.6809 12.9945 45.4795 13.0089 45.2752C13.0468 44.9569 13.0635 44.6365 13.059 44.316V29.6879L17.1337 28.5658V42.3351Z" fill="#1A1A1A"/>
<path d="M23.089 28.8918V38.3138C23.0876 38.5708 23.1377 38.8255 23.2363 39.0629C23.3454 39.2809 23.493 39.4773 23.672 39.6428C23.8568 39.8101 24.0688 39.9447 24.2989 40.0408C24.537 40.1411 24.7928 40.1923 25.0511 40.1913C25.226 40.1835 25.3976 40.1408 25.5558 40.0659C25.7579 39.9731 25.9475 39.8552 26.12 39.7149C26.3248 39.5593 26.5147 39.3851 26.6873 39.1945C26.8778 38.992 27.0469 38.7704 27.1919 38.5332V28.8918H31.2666V42.3697H27.1919V41.1159C26.681 41.565 26.1077 41.9377 25.49 42.2224C24.941 42.4789 24.3437 42.6157 23.7378 42.6236C23.1075 42.6325 22.4808 42.5263 21.8886 42.3101C21.3409 42.1002 20.8355 41.7933 20.3966 41.4043C19.98 41.0272 19.6423 40.5712 19.403 40.0628C19.1623 39.5433 19.0392 38.9772 19.0425 38.4047V28.8918H23.089Z" fill="#1A1A1A"/>
<path d="M41.1587 28.3872C40.6071 28.3866 40.068 28.2224 39.6097 27.9155C39.1514 27.6086 38.7943 27.1727 38.5836 26.6629C38.373 26.1532 38.3182 25.5924 38.4262 25.0514C38.5342 24.5105 38.8001 24.0137 39.1904 23.6239C39.5806 23.2341 40.0777 22.9687 40.6187 22.8614C41.1598 22.754 41.7205 22.8094 42.23 23.0206C42.7396 23.2319 43.1751 23.5894 43.4815 24.0481C43.7879 24.5068 43.9514 25.046 43.9514 25.5976C43.9506 26.3377 43.656 27.0473 43.1323 27.5703C42.6087 28.0934 41.8988 28.3872 41.1587 28.3872Z" fill="#CA3C32"/>
<path d="M47.8631 28.3872C47.3115 28.3866 46.7724 28.2224 46.3141 27.9155C45.8558 27.6086 45.4987 27.1727 45.288 26.6629C45.0774 26.1532 45.0226 25.5924 45.1306 25.0514C45.2386 24.5105 45.5045 24.0137 45.8948 23.6239C46.285 23.2341 46.7821 22.9687 47.3231 22.8614C47.8642 22.754 48.4249 22.8094 48.9345 23.0206C49.444 23.2319 49.8795 23.5894 50.1859 24.0481C50.4923 24.5068 50.6558 25.046 50.6558 25.5976C50.655 26.3377 50.3604 27.0473 49.8367 27.5703C49.3131 28.0934 48.6032 28.3872 47.8631 28.3872Z" fill="#9259A3"/>
<path d="M44.5124 22.5792C43.9607 22.5792 43.4214 22.4156 42.9626 22.1091C42.5039 21.8025 42.1463 21.3669 41.9352 20.8571C41.724 20.3474 41.6688 19.7865 41.7764 19.2454C41.8841 18.7042 42.1498 18.2072 42.5399 17.8171C42.93 17.4269 43.4271 17.1612 43.9682 17.0536C44.5093 16.946 45.0702 17.0012 45.58 17.2123C46.0897 17.4235 46.5254 17.781 46.8319 18.2398C47.1384 18.6985 47.302 19.2379 47.302 19.7896C47.3024 20.156 47.2306 20.519 47.0905 20.8576C46.9505 21.1963 46.745 21.5039 46.4859 21.7631C46.2268 22.0222 45.9191 22.2276 45.5805 22.3677C45.2418 22.5077 44.8789 22.5796 44.5124 22.5792Z" fill="#399746"/>
<path d="M39.3877 29.7256L43.4624 28.6035V42.3697H39.3877V29.7256Z" fill="#1A1A1A"/>
<path d="M51.9253 35.4208C51.5208 35.5939 51.1263 35.7896 50.7437 36.0069C50.3601 36.2123 49.997 36.4537 49.6592 36.7278C49.3536 36.9666 49.0844 37.2485 48.8599 37.5647C48.6625 37.832 48.553 38.154 48.5465 38.4862C48.5457 38.7341 48.5795 38.981 48.6468 39.2196C48.707 39.4318 48.799 39.6336 48.9194 39.8183C49.024 39.9722 49.1545 40.1069 49.305 40.2164C49.4439 40.3132 49.6089 40.3657 49.7783 40.3668C50.1326 40.3537 50.4769 40.2455 50.775 40.0534C51.1666 39.8156 51.5454 39.5571 51.9096 39.2792L51.9253 35.4208ZM56 42.3697H51.9253V41.2977C51.7028 41.4889 51.4802 41.6644 51.264 41.8212C51.0375 41.9845 50.7961 42.1262 50.5431 42.2443C50.2593 42.3682 49.963 42.4606 49.6592 42.5201C49.2683 42.5904 48.8715 42.623 48.4744 42.6173C47.9068 42.6257 47.3419 42.5378 46.8037 42.3571C46.3436 42.1976 45.9181 41.9519 45.55 41.6331C45.2118 41.3247 44.9435 40.9474 44.7633 40.5267C44.5799 40.0935 44.4871 39.6273 44.4906 39.1569C44.4818 38.6797 44.5792 38.2065 44.7758 37.7715C44.9775 37.3563 45.2477 36.978 45.5751 36.6526C45.9308 36.3066 46.3277 36.0055 46.7567 35.7561C47.2265 35.4837 47.7133 35.2418 48.2142 35.0321C48.7377 34.8158 49.2799 34.6184 49.8347 34.4334L51.4802 33.8975L51.9284 33.8003V32.465C51.9356 32.0998 51.8892 31.7354 51.7905 31.3837C51.7261 31.1184 51.6029 30.871 51.4301 30.6596C51.2855 30.4726 51.091 30.3303 50.869 30.249C50.6341 30.1633 50.3856 30.1208 50.1356 30.1237C49.8597 30.1167 49.5847 30.1591 49.3238 30.249C49.1247 30.3229 48.9455 30.442 48.8003 30.597C48.6674 30.7384 48.5697 30.9091 48.5151 31.0953C48.4535 31.2985 48.4239 31.5099 48.4273 31.7222C48.4289 31.9704 48.3994 32.2179 48.3396 32.4588C48.2937 32.6868 48.1961 32.9013 48.0544 33.0856C47.9037 33.264 47.7108 33.402 47.4933 33.4868C47.2058 33.6066 46.8956 33.6622 46.5843 33.6498C46.3169 33.653 46.0508 33.6106 45.7976 33.5245C45.5778 33.4417 45.3749 33.3196 45.1989 33.164C45.0341 33.0068 44.8993 32.8209 44.8009 32.6155C44.7096 32.3993 44.6627 32.1669 44.663 31.9322C44.6656 31.4617 44.8331 31.007 45.1363 30.6471C45.4869 30.2206 45.9197 29.8689 46.4088 29.6128C46.9944 29.3068 47.6185 29.0812 48.2644 28.942C48.9961 28.7726 49.745 28.6885 50.496 28.6913C51.326 28.6773 52.1545 28.7657 52.9628 28.9545C53.5765 29.0915 54.1598 29.3401 54.6836 29.688C55.109 29.9783 55.4523 30.3734 55.6803 30.8352C55.898 31.3073 56.0052 31.823 55.9937 32.3428L56 42.3697Z" fill="#1A1A1A"/>
</svg>
