<svg width="64" height="64" viewBox="0 0 64 64" fill="none" xmlns="http://www.w3.org/2000/svg">
<path fill-rule="evenodd" clip-rule="evenodd" d="M47.982 23.4527C47.9938 23.4966 47.9999 23.5419 48 23.5874V30.6584C48 30.7492 47.976 30.8383 47.9306 30.9168C47.8851 30.9954 47.8197 31.0605 47.7409 31.1056L41.8061 34.5226V41.2952C41.8061 41.4795 41.7081 41.6497 41.5483 41.7425L29.1599 48.874C29.1315 48.8902 29.1006 48.9005 29.0696 48.9114C29.058 48.9153 29.0471 48.9224 29.0348 48.9256C28.9482 48.9484 28.8572 48.9484 28.7706 48.9256C28.7564 48.9217 28.7435 48.914 28.73 48.9088C28.7017 48.8985 28.672 48.8895 28.6449 48.874L16.2591 41.7425C16.1804 41.6973 16.115 41.6321 16.0695 41.5536C16.024 41.4751 16.0001 41.3859 16 41.2952V20.0822C16 20.0358 16.0064 19.9907 16.018 19.9468C16.0219 19.932 16.0309 19.9185 16.0361 19.9037C16.0458 19.8766 16.0548 19.8489 16.069 19.8237C16.0786 19.807 16.0928 19.7935 16.1044 19.778C16.1192 19.7574 16.1328 19.7361 16.1502 19.718C16.165 19.7032 16.1843 19.6923 16.2011 19.6794C16.2198 19.6639 16.2365 19.6472 16.2578 19.6349H16.2584L22.4517 16.0691C22.5301 16.024 22.619 16.0002 22.7095 16.0002C22.7999 16.0002 22.8888 16.024 22.9673 16.0691L29.1605 19.6349H29.1618C29.1824 19.6478 29.1998 19.6639 29.2185 19.6787C29.2353 19.6916 29.254 19.7032 29.2688 19.7174C29.2868 19.7361 29.2997 19.7574 29.3152 19.778C29.3261 19.7935 29.341 19.807 29.35 19.8237C29.3648 19.8495 29.3732 19.8766 29.3835 19.9037C29.3886 19.9185 29.3977 19.932 29.4015 19.9475C29.4134 19.9914 29.4195 20.0367 29.4196 20.0822V33.3316L34.5804 30.36V23.5867C34.5804 23.5416 34.5869 23.4959 34.5985 23.4527C34.603 23.4372 34.6114 23.4237 34.6165 23.4089C34.6268 23.3818 34.6358 23.3541 34.65 23.329C34.6597 23.3122 34.6739 23.2987 34.6848 23.2832C34.7003 23.2626 34.7132 23.2413 34.7312 23.2233C34.746 23.2084 34.7647 23.1975 34.7815 23.1846C34.8008 23.1691 34.8176 23.1524 34.8382 23.1401H34.8388L41.0327 19.5743C41.1111 19.5291 41.2 19.5054 41.2905 19.5054C41.381 19.5054 41.4699 19.5291 41.5483 19.5743L47.7416 23.1401C47.7635 23.153 47.7802 23.1691 47.7996 23.184C47.8157 23.1968 47.8344 23.2084 47.8492 23.2226C47.8672 23.2413 47.8801 23.2626 47.8956 23.2832C47.9072 23.2987 47.9214 23.3122 47.9304 23.329C47.9452 23.3541 47.9536 23.3818 47.9639 23.4089C47.9697 23.4237 47.9781 23.4372 47.982 23.4527ZM46.9676 30.36V24.48L44.8003 25.7276L41.8061 27.4516V33.3316L46.9682 30.36H46.9676ZM40.7743 40.9968V35.1129L37.8291 36.7949L29.4189 41.5949V47.5342L40.7743 40.9968ZM17.0324 20.9747V40.9968L28.3865 47.5336V41.5955L22.4549 38.2385L22.453 38.2372L22.4504 38.236C22.4304 38.2244 22.4137 38.2076 22.395 38.1934C22.3789 38.1805 22.3602 38.1702 22.346 38.156L22.3447 38.1541C22.3279 38.138 22.3163 38.118 22.3022 38.1C22.2893 38.0826 22.2738 38.0677 22.2635 38.0497L22.2629 38.0478C22.2513 38.0284 22.2442 38.0052 22.2358 37.9833C22.2274 37.964 22.2165 37.9459 22.2113 37.9253V37.9247C22.2049 37.9002 22.2036 37.8744 22.201 37.8493C22.1984 37.8299 22.1933 37.8106 22.1933 37.7913V37.79V23.9463L19.1997 22.2218L17.0324 20.9754V20.9747ZM22.7101 17.1119L17.5499 20.0822L22.7088 23.0525L27.8684 20.0815L22.7088 17.1119H22.7101ZM25.3936 35.6491L28.3872 33.9258V20.9747L26.2198 22.2224L23.2257 23.9463V36.8974L25.3936 35.6491ZM41.2905 20.6171L36.131 23.5874L41.2905 26.5577L46.4494 23.5867L41.2905 20.6171ZM40.7743 27.4516L37.7802 25.7276L35.6128 24.48V30.36L38.6064 32.0833L40.7743 33.3316V27.4516ZM28.9021 40.7023L36.47 36.3818L40.253 34.2229L35.0973 31.2545L29.1612 34.6721L23.7509 37.7868L28.9021 40.7023Z" fill="#FF2D20"/>
</svg>
