<svg width="64" height="64" viewBox="0 0 64 64" fill="none" xmlns="http://www.w3.org/2000/svg">
<path d="M18.5253 31.4819H18.0434C17.8506 33.4481 17.5807 35.8385 14.188 35.8385H12.6265C11.7205 35.8385 11.6819 35.7035 11.6819 35.0674V24.8313C11.6819 24.1758 11.6819 23.9059 13.494 23.9059H14.1301V23.3276C13.4361 23.3855 11.7012 23.3855 10.9108 23.3855C10.159 23.3855 8.65542 23.3855 8 23.3276V23.9059H8.44337C9.92771 23.9059 9.96626 24.118 9.96626 24.812V34.9325C9.96626 35.6264 9.92771 35.8385 8.44337 35.8385H8V36.4361H18.0048L18.5253 31.4819Z" fill="black"/>
<path d="M18.1976 23.3084C18.1205 23.0771 18.0819 23 17.8313 23C17.5807 23 17.5229 23.0771 17.4458 23.3084L14.3421 31.1735C14.2072 31.5012 13.9759 32.0988 12.7807 32.0988V32.5807H15.7687V32.0988C15.1711 32.0988 14.8048 31.8289 14.8048 31.4434C14.8048 31.347 14.8241 31.3084 14.8626 31.1735L15.518 29.5157H19.3349L20.106 31.4819C20.1446 31.559 20.1831 31.6554 20.1831 31.7133C20.1831 32.0988 19.4506 32.0988 19.0843 32.0988V32.5807H22.8819V32.0988H22.612C21.706 32.0988 21.6096 31.9639 21.4747 31.5783L18.1976 23.3084ZM17.4265 24.6771L19.1421 29.0337H15.7108L17.4265 24.6771Z" fill="black"/>
<path d="M33.6386 23.4434H21.8988L21.5518 27.7614H22.0145C22.2843 24.6578 22.5735 24.0217 25.4843 24.0217C25.8313 24.0217 26.3325 24.0217 26.5253 24.0602C26.9301 24.1373 26.9301 24.3494 26.9301 24.7928V34.9132C26.9301 35.5687 26.9301 35.8385 24.906 35.8385H24.135V36.4361C24.9253 36.3783 26.8723 36.3783 27.759 36.3783C28.6458 36.3783 30.6313 36.3783 31.4217 36.4361V35.8385H30.6506C28.6265 35.8385 28.6265 35.5687 28.6265 34.9132V24.7928C28.6265 24.4072 28.6265 24.1373 28.9735 24.0602C29.1856 24.0217 29.706 24.0217 30.0723 24.0217C32.9639 24.0217 33.253 24.6578 33.5229 27.7614H34.0048L33.6386 23.4434Z" fill="black"/>
<path d="M43.9711 35.8193H43.4891C43.0072 38.7687 42.5638 40.1759 39.2675 40.1759H36.7229C35.8169 40.1759 35.7783 40.041 35.7783 39.4048V34.2771H37.494C39.3638 34.2771 39.5759 34.894 39.5759 36.5325H40.0578V31.4434H39.5759C39.5759 33.0819 39.3638 33.6795 37.494 33.6795H35.7783V29.0723C35.7783 28.4362 35.8169 28.3012 36.7229 28.3012H39.1904C42.1397 28.3012 42.641 29.3615 42.9494 32.041H43.4313L42.8916 27.7229H32.0964V28.3012H32.5397C34.0241 28.3012 34.0626 28.5133 34.0626 29.2072V39.2699C34.0626 39.9639 34.0241 40.1759 32.5397 40.1759H32.0964V40.7735H43.1614L43.9711 35.8193Z" fill="black"/>
<path d="M49.7735 29.0144L52.4144 25.159C52.8192 24.5421 53.4747 23.9252 55.1903 23.9059V23.3276H50.6024V23.9059C51.3735 23.9252 51.7976 24.3493 51.7976 24.7927C51.7976 24.9855 51.759 25.024 51.6241 25.2361L49.4265 28.4746L46.959 24.7734C46.9204 24.7156 46.8241 24.5614 46.8241 24.4843C46.8241 24.2529 47.2482 23.9252 48.0578 23.9059V23.3276C47.4024 23.3855 45.9951 23.3855 45.2626 23.3855C44.665 23.3855 43.4698 23.3662 42.7566 23.3276V23.9059H43.1229C44.1831 23.9059 44.5494 24.0409 44.9156 24.5806L48.4433 29.9204L45.3012 34.5662C45.0313 34.9517 44.453 35.8385 42.5253 35.8385V36.4361H47.1132V35.8385C46.2265 35.8192 45.8988 35.2987 45.8988 34.9517C45.8988 34.7782 45.9566 34.7011 46.0915 34.4891L48.8096 30.4602L51.8554 35.0481C51.8939 35.1252 51.9518 35.2023 51.9518 35.2602C51.9518 35.4915 51.5277 35.8192 50.6988 35.8385V36.4361C51.3735 36.3782 52.7807 36.3782 53.4939 36.3782C54.3036 36.3782 55.1903 36.3975 56 36.4361V35.8385H55.6337C54.6313 35.8385 54.2265 35.7421 53.8217 35.1445L49.7735 29.0144Z" fill="black"/>
</svg>
