<svg xmlns="http://www.w3.org/2000/svg" height="64" width="64" viewBox="-48 -48 384 384"><path d="M210.744 270.893H288v1.776h-77.256zM0 270.89h44.74v1.776H0zm35.314-15.847c0-.841.131-1.616.394-2.326.27-.71.64-1.324 1.114-1.843a5.149 5.149 0 011.725-1.223 5.677 5.677 0 012.218-.483c.578-.013 1.1.072 1.567.256.467.178.865.444 1.193.799.329.355.585.789.769 1.301.19.513.299 1.094.325 1.745.014.414.003.772-.03 1.074-.026.303-.055.572-.088.809h-7.304v.118c0 .033.003.069.01.108.026.796.16 1.453.404 1.972.243.52.545.933.907 1.242.368.302.772.516 1.212.64.44.119.87.178 1.292.178.256 0 .525-.013.808-.04.282-.032.555-.075.818-.127.27-.06.516-.125.74-.198a2.87 2.87 0 00.551-.226l.365.838c-.19.17-.44.325-.75.463a6.54 6.54 0 01-.995.355c-.361.092-.739.16-1.133.207a8.72 8.72 0 01-1.154.079c-.795 0-1.501-.135-2.119-.404a4.369 4.369 0 01-1.548-1.154c-.42-.5-.742-1.1-.966-1.804-.217-.703-.325-1.488-.325-2.356m7.295-1.054c.02-.336.022-.67.01-1.006a4.545 4.545 0 00-.119-.966 2.87 2.87 0 00-.335-.838 1.729 1.729 0 00-.591-.62 1.85 1.85 0 00-.582-.247 2.817 2.817 0 00-.74-.089c-.367 0-.725.069-1.074.207-.341.138-.65.358-.926.66-.27.303-.496.694-.68 1.174-.184.473-.303 1.048-.355 1.725h5.392m-20.898 5.698l1.478-.207v-13.347l-1.685-.355v-.857l3.115-.414.463.226-.02 4.357-.03 1.706c.29-.237.602-.447.937-.631a7.834 7.834 0 011.025-.463c.342-.132.674-.23.996-.296.328-.072.624-.109.887-.109.67 0 1.22.102 1.646.306.427.204.763.52 1.006.946.25.42.42.963.512 1.627.092.664.135 1.452.129 2.366v4.938l1.478.207v.838h-5.027v-.838l1.656-.207v-4.1c0-.763-.02-1.433-.06-2.011-.032-.579-.127-1.062-.285-1.45-.151-.394-.381-.69-.69-.887-.31-.197-.736-.295-1.282-.295-.217 0-.447.013-.69.04-.243.026-.49.072-.739.137-.243.06-.49.142-.74.247a3.85 3.85 0 00-.71.404v7.915l1.45.207v.838h-4.82v-.838m-10.721 0l2.415-.295V246.31l-3.579.197-.69 1.686-.897.02.247-2.997h11.74l-.02 3.026-.808.089-.513-1.834-3.558-.187v13.08l2.573.296v.838h-6.91v-.838m171.659-9.696l8.087-11.806c1.24-1.89 3.247-3.778 8.5-3.837v-1.771h-14.049v1.77c2.361.06 3.66 1.358 3.66 2.716 0 .59-.118.708-.531 1.358l-6.73 9.917-7.556-11.334c-.118-.177-.413-.65-.413-.886 0-.708 1.299-1.711 3.778-1.77v-1.771c-2.007.177-6.316.177-8.56.177-1.83 0-5.49-.06-7.674-.177v1.77h1.122c3.247 0 4.368.414 5.49 2.067l10.802 16.351-9.622 14.227c-.826 1.18-2.597 3.896-8.5 3.896v1.83h14.05v-1.83c-2.716-.059-3.72-1.653-3.72-2.715 0-.532.177-.768.59-1.417l8.324-12.338 9.327 14.05c.118.236.295.472.295.649 0 .708-1.298 1.712-3.837 1.771v1.83c2.066-.177 6.376-.177 8.56-.177 2.479 0 5.195.059 7.674.177v-1.83h-1.122c-3.07 0-4.31-.295-5.549-2.125L182.65 249.99zm-17.769 20.838h-1.476c-1.475 9.032-2.833 13.341-12.927 13.341h-7.793c-2.774 0-2.892-.413-2.892-2.361v-15.703h5.254c5.726 0 6.375 1.89 6.375 6.907h1.476V257.43h-1.476c0 5.017-.65 6.847-6.375 6.847h-5.254v-14.108c0-1.948.118-2.361 2.892-2.361h7.556c9.032 0 10.567 3.246 11.512 11.452h1.475l-1.653-13.223h-33.057v1.77h1.358c4.545 0 4.663.65 4.663 2.775v30.815c0 2.125-.118 2.774-4.663 2.774h-1.358V286H162.4l2.48-15.171zm-31.64-37.898H97.29l-1.063 13.223h1.416c.827-9.504 1.712-11.452 10.626-11.452 1.063 0 2.597 0 3.188.118 1.24.236 1.24.885 1.24 2.243v30.991c0 2.008 0 2.834-6.199 2.834h-2.361v1.83c2.42-.177 8.382-.177 11.098-.177 2.715 0 8.796 0 11.216.177v-1.83h-2.361c-6.199 0-6.199-.826-6.199-2.834v-30.991c0-1.18 0-2.007 1.063-2.243.65-.118 2.243-.118 3.365-.118 8.854 0 9.74 1.948 10.566 11.452h1.476l-1.122-13.223zm-47.285-.413c-.236-.709-.354-.945-1.121-.945-.768 0-.945.236-1.181.945l-9.504 24.084c-.413 1.004-1.122 2.834-4.782 2.834v1.476h9.15v-1.476c-1.83 0-2.951-.827-2.951-2.007 0-.295.059-.413.177-.827l2.007-5.076h11.688l2.361 6.02c.118.237.236.532.236.71 0 1.18-2.243 1.18-3.364 1.18v1.476H100.3v-1.476h-.827c-2.774 0-3.07-.413-3.482-1.594l-10.036-25.324zm-2.361 4.19l5.254 13.342H78.34l5.254-13.341zm3.365 20.839h-1.476c-.59 6.021-1.417 13.341-11.806 13.341h-4.782c-2.774 0-2.892-.413-2.892-2.361V237.18c0-2.007 0-2.833 5.549-2.833H73.5v-1.771c-2.126.177-7.438.177-9.859.177-2.302 0-6.906 0-8.913-.177v1.77h1.357c4.546 0 4.664.65 4.664 2.775v30.992c0 2.125-.118 2.774-4.664 2.774h-1.357v1.83h30.637l1.594-15.171zm187.542.878v-3.598c.01-1.196.01-2.399.01-3.608h-1.509v-.74c.29-.072.53-.128.72-.167.197-.046.358-.095.483-.148.131-.059.24-.131.325-.217.086-.085.165-.21.237-.374.046-.112.102-.276.167-.493.073-.217.138-.437.198-.66.066-.23.121-.444.167-.641a6.56 6.56 0 00.09-.434h.975v2.632h3.312v1.242h-3.312v4.968c0 .762.01 1.383.03 1.863.02.473.07.845.147 1.114.08.27.194.453.345.552.151.092.362.138.63.138.165 0 .346-.016.543-.05.204-.032.398-.071.582-.118a6.39 6.39 0 00.522-.147 1.82 1.82 0 00.355-.168l.306.867a2.055 2.055 0 01-.602.434c-.25.125-.522.23-.818.316a5.79 5.79 0 01-.877.187c-.29.046-.546.069-.77.069-.715 0-1.27-.22-1.665-.66-.394-.44-.591-1.16-.591-2.16m-11.86-2.72c-.01-.907.127-1.725.404-2.455a5.694 5.694 0 011.133-1.873 5.217 5.217 0 011.706-1.212 5.844 5.844 0 012.119-.483c.276-.007.555 0 .838.02.289.013.558.042.808.088.256.04.49.092.7.158.21.066.381.141.513.227v2.365h-.937l-.503-1.242a1.528 1.528 0 00-.364-.217 3.249 3.249 0 00-.424-.147 2.518 2.518 0 00-.434-.08 2.945 2.945 0 00-.394-.029c-.44 0-.861.082-1.262.247-.4.164-.756.414-1.065.749-.308.328-.555.746-.739 1.252-.184.5-.28 1.087-.286 1.764-.01.894.1 1.66.316 2.297.217.637.5 1.16.847 1.567.349.401.736.697 1.164.888.427.184.847.276 1.261.276.257 0 .523-.017.799-.05s.542-.075.798-.128c.257-.052.493-.115.71-.187.217-.079.394-.158.532-.237l.335.878c-.19.17-.427.322-.71.453a5.78 5.78 0 01-.936.335c-.335.092-.69.161-1.064.207-.368.053-.74.08-1.114.08-.762 0-1.436-.139-2.021-.415a4.271 4.271 0 01-1.488-1.153 5.198 5.198 0 01-.917-1.745 7.591 7.591 0 01-.326-2.198m-11.325-.177c0-.841.132-1.617.395-2.327.27-.71.64-1.324 1.114-1.843a5.149 5.149 0 011.725-1.222 5.677 5.677 0 012.218-.483 3.99 3.99 0 011.567.256c.467.177.864.444 1.193.798.328.355.585.789.769 1.302.19.512.299 1.094.325 1.744.014.414 0 .773-.03 1.075-.025.302-.054.572-.088.808h-7.304v.118c0 .033 0 .07.01.109.026.795.16 1.452.404 1.971.243.52.545.934.907 1.242.367.303.772.516 1.212.641.44.118.87.178 1.291.178.257 0 .526-.014.809-.04.282-.033.555-.075.818-.128.27-.059.516-.125.74-.197.23-.072.413-.148.551-.227l.365.838c-.19.17-.44.325-.75.463a6.532 6.532 0 01-.995.355c-.361.092-.74.161-1.133.207a8.72 8.72 0 01-1.154.08c-.795 0-1.502-.136-2.12-.405a4.369 4.369 0 01-1.547-1.153c-.42-.5-.742-1.101-.966-1.804-.217-.703-.325-1.489-.325-2.356m7.294-1.055c.02-.335.023-.67.01-1.005a4.749 4.749 0 00-.118-.966 2.887 2.887 0 00-.335-.838 1.728 1.728 0 00-.591-.621 1.85 1.85 0 00-.582-.247 2.817 2.817 0 00-.74-.088c-.367 0-.726.069-1.074.207a2.54 2.54 0 00-.926.66c-.27.302-.497.693-.68 1.173-.185.473-.303 1.048-.356 1.725h5.393m-11.495-7.304c-.158 0-.312-.026-.464-.079a1.454 1.454 0 01-.404-.236 1.277 1.277 0 01-.276-.385 1.269 1.269 0 01-.099-.512c0-.204.042-.395.128-.572.092-.178.208-.329.346-.454.138-.13.292-.233.463-.305.177-.072.355-.109.532-.109.434 0 .75.122.946.365.204.237.306.523.306.858 0 .217-.042.414-.128.591a1.463 1.463 0 01-.335.454 1.714 1.714 0 01-.473.286 1.548 1.548 0 01-.543.098m-.502 4.722l-1.37-.73v-.591l2.77-.789.453.198v11.188c0 .769-.086 1.456-.256 2.06-.165.611-.405 1.127-.72 1.548a3.12 3.12 0 01-1.124.976 3.22 3.22 0 01-1.478.335 6.104 6.104 0 01-.601-.04 3.71 3.71 0 01-.296-.049.532.532 0 01-.178-.06v-1.36c.053.02.128.037.227.05.099.014.2.023.306.03.111.013.216.02.315.02.099.006.177.01.237.01.315 0 .581-.063.798-.188.223-.118.4-.322.532-.611.138-.283.237-.657.296-1.124a14.18 14.18 0 00.089-1.735v-9.138m-13.829 3.38c.014-.88.165-1.666.454-2.356a5.5 5.5 0 011.163-1.764 5.012 5.012 0 011.656-1.104 5.328 5.328 0 011.971-.395c.835-.007 1.561.138 2.179.434a4.174 4.174 0 011.528 1.222c.407.513.71 1.118.907 1.814.197.697.292 1.443.286 2.238-.01.874-.148 1.673-.424 2.395a5.762 5.762 0 01-1.104 1.863 4.97 4.97 0 01-1.627 1.203 4.73 4.73 0 01-1.991.424c-.907 0-1.68-.164-2.316-.493a4.358 4.358 0 01-1.558-1.32 5.553 5.553 0 01-.877-1.903 8.81 8.81 0 01-.247-2.258m5.087 4.87c.558.013 1.028-.082 1.41-.286.387-.204.7-.503.936-.897.243-.4.417-.894.522-1.478.112-.592.168-1.269.168-2.031a9.21 9.21 0 00-.177-1.853 4.758 4.758 0 00-.543-1.509 2.822 2.822 0 00-.936-1.005c-.375-.25-.822-.381-1.34-.394-.56-.007-1.036.092-1.43.295-.388.198-.706.49-.956.878-.25.387-.434.86-.552 1.42a9.758 9.758 0 00-.168 1.902c0 .637.062 1.252.187 1.843s.313 1.117.562 1.577c.25.454.566.822.947 1.104.387.276.844.42 1.37.434m-14.106.03l1.597-.208v-8.024l-1.4-.769v-.61l2.603-.78.463.198v1.518c.125-.184.312-.378.562-.582.256-.203.542-.387.858-.552.315-.17.644-.309.985-.414.342-.112.664-.167.967-.167.216 0 .41.007.581.02.178.006.302.022.375.049v2.02c-.105-.04-.214-.078-.326-.118a1.939 1.939 0 00-.374-.108 3.58 3.58 0 00-.454-.08c-.17-.019-.368-.029-.591-.029-.532 0-.98.07-1.34.207a5.177 5.177 0 00-.996.483v7.709l2.81.236v.838h-6.32v-.838m-13.04 0l1.862-.295V246.94l-1.626-.167v-1.075h2.593c.157 0 .368-.007.63-.02.263-.013.552-.029.868-.049.322-.02.654-.036.996-.049.348-.013.686-.02 1.015-.02.756 0 1.449.073 2.08.217.63.145 1.173.395 1.626.75.454.348.805.815 1.055 1.4.256.584.385 1.32.385 2.207a4.75 4.75 0 01-.227 1.489c-.145.46-.348.877-.611 1.252a4.799 4.799 0 01-.937.995c-.361.29-.752.53-1.173.72-.42.19-.867.335-1.34.434-.467.092-.94.131-1.42.118a26.98 26.98 0 00-1.212-.01 6.063 6.063 0 00-.78.06v4.681l2.633.296v.838h-6.417v-.838m3.785-6.141c.374.052.72.085 1.035.098.322.007.63.01.927.01.315 0 .627-.02.936-.059a4.18 4.18 0 00.887-.226c.283-.112.542-.26.779-.444.243-.19.45-.434.621-.73a3.76 3.76 0 00.414-1.054c.099-.414.148-.9.148-1.459 0-1.21-.342-2.106-1.025-2.691-.677-.585-1.65-.858-2.918-.818-.322.013-.631.033-.927.059-.29.02-.581.065-.877.138v7.176M27.222.802c2.77 4.992 5.652 9.289 8.658 12.988l.037.036c.01.013.026.024.036.037-1.385-.202-2.811-.343-4.293-.328-2.926.03-6.07.534-9.459 1.6 5.821 4.875 10.778 8.439 15.134 11.206-.106-.035-.22-.075-.327-.109l.327.182c-6.75-2.113-14.03-2.371-22.555 1.673 6.12 3.83 11.257 6.625 15.79 8.732-.133-.02-.268-.054-.4-.073l.327.182c-7.063-1.216-14.394-.533-22.375 4.73 5.204 2.318 9.725 4.068 13.752 5.42h.037l.254.146c-6.735.261-13.41 2.359-19.936 8.549 5.701 1.414 10.582 2.359 14.88 2.983-.121.025-.244.047-.364.073-.168-.003-.342.003-.51 0l.182.073c-5.02 1.14-9.916 3.657-14.697 8.476 3.874.837 7.36 1.488 10.55 1.965-3.928 1.899-7.66 4.842-11.059 9.35 4.464.346 8.418.494 11.97.51-4.297 1.987-8.345 5.108-11.934 10.15 6.376.318 11.705.304 16.298.036-.086.035-.169.073-.254.109-.28.025-.56.043-.837.073l.4.145C12.08 91.813 7.66 95.21 3.866 100.958c7.924.115 14.2-.259 19.463-.91-.16.044-.313.1-.473.146-.203.011-.417.021-.618.036l.255.073c-6.208 1.849-11.94 5.411-16.699 12.624 6.401.093 11.745-.15 16.335-.582-.1.054-.192.126-.291.182-5.484 3.059-10.198 7.654-13.315 15.426 5.629-1.067 10.347-2.192 14.443-3.384-.068.054-.151.09-.219.146l.255-.037c-4.216 3.146-7.76 7.555-10.15 14.08a166.99 166.99 0 0010.441-2.656c-2.785 3.368-4.937 7.572-6.148 13.097 4.208-1.55 7.859-3.041 11.096-4.512-.04.046-.07.1-.11.146-.065.052-.153.093-.217.145l.109-.036c-2.97 3.559-5.236 8.034-6.367 13.97 5.925-2.369 10.745-4.643 14.807-6.803-.115.111-.256.215-.364.327l.11-.036c-3.593 3.94-6.276 9.002-7.35 15.97 6.994-3.087 12.383-5.956 16.808-8.658-.047.048-.1.098-.145.146l.29-.146c-5.023 4.303-8.878 10.012-10.222 18.736 9.426-4.161 16.019-7.93 21.137-11.423-2.198 4.445-3.36 9.625-2.801 16.116 9.11-6.989 14.878-12.624 19.172-17.608-.007.072.006.146 0 .219-.26 3.158-.063 6.583.873 10.368 5.401-9.28 10.803-13.126 16.298-16.298-6.873 4.455-5.639 8.065-5.639 12.187 8.173-8.607 19.543-17.748 23.03-23.465-4.662 7-6.523 13.647-7.75 19.5-23.848 12.612-38.402 15.914-54.68 20.954 6.315 2.316 13.093 4.566 10.296 7.786l-7.458 7.458c4.769-1.483 9.64-3.62 13.861-.728-.414 3.912-5.348 5.905-9.568 8.186 7.43-2.678 9.033-2.047 10.987-1.42.976 4.688-2.414 7.201-4.62 10.297 18.715-14.23 43.121-25.465 60.319-30.16 24.19-8.146 55.401-16.638 63.884-37.29l8.477-34.053c9.945-10.763 19.09-21.905 23.429-35.47 27.691-5.358 50.093-3.437 73.452-2.838-2.13-.355-71.306-12.078-71.306-12.078-20.222-27.668-50.388-8.85-60.32 18.481-2.506 6.899-16.81 6.884-20.954-.036C119.323 51.855 69.568 14.55 27.222.803z"/><path d="M26.74-1.184c2.79 5.026 5.69 9.315 8.72 13.032a27.612 27.612 0 00-4.294-.306c-2.926.031-6.055.517-9.444 1.584 5.914 4.953 10.913 8.568 15.322 11.353-6.812-2.175-14.147-2.485-22.763 1.603 6.294 3.938 11.576 6.785 16.2 8.91-7.208-1.328-14.682-.722-22.84 4.656 5.386 2.4 10.044 4.202 14.177 5.572-6.785.237-13.5 2.333-20.072 8.567 5.7 1.415 10.585 2.352 14.882 2.977-5.259 1.062-10.417 3.585-15.417 8.624 3.874.837 7.36 1.469 10.552 1.947-3.929 1.899-7.649 4.841-11.048 9.35 4.464.346 8.413.5 11.963.514C8.382 79.187 4.361 82.33.772 87.37c6.375.32 11.701.288 16.295.02-5.049 2.063-9.702 5.55-13.68 11.582 7.923.115 14.198-.265 19.46-.916-6.531 1.773-12.578 5.34-17.553 12.88 6.4.092 11.743-.14 16.333-.573-5.612 3.058-10.431 7.696-13.605 15.608 5.777-1.094 10.62-2.265 14.788-3.491-4.343 3.16-7.993 7.599-10.437 14.272a166.233 166.233 0 0010.418-2.652c-2.786 3.367-4.933 7.583-6.144 13.108 4.208-1.55 7.849-3.052 11.086-4.522-3.076 3.599-5.425 8.155-6.583 14.234 5.925-2.369 10.745-4.633 14.807-6.793-3.724 3.981-6.495 9.102-7.594 16.239 7.214-3.185 12.748-6.135 17.248-8.911-5.168 4.331-9.142 10.09-10.513 18.985 9.426-4.161 16.004-7.935 21.123-11.43-2.198 4.446-3.363 9.652-2.805 16.143 9.11-6.99 14.88-12.647 19.175-17.63-.29 3.218-.061 6.718.897 10.59 6.54-11.237 13.04-14.518 19.766-18.268-10.714 5.394-9.125 9.454-9.125 14.166 8.172-8.607 19.57-17.734 23.056-23.451-4.661 7-6.558 13.629-7.785 19.48-23.848 12.613-38.368 15.909-54.647 20.95 6.314 2.317 13.08 4.585 10.284 7.805l-7.46 7.441c4.768-1.482 9.63-3.598 13.852-.706-.414 3.912-5.358 5.887-9.578 8.167 7.43-2.677 9.036-2.06 10.99-1.431.976 4.687-2.41 7.208-4.617 10.303 18.715-14.23 43.136-25.472 60.333-30.166 24.19-8.147 55.381-16.614 63.863-37.265l8.51-34.06c9.945-10.762 19.093-21.924 23.432-35.489 27.691-5.357 50.083-3.423 73.442-2.824-2.13-.355-71.324-12.078-71.324-12.078-20.221-27.668-50.365-8.861-60.296 18.47-2.506 6.898-16.806 6.9-20.95-.019C118.848 49.86 69.087 12.562 26.741-1.185z" fill="teal"/><path d="M190.114 71.016l-.182.29c-.718 1.338-1.931 2.25-3.638 2.802-1.707.552-3.893.729-6.44.619l-1.6-.073 1.164 1.128c.591.568.756 1.022.764 1.418.009.397-.162.825-.546 1.31-.766.97-2.29 2.023-3.71 3.093l-.473.327.327.473c1.186 1.818 1.728 3.218 1.855 4.293.128 1.074-.122 1.845-.618 2.51-.992 1.33-3.17 2.231-5.13 3.347l-.363.182.072.436c.169 1.023-.107 1.86-.836 2.693-.73.833-1.959 1.628-3.602 2.328l-.437.182.073.473c.328 2.19.986 4.096 2.365 5.311 1.261 1.112 3.169 1.406 5.603.91.424 2.335 1.032 4.458 2.437 5.857 1.424 1.418 3.68 1.838 6.694 1.055.679 1.635 1.67 2.8 2.801 3.565 1.243.84 2.866 1.179 4.201 1.594l.792-.851c-1.326-.412-3.282-1.048-4.338-1.761-1.055-.713-1.912-1.692-2.51-3.383l-.182-.583-.582.182c-3.1.953-4.82.524-6.003-.655-1.183-1.178-1.849-3.309-2.255-5.784l-.11-.655-.654.182c-2.556.667-4.064.326-5.094-.582-.961-.848-1.53-2.352-1.855-4.22 1.48-.685 2.75-1.433 3.565-2.365.797-.91 1.142-2.034 1.092-3.201 1.806-.994 3.984-1.848 5.239-3.53.655-.879.996-2.035.836-3.383-.145-1.226-.746-2.644-1.782-4.33 1.272-.936 2.654-1.876 3.528-2.982.487-.615.853-1.296.837-2.074-.009-.429-.42-.82-.655-1.237 2.214.03 4.23-.117 5.894-.655 1.753-.567 3.13-1.6 4.038-3.02 2.62.014 5.332.59 8.077.947 2.819.366 5.687.464 8.404-.728l-.51-1.128c-2.403 1.055-4.97 1.011-7.712.655-2.743-.356-5.6-1.003-8.477-.982h-.364z" fill="#fff"/><path d="M200.295 70.563a5.17 5.17 0 11-10.339 0 5.17 5.17 0 0110.339 0z" fill="#fff" stroke="#fff" stroke-width="1.2211034"/><path d="M215.734 65.713c-4.641 6.038-5.808 4.479-8.633 5.49l-.473.182.073.51c1.087 6.064 4.681 7.99 7.486 10.195l.157-.49.746-.143c-2.812-2.21-5.888-4.08-7.007-9.235 2.058-.486 4.02.136 8.404-5.566l-.753-.942zM37.037 24.465c8.77 5.437 23.203 11.044 32.472 16.902 5.1 3.247 9.68 6.482 13.243 9.277 3.563 2.795 6.198 5.683 7.167 6.622.969.938 1.627.495.982-.728-.645-1.223-3.819-4.05-7.422-6.876-3.602-2.826-8.185-6.047-13.315-9.313-10.259-6.533-22.3-12.373-33.126-15.885zM35.46 11.845c3.676.848 9.102 3.984 15.135 7.338 6.034 3.355 12.61 7.483 18.627 11.497 6.017 4.013 10.656 7.526 14.365 10.356 3.522 3.014 5.26 4.966 5.935 4.96.092.018.183.02.327 0a.728.728 0 00.51-.364.663.663 0 00.036-.546.942.942 0 00-.11-.254c-.198-.3-.502-.58-.945-.983-.887-.807-2.351-1.993-4.22-3.42-3.738-2.851-9.17-6.74-15.207-10.768-6.037-4.027-12.66-8.19-18.736-11.569-2.16-.8-12.752-6.402-15.718-6.248zM30.435 34.996c11.256 4.594 27.268 9.99 37.955 16.708 5.743 3.647 10.745 7.28 14.48 10.26a88.444 88.444 0 014.584 3.892c1.156 1.064 1.809 2.029 2.183 2.292.782.552 1.382.185 1.018-.69-.274-.663-1.18-1.422-2.364-2.511-1.186-1.09-2.772-2.425-4.657-3.93-3.771-3.008-8.806-6.696-14.589-10.368-11.565-7.344-25.392-13.801-38.61-15.654zM21.774 45.206c8.772.006 26.892 8.035 34.53 12.059 12.383 6.604 23.645 15.094 29.868 21.028.69.657 1.699.077.91-.837-5.781-6.699-17.72-14.593-30.196-21.247-12.476-6.653-25.394-11.014-35.113-11.004zM16.705 56.76c13.188 1.93 28.996 7.252 40.513 13.02 6.427 3.264 12.158 6.759 16.553 9.86 4.395 3.1 7.64 6.59 8.44 7.494.801.903 1.755.94 1.02-.655-.737-1.596-4.316-4.717-8.768-7.858-4.453-3.142-10.221-6.643-16.699-9.932-12.955-6.578-27.708-11.753-41.059-11.93zM21.058 66.575c-3.276-.286-6.225.386-9.23.762 11.718-1.098 28.104 4.283 39.026 9.316 12.867 6.032 23.55 14.313 28.669 19.573.8.823 1.367-.226.946-.764-4.766-6.084-16.114-13.847-29.105-19.937-9.743-4.567-20.477-8.092-30.306-8.95zM12.732 77.136c11.531.855 26.97 3.616 37.784 8.58 10.877 5.087 19.13 11.683 23.283 15.426.64.576 1.77.168.873-.873-3.79-4.404-12.602-10.495-23.611-15.644-11.009-5.149-24.381-8.447-38.33-7.489zM23.088 86.732c-2.433-.082-3.574.373-5.921.627 7.826.345 20.264 2.426 27.132 4.758 8.912 3.092 16.24 7.75 20.41 11.387.804.702 1.404-.24.873-.837-3.905-4.381-11.84-8.577-20.883-11.715-6.783-2.353-14.312-3.973-21.61-4.22zM22.752 98.082c16.73 1.129 26.847 4.076 34.602 11.023.58.52 1.498-.196.873-.873-7.958-8.622-23.626-11.025-35.475-10.15zM35.635 108.13c-5.071-.407-9.315.701-13.937 2.24 13.526-2.156 19.15-1.122 29.398 3.69 1.169.55 1.1-.743.582-1.054-5.444-3.273-10.972-4.467-16.043-4.875zM35.153 117.552c-4.795.425-8.867 2.072-12.224 4.802 13.395-5.163 17.097-4.135 27.342-1.231 1.348.382.929-.916.4-1.128-6.134-2.46-10.722-2.868-15.518-2.443zM61.693 125.849c-7.146-.773-15.198.094-22.264 1.382-7.067 1.289-13.144 3.907-16.575 6.697 11.75-4.962 13.89-4.951 16.794-5.496 6.961-1.27 13.862-1.765 21.974-1.383.735.035.698-1.133.072-1.2zM65.842 131.633c-7.745-.293-15.745 1.624-22.665 3.602-6.92 1.977-12.057 4.676-15.444 7.43 6.854-3.296 13.231-5.527 15.77-6.266 6.824-1.95 13.707-3.639 22.412-3.53.676.01 1.113-1.191-.073-1.236zM72.166 136.395c-7.294 1.077-14.942 3.231-21.61 5.493-6.667 2.262-11.413 4.948-14.509 8.165 7.93-4.552 12.292-6.149 14.872-7.037 6.586-2.235 12.735-3.79 21.465-5.42 1.047-.197.206-1.264-.219-1.201zM75.876 142.47c-14.628 2.331-24.108 8.642-30.133 14.901 9.338-7.035 15.833-10.816 30.387-13.7.922-.183.643-1.344-.254-1.2zM83.004 147.817c-14.713 2.266-23.198 11.21-26.731 17.114 9.309-9.299 16.553-14.36 26.985-15.913 1.056-.158.787-1.361-.254-1.201zM87.445 152.476c-2.295.287-5.418 1.912-8.368 3.784-2.95 1.872-5.176 4.15-6.504 7.084 3.554-3.667 4.977-4.66 7.159-6.065a31.489 31.489 0 018.004-3.602c1.086-.315.265-1.27-.291-1.2z" fill="#fff"/><path d="M200.295 70.563a5.17 5.17 0 11-10.339 0 5.17 5.17 0 0110.339 0z" fill="#fff" stroke="#fff" stroke-width="1.2211034"/><path d="M200.295 70.563a5.17 5.17 0 11-10.339 0 5.17 5.17 0 0110.339 0z" fill="#37c871" stroke="#fff" stroke-width="1.2211034"/></svg>