<svg width="64" height="64" viewBox="0 0 64 64" fill="none" xmlns="http://www.w3.org/2000/svg">
<path d="M31.9176 30.1363C31.8891 30.1653 31.8596 30.193 31.8302 30.2206C31.8454 30.2075 31.8613 30.1918 31.8755 30.1773C31.8907 30.1641 31.905 30.1496 31.9176 30.1363Z" fill="#BE202E"/>
<path opacity="0.35" d="M31.9176 30.1363C31.8891 30.1653 31.8596 30.193 31.8302 30.2206C31.8454 30.2075 31.8613 30.1918 31.8755 30.1773C31.8907 30.1641 31.905 30.1496 31.9176 30.1363Z" fill="#BE202E"/>
<path d="M31.7043 29.6819C31.7027 29.6831 31.7027 29.6831 31.7043 29.6819C31.7091 29.6784 31.713 29.6735 31.7178 29.67C31.7369 29.6519 31.756 29.6338 31.7726 29.6156C31.7512 29.6374 31.7273 29.659 31.7043 29.6819Z" fill="#BE202E"/>
<path opacity="0.35" d="M31.7043 29.6819C31.7027 29.6831 31.7027 29.6831 31.7043 29.6819C31.7091 29.6784 31.713 29.6735 31.7178 29.67C31.7369 29.6519 31.756 29.6338 31.7726 29.6156C31.7512 29.6374 31.7273 29.659 31.7043 29.6819Z" fill="#BE202E"/>
<path d="M31.878 30.1789C31.8637 30.1934 31.8486 30.2065 31.8327 30.2222C31.847 30.2077 31.8613 30.1932 31.878 30.1789Z" fill="#BE202E"/>
<path opacity="0.35" d="M31.878 30.1789C31.8637 30.1934 31.8486 30.2065 31.8327 30.2222C31.847 30.2077 31.8613 30.1932 31.878 30.1789Z" fill="#BE202E"/>
<path d="M31.7045 29.6829C31.7093 29.6794 31.7131 29.6746 31.7195 29.6699C31.7147 29.6734 31.7108 29.6783 31.7045 29.6829Z" fill="#BE202E"/>
<path opacity="0.35" d="M31.7045 29.6829C31.7093 29.6794 31.7131 29.6746 31.7195 29.6699C31.7147 29.6734 31.7108 29.6783 31.7045 29.6829Z" fill="#BE202E"/>
<path d="M7.71339 23.0186H9.85253C10.0267 23.0186 10.2009 23.0186 10.3751 23.0186C10.5601 23.0186 10.6908 23.0567 10.767 23.1329C10.8323 23.1873 10.8704 23.2689 10.8813 23.3778C10.8922 23.4758 10.9085 23.5738 10.9303 23.6717C10.952 23.8459 10.9738 24.0255 10.9956 24.2106C11.0282 24.3848 11.0555 24.5644 11.0772 24.7495C11.197 25.4353 11.295 26.132 11.3712 26.8396C11.4582 27.5472 11.5617 28.2494 11.6814 28.9461C11.725 29.1638 11.7576 29.387 11.7794 29.6156C11.8012 29.8442 11.8338 30.0674 11.8774 30.2851C11.8883 30.3395 11.8991 30.394 11.91 30.4484C11.9209 30.5028 11.9481 30.5464 11.9917 30.579C12.0134 30.5899 12.0298 30.6008 12.0407 30.6117C12.0624 30.6226 12.0896 30.6171 12.1223 30.5954C12.2094 30.5736 12.2802 30.5083 12.3346 30.3994C12.389 30.2905 12.4435 30.1926 12.4979 30.1055C12.6285 29.8551 12.7537 29.6102 12.8735 29.3707C12.9932 29.1203 13.1238 28.8699 13.2654 28.6195C13.6137 27.9555 13.9621 27.2914 14.3104 26.6273C14.6697 25.9524 15.0235 25.2774 15.3718 24.6025C15.4589 24.4283 15.546 24.2596 15.6331 24.0963C15.7311 23.9221 15.8236 23.7479 15.9107 23.5738C15.9543 23.4867 16.0032 23.3996 16.0577 23.3125C16.1121 23.2254 16.1883 23.1546 16.2863 23.1002C16.3625 23.0458 16.4496 23.0186 16.5476 23.0186C16.6564 23.0186 16.7653 23.0186 16.8741 23.0186H17.9355H19.0623C19.1602 23.0186 19.2582 23.0186 19.3562 23.0186C19.4651 23.0186 19.5413 23.0403 19.5848 23.0839C19.6937 23.1492 19.7263 23.2744 19.6828 23.4594C19.6501 23.6336 19.6175 23.8132 19.5848 23.9983L19.0949 26.4477L17.8702 32.5222L17.5926 33.9429C17.5709 34.0626 17.5436 34.1824 17.511 34.3021C17.4783 34.411 17.4239 34.4926 17.3477 34.5471C17.2715 34.6015 17.1844 34.6341 17.0864 34.645C16.9884 34.645 16.8796 34.645 16.7598 34.645H15.976H15.5351C15.4589 34.6233 15.3882 34.6069 15.3229 34.596C15.2684 34.5852 15.2249 34.5471 15.1922 34.4817C15.1596 34.4273 15.1487 34.3566 15.1596 34.2695C15.1813 34.1824 15.2031 34.0898 15.2249 33.9919L15.3882 33.1591L16.2373 28.9624C16.2591 28.81 16.2808 28.6685 16.3026 28.5379C16.3353 28.3963 16.3625 28.2548 16.3843 28.1133C16.406 28.0262 16.4278 27.9391 16.4496 27.852C16.4714 27.7541 16.4822 27.6615 16.4822 27.5744C16.4714 27.4982 16.4714 27.4166 16.4822 27.3295C16.504 27.2424 16.4877 27.188 16.4332 27.1662C16.4006 27.1553 16.3734 27.1608 16.3516 27.1825C16.3298 27.2043 16.3135 27.2206 16.3026 27.2315C16.2482 27.2751 16.1992 27.3295 16.1557 27.3948C16.123 27.4492 16.0903 27.5037 16.0577 27.5581C15.9597 27.7214 15.8617 27.8901 15.7637 28.0643C15.6767 28.2385 15.5787 28.4127 15.4698 28.5869C15.4372 28.6522 15.4045 28.7175 15.3718 28.7828C15.3501 28.8481 15.3174 28.9134 15.2739 28.9788C15.1868 29.1203 15.1051 29.2618 15.0289 29.4033C14.9636 29.5448 14.8874 29.6864 14.8003 29.8279C14.7785 29.8605 14.7622 29.8986 14.7513 29.9422C14.7404 29.9748 14.7241 30.0075 14.7023 30.0402C14.637 30.1381 14.5771 30.2416 14.5227 30.3504C14.4792 30.4593 14.4193 30.5681 14.3431 30.677C14.2778 30.775 14.2179 30.8784 14.1635 30.9873C14.1199 31.0961 14.0655 31.205 14.0002 31.3139C13.8042 31.6296 13.6246 31.9507 13.4613 32.2773C13.298 32.593 13.1293 32.9087 12.9551 33.2244C12.9224 33.257 12.9007 33.2897 12.8898 33.3224C12.8898 33.355 12.8735 33.3877 12.8408 33.4203C12.7646 33.5401 12.6938 33.6653 12.6285 33.7959C12.5741 33.9157 12.5088 34.0354 12.4326 34.1552C12.389 34.2314 12.3455 34.3021 12.3019 34.3674C12.2584 34.4328 12.2094 34.4872 12.155 34.5307C12.0896 34.5743 12.0298 34.6015 11.9753 34.6124C11.9209 34.6124 11.8502 34.6233 11.7631 34.645H11.3875C11.3113 34.645 11.2188 34.6505 11.1099 34.6614C11.0119 34.6614 10.9085 34.6614 10.7996 34.6614C10.7017 34.6614 10.6091 34.6559 10.522 34.645C10.4349 34.6341 10.3751 34.6124 10.3424 34.5797C10.2662 34.5253 10.2172 34.4654 10.1954 34.4001C10.1846 34.3239 10.1628 34.2368 10.1301 34.1388C10.1084 34.0082 10.092 33.8776 10.0811 33.7469C10.0703 33.6054 10.0485 33.4693 10.0158 33.3387L9.99949 33.1917C9.96684 33.0611 9.94506 32.925 9.93418 32.7835C9.92329 32.6311 9.90152 32.4896 9.86886 32.3589C9.86886 32.3263 9.86886 32.2991 9.86886 32.2773C9.86886 32.2446 9.86342 32.212 9.85253 32.1793C9.81987 32.0813 9.7981 31.9779 9.78721 31.869C9.77633 31.7602 9.76 31.6513 9.73823 31.5425C9.73823 31.5207 9.73823 31.4935 9.73823 31.4608C9.73823 31.4282 9.73278 31.4009 9.7219 31.3792C9.70012 31.2703 9.68379 31.1614 9.67291 31.0526C9.67291 30.9437 9.65658 30.8349 9.62392 30.726C9.58038 30.5083 9.54227 30.2797 9.50961 30.0402C9.48784 29.8007 9.45518 29.5666 9.41164 29.338C9.36809 29.0658 9.32999 28.7882 9.29733 28.5052C9.27556 28.2222 9.22657 27.95 9.15037 27.6887C9.1286 27.5363 9.09594 27.4111 9.05239 27.3132C9.03062 27.2914 9.00885 27.2751 8.98708 27.2642C8.97619 27.2424 8.95442 27.2424 8.92176 27.2642C8.85644 27.2968 8.8129 27.3513 8.79112 27.4275C8.78024 27.5037 8.75847 27.5799 8.72581 27.6561C8.68226 27.7323 8.65505 27.8139 8.64416 27.901C8.63327 27.9772 8.62239 28.0589 8.6115 28.146C8.58973 28.2657 8.56251 28.3855 8.52986 28.5052C8.50808 28.625 8.48087 28.7447 8.44821 28.8645L7.58275 33.2081L7.41946 34.0082C7.39769 34.0953 7.37592 34.1824 7.35414 34.2695C7.34326 34.3566 7.3106 34.4273 7.25617 34.4817C7.20174 34.5579 7.1092 34.6069 6.97857 34.6287C6.90237 34.6505 6.82072 34.6614 6.73363 34.6614C6.64654 34.6505 6.55945 34.645 6.47236 34.645H5.62324C5.50349 34.645 5.39463 34.645 5.29665 34.645C5.19867 34.6341 5.12247 34.6015 5.06804 34.5471C5.01361 34.4926 4.99184 34.411 5.00272 34.3021C5.02449 34.1824 5.04627 34.0626 5.06804 33.9429L5.34564 32.5059L6.57034 26.4314L7.02756 24.1453C7.03844 24.08 7.04933 24.0038 7.06022 23.9167C7.08199 23.8187 7.10376 23.7262 7.12553 23.6391C7.14731 23.552 7.16908 23.4703 7.19085 23.3941C7.22351 23.307 7.25073 23.2417 7.2725 23.1982C7.33782 23.122 7.43579 23.0675 7.56643 23.0349C7.59908 23.024 7.62086 23.024 7.63174 23.0349C7.65352 23.0349 7.68073 23.0294 7.71339 23.0186Z" fill="black"/>
<path d="M27.231 34.0082C27.231 34.128 27.2201 34.2477 27.1983 34.3674C27.1766 34.4872 27.1058 34.5688 26.9861 34.6124C26.9098 34.645 26.8282 34.6614 26.7411 34.6614C26.654 34.6614 26.5669 34.6614 26.4798 34.6614H25.5981C25.5001 34.6614 25.4021 34.6614 25.3041 34.6614C25.217 34.6505 25.1517 34.6233 25.1082 34.5797C25.0429 34.5362 24.9993 34.4763 24.9775 34.4001C24.9558 34.313 24.9177 34.2423 24.8632 34.1878C24.8415 34.1661 24.8143 34.1497 24.7816 34.1388C24.7598 34.1171 24.7217 34.1116 24.6673 34.1225C24.602 34.1443 24.5421 34.1715 24.4877 34.2042C24.4332 34.2368 24.3788 34.264 24.3244 34.2858C24.2591 34.3293 24.1883 34.3674 24.1121 34.4001C24.0468 34.4328 23.976 34.4654 23.8998 34.4981C23.7474 34.5634 23.5896 34.6178 23.4263 34.6614C23.263 34.694 23.0997 34.7321 22.9364 34.7757C22.8493 34.7975 22.7676 34.8083 22.6914 34.8083C22.6261 34.8192 22.5554 34.8301 22.4792 34.841C22.4465 34.841 22.4138 34.841 22.3812 34.841C22.3485 34.8519 22.3159 34.8573 22.2832 34.8573H22.1036C21.9838 34.8791 21.875 34.8791 21.777 34.8573H21.63C21.5538 34.8356 21.4776 34.8247 21.4014 34.8247C21.3361 34.8356 21.2708 34.8301 21.2055 34.8083C21.1075 34.7866 21.0095 34.7648 20.9115 34.743C20.8136 34.7321 20.7265 34.7049 20.6503 34.6614C20.3563 34.5416 20.1169 34.3892 19.9318 34.2042C19.7467 34.0082 19.6215 33.7524 19.5562 33.4367C19.5344 33.3605 19.5181 33.2788 19.5072 33.1917C19.5072 33.1046 19.5018 33.0121 19.4909 32.9141C19.48 32.8597 19.48 32.8053 19.4909 32.7508C19.5127 32.6964 19.5236 32.642 19.5236 32.5876C19.5236 32.5549 19.529 32.4896 19.5399 32.3916C19.5617 32.2827 19.5834 32.2065 19.6052 32.163C19.6487 32.0541 19.676 31.9616 19.6868 31.8854C19.7413 31.7656 19.7957 31.6459 19.8501 31.5261C19.9155 31.3955 19.9862 31.2812 20.0624 31.1832C20.3019 30.8675 20.5577 30.628 20.8299 30.4647C21.1021 30.3014 21.4395 30.1599 21.8423 30.0402C21.9947 29.9857 22.1471 29.9476 22.2995 29.9259C22.4519 29.9041 22.6098 29.8769 22.7731 29.8442C22.8602 29.8225 22.9527 29.8116 23.0507 29.8116C23.1595 29.8007 23.263 29.7844 23.3609 29.7626C23.4371 29.7408 23.5134 29.7354 23.5896 29.7462C23.6658 29.7462 23.7528 29.7354 23.8508 29.7136C23.927 29.6918 24.0032 29.6809 24.0794 29.6809C24.1556 29.6809 24.2373 29.67 24.3244 29.6483C24.5639 29.5938 24.7816 29.5503 24.9775 29.5176C25.1844 29.4741 25.3803 29.3761 25.5654 29.2237C25.6743 29.1257 25.7614 29.0169 25.8267 28.8971C25.8376 28.8645 25.843 28.8373 25.843 28.8155C25.843 28.7937 25.8484 28.7719 25.8593 28.7502C25.8811 28.7284 25.892 28.6957 25.892 28.6522C25.9029 28.6086 25.9138 28.576 25.9246 28.5542C25.9246 28.5107 25.9246 28.4671 25.9246 28.4236C25.9246 28.38 25.9246 28.3419 25.9246 28.3093C25.8811 27.9827 25.696 27.7595 25.3695 27.6398C25.2824 27.6071 25.1681 27.5853 25.0265 27.5744C24.8959 27.5527 24.7598 27.5472 24.6183 27.5581C24.4768 27.5581 24.3353 27.569 24.1937 27.5908C24.0631 27.6126 23.9488 27.6398 23.8508 27.6724C23.7746 27.6942 23.7039 27.7269 23.6385 27.7704C23.5732 27.8031 23.5079 27.8412 23.4426 27.8847C23.3773 27.9283 23.3065 27.9881 23.2303 28.0643C23.1541 28.1405 23.0997 28.2113 23.067 28.2766C22.9908 28.3855 22.9255 28.4889 22.8711 28.5869C22.8166 28.6848 22.7241 28.7502 22.5935 28.7828C22.5064 28.8046 22.4138 28.8155 22.3159 28.8155C22.2179 28.8155 22.1199 28.8155 22.0219 28.8155H21.4014C21.347 28.8155 21.2871 28.8209 21.2218 28.8318C21.1674 28.8318 21.1238 28.8264 21.0912 28.8155H20.9442C20.9224 28.8046 20.8952 28.7991 20.8626 28.7991C20.8299 28.7991 20.8027 28.7883 20.7809 28.7665C20.7047 28.7447 20.6612 28.674 20.6503 28.5542C20.6503 28.4998 20.6612 28.4453 20.6829 28.3909C20.7047 28.3365 20.7265 28.2875 20.7483 28.244C20.8027 28.1242 20.8571 28.0153 20.9115 27.9174C20.9769 27.8085 21.0422 27.7105 21.1075 27.6234C21.151 27.569 21.1946 27.5146 21.2381 27.4601C21.2817 27.4057 21.3252 27.3513 21.3688 27.2969C21.4776 27.1771 21.6083 27.0628 21.7607 26.9539C21.7933 26.943 21.8314 26.9158 21.875 26.8723C21.9403 26.8287 21.9947 26.7906 22.0383 26.758C22.0927 26.7253 22.1526 26.6927 22.2179 26.66C22.4247 26.5403 22.637 26.4477 22.8547 26.3824C23.0833 26.3062 23.312 26.2354 23.5406 26.1701C23.6821 26.1375 23.8236 26.1157 23.9651 26.1048C24.1066 26.0939 24.2536 26.0722 24.406 26.0395C24.4496 26.0286 24.5149 26.0286 24.602 26.0395C24.6891 26.0504 24.7489 26.0449 24.7816 26.0232C25.2279 26.0123 25.647 26.0286 26.039 26.0722C26.4417 26.1157 26.7955 26.1973 27.1004 26.3171C27.4161 26.4368 27.6719 26.6001 27.8678 26.807C28.0747 27.0029 28.2108 27.2587 28.2761 27.5744C28.3087 27.7595 28.3087 27.9718 28.2761 28.2113C28.2434 28.4508 28.1999 28.6957 28.1454 28.9461L27.4106 32.5876C27.378 32.7944 27.3399 33.0067 27.2963 33.2244C27.2528 33.4312 27.2364 33.6217 27.2473 33.7959C27.2473 33.8286 27.2419 33.8667 27.231 33.9102C27.231 33.9429 27.231 33.9755 27.231 34.0082ZM25.3368 31.4935C25.3586 31.4391 25.3749 31.3792 25.3858 31.3139C25.3967 31.2377 25.4021 31.1723 25.4021 31.1179C25.4021 31.0526 25.4076 30.9927 25.4184 30.9383C25.4293 30.8839 25.413 30.8403 25.3695 30.8077C25.3259 30.7641 25.2497 30.7423 25.1408 30.7423C25.0973 30.7532 25.0592 30.7641 25.0265 30.775C24.9939 30.775 24.9503 30.7804 24.8959 30.7913C24.8197 30.8131 24.738 30.8294 24.651 30.8403C24.5639 30.8512 24.4713 30.8675 24.3734 30.8893C24.3407 30.9002 24.2917 30.9056 24.2264 30.9056C24.074 30.9383 23.927 30.9601 23.7855 30.9709C23.644 30.9818 23.5025 31.0091 23.3609 31.0526C23.2739 31.0744 23.1868 31.0961 23.0997 31.1179C23.0235 31.1288 22.9473 31.1506 22.8711 31.1832C22.6207 31.2812 22.3975 31.4282 22.2016 31.6241C22.0056 31.8201 21.8913 32.0922 21.8586 32.4406C21.8478 32.6257 21.8804 32.7781 21.9566 32.8978C22.0002 33.0176 22.0927 33.1155 22.2342 33.1917C22.3757 33.2571 22.5336 33.306 22.7078 33.3387C22.8819 33.3714 23.067 33.3822 23.263 33.3714C23.4698 33.3496 23.6658 33.3115 23.8508 33.2571C24.1556 33.17 24.406 33.0339 24.602 32.8488C24.8088 32.6529 24.983 32.4134 25.1245 32.1303C25.1572 32.0541 25.1844 31.9779 25.2062 31.9017C25.2279 31.8146 25.2606 31.7275 25.3041 31.6405L25.3368 31.4935Z" fill="black"/>
<path d="M46.1689 30.3666C46.1689 30.4537 46.1472 30.5517 46.1036 30.6605C46.0601 30.7694 46.0056 30.8401 45.9403 30.8728C45.8859 30.9163 45.8042 30.949 45.6954 30.9708C45.5865 30.9817 45.4668 30.9925 45.3361 31.0034C45.2164 31.0034 45.0912 31.0034 44.9606 31.0034C44.8408 30.9925 44.7319 30.9871 44.634 30.9871H40.6496C40.5734 30.9871 40.4972 30.9871 40.421 30.9871C40.3557 30.9871 40.2958 30.998 40.2414 31.0198C40.1434 31.0633 40.0781 31.1069 40.0454 31.1504C40.0237 31.1722 39.991 31.2157 39.9475 31.281C39.9148 31.3355 39.8985 31.3899 39.8985 31.4443C39.9094 31.5096 39.9094 31.575 39.8985 31.6403C39.8985 31.6947 39.9039 31.7546 39.9148 31.8199C39.9475 32.0812 40.0073 32.2989 40.0944 32.4731C40.1924 32.6364 40.3339 32.7833 40.519 32.914C40.5952 32.9684 40.6768 33.0065 40.7639 33.0283C40.8619 33.0392 40.9544 33.0609 41.0415 33.0936C41.1286 33.1154 41.2429 33.1317 41.3844 33.1426C41.5368 33.1535 41.6729 33.148 41.7927 33.1262H41.9396C42.0485 33.1045 42.1519 33.0827 42.2499 33.0609C42.3479 33.0283 42.4458 32.9956 42.5438 32.963C42.6636 32.9085 42.7996 32.8378 42.9521 32.7507C43.1045 32.6636 43.2242 32.5765 43.3113 32.4894C43.3766 32.4132 43.4474 32.3424 43.5236 32.2771C43.5998 32.2009 43.6814 32.1465 43.7685 32.1138C43.8883 32.0594 44.0298 32.0376 44.1931 32.0485C44.3673 32.0485 44.5251 32.0485 44.6666 32.0485C44.7319 32.0485 44.7973 32.0485 44.8626 32.0485C44.9388 32.0376 45.0041 32.0431 45.0585 32.0648H45.2218C45.3198 32.0866 45.3906 32.1138 45.4341 32.1465C45.4668 32.1683 45.4777 32.2172 45.4668 32.2934C45.4668 32.3697 45.4504 32.435 45.4178 32.4894C45.3307 32.6418 45.2382 32.7779 45.1402 32.8976C45.0531 33.0174 44.9551 33.1371 44.8463 33.2569C44.5414 33.6161 44.2148 33.9046 43.8665 34.1223C43.5181 34.3401 43.099 34.5251 42.6091 34.6775C42.4785 34.7211 42.3533 34.7483 42.2336 34.7592C42.1138 34.7701 41.9832 34.7918 41.8417 34.8245C41.7981 34.8354 41.7491 34.8354 41.6947 34.8245C41.6511 34.8245 41.6076 34.8299 41.5641 34.8408H41.3844C41.3191 34.8626 41.2538 34.868 41.1885 34.8572C41.1232 34.8572 41.0633 34.8517 41.0089 34.8408C40.9218 34.8299 40.8456 34.8299 40.7802 34.8408C40.7149 34.8517 40.6442 34.8463 40.568 34.8245C40.5135 34.8027 40.4537 34.7918 40.3883 34.7918C40.323 34.7918 40.2686 34.7809 40.2251 34.7592C40.1053 34.7374 39.9856 34.7102 39.8658 34.6775C39.7569 34.6558 39.659 34.6177 39.5719 34.5632C39.463 34.5197 39.3596 34.4816 39.2616 34.4489C39.1636 34.4054 39.0766 34.3564 39.0004 34.302C38.6955 34.0842 38.4343 33.8338 38.2165 33.5508C38.0097 33.2569 37.8573 32.9194 37.7593 32.5384C37.7267 32.4186 37.7049 32.2989 37.694 32.1791C37.694 32.0485 37.6777 31.9179 37.645 31.7872C37.645 31.7437 37.645 31.7056 37.645 31.6729C37.6559 31.6294 37.6613 31.5858 37.6613 31.5423C37.6505 31.4117 37.6505 31.2701 37.6613 31.1177C37.6831 30.9653 37.7049 30.8129 37.7267 30.6605C37.7376 30.6061 37.743 30.5462 37.743 30.4809C37.7539 30.4156 37.7702 30.3557 37.792 30.3013L37.841 30.1053L37.9716 29.7134C38.0478 29.5284 38.1186 29.3487 38.1839 29.1745C38.2492 29.0004 38.3308 28.8371 38.4288 28.6847C39.1255 27.5525 40.0835 26.7524 41.3028 26.2843C41.4661 26.2189 41.6294 26.1754 41.7927 26.1536C41.956 26.121 42.1301 26.0829 42.3152 26.0393C42.4023 26.0284 42.4839 26.023 42.5601 26.023C42.6363 26.023 42.718 26.0175 42.8051 26.0067C43.3603 25.9958 43.8229 26.0611 44.1931 26.2026C44.5632 26.3332 44.8844 26.5074 45.1565 26.7251C45.2436 26.7905 45.3252 26.8667 45.4014 26.9538C45.4885 27.03 45.5593 27.1116 45.6137 27.1987C45.6355 27.2531 45.6736 27.2967 45.728 27.3293C45.7934 27.4491 45.8478 27.5743 45.8913 27.7049C45.9458 27.8247 46.0056 27.9498 46.071 28.0805C46.1036 28.1785 46.1254 28.2819 46.1363 28.3907C46.158 28.4887 46.1798 28.5976 46.2016 28.7173C46.2234 28.8588 46.2342 29.0058 46.2342 29.1582C46.2451 29.3106 46.256 29.463 46.2669 29.6154C46.2669 29.7025 46.2506 29.8005 46.2179 29.9094C46.1961 30.0073 46.1907 30.0999 46.2016 30.187L46.1689 30.3666ZM43.8991 29.4032C43.9971 29.2943 44.0298 29.1637 43.9971 29.0113C43.9754 28.848 43.959 28.7282 43.9481 28.652C43.8502 28.3581 43.6923 28.1349 43.4746 27.9825C43.2569 27.8192 42.9248 27.7321 42.4785 27.7212C42.4458 27.743 42.4077 27.7485 42.3642 27.7376C42.3206 27.7267 42.2825 27.7267 42.2499 27.7376C42.1846 27.7593 42.1193 27.7757 42.0539 27.7866C41.9886 27.7866 41.9287 27.7974 41.8743 27.8192C41.3627 27.9716 40.949 28.271 40.6333 28.7173C40.6006 28.7609 40.5625 28.8207 40.519 28.897C40.4754 28.9623 40.4428 29.033 40.421 29.1092C40.3992 29.1745 40.3883 29.2399 40.3883 29.3052C40.3883 29.3705 40.4156 29.4249 40.47 29.4685C40.5462 29.5229 40.6605 29.5501 40.8129 29.5501C40.9653 29.5501 41.1123 29.5501 41.2538 29.5501H43.0664C43.2188 29.5501 43.3766 29.5501 43.5399 29.5501C43.7141 29.5392 43.8338 29.4902 43.8991 29.4032Z" fill="black"/>
<path d="M53.2105 26.023C53.8637 26.0012 54.3862 26.0938 54.7781 26.3006C55.1809 26.5074 55.4639 26.8123 55.6272 27.215C55.6817 27.3348 55.7143 27.4654 55.7252 27.607C55.747 27.7376 55.7633 27.8737 55.7742 28.0152C55.7851 28.1023 55.7851 28.1839 55.7742 28.2601C55.7633 28.3363 55.7633 28.4125 55.7742 28.4887C55.7524 28.5541 55.747 28.5976 55.7579 28.6194C55.747 28.7718 55.7252 28.9296 55.6925 29.0929C55.6599 29.2562 55.6272 29.4141 55.5946 29.5665L55.317 31.0198L54.7781 33.6651C54.7346 33.872 54.691 34.0734 54.6475 34.2693C54.6039 34.4544 54.5005 34.5741 54.3372 34.6286C54.2719 34.6503 54.1957 34.6612 54.1086 34.6612C54.0215 34.6612 53.9344 34.6612 53.8473 34.6612H52.9655C52.8349 34.6612 52.7206 34.6558 52.6226 34.6449C52.5247 34.6231 52.4539 34.5741 52.4103 34.4979C52.3777 34.4326 52.3668 34.351 52.3777 34.253C52.3995 34.1441 52.4212 34.0298 52.443 33.9101L52.6716 32.767L53.1615 30.3339C53.2377 29.9312 53.2921 29.561 53.3248 29.2236C53.3683 28.8752 53.3302 28.5813 53.2105 28.3418C53.1016 28.124 52.9111 27.9716 52.639 27.8846C52.5845 27.8628 52.5247 27.8519 52.4593 27.8519C52.4049 27.8519 52.3505 27.841 52.296 27.8192C52.2416 27.8083 52.1709 27.8083 52.0838 27.8192C52.0076 27.8192 51.9477 27.8247 51.9041 27.8356C51.8497 27.8464 51.8062 27.8519 51.7735 27.8519C51.7408 27.8519 51.7082 27.8573 51.6755 27.8682C51.4143 27.9335 51.1965 28.0206 51.0224 28.1295C50.6196 28.3799 50.3365 28.7446 50.1732 29.2236C50.0208 29.7025 49.8847 30.2414 49.765 30.8402L49.3568 32.8813L49.1608 33.8774C49.139 33.9754 49.1173 34.0734 49.0955 34.1713C49.0737 34.2693 49.0411 34.351 48.9975 34.4163C48.9213 34.536 48.8179 34.6068 48.6873 34.6286C48.5675 34.6503 48.4206 34.6612 48.2464 34.6612H47.4299C47.3102 34.6612 47.1904 34.6558 47.0707 34.6449C46.9509 34.634 46.8747 34.5959 46.842 34.5306C46.7767 34.4326 46.7658 34.2911 46.8094 34.106C46.8529 33.921 46.891 33.7468 46.9237 33.5835L47.3646 31.3627L48.0831 27.7702L48.2627 26.9374C48.2845 26.8177 48.3062 26.7088 48.328 26.6109C48.3498 26.5129 48.3988 26.4312 48.475 26.3659C48.4968 26.3333 48.5349 26.3115 48.5893 26.3006C48.6437 26.2788 48.6981 26.2625 48.7526 26.2516H48.8342C48.8887 26.2407 48.9431 26.2353 48.9975 26.2353C49.0628 26.2353 49.1227 26.2353 49.1771 26.2353H49.863C49.9501 26.2353 50.0317 26.2407 50.1079 26.2516C50.195 26.2516 50.2712 26.2625 50.3365 26.2843C50.4018 26.3169 50.4399 26.3659 50.4508 26.4312C50.4726 26.4966 50.4835 26.5728 50.4835 26.6599C50.4835 26.7034 50.478 26.7415 50.4672 26.7742C50.4563 26.8068 50.4563 26.8395 50.4672 26.8721C50.478 26.9266 50.4889 26.9592 50.4998 26.9701C50.5216 26.981 50.5488 26.9973 50.5815 27.0191C50.6903 27.03 50.7937 26.9919 50.8917 26.9048C50.9897 26.8068 51.0877 26.7306 51.1856 26.6762C51.5231 26.4585 51.8824 26.2843 52.2634 26.1536C52.3722 26.121 52.4757 26.0992 52.5736 26.0883C52.6825 26.0774 52.8023 26.0611 52.9329 26.0393C52.9655 26.0285 53.0145 26.0285 53.0799 26.0393C53.1452 26.0393 53.1887 26.0339 53.2105 26.023Z" fill="black"/>
<path d="M57.2538 26.0103C57.2647 26.019 57.2702 26.0375 57.2702 26.0658C57.2702 26.0941 57.2647 26.1202 57.2538 26.1442L57.2506 26.1703C57.2419 26.1899 57.2321 26.2062 57.2212 26.2193C57.2125 26.2302 57.1983 26.2389 57.1787 26.2454C57.1591 26.2498 57.1319 26.2519 57.0971 26.2519C57.0622 26.2498 57.0329 26.2487 57.0089 26.2487H56.9599C56.949 26.253 56.9392 26.2541 56.9305 26.2519C56.9218 26.2498 56.9131 26.2509 56.9044 26.2552C56.8804 26.2639 56.8598 26.2846 56.8423 26.3173C56.8358 26.3281 56.8315 26.3412 56.8293 26.3565C56.8271 26.3717 56.8249 26.3869 56.8228 26.4022L56.666 27.1729C56.6638 27.1838 56.6627 27.1936 56.6627 27.2023C56.6627 27.211 56.6605 27.2197 56.6562 27.2284L56.6497 27.2546C56.6475 27.2611 56.6453 27.2676 56.6431 27.2742C56.6431 27.2807 56.6399 27.2861 56.6333 27.2905C56.6246 27.3079 56.6105 27.3199 56.5909 27.3264C56.58 27.3308 56.5669 27.3329 56.5517 27.3329C56.5386 27.3329 56.5234 27.3329 56.506 27.3329C56.4755 27.3329 56.4417 27.3329 56.4047 27.3329C56.3677 27.3329 56.3427 27.3242 56.3296 27.3068C56.3231 27.2938 56.3209 27.2785 56.3231 27.2611C56.3274 27.2437 56.3318 27.2241 56.3361 27.2023L56.4896 26.4316C56.4918 26.4207 56.494 26.4098 56.4962 26.3989C56.5005 26.388 56.5016 26.3782 56.4994 26.3695L56.506 26.3238C56.5081 26.289 56.4973 26.2672 56.4733 26.2585C56.4537 26.2476 56.4243 26.2432 56.3851 26.2454C56.3481 26.2476 56.3155 26.2487 56.2872 26.2487C56.2763 26.2487 56.2654 26.2498 56.2545 26.2519C56.2458 26.2519 56.2382 26.2509 56.2316 26.2487C56.2229 26.2443 56.2153 26.2432 56.2088 26.2454C56.2022 26.2454 56.1957 26.2443 56.1892 26.2421C56.1674 26.2313 56.1576 26.2138 56.1598 26.1899C56.162 26.1659 56.1663 26.1376 56.1728 26.105C56.175 26.0919 56.1772 26.0799 56.1794 26.0691C56.1837 26.0582 56.1892 26.0473 56.1957 26.0364C56.2022 26.0255 56.2109 26.0179 56.2218 26.0135C56.2327 26.007 56.2436 26.0016 56.2545 25.9972C56.261 25.995 56.2654 25.995 56.2676 25.9972C56.2719 25.9972 56.2774 25.9961 56.2839 25.9939H57.1559C57.1755 25.9939 57.194 25.995 57.2114 25.9972C57.2288 25.9972 57.243 26.0016 57.2538 26.0103ZM58.9913 26.0168C59 26.032 59.0022 26.0495 58.9978 26.0691C58.9956 26.0887 58.9924 26.1104 58.988 26.1344L58.7757 27.1958C58.7714 27.2197 58.7659 27.2415 58.7594 27.2611C58.7551 27.2785 58.7474 27.2938 58.7365 27.3068C58.7213 27.3242 58.6974 27.3329 58.6647 27.3329C58.6342 27.3329 58.6037 27.3329 58.5733 27.3329C58.5602 27.3329 58.546 27.334 58.5308 27.3362C58.5177 27.3362 58.5069 27.334 58.4981 27.3297C58.4785 27.3231 58.4666 27.3134 58.4622 27.3003C58.46 27.2872 58.4589 27.2709 58.4589 27.2513L58.4687 27.1958C58.4687 27.1892 58.4698 27.1816 58.472 27.1729C58.4742 27.162 58.4764 27.1522 58.4785 27.1435L58.5635 26.7288C58.5678 26.7026 58.5722 26.6765 58.5765 26.6504C58.5831 26.6243 58.5863 26.6003 58.5863 26.5785C58.5841 26.5676 58.5831 26.5589 58.5831 26.5524C58.5831 26.5437 58.5798 26.5372 58.5733 26.5328C58.5711 26.5306 58.5678 26.5295 58.5635 26.5295C58.5569 26.5339 58.5493 26.5383 58.5406 26.5426C58.5188 26.5687 58.4992 26.5981 58.4818 26.6308C58.4644 26.6634 58.4459 26.695 58.4263 26.7255C58.3871 26.793 58.349 26.8616 58.312 26.9312C58.275 26.9987 58.2369 27.0651 58.1977 27.1305C58.1803 27.1609 58.1618 27.1958 58.1422 27.235C58.1226 27.272 58.0997 27.2992 58.0736 27.3166C58.0605 27.3253 58.0453 27.3308 58.0279 27.3329C58.0104 27.3329 57.9919 27.3329 57.9723 27.3329H57.9233C57.9125 27.3286 57.9027 27.3253 57.894 27.3231C57.8852 27.3188 57.8776 27.3134 57.8711 27.3068C57.8646 27.3003 57.8602 27.2916 57.858 27.2807C57.8559 27.2698 57.8537 27.2589 57.8515 27.248C57.845 27.2284 57.8406 27.2088 57.8384 27.1892C57.8363 27.1675 57.833 27.1457 57.8286 27.1239C57.8156 27.0608 57.8047 26.9966 57.796 26.9312C57.7873 26.8638 57.7764 26.7984 57.7633 26.7353C57.7568 26.6983 57.7503 26.6613 57.7437 26.6243C57.7394 26.5872 57.7274 26.5557 57.7078 26.5295C57.7034 26.5295 57.7002 26.5306 57.698 26.5328C57.6958 26.5328 57.6937 26.5328 57.6915 26.5328C57.6806 26.5415 57.673 26.5513 57.6686 26.5622C57.6621 26.5731 57.6577 26.584 57.6555 26.5949C57.6555 26.6036 57.6534 26.6134 57.649 26.6243L57.6392 26.6798C57.6349 26.6885 57.6316 26.6972 57.6294 26.7059C57.6272 26.7146 57.6262 26.7222 57.6262 26.7288L57.5478 27.1076C57.5434 27.1359 57.5369 27.1707 57.5282 27.2121C57.5216 27.2513 57.5119 27.2796 57.4988 27.297C57.4923 27.3014 57.4857 27.3068 57.4792 27.3134C57.4748 27.3177 57.4694 27.321 57.4629 27.3231C57.452 27.3275 57.4389 27.3308 57.4237 27.3329C57.4106 27.3329 57.3954 27.3329 57.3779 27.3329C57.3496 27.3329 57.3213 27.3329 57.293 27.3329C57.2647 27.3329 57.243 27.3264 57.2277 27.3134C57.2168 27.3046 57.2114 27.2905 57.2114 27.2709C57.2136 27.2513 57.2168 27.2295 57.2212 27.2056L57.4367 26.1278C57.4411 26.1082 57.4454 26.0897 57.4498 26.0723C57.4563 26.0527 57.464 26.0375 57.4727 26.0266C57.4835 26.0114 57.501 26.0016 57.5249 25.9972C57.5314 25.995 57.5358 25.995 57.538 25.9972C57.5423 25.9972 57.5478 25.9961 57.5543 25.9939H57.7699C57.7938 25.9939 57.8167 25.9939 57.8384 25.9939C57.8602 25.9939 57.8765 25.9994 57.8874 26.0103C57.9048 26.0233 57.9146 26.044 57.9168 26.0723C57.9212 26.1006 57.9266 26.1268 57.9331 26.1507C57.944 26.2117 57.9549 26.2737 57.9658 26.3369C57.9767 26.3978 57.9876 26.4599 57.9985 26.523C58.0072 26.5557 58.0137 26.5894 58.0181 26.6243C58.0246 26.6591 58.0311 26.6928 58.0377 26.7255C58.042 26.7386 58.0453 26.7527 58.0475 26.768C58.0518 26.781 58.0605 26.7897 58.0736 26.7941C58.0845 26.7984 58.0943 26.7963 58.103 26.7875C58.1139 26.7788 58.1215 26.7712 58.1258 26.7647C58.1476 26.7407 58.165 26.7157 58.1781 26.6896C58.1933 26.6613 58.2086 26.6341 58.2238 26.6079C58.2695 26.5361 58.312 26.4631 58.3512 26.3891C58.3925 26.3129 58.4361 26.2389 58.4818 26.167C58.4992 26.1366 58.5166 26.105 58.5341 26.0723C58.5537 26.0375 58.5798 26.0135 58.6124 26.0005C58.6277 25.9961 58.6429 25.9939 58.6582 25.9939C58.6756 25.9939 58.693 25.9939 58.7104 25.9939H58.8541C58.8672 25.9939 58.8802 25.9939 58.8933 25.9939C58.9064 25.9918 58.9183 25.9918 58.9292 25.9939H58.9456C58.9543 25.9983 58.963 26.0016 58.9717 26.0037C58.9826 26.0059 58.9891 26.0103 58.9913 26.0168Z" fill="black"/>
<path d="M37.3127 26.0348C37.1088 26.0654 36.7637 26.2162 36.3511 26.4602L36.6874 27.0746C36.9555 26.8765 37.2292 26.7087 37.5011 26.5761C37.5209 26.5657 37.5333 26.5603 37.5333 26.5603C37.5233 26.5664 37.5111 26.57 37.5011 26.5761C37.4121 26.6201 37.1442 26.7682 36.7343 27.0989C37.1076 27.1925 37.6823 27.3013 38.1529 27.3765C38.3231 26.8387 38.0618 26.4947 38.0618 26.4947C38.0618 26.4947 37.7327 25.9719 37.3127 26.0348Z" fill="url(#paint0_linear)"/>
<path d="M35.5003 31.0014C35.4558 30.9997 35.4114 30.9963 35.367 30.9929C35.3892 30.9954 35.4136 30.9967 35.4358 30.9976C35.458 31.0001 35.4802 31.001 35.5003 31.0014Z" fill="#BE202E"/>
<path opacity="0.35" d="M35.5003 31.0014C35.4558 30.9997 35.4114 30.9963 35.367 30.9929C35.3892 30.9954 35.4136 30.9967 35.4358 30.9976C35.458 31.0001 35.4802 31.001 35.5003 31.0014Z" fill="#BE202E"/>
<path d="M35.6934 30.4599C35.6912 30.4594 35.6912 30.4594 35.6934 30.4599C35.7001 30.4611 35.7068 30.4607 35.7134 30.4619C35.7422 30.4641 35.7711 30.4662 35.7978 30.4663C35.7645 30.465 35.729 30.4616 35.6934 30.4599Z" fill="#BE202E"/>
<path opacity="0.35" d="M35.6934 30.4599C35.6912 30.4594 35.6912 30.4594 35.6934 30.4599C35.7001 30.4611 35.7068 30.4607 35.7134 30.4619C35.7422 30.4641 35.7711 30.4662 35.7978 30.4663C35.7645 30.465 35.729 30.4616 35.6934 30.4599Z" fill="#BE202E"/>
<path d="M35.5047 28.6433C35.6321 28.5144 35.7593 28.3892 35.8863 28.2679C36.0186 28.1424 36.1532 28.0234 36.2902 27.9089C36.2982 27.9017 36.3063 27.8945 36.3143 27.8893C36.4485 27.7778 36.5824 27.672 36.7185 27.5727L36.3604 26.9098C36.3312 26.9279 36.2995 26.9452 36.2676 26.9645C36.151 27.035 36.0289 27.1116 35.9038 27.1951C35.7629 27.2891 35.6189 27.3899 35.4696 27.4967C35.3334 27.596 35.1944 27.7022 35.0551 27.8121C34.9372 27.9073 34.8191 28.0044 34.7009 28.1053C34.6956 28.1094 34.6928 28.1125 34.6875 28.1166L35.1515 29.0138C35.2709 28.8902 35.3878 28.7658 35.5047 28.6433Z" fill="url(#paint1_linear)"/>
<path d="M32.6611 33.2547C32.5925 33.3644 32.5213 33.4769 32.4523 33.5937C32.4522 33.5955 32.4497 33.5966 32.4496 33.5983C32.4391 33.6151 32.4286 33.63 32.4205 33.6475C32.3729 33.7254 32.3329 33.7966 32.2375 33.9561C32.3755 34.0449 32.481 34.2016 32.5784 34.374C32.5741 34.2234 32.5004 34.0614 32.3511 33.91C33.0383 34.1334 33.6406 34.1772 33.9651 33.8899C33.9931 33.8638 34.0211 33.836 34.0469 33.8057C33.8995 33.896 33.725 33.9029 33.3994 33.7937L33.3971 33.793L33.3994 33.7937C33.8866 33.7734 34.1352 33.6891 34.3605 33.4972C34.4136 33.4515 34.4671 33.4004 34.5209 33.3422C34.0849 33.5412 33.5943 33.4903 33.0858 33.2721L32.7006 33.1924C32.6874 33.2138 32.6743 33.2334 32.6611 33.2547Z" fill="url(#paint2_linear)"/>
<path d="M33.1357 32.2611C33.2379 32.1126 33.3428 31.963 33.4478 31.8114C33.5498 31.6669 33.6544 31.5231 33.7617 31.3782C33.8691 31.2333 33.9791 31.0892 34.0891 30.9451C34.202 30.7979 34.3174 30.6534 34.4355 30.5097C34.5508 30.3671 34.6714 30.2262 34.7893 30.0864C34.8324 30.0357 34.8754 29.9869 34.9211 29.9369C34.9957 29.8518 35.0729 29.7675 35.1501 29.6832C35.1531 29.6781 35.1587 29.6738 35.1616 29.6687L34.68 28.7452C34.6716 28.7526 34.663 28.762 34.6519 28.7686C34.522 28.8809 34.3894 28.9944 34.2618 29.1134C34.1315 29.2336 34.0038 29.3565 33.8785 29.4841C33.7731 29.5918 33.6704 29.7003 33.5675 29.8108C33.5475 29.8326 33.5274 29.8565 33.5074 29.8783C33.3841 30.0185 33.269 30.1571 33.1676 30.2918C33.0517 30.4442 32.9496 30.5926 32.8585 30.7344C32.7997 30.8282 32.7437 30.9189 32.6932 31.0072C32.6515 31.0822 32.6124 31.16 32.5733 31.2359C32.4829 31.4157 32.4058 31.5995 32.3394 31.7864L32.8286 32.7182C32.9049 32.5998 32.9865 32.483 33.0657 32.3615C33.089 32.3286 33.1123 32.2958 33.1357 32.2611Z" fill="url(#paint3_linear)"/>
<path d="M32.2763 32.4278C32.191 32.6621 32.1256 32.9021 32.0859 33.1493C32.0855 33.1574 32.0821 33.1667 32.0816 33.1748C31.916 32.9228 31.448 32.5893 31.4507 32.5921C31.7734 33.0404 32.0137 33.4612 32.0319 33.813C31.848 33.7876 31.5992 33.6782 31.3154 33.522C31.6068 33.8034 31.829 33.9217 31.9166 33.9609C31.6394 33.8947 31.344 33.9486 31.0446 34.0218C31.4762 34.0188 31.8238 34.0679 32.0668 34.1777C31.6331 34.8488 31.1948 35.6027 30.7536 36.4091C30.8746 36.4187 30.9492 36.3803 30.9933 36.3149C31.0709 36.1686 31.5958 35.2095 32.399 33.9825C32.4212 33.9477 32.4462 33.9138 32.4685 33.877C32.4749 33.8665 32.4811 33.8581 32.4875 33.8475C32.5727 33.7199 32.661 33.589 32.7524 33.4548C32.7744 33.4241 32.7934 33.3946 32.8153 33.3639L32.8154 33.3619L32.2893 32.4028C32.283 32.4113 32.2797 32.4185 32.2763 32.4278Z" fill="url(#paint4_linear)"/>
<path d="M34.9487 29.6417C34.9328 29.6594 34.9195 29.676 34.9036 29.6937C34.8583 29.7476 34.8106 29.8008 34.7653 29.8565C34.7148 29.9163 34.6641 29.9779 34.6109 30.0407C34.5843 30.0721 34.5577 30.1034 34.531 30.1366C34.4511 30.2345 34.3709 30.336 34.2881 30.4404C34.1865 30.5693 34.0847 30.7036 33.98 30.8446C33.8807 30.9779 33.7785 31.1178 33.6762 31.2614C33.5792 31.399 33.4795 31.5397 33.3794 31.6877C33.2903 31.8184 33.2008 31.9546 33.1087 32.0937C33.1034 32.0997 33.1004 32.1081 33.0951 32.114C33.0056 32.2521 32.9133 32.395 32.8208 32.5415C32.8181 32.5445 32.8155 32.5474 32.8153 32.5511L33.2127 32.6368C33.2054 32.6327 33.198 32.6305 33.1883 32.6257C33.6649 32.724 34.3079 32.6473 34.7305 32.4406C34.9252 32.3454 35.104 32.2192 35.2722 32.0579C35.3982 31.9383 35.5153 31.7991 35.631 31.6389C35.7305 31.5001 35.8284 31.3459 35.9222 31.1753C35.8118 31.1853 35.6849 31.179 35.5461 31.1598C35.5213 31.1561 35.4966 31.1524 35.4718 31.1487C35.447 31.145 35.4223 31.1394 35.3951 31.135C35.8441 31.1406 36.1346 30.9786 36.3519 30.7364C36.2333 30.7608 36.0401 30.7814 35.8119 30.7522C35.7822 30.7489 35.75 30.743 35.7179 30.7371C35.7105 30.7349 35.703 30.7345 35.6932 30.7315C35.8481 30.7294 35.9811 30.715 36.0975 30.6843C36.1228 30.6788 36.1457 30.6707 36.1686 30.6626C36.2041 30.6508 36.2373 30.6364 36.2705 30.622C36.291 30.6113 36.3115 30.6024 36.332 30.5917C36.3783 30.5663 36.4222 30.5364 36.4615 30.5013C36.4746 30.4902 36.4875 30.481 36.4981 30.4692C36.514 30.4515 36.5298 30.4356 36.5432 30.419C36.6094 30.3452 36.6629 30.2769 36.7061 30.2149C36.7277 30.1839 36.7466 30.1558 36.763 30.1289C36.7686 30.1174 36.7765 30.1086 36.7821 30.0971C36.7987 30.0665 36.815 30.0395 36.8263 30.0148C36.8432 29.9786 36.8547 29.9483 36.8609 29.9258C36.8457 29.9306 36.828 29.9347 36.8079 29.9362C36.6722 29.9553 36.4407 29.942 36.255 29.9125C36.2526 29.9117 36.2501 29.911 36.2476 29.9121C36.2303 29.9088 36.2105 29.9047 36.1907 29.9025C36.1932 29.9014 36.1981 29.9028 36.2007 29.9017L34.9518 29.6295C34.9539 29.6376 34.9513 29.6406 34.9487 29.6417Z" fill="url(#paint5_linear)"/>
<path d="M36.5896 27.506C36.4761 27.5971 36.3523 27.7031 36.218 27.8223C36.2104 27.829 36.2029 27.834 36.1977 27.8415C36.0811 27.946 35.9592 28.0616 35.8292 28.191C35.7171 28.3022 35.5998 28.4209 35.477 28.5523C35.3697 28.6649 35.2619 28.7864 35.1465 28.9146L36.3554 29.1668C36.7114 29.148 36.874 29.0856 37.0345 28.9723C37.0772 28.9416 37.12 28.9073 37.163 28.8712C37.2942 28.7638 37.4238 28.6414 37.539 28.515C37.6517 28.3931 37.7523 28.2696 37.8284 28.1551C37.8781 28.0815 37.918 28.0122 37.9478 27.949C37.9725 27.8933 37.9922 27.8397 38.0094 27.7872C37.5401 27.7102 36.9638 27.6003 36.5896 27.506Z" fill="url(#paint6_linear)"/>
<path d="M35.4355 31.0022C35.4133 31.0014 35.3911 30.999 35.3667 30.9977C35.3889 30.9985 35.4112 30.9994 35.4355 31.0022Z" fill="#BE202E"/>
<path opacity="0.35" d="M35.4355 31.0022C35.4133 31.0014 35.3911 30.999 35.3667 30.9977C35.3889 30.9985 35.4112 30.9994 35.4355 31.0022Z" fill="#BE202E"/>
<path d="M35.4355 31.0022C35.4133 31.0014 35.3911 30.999 35.3667 30.9977C35.3889 30.9985 35.4112 30.9994 35.4355 31.0022Z" fill="url(#paint7_linear)"/>
<path d="M35.6912 30.4632C35.6978 30.4643 35.7044 30.4636 35.7132 30.465C35.7066 30.4639 35.7 30.4646 35.6912 30.4632Z" fill="#BE202E"/>
<path opacity="0.35" d="M35.6912 30.4632C35.6978 30.4643 35.7044 30.4636 35.7132 30.465C35.7066 30.4639 35.7 30.4646 35.6912 30.4632Z" fill="#BE202E"/>
<path d="M35.6912 30.4632C35.6978 30.4643 35.7044 30.4636 35.7132 30.465C35.7066 30.4639 35.7 30.4646 35.6912 30.4632Z" fill="url(#paint8_linear)"/>
<path d="M30.228 24.7945C30.4205 24.9601 30.7281 25.332 31.0843 25.8358L30.6453 26.1788C30.4211 25.8148 30.1859 25.4751 29.946 25.1693C29.9287 25.1464 29.9177 25.1331 29.9177 25.1331C29.9262 25.1454 29.9375 25.157 29.946 25.1693C30.0244 25.27 30.2576 25.5875 30.5953 26.1698C30.2156 26.0053 29.6374 25.7195 29.1666 25.4725C29.0995 24.8596 29.4163 24.7167 29.4163 24.7167C29.4163 24.7167 29.8315 24.4536 30.228 24.7945Z" fill="url(#paint9_linear)"/>
<path d="M30.0132 30.0786C30.0559 30.0983 30.0987 30.1165 30.1416 30.1347C30.1201 30.1263 30.0966 30.1158 30.0752 30.106C30.0537 30.0976 30.0324 30.0878 30.0132 30.0786Z" fill="#BE202E"/>
<path opacity="0.35" d="M30.0132 30.0786C30.0559 30.0983 30.0987 30.1165 30.1416 30.1347C30.1201 30.1263 30.0966 30.1158 30.0752 30.106C30.0537 30.0976 30.0324 30.0878 30.0132 30.0786Z" fill="#BE202E"/>
<path d="M30.0575 29.5141C30.0597 29.5148 30.0597 29.5148 30.0575 29.5141C30.051 29.512 30.0447 29.5085 30.0381 29.5064C30.0103 29.4945 29.9824 29.4826 29.9569 29.4699C29.989 29.4846 30.0233 29.4986 30.0575 29.5141Z" fill="#BE202E"/>
<path opacity="0.35" d="M30.0575 29.5141C30.0597 29.5148 30.0597 29.5148 30.0575 29.5141C30.051 29.512 30.0447 29.5085 30.0381 29.5064C30.0103 29.4945 29.9824 29.4826 29.9569 29.4699C29.989 29.4846 30.0233 29.4986 30.0575 29.5141Z" fill="#BE202E"/>
<path d="M31.1281 27.9889C31.0256 27.7806 30.9226 27.5759 30.819 27.3749C30.7109 27.1663 30.5994 26.9621 30.4848 26.7605C30.4781 26.7482 30.4714 26.7359 30.4645 26.7255C30.352 26.5286 30.2387 26.3372 30.122 26.1502L30.601 25.7854C30.6266 25.8226 30.6548 25.8608 30.6828 25.9008C30.7855 26.0476 30.8925 26.2037 31.0012 26.3682C31.1237 26.5536 31.2478 26.7474 31.3762 26.9506C31.4929 27.1376 31.6113 27.3329 31.7291 27.5319C31.8285 27.7024 31.9276 27.8747 32.0263 28.0507C32.0308 28.0582 32.0329 28.0629 32.0375 28.0705L31.4098 28.5786C31.3143 28.3807 31.2213 28.1839 31.1281 27.9889Z" fill="url(#paint10_linear)"/>
<path d="M31.6239 33.4784C31.6706 33.6264 31.7193 33.7788 31.7651 33.9337C31.7648 33.9354 31.767 33.938 31.7668 33.9397C31.774 33.9624 31.7814 33.9833 31.7862 34.005C31.8183 34.1095 31.8442 34.2025 31.9078 34.4148C31.7573 34.4037 31.6261 34.4775 31.4998 34.5714C31.5315 34.4346 31.6328 34.3345 31.8057 34.2951C31.0964 34.0372 30.5025 33.6704 30.2392 33.1847C30.2168 33.1416 30.1946 33.0968 30.1751 33.0513C30.302 33.2348 30.4704 33.3591 30.8071 33.4782L30.8096 33.4792L30.8071 33.4782C30.3369 33.1299 30.1105 32.8836 29.9264 32.5534C29.883 32.475 29.8404 32.3916 29.7987 32.3013C30.1864 32.7806 30.6731 33.0653 31.2076 33.2071L31.5969 33.3939C31.6058 33.4226 31.615 33.4496 31.6239 33.4784Z" fill="url(#paint11_linear)"/>
<path d="M32.0507 32.3847C31.9764 32.1767 31.8995 31.9656 31.8229 31.7527C31.748 31.5485 31.6703 31.3432 31.59 31.1348C31.5098 30.9265 31.4267 30.7171 31.3436 30.5077C31.2583 30.2934 31.1698 30.08 31.0786 29.8654C30.9899 29.6539 30.8955 29.4401 30.8037 29.2293C30.7701 29.1526 30.7362 29.0777 30.6997 28.9999C30.641 28.8697 30.5795 28.7383 30.518 28.607C30.516 28.6002 30.5111 28.5924 30.5091 28.5856L31.1703 28.0591C31.1774 28.0718 31.1843 28.0864 31.1942 28.1002C31.3033 28.2937 31.415 28.4902 31.5205 28.6883C31.6286 28.8894 31.7335 29.0913 31.8351 29.2959C31.9205 29.4683 32.0031 29.6397 32.0854 29.8129C32.1013 29.8469 32.117 29.8829 32.133 29.9169C32.2301 30.1317 32.3194 30.3395 32.3956 30.5344C32.483 30.7554 32.5573 30.9634 32.6218 31.1576C32.663 31.2852 32.702 31.4078 32.7359 31.5245C32.7634 31.6228 32.7879 31.722 32.8127 31.8192C32.8691 32.0482 32.9115 32.2719 32.9426 32.4911L32.2722 33.0201C32.2181 32.8578 32.1583 32.6932 32.1019 32.526C32.0848 32.4795 32.0676 32.433 32.0507 32.3847Z" fill="url(#paint12_linear)"/>
<path d="M31.9262 32.5391C31.9659 32.8129 31.9842 33.079 31.9748 33.335C31.9736 33.3428 31.9752 33.3537 31.974 33.3615C32.1936 33.2348 32.7379 33.2293 32.7346 33.2301C32.3153 33.4372 31.9855 33.6725 31.896 33.9882C32.0886 34.0844 32.3642 34.1447 32.6849 34.1842C32.3312 34.2564 32.0809 34.2217 31.9837 34.2011C32.2796 34.3201 32.5698 34.5628 32.8602 34.8261C32.4209 34.542 32.0566 34.3612 31.7869 34.3051C32.0936 35.2127 32.3883 36.2003 32.6754 37.2387C32.55 37.1688 32.4818 37.0845 32.45 36.9948C32.4004 36.8081 32.0589 35.5729 31.4877 33.9069C31.4721 33.8601 31.4534 33.8121 31.4381 33.7634C31.4337 33.7494 31.4291 33.7375 31.4247 33.7235C31.3636 33.5491 31.3 33.3697 31.2339 33.1852C31.2177 33.1423 31.2043 33.1025 31.1881 33.0596L31.1884 33.0576L31.9181 32.5074C31.9227 32.5193 31.9246 32.5283 31.9262 32.5391Z" fill="url(#paint13_linear)"/>
<path d="M30.7098 29.0116C30.7222 29.0391 30.7322 29.0637 30.7446 29.0911C30.7792 29.1725 30.8164 29.2548 30.8507 29.3379C30.8895 29.4284 30.928 29.5206 30.9688 29.6156C30.9892 29.6631 31.0096 29.7107 31.0297 29.76C31.0904 29.9061 31.1506 30.0557 31.2129 30.21C31.2892 30.3998 31.3647 30.5949 31.4418 30.7982C31.515 30.9905 31.5897 31.191 31.664 31.395C31.7342 31.5899 31.8064 31.7893 31.8776 31.9959C31.9414 32.1788 32.0044 32.3671 32.0694 32.5599C32.0735 32.5691 32.0749 32.579 32.079 32.5881C32.1417 32.7781 32.2063 32.9745 32.2704 33.1745C32.2724 33.179 32.2745 33.1836 32.274 33.1872L31.8672 32.9908C31.8751 32.9921 31.8828 32.9951 31.8933 32.9974C31.4062 32.7577 30.7877 32.2405 30.4099 31.7558C30.2359 31.5325 30.0831 31.2915 29.9473 31.0254C29.8453 30.8272 29.7557 30.617 29.6714 30.3883C29.5989 30.1907 29.5309 29.9798 29.47 29.7568C29.5768 29.8426 29.7029 29.9249 29.8429 30.0034C29.868 30.0171 29.893 30.0309 29.9181 30.0446C29.9431 30.0584 29.9684 30.0704 29.996 30.0852C29.5532 29.7788 29.2972 29.4271 29.1279 29.052C29.2401 29.1569 29.4265 29.3101 29.6563 29.4414C29.6862 29.459 29.7189 29.4758 29.7516 29.4926C29.7593 29.4957 29.7667 29.5005 29.7769 29.5046C29.6249 29.3951 29.4967 29.2895 29.3878 29.1803C29.364 29.1577 29.3429 29.1343 29.3219 29.1109C29.2891 29.0753 29.2591 29.0389 29.2291 29.0025C29.2108 28.9784 29.1923 28.956 29.1741 28.9318C29.1333 28.8761 29.0955 28.8179 29.0633 28.7582C29.0525 28.7389 29.0414 28.7213 29.0332 28.703C29.0208 28.6756 29.0082 28.6499 28.9981 28.6253C28.9465 28.5109 28.9064 28.4105 28.8754 28.3231C28.8598 28.2794 28.8463 28.2403 28.8352 28.204C28.8318 28.1895 28.8256 28.1758 28.8222 28.1613C28.8115 28.1214 28.8004 28.0851 28.7938 28.0544C28.7839 28.0092 28.7781 27.9731 28.7761 27.948C28.7902 27.963 28.8069 27.979 28.8263 27.9943C28.9564 28.1063 29.1866 28.2545 29.3747 28.356C29.3773 28.357 29.3798 28.358 29.3821 28.3608C29.3997 28.3697 29.4199 28.3797 29.4399 28.3914C29.4376 28.3886 29.4325 28.3866 29.4301 28.3838L30.7089 28.9982C30.7054 29.0042 30.7075 29.0088 30.7098 29.0116Z" fill="url(#paint14_linear)"/>
<path d="M30.24 26.4331C30.3337 26.5941 30.4348 26.776 30.5435 26.977C30.5497 26.9884 30.5561 26.9982 30.5598 27.0086C30.654 27.1842 30.7515 27.3736 30.8542 27.5813C30.9428 27.76 31.0352 27.9492 31.1306 28.154C31.2144 28.3308 31.297 28.5161 31.3857 28.7129L30.1642 28.1301C29.8215 27.8723 29.6747 27.7046 29.5394 27.4912C29.5035 27.4339 29.4681 27.3732 29.433 27.3108C29.325 27.1226 29.2214 26.9218 29.1324 26.7267C29.0451 26.5378 28.9699 26.3553 28.9169 26.1979C28.8819 26.0961 28.8559 26.005 28.8384 25.9262C28.8246 25.8579 28.8152 25.795 28.8081 25.7347C29.2785 25.9803 29.8589 26.2677 30.24 26.4331Z" fill="url(#paint15_linear)"/>
<path d="M30.0728 30.1083C30.0941 30.1181 30.1156 30.1264 30.1391 30.1369C30.1178 30.1271 30.0965 30.1173 30.0728 30.1083Z" fill="#BE202E"/>
<path opacity="0.35" d="M30.0728 30.1083C30.0941 30.1181 30.1156 30.1264 30.1391 30.1369C30.1178 30.1271 30.0965 30.1173 30.0728 30.1083Z" fill="#BE202E"/>
<path d="M30.0728 30.1083C30.0941 30.1181 30.1156 30.1264 30.1391 30.1369C30.1178 30.1271 30.0965 30.1173 30.0728 30.1083Z" fill="url(#paint16_linear)"/>
<path d="M30.057 29.5148C30.0506 29.5128 30.0444 29.5094 30.0358 29.5068C30.0422 29.5088 30.0484 29.5122 30.057 29.5148Z" fill="#BE202E"/>
<path opacity="0.35" d="M30.057 29.5148C30.0506 29.5128 30.0444 29.5094 30.0358 29.5068C30.0422 29.5088 30.0484 29.5122 30.057 29.5148Z" fill="#BE202E"/>
<path d="M30.057 29.5148C30.0506 29.5128 30.0444 29.5094 30.0358 29.5068C30.0422 29.5088 30.0484 29.5122 30.057 29.5148Z" fill="url(#paint17_linear)"/>
<defs>
<linearGradient id="paint0_linear" x1="36.6576" y1="26.6112" x2="39.0789" y2="25.9081" gradientUnits="userSpaceOnUse">
<stop stop-color="#F69923"/>
<stop offset="0.3123" stop-color="#F79A23"/>
<stop offset="0.8383" stop-color="#E97826"/>
</linearGradient>
<linearGradient id="paint1_linear" x1="29.9875" y1="34.736" x2="35.3709" y2="26.6365" gradientUnits="userSpaceOnUse">
<stop offset="0.3233" stop-color="#9E2064"/>
<stop offset="0.6302" stop-color="#C92037"/>
<stop offset="0.7514" stop-color="#CD2335"/>
<stop offset="1" stop-color="#E97826"/>
</linearGradient>
<linearGradient id="paint2_linear" x1="31.6879" y1="35.5892" x2="34.6613" y2="31.0148" gradientUnits="userSpaceOnUse">
<stop stop-color="#282662"/>
<stop offset="0.0954839" stop-color="#662E8D"/>
<stop offset="0.7882" stop-color="#9F2064"/>
<stop offset="0.9487" stop-color="#CD2032"/>
</linearGradient>
<linearGradient id="paint3_linear" x1="29.9961" y1="35.0625" x2="35.5252" y2="26.6222" gradientUnits="userSpaceOnUse">
<stop offset="0.3233" stop-color="#9E2064"/>
<stop offset="0.6302" stop-color="#C92037"/>
<stop offset="0.7514" stop-color="#CD2335"/>
<stop offset="1" stop-color="#E97826"/>
</linearGradient>
<linearGradient id="paint4_linear" x1="30.4668" y1="35.3201" x2="33.4046" y2="30.6172" gradientUnits="userSpaceOnUse">
<stop stop-color="#282662"/>
<stop offset="0.0954839" stop-color="#662E8D"/>
<stop offset="0.7882" stop-color="#9F2064"/>
<stop offset="0.9487" stop-color="#CD2032"/>
</linearGradient>
<linearGradient id="paint5_linear" x1="31.3053" y1="35.4653" x2="36.5417" y2="27.5658" gradientUnits="userSpaceOnUse">
<stop offset="0.3233" stop-color="#9E2064"/>
<stop offset="0.6302" stop-color="#C92037"/>
<stop offset="0.7514" stop-color="#CD2335"/>
<stop offset="1" stop-color="#E97826"/>
</linearGradient>
<linearGradient id="paint6_linear" x1="31.1905" y1="34.9312" x2="36.168" y2="27.2636" gradientUnits="userSpaceOnUse">
<stop offset="0.3233" stop-color="#9E2064"/>
<stop offset="0.6302" stop-color="#C92037"/>
<stop offset="0.7514" stop-color="#CD2335"/>
<stop offset="1" stop-color="#E97826"/>
</linearGradient>
<linearGradient id="paint7_linear" x1="32.0299" y1="35.34" x2="36.153" y2="27.6469" gradientUnits="userSpaceOnUse">
<stop offset="0.3233" stop-color="#9E2064"/>
<stop offset="0.6302" stop-color="#C92037"/>
<stop offset="0.7514" stop-color="#CD2335"/>
<stop offset="1" stop-color="#E97826"/>
</linearGradient>
<linearGradient id="paint8_linear" x1="32.0763" y1="35.7804" x2="36.6761" y2="27.4397" gradientUnits="userSpaceOnUse">
<stop offset="0.3233" stop-color="#9E2064"/>
<stop offset="0.6302" stop-color="#C92037"/>
<stop offset="0.7514" stop-color="#CD2335"/>
<stop offset="1" stop-color="#E97826"/>
</linearGradient>
<linearGradient id="paint9_linear" x1="30.759" y1="25.7695" x2="28.1428" y2="24.1063" gradientUnits="userSpaceOnUse">
<stop stop-color="#F69923"/>
<stop offset="0.3123" stop-color="#F79A23"/>
<stop offset="0.8383" stop-color="#E97826"/>
</linearGradient>
<linearGradient id="paint10_linear" x1="35.4728" y1="37.4832" x2="36.2671" y2="26.5589" gradientUnits="userSpaceOnUse">
<stop offset="0.3233" stop-color="#9E2064"/>
<stop offset="0.6302" stop-color="#C92037"/>
<stop offset="0.7514" stop-color="#CD2335"/>
<stop offset="1" stop-color="#E97826"/>
</linearGradient>
<linearGradient id="paint11_linear" x1="32.144" y1="36.2997" x2="32.5575" y2="30.2177" gradientUnits="userSpaceOnUse">
<stop stop-color="#282662"/>
<stop offset="0.0954839" stop-color="#662E8D"/>
<stop offset="0.7882" stop-color="#9F2064"/>
<stop offset="0.9487" stop-color="#CD2032"/>
</linearGradient>
<linearGradient id="paint12_linear" x1="34.6726" y1="37.1431" x2="35.4605" y2="25.8371" gradientUnits="userSpaceOnUse">
<stop offset="0.3233" stop-color="#9E2064"/>
<stop offset="0.6302" stop-color="#C92037"/>
<stop offset="0.7514" stop-color="#CD2335"/>
<stop offset="1" stop-color="#E97826"/>
</linearGradient>
<linearGradient id="paint13_linear" x1="33.1873" y1="36.4116" x2="33.5627" y2="30.2658" gradientUnits="userSpaceOnUse">
<stop stop-color="#282662"/>
<stop offset="0.0954839" stop-color="#662E8D"/>
<stop offset="0.7882" stop-color="#9F2064"/>
<stop offset="0.9487" stop-color="#CD2032"/>
</linearGradient>
<linearGradient id="paint14_linear" x1="33.2239" y1="36.9344" x2="33.9916" y2="26.306" gradientUnits="userSpaceOnUse">
<stop offset="0.3233" stop-color="#9E2064"/>
<stop offset="0.6302" stop-color="#C92037"/>
<stop offset="0.7514" stop-color="#CD2335"/>
<stop offset="1" stop-color="#E97826"/>
</linearGradient>
<linearGradient id="paint15_linear" x1="34.1327" y1="36.9596" x2="34.8224" y2="26.7727" gradientUnits="userSpaceOnUse">
<stop offset="0.3233" stop-color="#9E2064"/>
<stop offset="0.6302" stop-color="#C92037"/>
<stop offset="0.7514" stop-color="#CD2335"/>
<stop offset="1" stop-color="#E97826"/>
</linearGradient>
<linearGradient id="paint16_linear" x1="32.5552" y1="35.525" x2="32.5855" y2="26.8353" gradientUnits="userSpaceOnUse">
<stop offset="0.3233" stop-color="#9E2064"/>
<stop offset="0.6302" stop-color="#C92037"/>
<stop offset="0.7514" stop-color="#CD2335"/>
<stop offset="1" stop-color="#E97826"/>
</linearGradient>
<linearGradient id="paint17_linear" x1="32.6729" y1="35.3014" x2="32.55" y2="26.6382" gradientUnits="userSpaceOnUse">
<stop offset="0.3233" stop-color="#9E2064"/>
<stop offset="0.6302" stop-color="#C92037"/>
<stop offset="0.7514" stop-color="#CD2335"/>
<stop offset="1" stop-color="#E97826"/>
</linearGradient>
</defs>
</svg>
