<svg width="64" height="64" viewBox="0 0 64 64" fill="none" xmlns="http://www.w3.org/2000/svg">
<path d="M16.7824 51.1123C16.4855 50.8154 16.4849 50.8096 16.4849 48.28C16.4849 45.8993 16.5001 45.7259 16.7361 45.4259C17.1166 44.9422 17.7136 45.0354 18.0229 45.6267C18.1308 45.8328 18.1524 45.8313 18.4503 45.597C19.2147 44.9957 20.6164 45.0177 21.2012 45.6402L21.4774 45.9341L22.0186 45.5526C22.4752 45.2308 22.6676 45.1718 23.2497 45.1754C24.0758 45.1804 24.6446 45.4494 24.975 45.9912C25.1874 46.3396 25.2116 46.6117 25.212 48.6521C25.2125 50.7637 25.1953 50.9421 24.9701 51.1674C24.6658 51.4716 24.1905 51.4788 23.8953 51.1836C23.6977 50.9859 23.6621 50.7027 23.614 48.9443C23.5665 47.2108 23.528 46.8971 23.3366 46.6856C23.0861 46.4089 22.8156 46.3774 22.383 46.5745C21.8943 46.7972 21.7845 47.2256 21.7082 49.2076C21.6445 50.8599 21.6105 51.0853 21.4013 51.238C21.0993 51.4585 20.727 51.4566 20.4077 51.233C20.1737 51.069 20.1505 50.9071 20.0913 49.0207C20.0562 47.9013 19.9881 46.8895 19.9398 46.7722C19.8346 46.5163 19.386 46.3852 18.9714 46.4893C18.3745 46.6391 18.248 47.0509 18.1819 49.0587C18.1296 50.6473 18.0896 50.9355 17.8904 51.1552C17.5832 51.494 17.1472 51.4771 16.7824 51.1123ZM28.2698 51.2317C26.9962 50.8339 26.3027 49.7869 26.3046 48.2647C26.3056 47.5525 26.3709 47.2092 26.5988 46.7199C27.6499 44.4621 31.3436 44.6684 32.1773 47.0314C32.4181 47.7139 32.4161 48.7904 32.1726 49.505C31.6703 50.979 29.9286 51.7496 28.2698 51.2317ZM30.0734 49.9195C30.6073 49.586 30.8848 48.5056 30.6629 47.6244C30.4736 46.8727 29.9952 46.4272 29.3681 46.4185C28.707 46.4094 28.3841 46.6125 28.1141 47.2073C27.6445 48.2415 27.9707 49.6735 28.754 50.0167C29.1588 50.194 29.6973 50.1543 30.0734 49.9195ZM33.6977 51.1674C33.4696 50.9393 33.4553 50.7633 33.4553 48.2004V45.4758L33.7574 45.2778C34.1734 45.0052 34.6563 45.1424 34.8215 45.5801L34.9504 45.9215L35.4514 45.5684C36.5647 44.7836 38.076 45.0798 38.6373 46.1929C38.8876 46.6892 38.91 46.9 38.91 48.7524C38.91 50.611 38.8901 50.7963 38.6588 51.0904C38.3569 51.4742 37.9149 51.5057 37.5767 51.1674C37.3602 50.9509 37.3337 50.7592 37.3289 49.3794C37.3228 47.5905 37.2039 46.8217 36.8988 46.5986C36.6006 46.3805 35.9912 46.3995 35.6513 46.6376C35.1551 46.9852 35.0311 47.5102 35.0311 49.2635C35.0311 50.7993 35.0166 50.8963 34.7505 51.1463C34.4006 51.475 34.0131 51.4828 33.6977 51.1674ZM42.0902 51.2983C41.5044 51.1487 40.7711 50.6207 40.4268 50.1005C39.8045 49.1602 39.7775 47.4506 40.3697 46.4923C41.3556 44.8971 43.9481 44.6531 45.2298 46.0349C45.8428 46.6957 45.9991 47.1475 45.9991 48.2582C45.9991 49.3689 45.8428 49.8206 45.2298 50.4815C44.5509 51.2133 43.1674 51.5733 42.0902 51.2983ZM43.8014 49.8511C44.1956 49.5029 44.3844 48.9818 44.3809 48.2516C44.3753 47.0837 43.8576 46.4157 42.9581 46.4157C42.4025 46.4157 41.9237 46.7618 41.7352 47.2998C41.5208 47.9115 41.5459 48.8621 41.7891 49.3491C42.1781 50.1277 43.1998 50.3825 43.8014 49.8511ZM46.0618 44.9247C46.0618 44.5206 46.0147 44.3792 45.88 44.3792C45.78 44.3792 45.6982 44.3233 45.6982 44.2549C45.6982 44.1823 45.9782 44.1398 46.3723 44.1526C47.003 44.1733 47.0564 44.1988 47.2021 44.5497L47.3578 44.9247L47.4468 44.5307C47.4957 44.3141 47.6061 44.1368 47.6921 44.1368C47.8345 44.1368 47.9967 44.7274 48 45.258C48.0019 45.5559 47.7705 45.5226 47.6542 45.2083C47.5713 44.9841 47.5462 44.9754 47.4801 45.1477C47.3654 45.4465 47.1888 45.3921 47.0513 45.0156L46.9295 44.6823L46.9199 45.0762C46.9052 45.6846 46.6679 45.5419 46.6679 44.9247C46.6679 44.5206 46.6208 44.3792 46.4861 44.3792C46.3514 44.3792 46.3043 44.5206 46.3043 44.9247C46.3043 45.2247 46.2497 45.4702 46.1831 45.4702C46.1164 45.4702 46.0618 45.2247 46.0618 44.9247ZM18.5456 42.9539C18.5456 42.7663 24.8181 35.2284 24.9504 35.257C25.0259 35.2734 27.8275 36.4636 31.1761 37.902C36.8951 40.3586 37.2745 40.5038 37.4291 40.2966C37.663 39.9832 38.4685 38.2983 38.8945 37.2313L39.256 36.326L38.647 35.993C37.784 35.521 36.5182 34.47 35.7256 33.5672C35.0023 32.7433 33.6977 30.7555 33.6977 30.4772C33.6977 30.3851 34.1123 30.8039 34.6189 31.4078C36.0421 33.104 39.3216 35.7582 39.5276 35.3805C39.772 34.9322 39.93 33.609 39.9221 32.0757C39.9126 30.2038 39.6672 28.7466 39.0229 26.7352L38.6618 25.6081L36.8768 25.0469C35.895 24.7383 34.9108 24.4289 34.6896 24.3594C33.9184 24.117 34.4009 24.13 35.53 24.3821C36.88 24.6836 38.2513 24.9382 39.1004 25.0451C39.848 25.1392 40.0125 24.9925 40.0925 24.1605C40.1944 23.0996 39.5098 20.1698 38.8191 18.7111C38.5435 18.1289 38.4191 18.0034 37.8672 17.7507C36.0301 16.9097 30.2798 16.1219 27.8379 16.3768C26.7823 16.487 25.698 16.7435 25.3601 16.963C25.2648 17.0248 25.9456 17.2002 27.1177 17.4158C28.1699 17.6093 28.9367 17.786 28.8217 17.8084C28.7066 17.8309 27.0532 17.6492 25.1474 17.4047C21.8016 16.9754 21.674 16.9676 21.441 17.1785C20.9551 17.6182 20.256 18.8201 20.1121 19.4632C19.9728 20.0858 19.9826 20.158 20.2926 20.7916C20.821 21.8716 21.8035 22.6575 24.0394 23.7883C25.0966 24.3231 25.936 24.7862 25.9047 24.8176C25.8734 24.8489 24.9711 24.512 23.8997 24.069L21.9517 23.2634L19.0931 24.0633C17.5209 24.5033 16.1818 24.8633 16.1173 24.8633C16.0436 24.8633 16 22.9639 16 19.7498C16 14.8257 16.0093 14.6171 16.251 14.1178C16.3984 13.8134 16.6862 13.4847 16.948 13.3219L17.394 13.0446L30.4854 13.0082C37.6857 12.9881 43.8681 13.0063 44.2241 13.0485C45.0262 13.1437 45.7501 13.7311 45.9416 14.442C46.0241 14.7485 46.0551 19.4097 46.0336 28.278L46.0012 41.6518L45.7239 42.0978C45.5611 42.3596 45.2325 42.6474 44.9281 42.7948C44.4135 43.0439 44.3094 43.0458 31.4775 43.0458C24.3649 43.0458 18.5456 43.0044 18.5456 42.9539Z" fill="black"/>
</svg>
