<svg width="64" height="64" viewBox="0 0 64 64" fill="none" xmlns="http://www.w3.org/2000/svg">
<path d="M12 26H52V39.3333H32V41.5556H23.1111V39.3333H12V26ZM14.2222 37.1111H18.6667V30.4444H20.8889V37.1111H23.1111V28.2222H14.2222V37.1111ZM25.3333 28.2222V39.3333H29.7778V37.1111H34.2222V28.2222H25.3333ZM29.7778 30.4444H32V34.8889H29.7778V30.4444ZM36.4444 28.2222V37.1111H40.8889V30.4444H43.1111V37.1111H45.3333V30.4444H47.5556V37.1111H49.7778V28.2222H36.4444Z" fill="#CB3837"/>
<path d="M14.2222 37.1111H18.6667V30.4444H20.8889V37.1111H23.1111V28.2222H14.2222V37.1111Z" fill="white"/>
<path d="M25.3333 28.2222V39.3333H29.7778V37.1111H34.2222V28.2222H25.3333ZM32 34.8888H29.7778V30.4444H32V34.8888Z" fill="white"/>
<path d="M36.4444 28.2222V37.1111H40.8889V30.4444H43.1111V37.1111H45.3333V30.4444H47.5555V37.1111H49.7778V28.2222H36.4444Z" fill="white"/>
</svg>
