<svg width="64" height="64" viewBox="0 0 64 64" fill="none" xmlns="http://www.w3.org/2000/svg">
<path d="M46.0246 21.6366C45.7076 20.9819 45.3408 20.35 44.9152 19.7542L40.3681 21.4089C40.8969 21.9502 41.3412 22.5585 41.7046 23.2091L46.0246 21.6366ZM25.9246 26.6659L21.3762 28.3207C21.4343 29.0502 21.5603 29.7706 21.7367 30.4766L26.0575 28.9034C25.917 28.1726 25.8672 27.4196 25.9246 26.6659Z" fill="#C22133"/>
<path d="M36.0188 20.3486C36.9649 20.7901 37.7843 21.3922 38.4757 22.0982L43.0228 20.4434C41.7632 18.6758 40.0475 17.1988 37.9456 16.2181C31.4447 13.1868 23.6891 16.0091 20.6585 22.5093C19.6771 24.6126 19.3123 26.8466 19.484 29.0101L24.0317 27.3553C24.1072 26.3698 24.3473 25.3822 24.7882 24.4354C26.7579 20.2122 31.7956 18.3796 36.0188 20.3486Z" fill="#DB212E"/>
<path d="M40.8688 28.6582C40.7961 29.643 40.5477 30.6306 40.1054 31.5781C38.1364 35.802 33.098 37.6346 28.8755 35.6656C27.928 35.2234 27.1023 34.6261 26.4137 33.9188L21.8756 35.5701C23.1325 37.3377 24.8461 38.8154 26.9494 39.7967C33.4502 42.8274 41.2045 40.0051 44.2358 33.5042C45.2179 31.4023 45.5799 29.1682 45.4069 27.0068L40.8688 28.6582Z" fill="#DB212E"/>
<path d="M41.987 23.1064L37.6663 24.6789C38.4691 26.1171 38.8484 27.7725 38.7238 29.4377L43.2619 27.7871C43.1317 26.1586 42.6978 24.5688 41.987 23.1064ZM22.0199 30.3729L17.6992 31.9467C18.0958 33.5219 18.7844 35.0189 19.7312 36.3512L24.2686 34.6992C23.1038 33.5032 22.3293 31.9896 22.0199 30.3729Z" fill="#EB2126"/>
<path d="M45.366 20.4388C45.2228 20.2062 45.074 19.9771 44.9155 19.7543L40.3684 21.4091C40.5684 21.6139 40.7525 21.8312 40.9283 22.0541L45.366 20.4388ZM25.9072 27.5792C25.8962 27.276 25.901 26.9715 25.9245 26.6663L21.3761 28.3211C21.3996 28.6125 21.4363 28.9018 21.4799 29.1904L25.9072 27.5792H25.9072Z" fill="#AD213B"/>
<path d="M45.4066 27.0068L40.8685 28.6582C40.8207 29.3115 40.6934 29.9662 40.4851 30.6099L45.4246 28.809C45.4599 28.2055 45.4543 27.6034 45.4066 27.0068ZM21.8761 35.5708C22.2256 36.0629 22.6124 36.5321 23.0325 36.9751L27.9727 35.1736C27.3955 34.8123 26.8737 34.3908 26.4134 33.9188L21.8761 35.5708Z" fill="#BA2133"/>
<path d="M45.1728 45.1932V45.6029H46.3611V49.2315H46.811V45.6029H48V45.1932H45.1728ZM42.444 45.6025V46.941H43.5514V47.3508H42.444V49.2312H41.9941V45.1935H44.3653V45.6025H42.444ZM40.3856 45.1936H40.8354V49.232H40.3856V45.1936ZM38.7776 49.2315V47.3276H36.7698V49.2315H36.3199V45.1932H36.7698V46.9185H38.7776V45.1932H39.2274V49.2315H38.7776ZM33.979 49.295C33.4309 49.295 32.9402 49.0583 32.6232 48.7358L32.9236 48.4008C33.2288 48.6949 33.581 48.886 33.9963 48.886C34.5327 48.886 34.8676 48.6202 34.8676 48.1932C34.8676 47.8181 34.6427 47.6049 33.9042 47.3391C33.0329 47.0277 32.7388 46.7453 32.7388 46.1626C32.7388 45.5162 33.2461 45.1293 34.0018 45.1293C34.5444 45.1293 34.8905 45.2912 35.231 45.5625L34.9424 45.9141C34.6483 45.6719 34.3769 45.539 33.9735 45.539C33.4191 45.539 33.1886 45.8158 33.1886 46.1335C33.1886 46.4685 33.3388 46.6581 34.1465 46.9474C35.0407 47.2699 35.3175 47.5703 35.3175 48.1703C35.3175 48.805 34.8213 49.295 33.979 49.295ZM30.8001 49.2315L29.3176 47.0279C29.2193 46.8777 29.0864 46.6756 29.0345 46.5718C29.0345 46.722 29.0463 47.2293 29.0463 47.4542V49.2315H28.2497V45.1932H29.0227L30.454 47.3276C30.5523 47.4778 30.6845 47.6798 30.7364 47.7837C30.7364 47.6335 30.7253 47.1262 30.7253 46.9005V45.1932H31.5212V49.2315H30.8H30.8001ZM24.4322 49.2315V45.1932H27.2359V45.9835H25.2399V46.6818H26.3998V47.466H25.2399V48.4412H27.3224V49.2315H24.4322ZM22.1373 47.801H21.2487V49.2316H20.441V45.1932H22.2065C22.9678 45.1932 23.597 45.6147 23.597 46.4736C23.597 47.4086 22.9741 47.801 22.1373 47.801ZM22.1782 45.9781H21.2487V47.0162H22.1893C22.5644 47.0162 22.7665 46.8425 22.7665 46.4909C22.7665 46.1393 22.5353 45.9781 22.1782 45.9781ZM17.7773 49.295C16.7212 49.295 16 48.5219 16 47.218C16 45.9141 16.7329 45.1293 17.7891 45.1293C18.839 45.1293 19.5601 45.903 19.5601 47.2069C19.5601 48.5108 18.8272 49.295 17.7773 49.295ZM17.7718 45.9314C17.2063 45.9314 16.8312 46.3875 16.8312 47.2069C16.8312 48.0264 17.2236 48.4929 17.7891 48.4929C18.3545 48.4929 18.7289 48.0375 18.7289 47.218C18.7289 46.3986 18.3372 45.9314 17.7718 45.9314Z" fill="#241F21"/>
</svg>
