<svg width="64" height="64" viewBox="0 0 64 64" fill="none" xmlns="http://www.w3.org/2000/svg">
<path fill-rule="evenodd" clip-rule="evenodd" d="M8 25.9716L13.2158 28.9904V40.1185L8 37.0994V25.9713V25.9716Z" fill="#1DAEFF"/>
<path d="M15.7954 27.274L10.1292 24V26.275L13.9828 28.5043V35.3155L15.7954 36.3551C16.9189 37.0052 17.836 36.6237 17.836 35.4901V30.4969C17.836 29.372 16.9193 27.9214 15.7954 27.274Z" fill="#1D94DD"/>
<path d="M23.2231 27.7869H26.5696C28.5541 27.7869 29.2862 28.5928 29.2862 30.1102V31.2838C29.2862 32.7801 28.4816 33.5941 26.492 33.5941H24.8457V36.3791H23.2231V27.7869ZM26.4813 29.2184H24.8457V32.173H26.4813C27.3957 32.173 27.6666 31.8372 27.6666 31.128V30.2365C27.6666 29.5273 27.3688 29.2184 26.4813 29.2184ZM34.7753 36.3791H33.4748L33.3596 35.9547C32.8014 36.3187 32.149 36.5119 31.4826 36.5107C30.3375 36.5107 29.8466 35.7236 29.8466 34.6303C29.8466 33.3523 30.4017 32.8634 31.6756 32.8634H33.2069V32.2106C33.2069 31.5148 33.0138 31.2677 32.0081 31.2677C31.4238 31.2744 30.8419 31.3389 30.2704 31.4611L30.0773 30.2607C30.7761 30.0674 31.4976 29.9681 32.2226 29.9652C34.1937 29.9652 34.7726 30.6609 34.7726 32.2348L34.7753 36.3791ZM33.2069 34.0051H32.0457C31.5309 34.0051 31.3885 34.1471 31.3885 34.6253C31.3885 35.1034 31.5309 35.2566 32.0188 35.2566C32.4357 35.2511 32.8444 35.1402 33.2069 34.9342V34.0047V34.0051ZM35.7139 34.0961V32.3798C35.7139 30.6905 36.4486 29.9625 38.4197 29.9625C38.9391 29.9652 39.4559 30.0431 39.9536 30.1935L39.7605 31.4829C39.3347 31.3775 38.8982 31.3215 38.4596 31.316C37.5587 31.316 37.2877 31.5847 37.2877 32.361V34.1014C37.2877 34.8751 37.5564 35.1461 38.4596 35.1461C38.8985 35.1448 39.3354 35.0889 39.7605 34.9799L39.9536 36.269C39.4566 36.4228 38.9395 36.5007 38.4197 36.5C36.4486 36.508 35.7139 35.7854 35.7139 34.0961ZM40.9428 36.3791V27.529L42.5143 27.3087V36.3791H40.9428ZM46.2765 30.0965L44.4344 33.2069L46.3464 36.3791H44.6194L42.7262 33.2042L44.5173 30.0941L46.2765 30.0968V30.0965ZM49.5481 35.2163C50.1991 35.2136 50.8461 35.114 51.4678 34.9208L51.712 36.1078C50.9725 36.3751 50.192 36.5105 49.4057 36.508C47.435 36.508 46.754 35.592 46.754 34.0907V32.4252C46.754 31.0958 47.3463 29.9732 49.355 29.9732C51.3634 29.9732 51.814 31.1468 51.814 32.5007V33.8439H48.3279V34.1659C48.3225 34.9208 48.5935 35.2163 49.5481 35.2163ZM48.3252 32.5702H50.3204V32.2643C50.3204 31.6706 50.1408 31.2569 49.3685 31.2569C48.5962 31.2569 48.3252 31.6706 48.3252 32.2643V32.5706V32.5702ZM56 31.4128C55.4229 31.6747 54.867 31.981 54.3372 32.3288V36.3791H52.7821V30.0965H54.1095L54.2113 30.7925C54.7223 30.4464 55.2768 30.1691 55.8603 29.9678L56 31.4128Z" fill="black"/>
</svg>
