<svg width="64" height="64" viewBox="0 0 64 64" fill="none" xmlns="http://www.w3.org/2000/svg">
<path d="M18.5322 27.3646H23.2778C24.6707 27.3764 25.6801 27.7758 26.3057 28.5628C26.9314 29.3499 27.138 30.4248 26.9255 31.7874C26.8428 32.41 26.6599 33.0209 26.3766 33.62C26.105 34.2191 25.7273 34.7594 25.2433 35.2411C24.653 35.8519 24.0215 36.2396 23.3486 36.4041C22.6757 36.5685 21.9792 36.6508 21.2591 36.6508H19.1342L18.4613 39.9987H16L18.5322 27.3646ZM20.6039 29.3734L19.5415 34.6596C19.6123 34.6713 19.6831 34.6772 19.754 34.6772H20.0019C21.1352 34.689 22.0795 34.5774 22.8351 34.3424C23.5906 34.0957 24.0982 33.2382 24.3579 31.7698C24.5704 30.5364 24.3579 29.8257 23.7204 29.6377C23.0948 29.4497 22.3097 29.3616 21.3654 29.3734C21.2237 29.3851 21.0879 29.391 20.9581 29.391C20.84 29.391 20.7161 29.391 20.5862 29.391L20.6039 29.3734Z" fill="black"/>
<path d="M29.73 24H32.1736L31.483 27.3656H33.6787C34.8828 27.3891 35.78 27.6358 36.3702 28.1056C36.9723 28.5756 37.1494 29.4683 36.9015 30.784L35.7151 36.6517H33.236L34.3693 31.0483C34.4873 30.461 34.4519 30.0439 34.2631 29.7972C34.0742 29.5505 33.6669 29.4272 33.0412 29.4272L31.0757 29.4096L29.6237 36.6517H27.1801L29.73 24Z" fill="black"/>
<path d="M39.5258 27.3646H44.2714C45.6644 27.3764 46.6737 27.7758 47.2994 28.5628C47.9251 29.3499 48.1317 30.4248 47.9192 31.7874C47.8365 32.41 47.6536 33.0209 47.3702 33.62C47.0987 34.2191 46.721 34.7594 46.237 35.2411C45.6467 35.8519 45.0152 36.2396 44.3423 36.4041C43.6694 36.5685 42.9729 36.6508 42.2528 36.6508H40.1279L39.455 39.9987H36.9937L39.5258 27.3646ZM41.5976 29.3734L40.5352 34.6596C40.606 34.6713 40.6768 34.6772 40.7477 34.6772H40.9956C42.1288 34.689 43.0732 34.5774 43.8288 34.3424C44.5843 34.0957 45.0919 33.2382 45.3516 31.7698C45.5641 30.5364 45.3516 29.8257 44.7141 29.6377C44.0885 29.4497 43.3034 29.3616 42.359 29.3734C42.2174 29.3851 42.0816 29.391 41.9518 29.391C41.8337 29.391 41.7098 29.391 41.5799 29.391L41.5976 29.3734Z" fill="black"/>
</svg>
