<svg width="64" height="64" viewBox="0 0 64 64" fill="none" xmlns="http://www.w3.org/2000/svg">
<path d="M31.8846 16C23.7611 16 24.2683 19.5229 24.2683 19.5229L24.2774 23.1725H32.0295V24.2683H21.1983C21.1983 24.2683 16 23.6788 16 31.8756C16 40.0724 20.5372 39.7817 20.5372 39.7817H23.245V35.9781C23.245 35.9781 23.099 31.4409 27.7097 31.4409C32.3204 31.4409 35.3985 31.4409 35.3985 31.4409C35.3985 31.4409 39.7183 31.5107 39.7183 27.266C39.7183 23.0212 39.7183 20.2474 39.7183 20.2474C39.7183 20.2474 40.3742 16 31.8846 16ZM27.6101 18.4542C28.3814 18.4542 29.0048 19.0776 29.0048 19.8489C29.0048 20.6202 28.3814 21.2436 27.6101 21.2436C26.8388 21.2436 26.2154 20.6202 26.2154 19.8489C26.2154 19.0776 26.8388 18.4542 27.6101 18.4542Z" fill="url(#paint0_linear)"/>
<path d="M32.1154 47.8334C40.2389 47.8334 39.7317 44.3105 39.7317 44.3105L39.7226 40.6608H31.9705V39.565H42.8017C42.8017 39.565 48 40.1546 48 31.9578C48 23.761 43.4628 24.0517 43.4628 24.0517H40.755V27.8553C40.755 27.8553 40.901 32.3925 36.2903 32.3925C31.6796 32.3925 28.6015 32.3925 28.6015 32.3925C28.6015 32.3925 24.2817 32.3227 24.2817 36.5674C24.2817 40.8122 24.2817 43.586 24.2817 43.586C24.2817 43.586 23.6258 47.8334 32.1154 47.8334ZM36.3899 45.3791C35.6186 45.3791 34.9952 44.7558 34.9952 43.9845C34.9952 43.2132 35.6186 42.5898 36.3899 42.5898C37.1612 42.5898 37.7846 43.2132 37.7846 43.9845C37.7846 44.7558 37.1612 45.3791 36.3899 45.3791Z" fill="url(#paint1_linear)"/>
<defs>
<linearGradient id="paint0_linear" x1="19.0753" y1="18.7825" x2="34.8983" y2="34.6585" gradientUnits="userSpaceOnUse">
<stop stop-color="#387EB8"/>
<stop offset="1" stop-color="#366994"/>
</linearGradient>
<linearGradient id="paint1_linear" x1="28.8089" y1="28.8821" x2="45.803" y2="45.1633" gradientUnits="userSpaceOnUse">
<stop stop-color="#FFE052"/>
<stop offset="1" stop-color="#FFC331"/>
</linearGradient>
</defs>
</svg>
