<svg width="64" height="64" viewBox="0 0 64 64" fill="none" xmlns="http://www.w3.org/2000/svg">
<path fill-rule="evenodd" clip-rule="evenodd" d="M38.5939 35.7968L24.8913 43.9332L42.6335 42.7293L44 24.8391L38.5939 35.7968Z" fill="url(#paint0_linear)"/>
<path fill-rule="evenodd" clip-rule="evenodd" d="M42.6626 42.7171L41.1376 32.1919L36.9839 37.6768L42.6626 42.7171Z" fill="url(#paint1_linear)"/>
<path fill-rule="evenodd" clip-rule="evenodd" d="M42.6832 42.7171L31.5112 41.8401L24.9507 43.9104L42.6832 42.7171Z" fill="url(#paint2_linear)"/>
<path fill-rule="evenodd" clip-rule="evenodd" d="M24.9664 43.9127L27.7573 34.7697L21.6159 36.0829L24.9664 43.9127Z" fill="url(#paint3_linear)"/>
<path fill-rule="evenodd" clip-rule="evenodd" d="M36.9828 37.7072L34.4148 27.6483L27.0657 34.5371L36.9828 37.7072Z" fill="url(#paint4_linear)"/>
<path fill-rule="evenodd" clip-rule="evenodd" d="M43.4174 27.7901L36.4704 22.1162L34.5359 28.3703L43.4174 27.7901Z" fill="url(#paint5_linear)"/>
<path fill-rule="evenodd" clip-rule="evenodd" d="M40.1686 20.0933L36.0828 22.3512L33.5051 20.063L40.1686 20.0933Z" fill="url(#paint6_linear)"/>
<path fill-rule="evenodd" clip-rule="evenodd" d="M20 39.1498L21.7116 36.0282L20.3271 32.3094L20 39.1498Z" fill="url(#paint7_linear)"/>
<path fill-rule="evenodd" clip-rule="evenodd" d="M20.235 32.192L21.628 36.1433L27.681 34.7853L34.5916 28.3629L36.5419 22.1683L33.471 20L28.2502 21.9539C26.6053 23.4838 23.4135 26.5109 23.2984 26.5678C23.1846 26.626 21.1907 30.3944 20.235 32.192Z" fill="white"/>
<path fill-rule="evenodd" clip-rule="evenodd" d="M25.1263 25.0935C28.6913 21.5589 33.287 19.4706 35.0507 21.25C36.8133 23.0294 34.9441 27.3539 31.3792 30.8873C27.8143 34.4207 23.2754 36.6241 21.513 34.8447C19.7493 33.0665 21.5614 28.627 25.1263 25.0935Z" fill="url(#paint8_linear)"/>
<path fill-rule="evenodd" clip-rule="evenodd" d="M24.9664 43.9092L27.7355 34.7371L36.9319 37.6915C33.6068 40.8094 29.9086 43.4453 24.9664 43.9092Z" fill="url(#paint9_linear)"/>
<path fill-rule="evenodd" clip-rule="evenodd" d="M34.6037 28.3448L36.9646 37.6962C39.7422 34.7757 42.2351 31.636 43.456 27.7524L34.6037 28.3448Z" fill="url(#paint10_linear)"/>
<path fill-rule="evenodd" clip-rule="evenodd" d="M43.4319 27.7998C44.3767 24.9483 44.5947 20.8576 40.1394 20.0981L36.4836 22.1174L43.4319 27.7998Z" fill="url(#paint11_linear)"/>
<path fill-rule="evenodd" clip-rule="evenodd" d="M20 39.1086C20.1308 43.8147 23.5262 43.8849 24.9725 43.9262L21.6317 36.1239L20 39.1086Z" fill="#9E1209"/>
<path fill-rule="evenodd" clip-rule="evenodd" d="M34.6169 28.3594C36.7513 29.6712 41.0528 32.3059 41.1401 32.3543C41.2756 32.4306 42.9946 29.4556 43.3846 27.7743L34.6169 28.3594Z" fill="url(#paint12_radial)"/>
<path fill-rule="evenodd" clip-rule="evenodd" d="M27.7319 34.7371L31.4337 41.879C33.6226 40.6919 35.3366 39.2456 36.9065 37.6963L27.7319 34.7371Z" fill="url(#paint13_radial)"/>
<path fill-rule="evenodd" clip-rule="evenodd" d="M21.6171 36.1336L21.0926 42.3792C22.0823 43.7311 23.4438 43.8486 24.872 43.7432C23.8387 41.1715 21.7746 36.0295 21.6171 36.1336Z" fill="url(#paint14_linear)"/>
<path fill-rule="evenodd" clip-rule="evenodd" d="M36.4619 22.1333L43.8159 23.1653C43.4234 21.5022 42.2181 20.4289 40.1637 20.0934L36.4619 22.1333Z" fill="url(#paint15_linear)"/>
<defs>
<linearGradient id="paint0_linear" x1="41.086" y1="46.1098" x2="36.023" y2="37.1708" gradientUnits="userSpaceOnUse">
<stop stop-color="#FB7655"/>
<stop offset="0.41" stop-color="#E42B1E"/>
<stop offset="0.99" stop-color="#990000"/>
<stop offset="1" stop-color="#990000"/>
</linearGradient>
<linearGradient id="paint1_linear" x1="43.6081" y1="38.6007" x2="37.083" y2="34.222" gradientUnits="userSpaceOnUse">
<stop stop-color="#871101"/>
<stop offset="0.99" stop-color="#911209"/>
<stop offset="1" stop-color="#911209"/>
</linearGradient>
<linearGradient id="paint2_linear" x1="38.3874" y1="46.3808" x2="31.8625" y2="42.0022" gradientUnits="userSpaceOnUse">
<stop stop-color="#871101"/>
<stop offset="0.99" stop-color="#911209"/>
<stop offset="1" stop-color="#911209"/>
</linearGradient>
<linearGradient id="paint3_linear" x1="24.6874" y1="35.4311" x2="25.6989" y2="42.0051" gradientUnits="userSpaceOnUse">
<stop stop-color="white"/>
<stop offset="0.23" stop-color="#E57252"/>
<stop offset="0.46" stop-color="#DE3B20"/>
<stop offset="0.99" stop-color="#A60003"/>
<stop offset="1" stop-color="#A60003"/>
</linearGradient>
<linearGradient id="paint4_linear" x1="31.6448" y1="29.2927" x2="32.0175" y2="36.0019" gradientUnits="userSpaceOnUse">
<stop stop-color="white"/>
<stop offset="0.23" stop-color="#E4714E"/>
<stop offset="0.56" stop-color="#BE1A0D"/>
<stop offset="0.99" stop-color="#A80D00"/>
<stop offset="1" stop-color="#A80D00"/>
</linearGradient>
<linearGradient id="paint5_linear" x1="37.819" y1="23.0914" x2="38.9347" y2="27.8998" gradientUnits="userSpaceOnUse">
<stop stop-color="white"/>
<stop offset="0.18" stop-color="#E46342"/>
<stop offset="0.4" stop-color="#C82410"/>
<stop offset="0.99" stop-color="#A80D00"/>
<stop offset="1" stop-color="#A80D00"/>
</linearGradient>
<linearGradient id="paint6_linear" x1="34.4119" y1="21.3981" x2="39.2199" y2="18.994" gradientUnits="userSpaceOnUse">
<stop stop-color="white"/>
<stop offset="0.54" stop-color="#C81F11"/>
<stop offset="0.99" stop-color="#BF0905"/>
<stop offset="1" stop-color="#BF0905"/>
</linearGradient>
<linearGradient id="paint7_linear" x1="20.4728" y1="33.7551" x2="20.8685" y2="37.7171" gradientUnits="userSpaceOnUse">
<stop stop-color="white"/>
<stop offset="0.31" stop-color="#DE4024"/>
<stop offset="0.99" stop-color="#BF190B"/>
<stop offset="1" stop-color="#BF190B"/>
</linearGradient>
<linearGradient id="paint8_linear" x1="17.7523" y1="38.7881" x2="36.3548" y2="19.6596" gradientUnits="userSpaceOnUse">
<stop stop-color="#BD0012"/>
<stop offset="0.07" stop-color="white"/>
<stop offset="0.17" stop-color="white"/>
<stop offset="0.27" stop-color="#C82F1C"/>
<stop offset="0.33" stop-color="#820C01"/>
<stop offset="0.46" stop-color="#A31601"/>
<stop offset="0.72" stop-color="#B31301"/>
<stop offset="0.99" stop-color="#E82609"/>
<stop offset="1" stop-color="#E82609"/>
</linearGradient>
<linearGradient id="paint9_linear" x1="32.0012" y1="40.7178" x2="26.3979" y2="39.3348" gradientUnits="userSpaceOnUse">
<stop stop-color="#8C0C01"/>
<stop offset="0.54" stop-color="#990C00"/>
<stop offset="0.99" stop-color="#A80D0E"/>
<stop offset="1" stop-color="#A80D0E"/>
</linearGradient>
<linearGradient id="paint10_linear" x1="41.6253" y1="33.9925" x2="36.6476" y2="29.5312" gradientUnits="userSpaceOnUse">
<stop stop-color="#7E110B"/>
<stop offset="0.99" stop-color="#9E0C00"/>
<stop offset="1" stop-color="#9E0C00"/>
</linearGradient>
<linearGradient id="paint11_linear" x1="43.4541" y1="25.8068" x2="40.9746" y2="23.156" gradientUnits="userSpaceOnUse">
<stop stop-color="#79130D"/>
<stop offset="0.99" stop-color="#9E120B"/>
<stop offset="1" stop-color="#9E120B"/>
</linearGradient>
<radialGradient id="paint12_radial" cx="0" cy="0" r="1" gradientUnits="userSpaceOnUse" gradientTransform="translate(37.4227 29.6165) scale(6.09995)">
<stop stop-color="#A80D00"/>
<stop offset="0.99" stop-color="#7E0E08"/>
<stop offset="1" stop-color="#7E0E08"/>
</radialGradient>
<radialGradient id="paint13_radial" cx="0" cy="0" r="1" gradientUnits="userSpaceOnUse" gradientTransform="translate(28.975 37.6553) scale(8.10906)">
<stop stop-color="#A30C00"/>
<stop offset="0.99" stop-color="#800E08"/>
<stop offset="1" stop-color="#800E08"/>
</radialGradient>
<linearGradient id="paint14_linear" x1="23.2306" y1="43.9038" x2="21.21" y2="37.0484" gradientUnits="userSpaceOnUse">
<stop stop-color="#8B2114"/>
<stop offset="0.43" stop-color="#9E100A"/>
<stop offset="0.99" stop-color="#B3100C"/>
<stop offset="1" stop-color="#B3100C"/>
</linearGradient>
<linearGradient id="paint15_linear" x1="38.7321" y1="21.187" x2="43.2622" y2="23.1866" gradientUnits="userSpaceOnUse">
<stop stop-color="#B31000"/>
<stop offset="0.44" stop-color="#910F08"/>
<stop offset="0.99" stop-color="#791C12"/>
<stop offset="1" stop-color="#791C12"/>
</linearGradient>
</defs>
</svg>
