<svg width="64" height="64" viewBox="0 0 64 64" fill="none" xmlns="http://www.w3.org/2000/svg">
<path d="M47.7814 31.6077L46.438 30.7761C46.4267 30.6453 46.4138 30.5147 46.3998 30.3848L47.5542 29.308C47.6716 29.1985 47.7242 29.0365 47.6924 28.8796C47.6615 28.7222 47.5512 28.5925 47.4011 28.5366L45.9252 27.9847C45.8883 27.8569 45.8494 27.73 45.8097 27.6038L46.7303 26.3252C46.8241 26.1952 46.8434 26.0261 46.7822 25.8779C46.7211 25.7302 46.5875 25.6244 46.4294 25.5984L44.8732 25.3453C44.8127 25.2272 44.7497 25.1111 44.6861 24.9958L45.3401 23.5603C45.407 23.4142 45.3933 23.2442 45.304 23.1115C45.215 22.9782 45.0643 22.9003 44.9035 22.9064L43.324 22.9614C43.2424 22.8593 43.1592 22.7581 43.0745 22.6587L43.4374 21.1202C43.4741 20.964 43.428 20.8004 43.3142 20.687C43.2014 20.5739 43.0375 20.5271 42.8813 20.5638L41.3431 20.9264C41.2434 20.842 41.1422 20.7585 41.0398 20.6769L41.0952 19.0975C41.1013 18.9376 41.0233 18.7856 40.89 18.6969C40.7564 18.6077 40.5873 18.5942 40.4415 18.6606L39.0063 19.3148C38.8905 19.2512 38.7743 19.1883 38.6569 19.1274L38.4031 17.5709C38.3774 17.4131 38.2717 17.2792 38.1237 17.2181C37.976 17.1566 37.8066 17.1765 37.6767 17.27L36.3972 18.1906C36.2712 18.1506 36.1446 18.1121 36.0168 18.0754L35.465 16.5993C35.409 16.4488 35.2794 16.3385 35.1219 16.3073C34.9648 16.2764 34.803 16.3287 34.6939 16.4455L33.6171 17.6009C33.4871 17.5865 33.3563 17.5733 33.2257 17.5626L32.3941 16.2189C32.31 16.0829 32.1611 16 32.0009 16C31.8407 16 31.6918 16.0829 31.608 16.2189L30.7764 17.5626C30.6456 17.5733 30.5147 17.5865 30.3848 17.6009L29.3077 16.4455C29.1985 16.3287 29.0365 16.2764 28.8796 16.3073C28.7222 16.3388 28.5925 16.4488 28.5366 16.5993L27.9847 18.0754C27.8569 18.1121 27.7303 18.1509 27.6041 18.1906L26.3248 17.27C26.1949 17.1762 26.0255 17.1563 25.8776 17.2181C25.7299 17.2792 25.6238 17.4131 25.5981 17.5709L25.3443 19.1274C25.2269 19.1883 25.1108 19.2509 24.9949 19.3148L23.5597 18.6606C23.4139 18.5939 23.2439 18.6077 23.1112 18.6969C22.9779 18.7856 22.8999 18.9376 22.9061 19.0975L22.9611 20.6769C22.859 20.7585 22.7578 20.842 22.6578 20.9264L21.1196 20.5638C20.9634 20.5274 20.7995 20.5739 20.6864 20.687C20.5727 20.8004 20.5265 20.964 20.5632 21.1202L20.9255 22.6587C20.8414 22.7584 20.7582 22.8593 20.6766 22.9614L19.0971 22.9064C18.9379 22.9018 18.7856 22.9782 18.6966 23.1115C18.6074 23.2442 18.5939 23.4142 18.6602 23.5603L19.3145 24.9958C19.2509 25.1111 19.188 25.2272 19.1271 25.3453L17.5709 25.5984C17.4128 25.6241 17.2795 25.7299 17.2181 25.8779C17.1569 26.0261 17.1768 26.1952 17.27 26.3252L18.1906 27.6038C18.1506 27.73 18.1117 27.8569 18.0751 27.9847L16.5989 28.5366C16.4491 28.5925 16.3388 28.7222 16.3076 28.8796C16.2764 29.0368 16.3287 29.1985 16.4458 29.308L17.6006 30.3848C17.5862 30.5147 17.5733 30.6456 17.5623 30.7761L16.2189 31.6077C16.0829 31.6918 16 31.8404 16 32.0009C16 32.1614 16.0829 32.31 16.2189 32.3938L17.5623 33.2254C17.5733 33.3563 17.5862 33.4868 17.6006 33.6168L16.4458 34.6939C16.3287 34.803 16.2764 34.9651 16.3076 35.1219C16.3388 35.2794 16.4491 35.4087 16.5989 35.465L18.0751 36.0168C18.1117 36.1446 18.1506 36.2715 18.1906 36.3978L17.27 37.6767C17.1765 37.8069 17.1566 37.976 17.2181 38.1237C17.2795 38.272 17.4131 38.3777 17.5712 38.4031L19.1271 38.6563C19.188 38.7743 19.2503 38.8905 19.3145 39.0063L18.6602 40.4412C18.5936 40.587 18.6074 40.7567 18.6966 40.89C18.7859 41.0236 18.9379 41.1016 19.0971 41.0952L20.676 41.0398C20.7582 41.1426 20.8411 41.2431 20.9255 41.3431L20.5632 42.8819C20.5265 43.0378 20.5727 43.2008 20.6864 43.3142C20.7992 43.4283 20.9634 43.4738 21.1196 43.4371L22.6578 43.0748C22.7578 43.1598 22.859 43.2424 22.9611 43.3237L22.9061 44.9035C22.8999 45.0634 22.9779 45.215 23.1112 45.3043C23.2439 45.3933 23.4139 45.4067 23.5597 45.3401L24.9949 44.6861C25.1104 44.7503 25.2266 44.8127 25.3443 44.8735L25.5981 46.4291C25.6238 46.5875 25.7296 46.7214 25.8776 46.7822C26.0252 46.8437 26.1949 46.8238 26.3248 46.7306L27.6035 45.8094C27.7297 45.8494 27.8566 45.8886 27.9844 45.9252L28.5363 47.4007C28.5922 47.5506 28.7219 47.6615 28.8793 47.6921C29.0365 47.7239 29.1982 47.6713 29.3073 47.5539L30.3845 46.3991C30.5144 46.4141 30.6453 46.4267 30.7761 46.4383L31.6077 47.7817C31.6915 47.9171 31.8404 48.0006 32.0006 48.0006C32.1608 48.0006 32.3097 47.9174 32.3938 47.7817L33.2254 46.4383C33.3563 46.4267 33.4868 46.4141 33.6168 46.3991L34.6936 47.5539C34.8027 47.6713 34.9648 47.7239 35.1216 47.6921C35.2791 47.6612 35.4087 47.5506 35.4646 47.4007L36.0165 45.9252C36.1443 45.8886 36.2712 45.8494 36.3975 45.8094L37.6764 46.7306C37.8063 46.8238 37.9757 46.8437 38.1234 46.7822C38.2713 46.7214 38.3771 46.5872 38.4028 46.4291L38.6566 44.8735C38.774 44.8127 38.8902 44.7494 39.006 44.6861L40.4412 45.3401C40.587 45.4067 40.7567 45.3933 40.8897 45.3043C41.023 45.215 41.1007 45.0637 41.0949 44.9035L41.0398 43.3237C41.1419 43.2421 41.2431 43.1598 41.3428 43.0748L42.881 43.4371C43.0372 43.4738 43.2011 43.4283 43.3139 43.3142C43.4277 43.2008 43.4738 43.0378 43.4371 42.8819L43.0748 41.3431C43.1592 41.2431 43.2424 41.1426 43.3237 41.0398L44.9032 41.0952C45.0624 41.1016 45.2147 41.0236 45.3037 40.89C45.393 40.7567 45.4067 40.587 45.3398 40.4412L44.6858 39.0063C44.7497 38.8905 44.8124 38.7743 44.8729 38.6563L46.4291 38.4031C46.5875 38.3777 46.7208 38.272 46.7819 38.1237C46.8431 37.976 46.8238 37.8069 46.73 37.6767L45.8094 36.3978C45.8491 36.2715 45.8879 36.1446 45.9249 36.0168L47.4007 35.465C47.5509 35.4087 47.6615 35.2794 47.6921 35.1219C47.7239 34.9648 47.6713 34.803 47.5539 34.6939L46.3994 33.6168C46.4135 33.4868 46.4264 33.356 46.4377 33.2254L47.7811 32.3938C47.9171 32.31 48 32.1611 48 32.0009C48 31.8407 47.9174 31.6918 47.7814 31.6077ZM38.7899 42.7523C38.2768 42.6416 37.9506 42.1359 38.0607 41.6213C38.1705 41.1074 38.6758 40.7802 39.1886 40.8909C39.7016 41.0007 40.0284 41.5073 39.9184 42.0209C39.8083 42.5346 39.3026 42.862 38.7899 42.7523ZM38.3334 39.6649C37.8653 39.5646 37.4049 39.8624 37.3046 40.3314L36.8276 42.5572C35.3558 43.2253 33.7213 43.5964 32 43.5964C30.2392 43.5964 28.5693 43.2069 27.0712 42.5104L26.5945 40.2846C26.4942 39.8162 26.0338 39.5178 25.566 39.6184L23.601 40.0404C23.2363 39.6649 22.8969 39.265 22.585 38.8428H32.1461C32.2544 38.8428 32.3265 38.8232 32.3265 38.7248V35.3427C32.3265 35.2442 32.2544 35.2246 32.1461 35.2246H29.3498V33.0808H32.3742C32.6503 33.0808 33.8503 33.1597 34.234 34.6936C34.3542 35.1653 34.6181 36.6998 34.7984 37.1912C34.9782 37.7421 35.7102 38.8428 36.4901 38.8428H41.2545C41.3086 38.8428 41.3664 38.8367 41.4272 38.8257C41.0967 39.2748 40.7341 39.6998 40.3437 40.0969L38.3334 39.6649ZM25.1095 42.7058C24.5965 42.8165 24.0914 42.4893 23.981 41.9754C23.8713 41.4605 24.1975 40.9551 24.7105 40.8445C25.2236 40.7347 25.729 41.0618 25.839 41.5758C25.9488 42.0894 25.6223 42.5957 25.1095 42.7058ZM21.4825 27.9982C21.6953 28.4785 21.4789 29.0414 20.9992 29.2538C20.5195 29.4669 19.9581 29.2502 19.7453 28.7695C19.5325 28.2889 19.749 27.727 20.2287 27.5139C20.7087 27.3011 21.2697 27.5175 21.4825 27.9982ZM20.3678 30.6407L22.4147 29.7311C22.8519 29.537 23.0495 29.0245 22.8553 28.5864L22.4337 27.6331H24.0917V35.1066H20.7466C20.4565 34.0867 20.3008 33.0102 20.3008 31.8976C20.3008 31.4729 20.3238 31.0531 20.3678 30.6407ZM29.3505 29.9149V27.712H33.2988C33.5027 27.712 34.7388 27.9477 34.7388 28.872C34.7388 29.6394 33.7907 29.9145 33.0111 29.9145H29.3505V29.9149ZM43.6995 31.8976C43.6995 32.1899 43.6888 32.4791 43.6674 32.7662H42.467C42.3469 32.7662 42.2986 32.8451 42.2986 32.9628V33.514C42.2986 34.8116 41.5669 35.0938 40.9258 35.1656C40.3152 35.2344 39.6383 34.91 39.5548 34.5364C39.1947 32.5106 38.5945 32.078 37.6467 31.3304C38.8229 30.5835 40.0468 29.4816 40.0468 28.0067C40.0468 26.4141 38.955 25.411 38.2108 24.9191C37.1667 24.2308 36.0107 24.0929 35.6988 24.0929H23.2849C24.9683 22.2142 27.2497 20.8833 29.8302 20.399L31.2934 21.9341C31.6242 22.2805 32.1721 22.2934 32.5182 21.9622L34.1555 20.3962C37.5862 21.0349 40.4907 23.1705 42.1646 26.1004L41.0438 28.632C40.8503 29.0701 41.0478 29.5825 41.4847 29.7767L43.6426 30.7352C43.6799 31.1182 43.6995 31.5053 43.6995 31.8976ZM31.294 19.0932C31.6732 18.73 32.2746 18.7443 32.6375 19.1241C32.9998 19.5047 32.986 20.1067 32.606 20.4696C32.2269 20.8328 31.6255 20.8188 31.2626 20.4384C30.9006 20.0584 30.9143 19.4564 31.294 19.0932ZM42.4169 28.0443C42.6294 27.564 43.1907 27.3472 43.6704 27.5603C44.1501 27.7731 44.3666 28.3357 44.1538 28.816C43.9413 29.2966 43.38 29.5134 42.8999 29.3003C42.4209 29.0875 42.2044 28.5253 42.4169 28.0443Z" fill="black"/>
</svg>
