<svg width="64" height="64" viewBox="0 0 64 64" fill="none" xmlns="http://www.w3.org/2000/svg">
<path d="M23.2159 34.2977C23.7519 35.3508 24.6094 35.8698 25.8107 35.8698C27.1006 35.8698 27.5606 35.1874 27.5606 34.5201C27.5606 34.0601 27.3971 33.7493 26.9675 33.467C26.5369 33.1705 26.2261 33.0374 25.4552 32.7524C24.5057 32.3951 23.9573 32.1272 23.3642 31.6546C22.7711 31.1652 22.4897 30.4935 22.4897 29.6235C22.4795 29.2395 22.557 28.8583 22.7163 28.5088C22.8755 28.1593 23.1124 27.8507 23.4089 27.6065C24.0341 27.0876 24.788 26.8357 25.6919 26.8357C27.1006 26.8357 28.168 27.3993 28.8799 28.5114L27.5606 29.4198C27.1604 28.8115 26.5521 28.4998 25.7214 28.4998C24.9059 28.4998 24.3128 28.9598 24.3128 29.5975C24.3128 30.0272 24.4915 30.2353 24.7433 30.4908C24.9059 30.6096 25.3213 30.7873 25.5142 30.8909L26.0501 31.0982L26.6575 31.3358C27.6401 31.7359 28.3332 32.1665 28.7629 32.6256C29.1925 33.0847 29.4158 33.7082 29.4158 34.479C29.4158 36.303 28.1555 37.5339 25.7974 37.5339C23.885 37.5339 22.4763 36.6406 21.8243 35.1757L23.2159 34.2977Z" fill="#380D09"/>
<path d="M36.9314 30.9318L35.8372 32.0733C35.5968 31.8108 35.3033 31.6023 34.9762 31.4617C34.6491 31.3211 34.2959 31.2516 33.94 31.2578C33.6345 31.2505 33.3308 31.3059 33.0477 31.4207C32.7645 31.5355 32.5079 31.7071 32.2938 31.9251C31.8745 32.3824 31.6419 32.9803 31.6419 33.6007C31.6419 34.2212 31.8745 34.8191 32.2938 35.2764C32.5079 35.4944 32.7645 35.666 33.0477 35.7808C33.3308 35.8956 33.6345 35.951 33.94 35.9437C34.2959 35.9499 34.6491 35.8803 34.9762 35.7398C35.3033 35.5992 35.5968 35.3907 35.8372 35.1282L36.935 36.2697C36.1311 37.1299 35.1405 37.5595 33.94 37.5595C32.7976 37.5595 31.8338 37.1888 31.0486 36.4323C30.2635 35.6757 29.8767 34.7271 29.8767 33.6007C29.8767 32.4744 30.2626 31.5392 31.0486 30.7835C31.8347 30.0278 32.7976 29.642 33.94 29.642C35.1369 29.642 36.1302 30.0716 36.9314 30.9318Z" fill="#380D09"/>
<path d="M40.4713 32.7995C41.7325 32.6816 42.1791 32.5182 42.1791 31.9402C42.1791 31.4802 41.7646 31.1247 40.9339 31.1247C40.1336 31.1247 39.4664 31.4508 38.9322 32.1028L37.8353 31.1685C38.5615 30.1457 39.5843 29.642 40.9045 29.642C42.7579 29.642 43.9146 30.5352 43.9146 32.0581V35.3631C43.9146 35.882 44.1067 35.9419 44.5399 35.9419H44.5846V37.3201C44.4059 37.4246 44.1246 37.4836 43.7539 37.4836C43.3537 37.4836 43.0393 37.3648 42.8053 37.1263C42.6804 36.9853 42.5888 36.818 42.5373 36.6368C42.0183 37.2442 41.1733 37.5559 40.0014 37.5559C38.3561 37.5559 37.244 36.6511 37.244 35.2872C37.2396 33.7633 38.2623 32.9925 40.4713 32.7995ZM40.264 36.0491C41.4502 36.0491 42.1764 35.5131 42.1764 34.5663V33.7356C42.0738 33.8396 41.9466 33.9161 41.8066 33.958C41.4654 34.0768 41.243 34.1063 40.5311 34.1804C39.4932 34.2992 38.9742 34.6271 38.9742 35.1442C38.9742 35.7213 39.4485 36.0491 40.264 36.0491Z" fill="#380D09"/>
<path d="M45.0231 27.017H46.8024V34.9059C46.8024 35.6321 47.04 35.9439 47.6956 35.9439C47.8762 35.9497 48.0567 35.9295 48.2315 35.884V37.4704C47.9549 37.538 47.6703 37.568 47.3857 37.5597C45.8145 37.5597 45.0284 36.7558 45.0284 35.1426L45.0231 27.017Z" fill="#380D09"/>
<path d="M51.8894 32.7995C53.1497 32.6816 53.5946 32.5182 53.5946 31.9402C53.5946 31.4802 53.1801 31.1247 52.3494 31.1247C51.5491 31.1247 50.8818 31.4508 50.3477 32.1028L49.2508 31.1685C49.977 30.1457 50.9997 29.642 52.3199 29.642C54.1734 29.642 55.3301 30.5352 55.3301 32.0581V35.3631C55.3301 35.882 55.5221 35.9419 55.9554 35.9419H56V37.3201C55.8214 37.4246 55.54 37.4836 55.1693 37.4836C54.7692 37.4836 54.4547 37.3648 54.2207 37.1263C54.0955 36.9855 54.0039 36.8182 53.9527 36.6368C53.4338 37.2442 52.5888 37.5559 51.4169 37.5559C49.7716 37.5559 48.6595 36.6511 48.6595 35.2872C48.6577 33.7633 49.6822 32.9925 51.8894 32.7995ZM51.6822 36.0491C52.8684 36.0491 53.5946 35.5131 53.5946 34.5663V33.7356C53.4917 33.8398 53.3642 33.9163 53.2239 33.958C52.8836 34.0768 52.6611 34.1063 51.9492 34.1804C50.9113 34.2992 50.3923 34.6271 50.3923 35.1442C50.3968 35.7213 50.8667 36.0491 51.6822 36.0491Z" fill="#380D09"/>
<path fill-rule="evenodd" clip-rule="evenodd" d="M8.01764 30.0493C8.18289 30.2771 9.57632 30.7067 11.6549 31.1542C13.7334 31.5526 15.895 33.1256 17.576 32.6405C18.7131 32.3118 19.9467 29.3829 19.9467 28.9479V28.9033C19.9467 28.5996 19.7189 28.3557 19.3321 28.153C17.7467 27.3428 17.4465 27.0445 16.8588 27.2062C13.8075 28.0485 8.42048 27.6179 8.01764 30.0493Z" fill="#380D09"/>
<path fill-rule="evenodd" clip-rule="evenodd" d="M8.01764 35.9963C8.18289 36.2276 9.57632 36.6537 11.6549 37.1021C13.9772 37.5255 15.9968 38.9055 17.6788 38.4196C18.8158 38.0909 19.9467 35.3308 19.9467 34.8949V34.8521C19.9467 34.5493 19.7189 34.3045 19.3321 34.1026C18.1227 33.4595 16.5247 32.7512 15.9379 32.9129C12.8813 33.7534 8.79564 33.9383 8.01764 35.9963Z" fill="#380D09"/>
<path fill-rule="evenodd" clip-rule="evenodd" d="M8.00069 31.3276V31.3705C7.99977 31.3562 7.99977 31.3419 8.00069 31.3276Z" fill="#555555"/>
<path fill-rule="evenodd" clip-rule="evenodd" d="M17.6743 24.1496C14.8642 24.9615 10.4062 25.4197 8.00427 25.4197V30.0065C8.00504 30.0222 8.011 30.0373 8.02124 30.0493C9.66031 30.0493 14.7204 29.5134 17.7735 28.6738C18.3059 28.5383 18.828 28.3648 19.3357 28.1548C19.7091 27.9869 19.9503 27.81 19.9503 27.626V23C19.9467 23.4359 18.8114 23.8218 17.6743 24.1496Z" fill="#DE3423"/>
<path fill-rule="evenodd" clip-rule="evenodd" d="M17.6743 30.0976C15.9924 30.5826 13.7227 30.9435 11.6549 31.1543C10.2668 31.2963 8.96985 31.3704 8.00427 31.3704V35.9536C8.00504 35.9693 8.011 35.9844 8.02124 35.9964C9.66031 35.9964 14.7204 35.4605 17.7735 34.6218C18.3058 34.4858 18.8279 34.3124 19.3357 34.1028C19.7091 33.934 19.9503 33.758 19.9503 33.574V28.948C19.9467 29.383 18.8114 29.7689 17.6743 30.0976Z" fill="#DE3423"/>
<path fill-rule="evenodd" clip-rule="evenodd" d="M17.6743 36.0493C15.9924 36.5343 13.7227 36.8943 11.6549 37.106C10.265 37.248 8.96625 37.3222 8.00067 37.3222V41.9446C9.62277 41.9446 14.7088 41.4131 17.7699 40.5699C18.898 40.2591 19.9467 39.9054 19.9467 39.5213V34.8953C19.9467 35.3347 18.8114 35.717 17.6743 36.0493Z" fill="#DE3423"/>
</svg>
