<svg width="64" height="64" viewBox="0 0 64 64" fill="none" xmlns="http://www.w3.org/2000/svg">
<path d="M44 26.6402V25.915C43.9773 25.3938 43.9547 24.8499 43.864 24.3286C43.7734 23.8074 43.6147 23.3088 43.3654 22.8329C43.1161 22.3569 42.8215 21.9263 42.4363 21.5637C42.051 21.1785 41.6204 20.8838 41.1671 20.6346C40.6912 20.3853 40.1926 20.2266 39.6714 20.136C39.1501 20.0453 38.6289 20 38.085 20H25.915C25.779 20 25.6431 20 25.5297 20.0227C25.1445 20.0453 24.7365 20.068 24.3513 20.136C23.966 20.204 23.5807 20.3173 23.2181 20.4533C23.1048 20.4986 22.9688 20.5666 22.8555 20.6119C22.4929 20.7932 22.1756 21.0198 21.8584 21.2691C21.7677 21.3598 21.6544 21.4504 21.5637 21.5411C21.1785 21.9263 20.8839 22.3569 20.6346 22.8102C20.3853 23.2861 20.2266 23.7847 20.136 24.3059C20.0453 24.8272 20.0227 25.3484 20 25.8924V38.0623C20.0227 38.5836 20.0453 39.1275 20.136 39.6487C20.2266 40.17 20.3853 40.6686 20.6346 41.1445C20.8839 41.6204 21.1785 42.051 21.5637 42.4136C21.949 42.7989 22.3796 43.0935 22.8329 43.3428C23.3088 43.5921 23.8074 43.7507 24.3286 43.8414C24.8499 43.932 25.3711 43.9773 25.915 43.9773H38.085C38.6062 43.9547 39.1501 43.932 39.6714 43.8414C40.1926 43.7507 40.6912 43.5921 41.1671 43.3428C41.6431 43.0935 42.0737 42.7989 42.4363 42.4136C42.8215 42.0283 43.1161 41.5977 43.3654 41.1445C43.6147 40.6686 43.7734 40.17 43.864 39.6487C43.9547 39.1275 44 38.6062 44 38.0623V37.3371V27.4788V26.6402Z" fill="#F05138"/>
<path d="M38.9915 34.8215L39.0595 34.5496C40.0567 30.5836 37.6317 25.8697 33.5071 23.3994C35.3201 25.847 36.1133 28.8158 35.4108 31.3994C35.3428 31.626 35.2748 31.8527 35.1841 32.0793C35.0935 32.0113 34.9802 31.9433 34.8215 31.8753C34.8215 31.8753 30.7196 29.3371 26.2776 24.8725C26.1643 24.7592 28.6572 28.4306 31.4674 31.3994C30.1303 30.6515 26.4363 27.9547 24.0793 25.8243C24.3739 26.3003 24.7139 26.7762 25.0765 27.2068C27.0255 29.6997 29.5864 32.7592 32.6459 35.1161C30.4929 36.4306 27.4561 36.5439 24.4419 35.1161C23.6941 34.7762 22.9915 34.3456 22.3343 33.8697C23.6034 35.9093 25.5751 37.677 27.9773 38.7195C30.8329 39.9433 33.6884 39.8753 35.796 38.7422C35.796 38.7422 35.8187 38.7422 35.8187 38.7195C35.9094 38.6742 36 38.6062 36.0907 38.5609C37.1105 38.0396 39.1048 37.5184 40.1926 39.6034C40.5099 40.0793 41.0765 37.3598 38.9915 34.8215Z" fill="white"/>
</svg>
