<svg width="234" height="162" viewBox="0 0 234 162" fill="none" xmlns="http://www.w3.org/2000/svg"><path d="M174.68 56.344h25.82c14.912 0 27-12.165 27-27.172C227.5 14.165 215.412 2 200.5 2s-27 12.165-27 27.172a27.172 27.172 0 007.104 18.37M145.5 76.471c0-11.116 8.954-20.127 20-20.127M102.5 121.758h-73c-14.912 0-27-12.165-27-27.172 0-15.007 12.088-27.172 27-27.172s27 12.165 27 27.172a27.167 27.167 0 01-7.104 18.369M67.047 121.758H52.5c-9.941 0-18 8.11-18 18.115 0 10.004 8.059 18.114 18 18.114s18-8.11 18-18.114c0-2.395-.462-4.681-1.3-6.773" stroke="#C2B7E6" stroke-width="4" stroke-linecap="round"/><g clip-path="url(#clip0)" fill="#FC6D26"><path d="M56.019 134.3a1 1 0 10-1.932-.52l-3.106 11.665a1.006 1.006 0 00.707 1.232.999.999 0 001.225-.712l3.106-11.665zM50.207 136.142a1.01 1.01 0 010 1.423l-2.293 2.308 2.293 2.307a1.01 1.01 0 010 1.423.994.994 0 01-1.414 0l-3-3.019a1.01 1.01 0 010-1.423l3-3.019a.994.994 0 011.414 0zM56.793 136.142a1.01 1.01 0 000 1.423l2.293 2.308-2.293 2.307a1.01 1.01 0 000 1.423.994.994 0 001.414 0l3-3.019a1.01 1.01 0 000-1.423l-3-3.019a.994.994 0 00-1.414 0z"/></g><path d="M212.102 160c10.713 0 19.398-8.786 19.398-19.624 0-10.839-8.685-19.624-19.398-19.624H151.5" stroke="#C2B7E6" stroke-width="4" stroke-linecap="round"/><path d="M126.5 138.866c-19.329 0-35-15.77-35-35.223 0-19.452 15.671-35.223 35-35.223s35 15.771 35 35.223c0 19.453-15.671 35.223-35 35.223zm0-7.415c15.26 0 27.632-12.45 27.632-27.808 0-15.357-12.372-27.807-27.632-27.807-15.26 0-27.632 12.45-27.632 27.807 0 15.358 12.372 27.808 27.632 27.808z" fill="#FC6D26"/><path fill-rule="evenodd" clip-rule="evenodd" d="M126.126 87.133c9.229 0 16.78 7.43 16.78 16.51 0 9.081-7.551 16.511-16.78 16.511-5.454 0-10.488-2.889-13.845-7.017l13.845-9.494v-16.51z" fill="#6E49CB"/><g clip-path="url(#clip1)" fill="#FC6D26"><path d="M29.5 90.266l-5.143 1.687v1.21c0 1.8.73 3.524 2.028 4.792l3.115 3.042V90.266z"/><path fill-rule="evenodd" clip-rule="evenodd" d="M17.5 86.89l12-3.374 12 3.375v6.22c0 3.581-1.445 7.015-4.017 9.546l-7.983 7.859-7.983-7.859a13.392 13.392 0 01-4.017-9.545V86.89zm3.429 6.222v-3.675l8.571-2.411 8.571 2.41v3.675c0 2.686-1.083 5.261-3.012 7.16l-5.559 5.472-5.559-5.472a10.045 10.045 0 01-3.012-7.16z"/></g><g clip-path="url(#clip2)"><path d="M210.857 19.73l-1.347 5.094a9.055 9.055 0 01-3.929 5.351L194.728 37l-2.866-2.885 6.78-10.922a9.005 9.005 0 015.318-3.954l5.062-1.355c.8-.215 1.622.264 1.835 1.07.068.254.068.522 0 .777zm-3.565 1.74l-2.56.686a6.001 6.001 0 00-3.545 2.636l-4.67 7.523 7.475-4.7a6.037 6.037 0 002.619-3.568l.681-2.577zM196.5 38.23l7.5-4.53v1.51c0 3.335-2.686 6.038-6 6.038h-1.5V38.23zm-6-6.039h-3v-1.51c0-3.334 2.686-6.038 6-6.038h1.5l-4.5 7.548z" fill="#FC6D26"/></g><defs><clipPath id="clip0"><path fill="#fff" transform="translate(45.5 133.033)" d="M0 0h16v13.678H0z"/></clipPath><clipPath id="clip1"><path fill="#fff" transform="translate(17.5 83.516)" d="M0 0h24v27.172H0z"/></clipPath><clipPath id="clip2"><path fill="#fff" transform="translate(187.5 17.096)" d="M0 0h24v24.153H0z"/></clipPath></defs></svg>