<svg width="64" height="64" viewBox="0 0 64 64" fill="none" xmlns="http://www.w3.org/2000/svg"><path d="M27.37 18a.83.83 0 00-.394.102.833.833 0 00-.322 1.126l.895 1.617c-2.157 1.334-3.587 3.614-3.587 6.216v.483a2.25 2.25 0 00-1.703-.777A2.26 2.26 0 0020 29.025v6.958a2.26 2.26 0 002.259 2.26c.68 0 1.29-.302 1.703-.778v.974a2.396 2.396 0 002.39 2.39h.606v3.095a2.26 2.26 0 004.518 0v-3.096h1.048v3.096a2.26 2.26 0 004.518 0v-3.096h.606a2.396 2.396 0 002.39-2.389v-.974a2.25 2.25 0 001.703.777A2.26 2.26 0 0044 35.983v-6.958a2.26 2.26 0 00-2.259-2.258c-.68 0-1.29.3-1.703.777v-.401-.023-.06c0-2.6-1.433-4.878-3.59-6.213l.898-1.62a.833.833 0 00-.322-1.125.83.83 0 00-1.126.323l-.938 1.696a8.538 8.538 0 00-2.96-.525 8.555 8.555 0 00-2.96.522l-.938-1.693A.828.828 0 0027.37 18z" fill="#fff"/><path d="M22.259 27.355c-.93 0-1.67.74-1.67 1.67v6.958c0 .93.74 1.67 1.67 1.67.93 0 1.67-.74 1.67-1.67v-6.958c0-.93-.74-1.67-1.67-1.67zm19.482 0c-.93 0-1.67.74-1.67 1.67v6.958c0 .93.74 1.67 1.67 1.67.93 0 1.67-.74 1.67-1.67v-6.958c0-.93-.74-1.67-1.67-1.67zM29.217 35.295c-.93 0-1.67.74-1.67 1.67v6.959c0 .93.74 1.67 1.67 1.67.93 0 1.67-.74 1.67-1.67v-6.958c0-.93-.74-1.67-1.67-1.67zm5.566 0c-.93 0-1.67.74-1.67 1.67v6.959c0 .93.74 1.67 1.67 1.67.93 0 1.67-.74 1.67-1.67v-6.958c0-.93-.74-1.67-1.67-1.67z" fill="#A4C639"/><path d="M27.375 18.588c-.04 0-.076.011-.113.031a.23.23 0 00-.092.322l1.177 2.126c-2.264 1.178-3.793 3.417-3.796 5.986h14.898c-.003-2.57-1.532-4.808-3.796-5.986l1.177-2.126a.23.23 0 00-.092-.322.234.234 0 00-.322.092l-1.193 2.149A7.94 7.94 0 0032 20.185a7.94 7.94 0 00-3.223.675l-1.192-2.149a.234.234 0 00-.21-.123zm-2.824 9.053V38.44c0 .998.803 1.801 1.8 1.801h11.297c.998 0 1.801-.803 1.801-1.8V27.641H24.551z" fill="#A4C639"/><path d="M28.562 23.083a.626.626 0 00-.622.622c0 .34.282.621.622.621s.622-.281.622-.621a.626.626 0 00-.622-.622zm6.876 0a.626.626 0 00-.622.622c0 .34.282.621.622.621s.622-.281.622-.621a.626.626 0 00-.622-.622z" fill="#fff"/></svg>