<svg width="64" height="64" viewBox="0 0 64 64" fill="none" xmlns="http://www.w3.org/2000/svg"><path d="M32.22 47.56c8.715 0 15.78-7.064 15.78-15.78C48 23.065 40.935 16 32.22 16c-8.716 0-15.78 7.065-15.78 15.78 0 8.716 7.064 15.78 15.78 15.78z" fill="#5C2D91"/><path opacity=".1" d="M21.282 20.438a15.78 15.78 0 1022.28 22.28l-22.28-22.28z" fill="#fff"/><path d="M20.088 36.342a.665.665 0 01-.493-.207.682.682 0 01-.202-.493.691.691 0 01.202-.494.661.661 0 01.493-.212.674.674 0 01.494.212.686.686 0 01.207.494.675.675 0 01-.207.493.681.681 0 01-.494.207zM29.887 36.218h-1.292l-4.62-7.17a2.992 2.992 0 01-.287-.562h-.04c.045.41.061.821.05 1.233v6.5h-1.05v-8.99h1.366l4.497 7.042c.188.292.31.493.365.601h.025a9.492 9.492 0 01-.064-1.321v-6.322h1.05v8.99zM36.998 36.218H32.22v-8.99h4.556v.952h-3.481v2.989h3.244v.947h-3.244v3.116h3.708l-.005.986zM44.055 28.18H41.44v8.038h-1.05V28.18h-2.584v-.951h6.248v.951z" fill="#fff"/></svg>