<svg width="64" height="64" viewBox="0 0 64 64" fill="none" xmlns="http://www.w3.org/2000/svg"><path fill-rule="evenodd" clip-rule="evenodd" d="M43.998 47.02h2V30.981C45.998 23.258 39.731 17 32 17c-7.715 0-14 6.26-14 13.981v16.04h2V30.98C20 24.37 25.382 19 32 19c6.628 0 12 5.363 12 11.981v16.04zM22.96 20.314a3.999 3.999 0 10-4.31 6.456c.204-.643.452-1.263.742-1.86a2.002 2.002 0 01.61-3.906c.612 0 1.16.276 1.528.708.444-.5.922-.966 1.434-1.398h-.004zm18.082-.004A3.999 3.999 0 0148 23.004a4.002 4.002 0 01-2.648 3.765 13.668 13.668 0 00-.74-1.861 2 2 0 10-2.136-3.198 13.91 13.91 0 00-1.434-1.398" fill="#000"/><path fill-rule="evenodd" clip-rule="evenodd" d="M27.451 31.081h3.114v.248c0 .566-.066 1.068-.2 1.504-.13.404-.35.782-.66 1.132-.7.788-1.59 1.182-2.67 1.182-1.054 0-1.958-.38-2.71-1.142a3.785 3.785 0 01-1.127-2.754c0-1.094.381-2.02 1.147-2.782.764-.764 1.696-1.148 2.792-1.148.59 0 1.14.12 1.65.362.488.24.968.632 1.44 1.172l-.81.776c-.618-.824-1.372-1.236-2.26-1.236-.798 0-1.466.276-2 .826-.54.54-.81 1.218-.81 2.03 0 .84.302 1.532.904 2.074.564.504 1.174.756 1.83.756.56 0 1.062-.188 1.508-.566.446-.38.694-.836.746-1.366h-1.88v-1.07l-.004.002zm5.772.12c0-1.06.388-1.972 1.166-2.734a3.838 3.838 0 012.792-1.142c1.074 0 1.995.384 2.764 1.152.771.768 1.155 1.69 1.155 2.768 0 1.084-.388 2-1.162 2.758-.778.758-1.715 1.138-2.815 1.138-.974 0-1.846-.336-2.622-1.01-.852-.746-1.28-1.722-1.28-2.93h.002zm1.146.014c0 .834.28 1.518.84 2.056.556.538 1.2.806 1.928.806.79 0 1.457-.274 2-.82.544-.554.816-1.226.816-2.02 0-.804-.269-1.478-.806-2.02-.535-.546-1.194-.82-1.982-.82-.784 0-1.446.274-1.986.82-.54.54-.81 1.208-.81 2v-.002zM34 39.053c1.05.052 1.624.126 1.624.126.542.05.648-.192.232-.546 0 0-1.55-1.626-3.866-1.626-2.318 0-3.846 1.626-3.846 1.626-.422.348-.306.6.24.546 0 0 .572-.074 1.62-.126v.954c0 .536.448 1 1 1 .536 0 1-.446 1-.996v-.504.5c0 .536.448 1 1 1 .536 0 1-.446 1-.996v-.956L34 39.053zm-1.996-2.044c1.104 0 2-.448 2-1s-.896-1-2-1-2 .448-2 1 .896 1 2 1z" fill="#000"/></svg>