<svg width="64" height="64" viewBox="0 0 64 64" fill="none" xmlns="http://www.w3.org/2000/svg"><path d="M44 26.64v-.725c-.023-.521-.045-1.065-.136-1.586a5.056 5.056 0 00-.499-1.496c-.249-.476-.544-.907-.929-1.27a5.529 5.529 0 00-1.269-.928 5.056 5.056 0 00-1.496-.499A9.172 9.172 0 0038.085 20h-12.17c-.136 0-.272 0-.385.023-.386.022-.794.045-1.179.113a6.46 6.46 0 00-1.133.317c-.113.046-.25.114-.363.159a5.83 5.83 0 00-.997.657c-.09.09-.204.181-.294.272-.386.385-.68.816-.93 1.27-.249.475-.407.974-.498 1.495-.09.521-.113 1.042-.136 1.586v12.17c.023.522.045 1.066.136 1.587.09.521.25 1.02.499 1.495.249.476.543.907.929 1.27.385.385.816.68 1.269.929.476.25.974.408 1.496.498.52.091 1.042.136 1.586.136h12.17c.521-.022 1.065-.045 1.586-.136.522-.09 1.02-.249 1.496-.498.476-.25.907-.544 1.27-.93.385-.385.68-.815.928-1.268.25-.476.408-.975.499-1.496.09-.522.136-1.043.136-1.587V26.64z" fill="#F05138"/><path d="M38.992 34.822l.068-.272c.997-3.966-1.428-8.68-5.553-11.15 1.813 2.447 2.606 5.416 1.904 8-.068.226-.136.453-.227.68a1.715 1.715 0 00-.362-.205s-4.102-2.538-8.544-7.003c-.114-.113 2.38 3.559 5.19 6.527-1.338-.748-5.032-3.444-7.389-5.575.295.476.635.952.997 1.383 1.95 2.493 4.51 5.552 7.57 7.91-2.153 1.314-5.19 1.427-8.204 0-.748-.34-1.45-.771-2.108-1.247a12.621 12.621 0 005.643 4.85c2.856 1.223 5.711 1.155 7.819.022 0 0 .023 0 .023-.023.09-.045.181-.113.272-.158 1.02-.521 3.014-1.043 4.102 1.042.317.476.884-2.243-1.201-4.782z" fill="#fff"/></svg>